<?xml version="1.0" standalone="no"?>
<!DOCTYPE svg PUBLIC "-//W3C//DTD SVG 20010904//EN"
 "http://www.w3.org/TR/2001/REC-SVG-20010904/DTD/svg10.dtd">
<svg version="1.0" xmlns="http://www.w3.org/2000/svg"
 width="789.000000pt" height="789.000000pt" viewBox="0 0 789.000000 789.000000"
 preserveAspectRatio="xMidYMid meet">
<metadata>
Created by potrace 1.14, written by Peter Selinger 2001-2017
</metadata>
<g transform="translate(0.000000,789.000000) scale(0.100000,-0.100000)"
fill="#000000" stroke="none">
<path d="M3565 7865 c-238 -31 -293 -41 -505 -91 -424 -101 -923 -331 -1294
-598 -322 -230 -627 -526 -857 -832 -392 -518 -624 -1066 -739 -1744 -53 -314
-53 -869 1 -1187 43 -257 126 -583 187 -733 6 -14 27 -68 48 -120 410 -1044
1312 -1889 2389 -2242 404 -132 776 -190 1215 -190 441 0 809 58 1215 190 812
266 1548 825 2015 1532 34 52 70 106 79 120 70 102 235 431 297 594 19 50 40
102 46 116 41 99 124 400 157 565 59 300 74 490 68 830 -6 330 -14 409 -69
695 -78 407 -248 852 -461 1210 -181 304 -379 553 -643 810 -395 384 -823 658
-1334 853 -227 86 -436 142 -735 196 -307 56 -759 67 -1080 26z m760 -370
c248 -23 416 -54 650 -120 89 -25 262 -85 324 -112 29 -12 57 -23 62 -23 16 0
266 -124 379 -188 346 -196 657 -452 929 -767 110 -127 160 -192 252 -332 125
-190 146 -226 233 -405 119 -242 206 -480 260 -712 79 -336 90 -437 90 -826 0
-351 -4 -402 -55 -670 -55 -288 -161 -604 -291 -867 l-52 -106 -121 7 c-265
13 -492 -28 -628 -114 -26 -16 -88 -68 -139 -115 -127 -120 -210 -174 -331
-218 -51 -18 -83 -22 -177 -22 -141 0 -184 14 -290 95 -215 163 -457 306 -700
413 -99 43 -314 106 -365 107 -53 1 -60 11 -46 67 53 203 168 417 321 598 160
188 462 433 559 454 66 14 136 -1 190 -40 48 -34 67 -35 238 -15 65 8 144 17
175 20 l57 4 -6 -45 c-6 -45 -6 -46 18 -38 13 4 61 10 105 12 96 6 118 -3 210
-83 81 -71 118 -139 112 -205 -3 -27 -3 -49 0 -49 2 0 20 9 38 21 30 18 34 26
34 63 0 57 -50 157 -98 194 -20 16 -68 46 -107 68 -38 21 -97 55 -129 76 l-59
38 -126 0 c-246 1 -335 15 -458 72 -60 27 -79 31 -158 32 -82 0 -95 -2 -147
-30 l-56 -31 5 36 c11 80 25 139 36 156 11 14 33 17 142 18 81 1 130 6 132 13
2 6 -43 20 -114 34 -164 32 -158 28 -126 69 53 68 132 84 279 56 45 -8 124
-13 184 -12 129 3 147 -5 262 -112 46 -43 117 -100 158 -126 l75 -49 110 2
c61 1 136 7 167 12 100 18 125 -1 143 -107 5 -30 16 -50 37 -68 25 -22 68 -34
68 -20 0 2 -32 66 -71 140 -39 75 -69 139 -66 142 19 19 145 93 158 93 9 0 36
-7 59 -15 23 -8 46 -15 50 -15 11 0 80 109 72 114 -4 2 -20 6 -35 10 -24 6
-28 11 -23 34 15 82 16 102 7 102 -6 0 -16 -20 -22 -45 l-11 -45 -68 0 -67 0
-9 -52 c-8 -44 -14 -55 -43 -72 -100 -58 -290 -60 -429 -4 -29 11 -33 17 -27
38 3 14 8 45 11 70 5 40 3 50 -21 78 -23 27 -75 52 -112 52 -8 0 -13 -20 -15
-54 l-3 -55 -55 18 c-219 71 -241 79 -285 103 -51 27 -68 52 -60 90 6 27 31
92 41 106 1 2 74 -33 162 -77 l159 -80 6 59 c4 33 4 66 1 74 -10 26 -53 47
-116 57 -78 13 -80 14 -66 47 12 28 109 161 160 220 24 28 88 142 88 157 0 17
-20 -1 -45 -42 l-30 -46 -7 39 c-4 21 -7 60 -7 87 -1 33 -5 47 -15 47 -9 0
-15 -21 -20 -70 -4 -38 -10 -71 -14 -74 -4 -2 -36 13 -72 35 -77 46 -93 49
-58 12 49 -53 88 -116 88 -143 0 -15 -10 -36 -24 -50 l-25 -23 -6 29 c-12 55
-20 74 -30 76 -5 1 -32 -31 -59 -72 -61 -90 -188 -234 -242 -275 -55 -43 -309
-115 -401 -115 -48 0 -101 -30 -119 -68 -15 -33 -16 -46 -4 -142 9 -77 9 -116
2 -144 -17 -59 -151 -279 -263 -429 -29 -38 -44 -48 -94 -63 -117 -34 -177
-78 -252 -187 l-56 -79 -15 28 c-20 39 -19 142 3 184 24 47 43 64 100 93 28
14 86 57 130 96 96 86 150 115 205 109 22 -2 40 -1 40 2 0 3 -17 23 -38 43
l-38 37 -88 -60 c-130 -89 -219 -140 -244 -140 -14 0 -27 9 -33 24 -9 20 -5
37 32 112 55 113 94 178 136 231 28 35 46 46 100 63 36 11 67 19 68 18 1 -2
12 -31 25 -65 18 -47 30 -63 44 -63 10 0 38 -18 62 -40 47 -43 57 -46 93 -26
l25 14 -31 15 c-36 19 -115 106 -107 118 3 5 14 9 26 9 40 0 128 76 128 111 0
23 -69 94 -100 104 -19 6 -18 12 26 93 88 162 102 186 112 190 5 1 27 -9 47
-23 91 -61 163 -58 232 11 25 25 42 48 39 51 -3 3 -30 -11 -61 -32 -59 -39
-111 -49 -138 -26 -13 11 -5 18 56 49 61 32 77 45 104 91 18 30 34 59 36 64 3
10 112 -49 149 -81 9 -8 22 -12 28 -10 6 2 -21 35 -59 73 -81 80 -85 97 -45
169 15 26 24 50 20 53 -17 17 -146 -172 -146 -215 0 -23 -67 -73 -122 -91 -75
-25 -77 -25 -107 -2 l-23 18 45 26 c62 37 107 93 107 134 0 18 -10 55 -22 81
l-23 47 -8 -65 c-10 -82 -30 -128 -60 -139 -21 -8 -113 2 -125 14 -2 2 13 22
34 45 90 94 144 218 144 331 0 44 5 68 17 81 15 17 15 18 -4 18 -38 0 -65 -43
-73 -117 -9 -82 -26 -147 -48 -182 -46 -75 -111 -118 -192 -128 -55 -6 -147 5
-134 16 5 5 56 33 113 62 99 51 181 113 181 137 0 6 -8 18 -17 27 -15 16 -18
14 -38 -19 -31 -52 -53 -65 -106 -66 -57 0 -66 9 -149 160 -34 63 -74 134 -87
157 -23 41 -24 43 -6 49 31 12 63 47 63 70 0 13 -20 62 -45 110 -25 47 -45 93
-45 102 0 9 11 28 25 42 l25 26 -26 32 c-43 51 -58 43 -50 -25 3 -32 9 -112
12 -179 l7 -121 -27 -7 c-15 -4 -46 -1 -69 5 -60 16 -183 79 -225 114 l-35 31
49 36 c27 19 64 43 82 52 40 21 42 37 2 30 -26 -6 -30 -4 -30 15 0 31 -18 26
-54 -16 l-33 -36 -42 55 c-37 49 -41 60 -39 105 3 62 -39 154 -77 171 -43 20
-113 15 -125 -7 -5 -11 -10 -24 -10 -30 0 -9 89 -56 154 -81 27 -10 33 -33 42
-167 4 -57 3 -94 -2 -91 -5 4 -52 23 -104 43 -52 20 -117 45 -143 56 -27 11
-51 18 -54 15 -9 -9 29 -63 56 -79 14 -8 61 -24 103 -36 42 -11 91 -29 108
-40 l32 -19 -49 5 c-26 3 -82 8 -123 13 -80 9 -86 7 -113 -39 l-18 -31 28 -11
c15 -6 42 -15 58 -20 17 -4 53 -15 80 -23 109 -33 98 -34 90 14 l-7 43 38 -5
c113 -15 304 -126 399 -230 78 -86 144 -187 151 -228 12 -73 -63 -117 -181
-107 l-60 6 -90 -137 c-105 -159 -150 -238 -175 -307 -22 -60 -43 -190 -35
-216 9 -26 -3 -24 -58 11 -43 27 -47 33 -47 70 0 58 21 92 89 144 65 50 74 72
59 139 -18 79 17 170 76 202 40 22 48 40 14 30 -53 -16 -109 -49 -128 -76 -12
-15 -23 -52 -27 -81 -6 -61 -26 -98 -52 -98 -23 0 -118 67 -207 146 l-71 63
-6 77 c-6 64 -12 82 -37 114 -35 44 -46 85 -31 120 9 23 10 23 10 -12 1 -21 4
-38 9 -38 17 0 78 49 91 74 14 25 13 28 -20 62 l-34 35 22 17 c11 9 42 33 67
52 25 19 46 39 46 44 0 10 -34 3 -81 -17 l-35 -16 -58 46 c-68 54 -80 48 -71
-32 7 -58 8 -109 4 -295 -2 -121 0 -141 21 -194 26 -69 114 -161 253 -266 l82
-63 -41 -42 c-67 -69 -76 -142 -37 -279 10 -36 -56 15 -94 74 -20 30 -47 68
-60 84 -34 41 -55 96 -48 127 4 15 26 46 51 69 24 22 44 42 44 44 0 2 -19 0
-42 -4 -24 -5 -43 -8 -43 -7 0 18 -63 119 -83 134 -29 21 -139 50 -149 39 -8
-8 -7 -9 57 -35 75 -31 116 -65 123 -98 5 -25 -10 -183 -19 -192 -5 -6 -225
113 -260 142 -20 17 -34 37 -34 51 0 25 55 156 84 199 19 27 19 28 -4 52 -16
17 -20 28 -13 37 6 7 24 39 41 71 28 52 30 58 14 63 -92 29 -106 45 -139 149
l-18 60 -3 -53 c-2 -33 5 -80 17 -120 43 -145 36 -264 -24 -401 -41 -94 -45
-144 -12 -191 26 -39 130 -98 232 -131 39 -13 88 -34 110 -49 44 -28 101 -99
135 -167 l22 -45 -21 -29 c-29 -38 -39 -102 -28 -161 7 -36 22 -61 63 -107 67
-74 82 -115 90 -249 11 -175 -36 -420 -105 -555 -21 -41 -83 -126 -91 -127
-20 -1 -87 92 -135 185 -73 141 -87 165 -153 250 -62 79 -97 145 -107 196 -6
33 -1 42 72 135 44 54 90 117 103 139 34 59 81 105 106 105 13 0 26 4 29 10 7
11 -21 18 -83 22 l-43 3 -25 -65 c-14 -36 -31 -77 -37 -93 l-12 -27 -37 31
-38 30 0 -70 c0 -70 0 -71 -42 -112 -62 -60 -71 -63 -103 -31 -37 36 -65 98
-65 145 0 48 35 119 96 197 44 56 50 69 54 124 l5 61 50 17 c28 9 62 17 78 17
20 1 27 6 27 22 0 15 -5 19 -17 15 -10 -2 -45 -7 -79 -11 l-61 -7 -28 57 c-16
31 -33 59 -38 62 -5 3 -8 -32 -6 -83 5 -110 -10 -121 -58 -42 -46 77 -100 136
-144 158 -47 24 -129 53 -135 47 -13 -13 14 -36 74 -65 79 -38 132 -82 132
-112 0 -11 -7 -36 -14 -55 -21 -50 -51 -46 -185 20 -61 30 -114 55 -116 55 -3
0 5 -14 17 -30 12 -17 51 -45 85 -62 78 -38 87 -49 79 -92 -11 -57 -27 -61
-81 -19 -54 41 -53 43 -11 -70 l25 -68 -29 21 c-55 39 -117 118 -129 164 -11
46 -3 121 21 176 5 14 14 50 18 80 9 63 72 204 97 218 13 8 15 19 10 56 -8 55
3 59 32 11 29 -49 51 -47 44 4 -9 63 4 105 53 176 25 37 44 69 41 71 -2 2 -25
-12 -50 -31 l-47 -36 0 111 c0 119 -14 141 -26 42 -7 -63 -31 -117 -63 -146
-18 -16 -25 -17 -46 -8 -22 10 -25 18 -25 66 0 47 6 62 42 117 68 103 126 155
180 163 25 4 58 4 72 0 14 -3 26 -4 26 -1 0 8 -120 186 -129 191 -4 3 -6 -6
-3 -19 13 -70 -36 -155 -89 -155 -32 0 -69 31 -69 58 0 36 20 84 51 123 17 22
29 42 26 45 -6 6 -94 -43 -103 -57 -8 -13 -30 -11 -46 4 -51 48 -166 147 -172
147 -15 0 -3 -28 30 -70 36 -45 36 -45 12 -48 -13 -2 -56 1 -96 6 -39 4 -72 5
-72 1 0 -9 89 -43 180 -68 102 -29 110 -35 110 -84 0 -23 -4 -48 -9 -56 -14
-21 -65 -7 -144 41 -53 32 -79 41 -113 41 -39 0 -77 -16 -63 -26 2 -2 37 -15
78 -28 41 -14 76 -30 78 -36 2 -6 -23 -17 -59 -25 l-63 -15 30 -13 c17 -7 82
-15 145 -18 69 -3 118 -9 122 -16 16 -23 7 -70 -29 -154 -20 -48 -38 -89 -39
-91 -4 -4 -85 54 -168 121 -33 27 -70 48 -83 48 -12 0 -41 7 -64 17 -47 18
-69 57 -69 119 0 33 -13 58 -57 113 -2 3 -9 -1 -15 -7 -9 -9 -8 -16 4 -29 71
-81 63 -232 -16 -317 -15 -15 -25 -30 -24 -32 2 -2 37 19 77 46 76 52 112 61
154 38 37 -19 137 -99 137 -109 0 -5 -21 -39 -47 -75 l-48 -66 -32 68 c-48 99
-86 112 -162 53 -24 -19 -34 -20 -126 -14 -105 7 -134 18 -172 64 -18 20 -23
22 -23 9 0 -9 4 -20 10 -23 18 -11 10 -26 -22 -40 -85 -38 -83 -40 36 -37 157
5 247 -20 381 -107 l70 -46 -45 -6 c-25 -4 -116 -10 -203 -14 -87 -4 -160 -11
-162 -15 -3 -4 34 -17 82 -29 73 -19 101 -21 193 -15 88 5 112 4 141 -10 69
-33 89 -107 89 -336 l0 -159 -57 25 c-65 29 -112 46 -201 75 -91 29 -119 58
-142 147 -10 41 -21 76 -24 80 -15 14 -18 -12 -8 -70 6 -35 14 -86 17 -114 l6
-51 -92 -6 c-167 -12 -173 -11 -192 26 -9 17 -30 57 -47 87 -17 30 -40 72 -51
94 -20 38 -21 38 -35 17 -24 -33 -54 -131 -54 -172 0 -29 6 -42 26 -58 23 -18
41 -21 122 -21 112 0 352 -25 438 -45 33 -8 82 -15 108 -15 39 0 53 -5 77 -29
31 -32 37 -51 16 -51 -29 0 -233 31 -247 37 -8 4 -123 7 -255 8 l-240 2 -93
31 c-51 18 -103 39 -116 47 -38 25 -95 23 -117 -6 -10 -13 -21 -32 -25 -42 -7
-21 6 -39 13 -19 7 19 75 44 103 37 14 -3 46 -20 71 -37 l47 -32 -88 -42 c-98
-47 -127 -76 -134 -137 -9 -69 6 -192 24 -192 12 0 15 17 15 95 1 52 2 103 3
112 6 48 242 103 412 95 138 -6 200 -27 268 -93 45 -43 63 -54 89 -54 28 0 33
4 33 24 0 40 46 69 97 62 24 -3 51 -10 60 -15 10 -5 54 -26 98 -47 128 -61
222 -121 229 -147 15 -56 10 -59 -44 -32 -77 39 -120 33 -295 -43 l-70 -30
-31 19 c-34 21 -84 25 -114 9 -16 -8 -60 -69 -60 -82 0 -3 26 8 58 23 31 16
60 29 65 29 23 0 -12 -117 -51 -167 -41 -55 -17 -49 48 11 111 102 236 171
344 191 l39 7 -18 -29 c-10 -15 -31 -44 -47 -64 -15 -20 -28 -41 -28 -47 0 -5
39 10 87 34 48 24 90 44 94 44 3 0 9 -52 12 -116 10 -188 -7 -207 -235 -269
-88 -24 -150 -89 -172 -177 -10 -42 9 -33 39 17 44 77 128 124 247 140 108 14
176 106 203 276 3 20 15 45 26 55 19 17 21 17 56 -1 28 -15 43 -35 65 -82 96
-212 198 -599 198 -750 0 -97 -46 -265 -130 -483 -12 -30 -25 -66 -29 -80 -9
-30 -31 -29 -136 5 -138 46 -430 186 -570 274 -186 117 -380 197 -600 247
-109 24 -382 25 -473 1 -35 -9 -67 -17 -72 -17 -19 0 -146 295 -207 480 -67
206 -110 393 -150 650 -14 93 -17 179 -17 450 0 296 3 352 22 478 64 408 158
712 328 1060 87 179 108 215 233 405 292 442 712 833 1181 1099 113 64 363
188 379 188 5 0 33 11 62 23 142 62 394 138 587 176 341 68 681 87 1017 56z"/>
<path d="M3976 6105 c-27 -41 -22 -135 7 -135 17 0 47 57 47 88 0 15 -9 38
-18 50 l-18 24 -18 -27z"/>
<path d="M3702 5983 l3 -68 113 -3 c106 -3 112 -2 112 17 0 39 -41 71 -115 90
-38 10 -80 21 -93 25 -23 8 -23 7 -20 -61z"/>
<path d="M4255 5904 l-7 -76 -36 55 c-19 31 -50 64 -68 73 -31 17 -34 17 -73
-1 -23 -10 -41 -24 -41 -30 0 -39 168 -136 269 -155 94 -18 261 -5 261 20 0 5
-28 15 -62 23 -61 13 -63 15 -61 43 3 38 -5 74 -16 74 -5 0 -16 -19 -24 -42
-12 -39 -16 -43 -43 -39 -41 4 -41 4 -48 71 -6 49 -10 60 -25 60 -16 0 -20
-12 -26 -76z"/>
<path d="M3500 5943 c-45 -17 -60 -59 -44 -120 7 -25 36 -30 76 -14 13 6 49
17 81 26 31 8 57 20 57 26 0 6 -17 29 -39 50 -32 32 -45 39 -77 38 -22 0 -46
-3 -54 -6z"/>
<path d="M2970 5806 l0 -83 25 5 c23 4 25 9 25 61 0 31 3 66 6 79 6 19 3 22
-25 22 l-31 0 0 -84z"/>
<path d="M3267 5856 c-15 -23 -15 -24 58 -65 71 -41 95 -45 95 -17 0 13 -113
106 -129 106 -5 0 -16 -11 -24 -24z"/>
<path d="M4639 5863 c-5 -23 -7 -170 -3 -181 5 -16 71 59 86 97 12 33 5 47
-34 71 -35 21 -47 24 -49 13z"/>
<path d="M2806 5749 c-43 -34 -34 -56 28 -69 125 -26 149 -8 70 53 -55 43 -62
44 -98 16z"/>
<path d="M4818 5705 c-53 -13 -102 -25 -110 -27 -7 -3 32 -34 87 -70 111 -73
125 -74 151 -11 14 32 13 60 -2 116 -6 20 -3 20 -126 -8z"/>
<path d="M3048 5704 c-16 -8 -28 -17 -28 -21 0 -3 16 -23 35 -44 20 -22 35
-50 35 -64 0 -40 21 -73 53 -85 54 -19 59 -14 36 32 -18 36 -20 47 -10 78 16
53 14 64 -15 94 -30 29 -65 33 -106 10z"/>
<path d="M3383 5700 c-50 -30 -66 -62 -61 -120 3 -28 8 -53 11 -56 6 -6 95 23
109 35 8 7 -11 141 -21 153 -4 4 -21 -1 -38 -12z"/>
<path d="M2360 5674 c-76 -18 -86 -35 -81 -138 2 -45 15 -63 66 -90 27 -15 38
-17 47 -8 9 9 6 17 -10 35 -28 30 -28 40 7 113 35 74 45 104 34 103 -4 -1 -33
-7 -63 -15z"/>
<path d="M2070 5605 c0 -31 6 -40 61 -80 68 -50 74 -52 83 -28 12 31 -67 125
-116 137 -27 6 -28 4 -28 -29z"/>
<path d="M4640 5566 c0 -23 -3 -71 -6 -104 l-7 -61 104 39 c57 22 108 41 113
43 10 3 -178 127 -194 127 -5 0 -10 -20 -10 -44z"/>
<path d="M5406 5499 c-32 -25 -35 -73 -6 -129 21 -42 40 -59 41 -38 0 7 6 49
13 93 10 59 10 82 2 87 -16 11 -21 10 -50 -13z"/>
<path d="M3385 5493 c-42 -8 -42 -10 -20 -80 22 -66 37 -82 63 -65 10 7 10 22
-2 76 -7 37 -15 68 -17 70 -2 1 -13 1 -24 -1z"/>
<path d="M5978 5463 c-33 -38 -41 -89 -27 -176 7 -45 16 -86 20 -91 11 -13 68
93 75 140 4 31 0 54 -16 93 -25 56 -30 59 -52 34z"/>
<path d="M2139 5408 c-57 -53 -64 -73 -49 -143 l11 -55 30 21 c36 25 74 76 82
108 8 35 -3 111 -17 111 -6 0 -32 -19 -57 -42z"/>
<path d="M4829 5386 l-34 -66 31 -30 c43 -43 61 -33 69 38 13 108 12 117 -11
120 -17 2 -28 -10 -55 -62z"/>
<path d="M5184 5402 c-6 -4 -20 -28 -33 -54 -12 -25 -48 -72 -79 -103 l-57
-57 84 42 84 42 81 -16 c69 -12 83 -13 95 -1 12 12 4 24 -54 84 -65 68 -93 82
-121 63z"/>
<path d="M5497 5298 c-26 -11 -46 -26 -44 -32 6 -20 111 -76 192 -102 85 -28
305 -47 305 -27 0 16 -147 153 -165 153 -9 0 -37 -14 -61 -31 l-45 -31 -44 41
c-25 23 -49 41 -54 41 -5 0 -15 2 -23 5 -7 2 -35 -5 -61 -17z"/>
<path d="M3792 5240 c-78 -47 -78 -46 -62 -65 21 -25 101 -12 114 19 2 6 11
28 20 49 21 47 11 47 -72 -3z"/>
<path d="M3930 5228 c0 -50 29 -103 60 -113 26 -8 110 3 110 14 0 9 -154 141
-164 141 -3 0 -6 -19 -6 -42z"/>
<path d="M6063 5181 c-29 -8 -53 -19 -53 -23 0 -4 26 -34 58 -66 42 -44 67
-61 95 -66 39 -7 147 9 147 23 0 4 -31 40 -70 79 -77 80 -85 82 -177 53z"/>
<path d="M1583 5143 c-12 -2 -27 -11 -34 -19 -16 -20 -26 -163 -10 -165 6 -1
15 -2 21 -3 5 -1 34 35 64 79 70 104 61 128 -41 108z"/>
<path d="M1320 5092 c0 -32 31 -87 57 -100 32 -16 93 -22 93 -9 0 7 -16 36
-35 64 -24 36 -44 55 -63 59 -15 3 -33 7 -39 10 -8 2 -13 -7 -13 -24z"/>
<path d="M3005 5041 l-29 -20 64 -29 c60 -27 65 -28 68 -11 2 10 -3 31 -10 46
-17 35 -53 40 -93 14z"/>
<path d="M1402 4889 c-58 -29 -80 -73 -64 -126 20 -65 25 -69 63 -45 55 34 76
83 70 170 -1 28 -14 28 -69 1z"/>
<path d="M6757 4632 c-27 -30 -31 -76 -12 -153 l18 -71 28 56 c33 64 38 124
13 161 -19 30 -26 31 -47 7z"/>
<path d="M1306 4478 c-45 -91 -27 -162 50 -194 59 -25 71 -20 84 37 18 75 8
115 -42 166 -23 24 -48 43 -54 43 -7 0 -24 -23 -38 -52z"/>
<path d="M6541 4477 c-22 -17 -40 -34 -40 -37 -2 -20 29 -35 110 -56 87 -22
95 -23 107 -7 6 9 12 19 12 23 0 7 -98 83 -127 98 -18 10 -27 7 -62 -21z"/>
<path d="M2794 4446 c-18 -8 -34 -18 -37 -23 -7 -11 168 -75 177 -66 19 19 -8
55 -68 90 -26 15 -34 15 -72 -1z"/>
<path d="M6855 4425 c-46 -25 -50 -32 -31 -59 27 -41 91 -69 148 -64 27 3 51
8 54 11 8 7 -30 79 -54 100 -28 26 -81 31 -117 12z"/>
<path d="M6007 4410 c-22 -18 -77 -99 -77 -114 0 -14 68 -4 97 14 36 22 58 52
68 93 7 26 5 27 -28 27 -19 0 -45 -9 -60 -20z"/>
<path d="M6583 4335 c-40 -17 -52 -39 -60 -116 l-6 -61 30 16 c66 34 98 101
75 158 -6 14 -11 15 -39 3z"/>
<path d="M6337 4275 c-40 -14 -67 -32 -67 -46 0 -4 41 -33 91 -64 81 -50 93
-55 107 -42 13 14 11 22 -21 74 -53 86 -64 94 -110 78z"/>
<path d="M7008 4267 c-8 -8 -22 -55 -32 -103 -16 -84 -16 -89 0 -101 22 -16
38 -3 90 72 40 59 39 68 -14 118 -26 25 -31 26 -44 14z"/>
<path d="M1332 4181 c-29 -10 -66 -31 -82 -46 -30 -29 -68 -110 -57 -122 11
-11 85 16 116 42 16 14 53 52 81 85 l52 60 -29 0 c-15 -1 -52 -9 -81 -19z"/>
<path d="M7076 4034 c-38 -7 -70 -15 -72 -17 -7 -7 126 -67 148 -67 26 0 88
35 88 49 0 34 -79 51 -164 35z"/>
<path d="M6958 3950 c-49 -42 -64 -71 -71 -137 -6 -48 -4 -49 55 -31 60 18 78
48 78 129 0 37 -4 70 -9 73 -5 3 -29 -12 -53 -34z"/>
<path d="M6834 3702 c-21 -26 -54 -67 -74 -91 l-35 -44 67 6 c77 7 104 18 113
48 7 22 -12 116 -25 124 -4 3 -25 -17 -46 -43z"/>
<path d="M6792 3464 c36 -56 67 -76 122 -76 57 0 63 4 48 38 -14 30 -76 59
-145 69 l-49 8 24 -39z"/>
<path d="M5130 3464 c0 -30 14 -60 43 -91 23 -25 84 -31 131 -13 33 12 33 24
0 68 -31 40 -78 62 -134 62 -36 0 -40 -2 -40 -26z"/>
<path d="M5701 3440 l-74 -48 31 -16 c70 -36 121 -8 136 77 9 49 -1 48 -93
-13z"/>
<path d="M1651 3435 c-13 -27 -20 -53 -16 -65 6 -20 98 -74 107 -64 6 6 -55
174 -63 174 -3 0 -16 -20 -28 -45z"/>
<path d="M6668 3457 c-55 -25 -98 -82 -98 -130 0 -30 20 -39 70 -31 58 9 83
42 88 114 5 66 -3 72 -60 47z"/>
<path d="M5410 3395 c0 -14 54 -112 73 -132 30 -34 70 -30 115 11 20 19 35 36
32 39 -6 5 -208 87 -215 87 -3 0 -5 -2 -5 -5z"/>
<path d="M1313 3314 c-29 -31 -53 -62 -53 -69 0 -11 33 -23 109 -39 35 -7 73
16 125 77 25 30 46 57 46 59 0 10 -87 28 -132 28 -38 0 -47 -5 -95 -56z"/>
<path d="M5338 3294 c-42 -89 -46 -121 -20 -154 l18 -23 22 27 c26 34 35 93
25 170 l-8 60 -37 -80z"/>
<path d="M1105 3284 c-186 -50 -180 -48 -183 -75 -2 -20 7 -33 44 -62 26 -20
53 -37 61 -37 7 0 47 33 88 73 74 71 75 72 58 94 -17 20 -20 20 -68 7z"/>
<path d="M1621 3237 c-21 -29 -36 -55 -32 -59 16 -18 177 -68 217 -68 43 0 44
0 44 34 0 47 -23 70 -112 110 l-78 35 -39 -52z"/>
<path d="M1200 3153 c-6 -32 -13 -70 -16 -85 -7 -33 20 -131 40 -147 11 -10
19 -2 40 41 14 28 26 66 26 82 0 32 -50 149 -68 160 -6 4 -15 -17 -22 -51z"/>
<path d="M6010 3177 c0 -35 17 -78 42 -104 24 -26 89 -31 132 -12 21 10 23 15
15 38 -21 55 -65 85 -142 96 -46 7 -47 7 -47 -18z"/>
<path d="M6812 3128 c-73 -65 -78 -73 -63 -97 8 -12 19 -12 76 4 36 9 75 25
87 34 19 16 20 23 12 67 -6 32 -15 50 -25 52 -9 2 -48 -25 -87 -60z"/>
<path d="M6289 3074 c-11 -13 -3 -25 53 -81 l65 -65 40 20 c59 31 69 46 44 71
-12 12 -27 21 -34 21 -8 0 -41 11 -75 25 -72 29 -76 30 -93 9z"/>
<path d="M1867 3073 c-4 -3 -7 -27 -7 -53 0 -47 25 -90 53 -90 21 0 107 34
105 41 -5 13 -123 109 -134 109 -6 0 -14 -3 -17 -7z"/>
<path d="M1705 3010 l-59 -60 45 0 c54 0 73 13 93 61 11 27 12 39 4 47 -7 7
-15 12 -18 12 -3 0 -32 -27 -65 -60z"/>
<path d="M6209 3003 c-5 -15 -17 -53 -26 -85 -17 -62 -9 -88 27 -88 29 0 40
23 47 104 5 61 3 80 -8 87 -22 14 -29 11 -40 -18z"/>
<path d="M6751 2966 c-9 -10 1 -27 47 -76 51 -56 61 -62 85 -56 34 8 36 44 5
73 -23 20 -109 73 -120 73 -3 0 -11 -6 -17 -14z"/>
<path d="M6607 2956 c-49 -18 -64 -32 -88 -78 l-20 -38 26 -10 c46 -17 102
-12 130 13 26 22 51 98 40 118 -8 13 -43 11 -88 -5z"/>
<path d="M1823 2780 c8 -63 35 -94 83 -98 22 -2 50 1 64 6 22 8 19 12 -51 63
-109 81 -103 79 -96 29z"/>
<path d="M2036 2674 c10 -45 46 -103 66 -110 10 -3 34 4 54 17 43 26 40 29
-59 84 l-68 37 7 -28z"/>
</g>
</svg>
