<svg xmlns="http://www.w3.org/2000/svg" width="351" height="270" viewBox="0 0 351 270"><g transform="translate(-180.522 112.591)" opacity="0.8"><ellipse cx="175.5" cy="36.682" rx="175.5" ry="36.682" transform="translate(180.522 84.044)" fill="#00853b" opacity="0.1"/><g transform="translate(253.743 -112.591)"><path d="M1475.679-673.562s5.79,4.009,5.122,9.131-5.568,25.388-6.458,34.519-1.781,22.939-4.009,29.62-4.454,17.148-2.45,20.489a5.065,5.065,0,0,1,0,5.79s-3.786,3.341-2.672,5.122,15.589,4.009,15.589,4.009,22.048-2.45,26.5-1.782,22.939.891,26.057,0,4.677-1.114,4.009-4.9-.891-4.9-4.009-4.9-5.345-1.114-4.9-3.341-.445-29.174-1.782-33.183-6.681-29.62-6.236-33.406-2-14.031,0-18.039,12.471-8.24,14.253-7.795,12.249,4.9,15.144,4.009,11.135-10.022,14.253-11.581,9.131-4.231,9.131-4.231-5.568-3.786-6.681-2.45-4.9,8.686-10.467,10.022-8.686,4.231-12.917,4.231-11.135-6.013-14.7-6.013-9.8,3.118-9.8,3.118,5.568-10.022,11.8-8.908,17.148-2.45,17.148-2.45,3.118-1.559,5.79-2.672,10.69-7.349,10.69-7.349l-12.026-1.782-4.454,7.795a12.6,12.6,0,0,1-4.454,1.336c-2.45.223-3.341-6.9,0-7.349s-5.79,0-5.79,0,1.114,6.236-1.336,7.349-2.672-2-7.572,0-6.459,2.672-6.459,2.672,2.45-8.017,4.677-8.017,10.69-6.013,10.69-6.013l-4.009-3.563s-11.8,5.568-12.917,7.572-1.559,4.454-4.009,4.454-5.79,2-6.9,0-7.572-10.912-7.572-13.585-1.559-7.349-1.559-7.349l-5.568,3.341s4.009,6.681,7.126,9.131a8.7,8.7,0,0,1,3.341,8.463,11.643,11.643,0,0,1-4.9,8.017,47.319,47.319,0,0,0-5.568,4.231l-5.345-9.354s-3.786-8.463-4.9-13.14a75.521,75.521,0,0,0-3.786-10.69l-2,4.9s.445,10.913,2,11.581-4.471-4.105-6.458-7.572,4.454-8.908,4.454-8.908h-4.454a98.318,98.318,0,0,0-4.009,10.69c-.891,3.563,1.336,10.244,1.336,10.244l9.131,9.8s-10.69-4.454-12.917-6.9-5.345-13.14-5.345-13.14l2.672-10.69,5.122-8.24h-5.122s-2.45,12.917-4.009,15.589-2.227,13.14,0,15.144,4.009,6.458,4.009,6.458-14.306-9.785-14.083-13.349,1.054-17.263,1.054-17.263-1.447,12.127-1.893,14.131-5.568-7.572-5.568-7.572,1.559,11.581,4.231,13.585,5.122,7.127,8.685,8.017,7.795,4.232,12.694,4.232-5.512,2.961-12.694,1.9-13.523-3.719-16.035-6.135-4.677-17.594-4.677-17.594-3.786,8.685-2.227,13.585,9.8,12.026,15.589,14.03,34.674-3.077,33.789-3.341-16.589-4.659-16.589-4.659l-2.885-4.694,16.865,10.157h-9.145l-10.463,2.064-2.4.473" transform="translate(-1394.832 782.674)" fill="#707070" stroke="#707070" stroke-width="1"/><path d="M1519.453-725.491c.579,7.238-3.185,6.369,4.632,12.739s8.975,8.4,13.9,8.975,21.424-2.606,23.161,0-8.685,5.79,0,9.554,14.476,1.158,17.661,4.343,6.948,9.554,10.712,2.606-3.474-15.344,0-23.451-6.3-19.108-8.4-25.477-12.16-20.556-19.977-21.135-24.609.29-24.9-4.632-10.712-22.582-18.529-22.872-20.556-6.948-28.662-7.527-22.582,1.737-27.5,7.527-4.633,15.923-11.87,15.055-16.5-7.528-24.9-2.316-18.24,8.686-17.95,14.765-18.24,11-15.634,22.872-3.474,19.108,4.053,23.74,24.03,7.817,29.531,6.948,13.318-16.792,19.687-18.529,10.423-10.712,13.9-6.08,12.16,11.581,19.687,11.87,24.9-1.448,29.241-5.79S1519.453-725.491,1519.453-725.491Z" transform="translate(-1388.875 792.456)" fill="#00853b"/><path d="M1414.607-726.578c-14.476-2.9-26.346.29-26.056,8.107s9.554,8.685,12.739,15.055.29,11,8.686,9.844,5.211,7.238,13.607-5.5,8.4-19.977,6.08-22.293S1414.607-726.578,1414.607-726.578Z" transform="translate(-1388.545 783.555)" fill="#00853b"/><path d="M1414.607-726.578c-14.476-2.9-26.346.29-26.056,8.107s9.554,8.685,12.739,15.055.29,11,8.686,9.844,5.211,7.238,13.607-5.5,8.4-19.977,6.08-22.293S1414.607-726.578,1414.607-726.578Z" transform="translate(-1322.04 735.244)" fill="#00853b"/><path d="M1569.42-750.684c.29,0,6.948-4.922,10.422-1.737s7.817,6.659,5.5,7.817,10.133,1.448,15.634,5.5,12.739,3.185,6.659,7.817,7.817,5.5,5.211,11.87,7.238,14.765,4.633,14.765-9.265,3.764-9.844,3.764-38.216-47.191-38.216-47.191S1569.13-750.684,1569.42-750.684Z" transform="translate(-1413.365 787.106)" fill="#00853b"/><path d="M1569.42-750.684c.29,0,6.948-4.922,10.422-1.737s7.817,6.659,5.5,7.817,10.133,1.448,15.634,5.5,12.739,3.185,6.659,7.817,7.817,5.5,5.211,11.87,7.238,14.765,4.633,14.765-9.265,3.764-9.844,3.764-38.216-47.191-38.216-47.191S1569.13-750.684,1569.42-750.684Z" transform="translate(-1460.349 755.039)" fill="#00853b"/><path d="M.129,2.81c.29,0,6.948-4.922,10.423-1.737s7.817,6.659,5.5,7.817,10.133,1.448,15.634,5.5,12.739,3.185,6.659,7.817,7.817,5.5,5.211,11.87,7.238,14.765,4.632,14.765-9.265,3.764-9.844,3.764S.129,5.415.129,5.415-.161,2.81.129,2.81Z" transform="matrix(0.208, -0.978, 0.978, 0.208, 13.618, 51.928)" fill="#00853b"/><path d="M.129,2.81c.29,0,6.948-4.922,10.423-1.737s7.817,6.659,5.5,7.817,10.133,1.448,15.634,5.5,12.739,3.185,6.659,7.817,7.817,5.5,5.211,11.87,7.238,14.765,4.632,14.765-9.265,3.764-9.844,3.764S.129,5.415.129,5.415-.161,2.81.129,2.81Z" transform="translate(123.258 68.147) rotate(140)" fill="#00853b"/></g><g transform="translate(388.771 70.093)"><path d="M684.357,621.56s-2.445-8.3.457-14.412a13.112,13.112,0,0,0,1.059-8.226,22.044,22.044,0,0,0-1.181-3.863" transform="translate(-679.316 -593.659)" fill="none" stroke="#535461" stroke-miterlimit="10" stroke-width="2"/><path d="M685.674,582.413c0,1.016-1.843,3.969-1.843,3.969S682,583.429,682,582.413a1.843,1.843,0,1,1,3.686,0Z" transform="translate(-678.472 -580.57)" fill="#00853b"/><path d="M693.371,595.114c-.551.854-3.7,2.331-3.7,2.331s.059-3.477.61-4.331a1.843,1.843,0,1,1,3.091,2Z" transform="translate(-683.752 -588.484)" fill="#00853b"/><path d="M692,618.634c-.91.457-4.371.142-4.371.142s1.8-2.973,2.713-3.43A1.843,1.843,0,1,1,692,618.638Z" transform="translate(-682.513 -603.991)" fill="#00853b"/><path d="M687.714,637.422c-.819.606-4.284.878-4.284.878s1.276-3.237,2.095-3.839a1.843,1.843,0,0,1,2.189,2.961Z" transform="translate(-679.594 -617.076)" fill="#00853b"/><path d="M679.02,601.186c.728.709,4.131,1.445,4.131,1.445s-.831-3.378-1.575-4.087a1.843,1.843,0,0,0-2.567,2.642Z" transform="translate(-676.182 -592.394)" fill="#00853b"/><path d="M673.378,622.254c.91.457,4.371.142,4.371.142s-1.8-2.973-2.713-3.43a1.843,1.843,0,0,0-1.658,3.292Z" transform="translate(-672.077 -606.473)" fill="#00853b"/><path d="M672,644.262c.819.606,4.284.878,4.284.878s-1.276-3.237-2.095-3.839A1.843,1.843,0,0,0,672,644.262Z" transform="translate(-671.313 -621.766)" fill="#00853b"/></g><g transform="translate(287.477 111.82)"><g transform="translate(0 0)"><path d="M263.745,635s2.162,2.827-1,7.088-5.769,7.875-4.725,10.537c0,0,4.768-7.93,8.663-8.04S268.014,639.768,263.745,635Z" transform="translate(-249.513 -635)" fill="#00853b"/><path d="M236.42,635s-2.162,2.827,1,7.088,5.769,7.875,4.725,10.537c0,0-4.768-7.93-8.663-8.04S232.148,639.768,236.42,635Z" transform="translate(-231.562 -635)" fill="#00853b"/></g><g transform="translate(14.792 4.747)"><path d="M282.366,643.167c0,1-.11,1.8-.248,1.8s-.248-.788-.248-1.8.138-.528.276-.528S282.366,642.171,282.366,643.167Z" transform="translate(-280.336 -642.522)" fill="#ffd037"/><path d="M284,646.116c-.874.477-1.638.764-1.7.642s.591-.606,1.465-1.083.528-.13.595,0S284.879,645.655,284,646.116Z" transform="translate(-280.704 -644.35)" fill="#ffd037"/><path d="M233.69,643.167c0,1,.11,1.8.248,1.8s.248-.788.248-1.8-.138-.528-.276-.528S233.69,642.171,233.69,643.167Z" transform="translate(-231.781 -642.522)" fill="#ffd037"/><path d="M229.369,646.116c.874.477,1.638.764,1.7.642s-.591-.606-1.465-1.083-.528-.13-.595,0S228.511,645.655,229.369,646.116Z" transform="translate(-228.842 -644.35)" fill="#ffd037"/></g></g><g transform="translate(291.77 125.013)"><path d="M672.33,653.539s4.469-.894,5.658-2.087,6.552-3.276,7.151-1.788,8.044,6.552,2.977,7.446-11.915,1.181-13.388.594S672.33,653.539,672.33,653.539Z" transform="translate(-672.33 -649.148)" fill="#a8a8a8"/><path d="M688.15,663.3c-5.064.894-11.915,1.181-13.388.595-1.134-.453-1.922-2.634-2.233-3.646l-.15.032s.894,3.575,2.382,4.17,8.34.3,13.388-.595c1.461-.26,1.878-.862,1.721-1.63C689.745,662.715,689.237,663.1,688.15,663.3Z" transform="translate(-672.362 -656.078)" opacity="0.2"/></g><g transform="translate(378.309 88.465)"><path d="M860.5,710.955s13.557-2.713,17.176-6.328,19.885-9.942,21.692-5.422,24.413,19.885,9.056,22.6-36.155,3.615-40.675,1.807S860.5,710.955,860.5,710.955Z" transform="translate(-860.5 -697.637)" fill="#a8a8a8"/><path d="M908.408,740.481c-15.357,2.713-36.155,3.615-40.675,1.807-3.441-1.378-5.835-7.993-6.78-11.068l-.453.094s2.713,10.848,7.229,12.655,25.311.906,40.675-1.807c4.438-.788,5.705-2.623,5.225-4.946C913.255,738.733,911.708,739.9,908.408,740.481Z" transform="translate(-860.496 -717.996)" opacity="0.2"/></g><g transform="translate(371.813 111.819)"><path d="M235.44,673.817s6.048-.185,7.875-1.485,9.3-2.847,9.753-.768,9.088,10.352,2.26,10.407-15.864-1.063-17.684-2.174S235.44,673.817,235.44,673.817Z" transform="translate(-235.44 -670.548)" fill="#a8a8a8"/><path d="M255.447,686.272c-6.828.055-15.864-1.063-17.684-2.174-1.386-.843-1.937-3.871-2.122-5.268h-.2s.394,4.879,2.2,5.985,10.856,2.229,17.684,2.174c1.969,0,2.65-.717,2.615-1.756C257.668,685.866,256.923,686.26,255.447,686.272Z" transform="translate(-235.44 -675.693)" opacity="0.2"/></g><g transform="translate(383.066 115.378)"><path d="M1035.885,780.512a4.594,4.594,0,0,0,1.508-2.276,2.02,2.02,0,0,0-1.055-2.319c-.969-.37-2,.3-2.787.98s-1.686,1.453-2.713,1.307a4.126,4.126,0,0,0,1.276-3.863,1.615,1.615,0,0,0-.354-.788c-.539-.575-1.512-.327-2.157.126-2.048,1.441-2.619,4.221-2.63,6.725a12.908,12.908,0,0,1-.039-2.756,2.845,2.845,0,0,0-1.039-2.449,3.151,3.151,0,0,0-1.575-.374,3.279,3.279,0,0,0-2.575.732,2.533,2.533,0,0,0,.1,3.15,10.249,10.249,0,0,0,2.666,2.134,5.9,5.9,0,0,1,1.906,1.815,1.792,1.792,0,0,1,.142.323h5.769A16.069,16.069,0,0,0,1035.885,780.512Z" transform="translate(-1021.235 -773.22)" fill="#00853b"/></g><g transform="translate(180.522 5.388)"><g transform="translate(0 32.986)"><g transform="translate(106.221 31.7)"><path d="M355.7,475.4l.071,21.645h6.9V475.4Z" transform="translate(-355.7 -475.4)" fill="#929292"/><path d="M17687.252,10789.117v19.291l-3.395,2.285v-21.576Z" transform="translate(-17677.037 -10789.049)" fill="#838383"/></g><g transform="translate(121.938 32.125)"><path d="M355.7,475.4l.071,21.645h6.9V475.4Z" transform="translate(-355.7 -475.4)" fill="#929292"/><path d="M17687.252,10789.117v19.291l-3.395,2.285v-21.576Z" transform="translate(-17677.037 -10789.049)" fill="#838383"/></g><g transform="translate(12.769 76.939)"><path d="M355.7,475.4l.071,21.645h6.9V475.4Z" transform="translate(-355.7 -475.4)" fill="#929292"/><path d="M17686.621,10789.117v19.291l-2.764,2.285v-21.576Z" transform="translate(-17677.037 -10789.049)" fill="#838383"/></g><g transform="translate(28.486 77.364)"><path d="M355.7,475.4l.071,21.645h6.9V475.4Z" transform="translate(-355.7 -475.4)" fill="#929292"/><path d="M17686.621,10789.117v19.291l-2.764,2.285v-21.576Z" transform="translate(-17677.037 -10789.049)" fill="#838383"/></g><g transform="translate(0 0)"><path d="M0,22.564,29.006,35.479S50.714,22.14,82.688,22.26a209.51,209.51,0,0,1,59.4,9.424l2.177-5.98-21.806-7.937S82.562.949,48.569.023C35.754-.325,23.775,3.306,16.763,6.2c-11.534,4.762-14.5,10.135-14.5,10.135Z" transform="matrix(0.914, -0.407, 0.407, 0.914, 0, 58.679)" fill="#929292"/><path d="M17628.93,10757.657l32.156-.218v6.729h-32.156Z" transform="translate(-17620.252 -10684.875)" fill="#9f9f9f"/><path d="M.327,42.275S8.881,25.63,39.047,14.867,105.09.01,105.09.01c.156-.313,0,6.644,0,6.644S73.5,12.626,43.338,23.411,0,48.856,0,48.856Z" transform="matrix(0.998, -0.07, 0.07, 0.998, 37.437, 30.621)" fill="#838383"/></g></g><g transform="translate(85.637)"><path d="M258.383,242.459s.507.053,1.269.107c1.635.116,3.91,3.156,6.932,9.555l2.008,4.252s8.384-9.708,12.046-12.071l1.523,4.533-9.327,12.916a7.382,7.382,0,0,1-2.481,2.452c-2.312,1.354-4.766,1.092-6.243-1.306-2.31-3.752-5.131-9.5-5.463-11.132Z" transform="translate(-227.692 -221.036)" fill="#c08f8f"/><ellipse cx="4.726" cy="5.481" rx="4.726" ry="5.481" transform="translate(0 3.992)" fill="#766e6e"/><path d="M288.523,417.657s.17,4.622,12.284,7.637a.607.607,0,0,1,.467.483c.085.6-.742,1.557-7.639.817a42.84,42.84,0,0,0-10,.1h0a1.755,1.755,0,0,1-2.027-1.8l.041-6.3Z" transform="translate(-243.538 -324.982)" fill="#c08f8f"/><path d="M337.363,417.657s.17,4.622,12.284,7.637a.607.607,0,0,1,.467.483c.085.6-.742,1.557-7.639.817a42.836,42.836,0,0,0-10,.1h0a1.755,1.755,0,0,1-2.027-1.8l.041-6.3Z" transform="translate(-282.54 -326.859)" fill="#c08f8f"/><path d="M217.866,213.644c.713-.291,1.3-.495,1.825-.773,3.494-1.849,6.158-7.937,4.018-11.685a11.2,11.2,0,0,0-6.965-5.032,16.919,16.919,0,0,0-5.389,1,7.324,7.324,0,0,0-3.4,3.763,12.3,12.3,0,0,0-.792,4.97C206.905,207.682,209.433,216.65,217.866,213.644Z" transform="translate(-200.157 -196.153)" fill="#766e6e"/><path d="M254.593,312.822a13.625,13.625,0,0,0-7.138-6.082c-4.122-1.209-15.208-1.15-19.385-3.5,0,0-10.935.225-17.618-3.292,0,0-6.616,9.15-1.209,16.493,1.232,1.673,3.739,3.912,5.726,4.52,2.35.719,5.62.531,11.424.531,2.657,0,4.428.124,5.83,2.323.709,1.112,1.99,8.5-2.1,20.88-.079.239.361.648.417.673a28.24,28.24,0,0,0,10.514,1.961c6.147-.035,25.307-.876,24.962-2.791C263.576,331.023,254.593,312.822,254.593,312.822Z" transform="translate(-200.143 -251.93)" fill="#e8deae"/><path d="M219.308,230.27l.9,3.7a2.4,2.4,0,0,1-1.113,2.631l-4.319,2.545c-1.98,1.167.123,11.634.854,11.7,0,0,2.831,6.662-.738,11.659.145-.034,4.432,3.845,9.677,4.706a36.769,36.769,0,0,0,10.385-.257s5.1-13.808,2.725-20.788l-1.9-10.152s-8.883-.312-8.883-4.915Z" transform="translate(-203.813 -214.486)" fill="#c08f8f"/><path d="M204.565,249.523a12.09,12.09,0,0,0-4.072,5.393l-5.479,14.4s6.288,1.9,6.5,1.426c1.068-2.362,4.429-9.67,5.163-9.683Z" transform="translate(-193.639 -224.832)" fill="#43a16d"/><path d="M258.383,241.963s.507.053,1.269.108c1.635.117,3.91,3.188,6.932,9.652l2.008,4.3s2.776,7.308,1.76,7.909c-2.312,1.367-4.766,1.1-6.243-1.32-2.31-3.79-5.131-9.6-5.463-11.245Z" transform="translate(-227.692 -220.77)" fill="#43a16d"/><path d="M228.333,205.763c-1.954-4.228-5.88-6.574-8.769-5.239-2.23,1.03-3.19,3.952-2.614,7.176a.89.89,0,0,0-.753.066c-.6.4-.442,1.7.357,2.895a2.908,2.908,0,0,0,2.217,1.553c2.1,3.18,5.371,4.774,7.867,3.621C229.527,214.5,230.286,209.991,228.333,205.763Z" transform="translate(-204.827 -198.301)" fill="#c08f8f"/><path d="M217.436,262.935a45.773,45.773,0,0,1-.848-7.915c-.731-.066-.855-11.7-.855-11.7l4.32-2.545c.91-.538,4.738,5.544,6.462,5.217,1.8-.34,2.434-8.234,2.8-7.949.073.057.15.112.227.167,2.575,1.815,7.2,1.978,7.2,1.978l1.9,10.152c1.529,3.71.794,9.9.516,11.376-.036.192-.49.361-.685.38C235.765,262.358,217.68,264.107,217.436,262.935Z" transform="translate(-204.772 -218.659)" fill="#43a16d"/><path d="M219.211,263.038s10.231-23.655,13.706-23.055c0,0,2.848-.347,3.728.906s-.428,23.482-4.064,31.519c-3.018,6.671-18.488-3.323-18.488-3.323a2.684,2.684,0,0,1,.875-1.383A15.062,15.062,0,0,0,219.211,263.038Z" transform="translate(-203.892 -219.682)" fill="#e8deae"/><path d="M221.182,199.708c-.63.318-.878.917-1.375,2.115-.959,2.314-1.162,5.233-2.036,5.948a.626.626,0,0,1-.344.159c-.4.035-.673-.429-1.269-1.031-.45-.455-.613-.513-.872-.767a4.418,4.418,0,0,1-1.11-3.833,4.681,4.681,0,0,1,1.983-2.8,6.836,6.836,0,0,1,5-1.084,8.3,8.3,0,0,1,5.711,3.569C226.755,202.128,223.281,198.65,221.182,199.708Z" transform="translate(-203.895 -197.32)" fill="#766e6e"/><path d="M193.291,290.4a2.192,2.192,0,0,0,.9,2.641,7.212,7.212,0,0,0,3.448,1.118c4.92.295,13.108.094,17.536-1.64l-1.665-4.2-13.884-1.351A6.433,6.433,0,0,0,194,289.234,4.522,4.522,0,0,0,193.291,290.4Z" transform="translate(-192.638 -244.931)" fill="#c08f8f"/><path d="M238.832,290.22s2.091.822,5.307-1.558a1.65,1.65,0,0,0,.667-1.172l.123-1.336a1.63,1.63,0,0,0-1.35-1.757,3.009,3.009,0,0,0-.918.11c-1.151.5-.942.392-1.221.285,0,0,1.341-1.214,1.383-1.991s-4.69,1.69-5.656,3.217Z" transform="translate(-216.489 -242.636)" fill="#c08f8f"/><path d="M238.832,290.22s2.091.822,5.307-1.558a1.65,1.65,0,0,0,.667-1.172l.123-1.336a1.63,1.63,0,0,0-1.35-1.757,3.009,3.009,0,0,0-.918.11c-1.151.5-.942.392-1.221.285,0,0,1.341-1.214,1.383-1.991s-4.69,1.69-5.656,3.217Z" transform="translate(-184.675 -262.397)" fill="#c08f8f"/></g><g transform="translate(45.904 9.601)"><g transform="translate(1.701 39.689)"><g transform="translate(46.243 50.514)"><path d="M679.1,792.493a7.993,7.993,0,0,1-5.478-1.138,3.015,3.015,0,0,0-2.2-.416l.042,1.637-2.461-.072s-.123-1.623-.233-3.084a7.877,7.877,0,0,1,.277-1.847,8.858,8.858,0,0,1,.6-1.847c1.325.044,4.743.243,5.373-.515a4.826,4.826,0,0,0,.955,1.316c.128.129.262.257.4.381s.237.195.358.29c.154.123.312.243.48.363,1.679,1.185,3.769,2.094,4.926,2.936C683.94,791.837,681.447,792.156,679.1,792.493Z" transform="translate(-668.748 -785.21)" fill="#c28c76"/><path d="M669.614,788.34h0a9.984,9.984,0,0,0-.876,3.683c.027.336.05.625.072.86.866.015,1.88-.057,1.481-.529-.662-.783-.128-4-.128-4Z" transform="translate(-668.727 -787.815)" fill="#65554f"/><path d="M717.577,808.069a2.839,2.839,0,0,0-.371-.319c-.764-.557-1.941-1.145-3.134-1.82a4.909,4.909,0,0,0-2.421,1.545c-.547.671-.591,1.756-.74,1.941.608.611,6.789-.168,6.907-.779v-.02A.84.84,0,0,0,717.577,808.069Z" transform="translate(-703.827 -802.451)" fill="#65554f"/><path d="M679.07,811.682c1.887-.272,3.861-.53,3.631-1.31-5.786,2.015-8.364-.077-8.863-.73a2.078,2.078,0,0,0-1.555-.616,5.013,5.013,0,0,1-3.564-.755,2.443,2.443,0,0,0,.015.336c.111,1.461.232,3.084.232,3.084l2.463.072-.042-1.637a2.276,2.276,0,0,1,2.078.873C674.054,811.8,676.72,812.021,679.07,811.682Z" transform="translate(-668.72 -804.399)" fill="#65554f"/><path d="M697,788.34a4.476,4.476,0,0,0,.854,1.237,8.312,8.312,0,0,0,1.11,1.007,10.244,10.244,0,0,0,1.246.821c.218.121.442.232.672.336a7.089,7.089,0,0,0,.7.277c-.181-.168-.374-.336-.566-.487s-.383-.31-.577-.458c-.383-.307-.774-.594-1.158-.893s-.767-.592-1.148-.895S697.364,788.683,697,788.34Z" transform="translate(-692.252 -787.815)" fill="#65554f"/></g><g transform="translate(33.62 58.985) rotate(-34)"><path d="M8.979,11.521A8.549,8.549,0,0,1,4.648,7.37,4.105,4.105,0,0,0,2.934,5.519L2.2,6.7,0,5.231s.6-.994,1.336-2.385a8.027,8.027,0,0,1,1.3-1.514A9.661,9.661,0,0,1,4.228,0C5.408.794,8.4,2.922,9.4,2.585a5.143,5.143,0,0,0,.121,1.739c.04.191.092.383.146.574.05.158.1.311.158.468.072.2.146.4.23.6C10.9,8,12.289,10.016,12.86,11.44,13.755,13.679,11.308,12.554,8.979,11.521Z" transform="translate(0 0)" fill="#c28c76"/><path d="M3.316,0h0A10.7,10.7,0,0,0,.425,2.848c-.18.326-.311.6-.425.823.779.508,1.743,1.017,1.647.36C1.491,2.95,3.807.322,3.807.322Z" transform="translate(0.913 0)" fill="#65554f"/><path d="M6.826,4.155a3.146,3.146,0,0,0-.157-.5C6.291,2.711,5.557,1.508,4.857.216a5.287,5.287,0,0,0-3.08.027C.9.54.239,1.5,0,1.586c.205.9,6.263,3.712,6.72,3.22l.016-.016A.923.923,0,0,0,6.826,4.155Z" transform="translate(6.192 7.787)" fill="#65554f"/><path d="M8.979,8.984c1.87.828,3.814,1.716,4.047.877C6.623,8.4,5.465,5.031,5.384,4.155a2.214,2.214,0,0,0-1.06-1.44A5.369,5.369,0,0,1,1.516,0c-.063.106-.124.212-.18.317C.6,1.708,0,2.7,0,2.7L2.2,4.166l.738-1.177A4.116,4.116,0,0,1,4.646,4.839,8.549,8.549,0,0,0,8.979,8.984Z" transform="translate(0 2.536)" fill="#65554f"/><path d="M.036,0A4.831,4.831,0,0,0,.108,1.609,8.983,8.983,0,0,0,.544,3.157a11.065,11.065,0,0,0,.664,1.456c.13.234.27.461.41.688a5.709,5.709,0,0,0,.477.648c-.067-.263-.153-.515-.238-.765s-.18-.5-.265-.745c-.18-.5-.36-.981-.54-1.471S.693,1.995.513,1.5.175.518.036,0Z" transform="translate(7.695 2.193)" fill="#65554f"/></g><path d="M40.58,17.533s2.361,11.529,2.479,14.462c.031.763,1.207,6.284-1.421,8.374C35.154,45.524,14.859,53.58,12.974,52.6s-2.836-5.334-2.836-5.334a43.4,43.4,0,0,1,4.25-2.26c6.324-3.052,16.2-7.98,16.471-12.042l-.281-7.533s-.7,9.389-1.407,10.485S4.349,48.091,4.349,48.091s-5.675-7.307-4.059-8.6S11.3,32.658,17.1,27.417c.027-7.264.24-7.764.264-15.027-1.3-3.282,1.449-7.23,1.449-7.23S22.081-.273,32.358.011Z" transform="matrix(0.469, -0.883, 0.883, 0.469, 0, 38.274)" fill="#a8a8a8"/></g><g transform="translate(16.68 0)"><circle cx="6.006" cy="6.006" r="6.006" transform="translate(0 7.185)" fill="#abbcca"/><path d="M637.82,302.653c-7.213,1.683-8.915-2.029-9.117-5.155s.988-8.355,5.53-10.053S652.5,299.234,637.82,302.653Z" transform="translate(-624.541 -286.225)" fill="#abbcca"/><path d="M651.094,286.34c-2.979.579-4.809,4.376-4.388,8.783h-.022c-.815.159-1.3,1.2-1.075,2.349s1.063,1.923,1.878,1.774a1.062,1.062,0,0,0,.31-.113c1.657,3.335,4.871,5.193,7.516,4.676,3.282-.64,4.446-4.691,3.477-9.651S654.379,285.7,651.094,286.34Z" transform="translate(-637.358 -285.439)" fill="#c28c76"/><path d="M634.883,347.08c-.151-.531.481-1.83.866-2.577-2.611.4-5.717-1.443-7.336-4.7a1.066,1.066,0,0,1-.31.113s-.255,6.783-1.724,6.867c-1.719,1.474-7.336,6.465-6.191,8.783.962,1.94,6.145.94,13.875-.553a3.909,3.909,0,0,0,2.017-.962c1.623-1.546,1.18-4.328.962-4.955C636.737,348.263,635.1,347.847,634.883,347.08Z" transform="translate(-617.974 -328.227)" fill="#c28c76"/><path d="M657.543,288.127s-1.508-2.344-1.945-1.82-1.277,1.938-4.143,1.786a13.037,13.037,0,0,0-2.32,5.436c-.4,2.936-2.537-1.01-2.537-1.01s-2.741-6.828.219-8.454a8.616,8.616,0,0,1,8.882,0C658.654,285.728,657.543,288.127,657.543,288.127Z" transform="translate(-637.272 -282.834)" fill="#abbcca"/></g><g transform="translate(0 18.571)"><path d="M610.023,397.371c-.582,0-.291-.618-.291-.618,6.708-.144,5.477-.979,5.366-1.378s-5.049-.255-6.326-.255a2.8,2.8,0,0,1-1.683-.341c2.683-2.335,1.522-2.741.87-2.741-.442,0-2.551,1.767-3.864,2.9a3.126,3.126,0,0,1-2.5.733l-11.858-1.712a1.657,1.657,0,0,1-1.32-1.068l-1.282-3.46c-.067-.185-.671-1.835-2.938-8.281-2.424-6.893-3.549-10.394-5.22-10.781-.962-.221-.435,4.357-3.594,6.056-2.332,1.253-8.7-.26-8.7-.26l.353-7.172c-6.657,1.142-9.389,5.205-9.389,5.205s-9.858,15.07-10.553,17.143c-2.164,6.506-2.512,20.785-2.568,24.524a5.7,5.7,0,0,1-.176,1.322l-.962,4.224c-1.308,3.8-1.5,3.9-1.156,4.794s1.395-2.378,1.664-3.126.515-.62.515-.62c-.861,7.429-.255,6.525.178,6.554s.928-5.172,1.015-5.383.536.144.536.144c-.221,4.383-.418,5.169.269,5.77s1.019-4.912,1.058-5.491.635-.24.635-.24c-.3,6.7.611,5.53,1.017,5.448s.589-5.013.676-6.3a2.808,2.808,0,0,1,.452-1.661c2.152,2.835,2.633,1.7,2.678,1.051.031-.481-1.984-3.138-3-4.443a1.955,1.955,0,0,1-.358-1.64l4.835-20.593a6.594,6.594,0,0,1,.767-1.883l3.215-5.342,3.053-5.073,16.881,4.607c.738,3.643,2.138,9.177,4.135,11.252,3.292,3.421,16.547,2.289,20.086,1.791a5.8,5.8,0,0,1,1.743.019l3.383.543c3.881,1.053,3.989,1.233,4.859.834s-2.464-1.231-3.227-1.443-.654-.481-.654-.481c7.473.363,6.53-.18,6.53-.615s-5.225-.582-5.441-.654.108-.543.108-.543c4.388-.072,5.186.072,5.729-.654S610.6,397.371,610.023,397.371Z" transform="translate(-542.085 -368.978)" fill="#c28c76"/><path d="M680.275,371.86s3.126.195,4.01,1.529c.786,1.171,3.789,9.269,5.833,14.924,1.387,3.847,2.02,5.393,2.282,5.992a.481.481,0,0,1-.166.584,62.09,62.09,0,0,1-7.35,4.51.481.481,0,0,1-.589-.226c-1.092-2.058-6.763-13.048-5.4-16.284C680.391,379.311,680.275,371.86,680.275,371.86Z" transform="translate(-645.839 -371.151)" fill="#737065"/><path d="M594.928,400.222c-2.058-11.87.288-8.317.288-16.2,0-2.52-3.21-8.374-3.034-9.4l.738-4.3a.409.409,0,0,0-.226-.438s-1.52-.454-1.565-.185l-.44,2.525a4.361,4.361,0,0,1-4.438,3.606h-.118a4.364,4.364,0,0,1-4.224-4.328l-.024-2.6a12.9,12.9,0,0,0-7.278,2.551c-3.267,2.383-10.524,14.83-12.885,18.8a.635.635,0,0,0,.277.9l7.525,3.549,5.585-9.456-3.215,15.433a.44.44,0,0,0,.43.529l22.906-.06A2.6,2.6,0,0,1,594.928,400.222Z" transform="translate(-556.934 -368.91)" fill="#737065"/></g></g><g transform="translate(24.345 25.306)"><path d="M549.924,791.084s3.415.987-1.974,5.143c0,0-17.967.538-19.891-.964s.95-9.162.95-9.162a65.21,65.21,0,0,0,11.774,1.849c1.358.053,2.706,2.25,2.706,2.25l6.435.884Z" transform="translate(-495.859 -703.088)" fill="#4c4c56"/><path d="M518.117,714.018s17.948-5.81,18.459,5.81-10.6,34.833-10.6,34.833l-10.07-3.166,2.9-17.952s-11.451-3.962-12.136-4.223S518.117,714.018,518.117,714.018Z" transform="translate(-485.26 -656.296)" fill="#6b6a7e"/><path d="M530.88,722.171l1.257,1.248.806.806s4.1,7.326,9.4,2.82-4.112-7.879-5.993-8.052a2.388,2.388,0,0,1-1.772-1.412,6.586,6.586,0,0,1-.62-1.771Z" transform="translate(-500.171 -658.105)" fill="#866067"/><path d="M530.88,722.171l1.257,1.248.806.806s4.1,7.326,9.4,2.82-4.112-7.879-5.993-8.052a2.388,2.388,0,0,1-1.772-1.412,6.586,6.586,0,0,1-.62-1.771Z" transform="translate(-500.171 -658.105)" opacity="0.05"/><path d="M530.88,722.138l1.257,1.248a10.047,10.047,0,0,1,2.449-5.865,6.577,6.577,0,0,1-.62-1.771Z" transform="translate(-499.343 -658.071)" opacity="0.1"/><path d="M512.21,687.32,524,700.281s-4.1,3.944-3.246,8.078l-8.547-10.522Z" transform="translate(-487.409 -642.225)" fill="#c4c8e2"/><path d="M512.42,687.32v10.522l1.369,1.686,4.064,5,3.114,3.833c-.854-4.134,3.246-8.079,3.246-8.079Z" transform="translate(-487.551 -642.225)" opacity="0.1"/><path d="M505.318,645.3s0,3.944-3.077,2.82-.685,44.523-.685,44.523,8.889-7.326,7.177-12.585a38.567,38.567,0,0,1-1.889-14.466C507.006,660.342,505.318,645.3,505.318,645.3Z" transform="translate(-479.298 -618.806)" fill="#d39999"/><path d="M489.217,619.411s-2.566,7.7,0,13.528-15.217-3.2-15.217-3.2,3.931-2.067,2.566-12.023Z" transform="translate(-461.821 -586.381)" fill="#fdc2cc"/><path d="M515.236,694.909a60.873,60.873,0,0,0,0,6.2l4.064,5a38.953,38.953,0,0,0-2.014-4.059c-.632-1.076-.773-5.365-.806-10.261l-1.49-1.638C515.147,692.793,515.236,694.909,515.236,694.909Z" transform="translate(-488.652 -643.803)" opacity="0.1"/><path d="M508.975,642.589c-.189-.987,1.293.5,1.768,1.363l.024.049c.685,1.328.342.938,1.369,3.944s-.342,24.789,1.208,27.445a43.943,43.943,0,0,1,2.735,5.825l-2.735-1.129s-1.027-3.382-1.708-4.134-.342-7.7-.342-7.7-.512-12.023-1.027-14.652C509.861,651.482,509.378,644.666,508.975,642.589Z" transform="translate(-484.81 -617.114)" fill="#c4c8e2"/><path d="M508.975,642.589c-.189-.987,1.293.5,1.768,1.363l.024.049c.685,1.328.342.938,1.369,3.944s-.342,24.789,1.208,27.445a43.943,43.943,0,0,1,2.735,5.825l-2.735-1.129s-1.027-3.382-1.708-4.134-.342-7.7-.342-7.7-.512-12.023-1.027-14.652C509.861,651.482,509.378,644.666,508.975,642.589Z" transform="translate(-484.81 -617.114)" opacity="0.1"/><path d="M499.05,748.78s27.006-1.129,30.426,6.764-4.785,12.78-4.785,12.78-11.451-3.944-14.017-3.382-11.624-1.505-11.624-1.505Z" transform="translate(-480.206 -676.449)" fill="#706f81"/><path d="M536.4,735.118s6.155-3.758,9.574-1.328,3.077,9.017-1.708,9.2a9.321,9.321,0,0,1-7.351-3.006Z" transform="translate(-503.801 -667.669)" fill="#8c676d"/><path d="M459.2,636.594s-5.47-4.135-13.505,11.066-5.981,41.327-5.981,41.327,5.981.376,5.812,6.573,23.248,7.525,23.248,7.525-.342-61.618-2.735-63.3A34.124,34.124,0,0,0,459.2,636.594Z" transform="translate(-439.476 -613.668)" fill="#cfd1dc"/><path d="M472.863,661.083a8.511,8.511,0,0,1,3.109,6.693c.028,5.626.153,17.751.673,20.044.685,3.006,10.939,6.95,16.24,6.764,0,0,2.566,5.259-.512,6.388s-21.879,0-21.879,0-7.351-9.2-7.52-17.264-1.208-17.1,0-18.786C463.962,663.491,468.09,657.382,472.863,661.083Z" transform="translate(-455.264 -626.949)" opacity="0.1"/><path d="M473.743,659.386a8.507,8.507,0,0,1,3.13,6.7c.028,5.626.153,17.751.673,20.044.685,3.006,10.94,6.95,16.24,6.764,0,0,2.566,5.259-.512,6.388s-21.879,0-21.879,0-7.351-9.2-7.52-17.264-1.208-17.1,0-18.786C464.842,661.811,468.97,655.685,473.743,659.386Z" transform="translate(-455.877 -626.004)" fill="#cfd1dc"/><path d="M549.924,791.084s3.415.987-1.974,5.143c0,0-17.967.538-19.891-.964s.95-9.162.95-9.162a65.21,65.21,0,0,0,11.774,1.849c1.358.053,2.706,2.25,2.706,2.25l6.435.884Z" transform="translate(-497.741 -694.226)" fill="#4c4c56"/><path d="M490.35,692.62s.854,11.837,6.5,14.466" transform="translate(-472.169 -645.18)" opacity="0.1"/><path d="M0,12.09a12.546,12.546,0,0,0,.259,2.884l.033.149C1.627,21.1,7.07,24.7,12.737,23.352s9.614-7.188,9.02-13.342S16.233-.5,10.488.047.157,5.869,0,12.095Z" transform="translate(5.469 9.331) rotate(-16)" fill="#8c676d"/><path d="M445.7,654.964a45.148,45.148,0,0,1,3.822-6.144,48.437,48.437,0,0,0-3.138,5.206c-8.035,15.219-5.981,41.327-5.981,41.327s5.981.376,5.812,6.573c-.153,5.564,18.693,7.193,22.556,7.468v.983s-23.418-1.328-23.248-7.525-5.812-6.573-5.812-6.573S437.674,670.183,445.7,654.964Z" transform="translate(-439.477 -620.768)" opacity="0.1"/><path d="M4.23,2.667a4.386,4.386,0,0,1,3.815-.789,14.644,14.644,0,0,1,2.847-.355,4.3,4.3,0,0,0,1.554-.2A8.679,8.679,0,0,0,13.541.672C15.166-.293,16.935.008,18.621.2c1.371.158,3.709-.444,4.464,1.241A1.308,1.308,0,0,1,22.868,2.9c-.157.127-.357.181-.479.36a1.133,1.133,0,0,0-.072.8l.988,6.125a4,4,0,0,1-3.384.255,8.63,8.63,0,0,1-.882-.416c-.862.62-1.728.19-2.761.454A3.351,3.351,0,0,0,14.7,11.617a10.688,10.688,0,0,0-2.42,5.023c-.13.7-.3,1.568-.931,1.782a3.843,3.843,0,0,1-.72.1C9.5,18.707,9,20.166,8.251,21.139,7.338,22.322,5.733,23.12,5.6,24.626a2.512,2.512,0,0,1-.173,1.143.938.938,0,0,1-.561.384,1.718,1.718,0,0,1-1.789-.832,5.94,5.94,0,0,1-.716-2.086L.479,14.276a19.039,19.039,0,0,1-.474-3.063A10.047,10.047,0,0,1,4.23,2.667Z" transform="translate(2.301 6.424) rotate(-16)" fill="#9a8a8d"/></g></g><g transform="translate(-6 -7.656)"><g transform="translate(419.225 -6.38)"><path d="M230.6,208.183c-3.608-1-.8-3.809-.8-3.809l.02-.211a.262.262,0,0,0-.328-.279c-.717.19-2.215.425-1.91-1.05a1.269,1.269,0,0,0-.538-1,.358.358,0,0,1-.045-.549,3.64,3.64,0,0,0,.9-1.226.253.253,0,0,0-.3-.326l-1.383.367a.2.2,0,0,1-.256-.2v-.187a.218.218,0,0,0-.221-.217l-.492.008a.517.517,0,0,1-.509-.648l.5-1.925a1.428,1.428,0,0,0-.107-1,10.649,10.649,0,0,1-1.195-5.312s1.929,2.879,7.457,5.34c0,0-.048-3.56,2.646-1.924,0,0,1.046.6,1,3.2l1.129.707a4.137,4.137,0,0,1,1.724,2.2,11.653,11.653,0,0,0,2.166,3.824S234.205,209.185,230.6,208.183Z" transform="translate(-209.525 -184.476)" fill="#c28c76"/><path d="M269.114,455.6s1.657,8.011,1.064,8.265S254,465.18,256.7,463.795l4.493-2.012a4.48,4.48,0,0,0,2.649-4.069l.011-2.557Z" transform="translate(-254.439 -329.589)" fill="#c28c76"/><path d="M258.8,468.769l4.309-.238a10.7,10.7,0,0,0-1.089-1.143.474.474,0,0,1,.132-.781.792.792,0,0,1,.79.086,8.06,8.06,0,0,1,1.524,1.763l1.3-.072c.321-.6,1.565-2.37,5.6-3.682a.219.219,0,0,1,.284.173l.1.62a.219.219,0,0,1-.146.242,13.3,13.3,0,0,0-4.422,2.569l4.642-.257a3.151,3.151,0,0,1,.046,2.048c-7.5.977-14.6.364-15.7-.279S258.8,468.769,258.8,468.769Z" transform="translate(-255.965 -334.819)" fill="#6f5c59"/><path d="M228.114,455.6s1.657,8.011,1.064,8.265S213,465.18,215.7,463.795l4.493-2.012a4.48,4.48,0,0,0,2.649-4.069l.011-2.557Z" transform="translate(-194.93 -329.589)" fill="#c28c76"/><path d="M217.8,468.769l4.309-.238a10.7,10.7,0,0,0-1.089-1.143.474.474,0,0,1,.132-.781.792.792,0,0,1,.79.086,8.06,8.06,0,0,1,1.524,1.763l1.3-.072c.321-.6,1.565-2.37,5.6-3.682a.219.219,0,0,1,.284.173l.1.62a.219.219,0,0,1-.146.242,13.3,13.3,0,0,0-4.422,2.569l4.642-.257a3.151,3.151,0,0,1,.046,2.048c-7.5.977-14.6.364-15.7-.279S217.8,468.769,217.8,468.769Z" transform="translate(-196.456 -334.819)" fill="#6f5c59"/><path d="M205.293,299.11c-.119-6.094-.842-54.7,5.916-76.1l2.732-5.528,18.216,7.633a78.609,78.609,0,0,1,3.984,34.177,26.39,26.39,0,0,0,.464,8.182l4.3,29.966a2.5,2.5,0,0,1-1.686,2.729h0a51.709,51.709,0,0,1-33.32-.222h0A.907.907,0,0,1,205.293,299.11Z" transform="translate(-201.964 -171.039)" fill="#706f81"/><path d="M221.727,219.761s-5.413,5.413-9.021,4.41-.8-3.809-.8-3.809l-3.4.536c-1.793.142-3.015,2.4-3.833,4a40.476,40.476,0,0,1,0,6.462c-.278,3.794.493,16.061.493,16.061s-1.578,9.128,16.664,7.124l-.5-1.9h2.643a6.08,6.08,0,0,0,5.372-5.223c.529-3.881,1.188-9.486,1.328-14.17a12.456,12.456,0,0,0-4.727-10.166Z" transform="translate(-191.434 -200.464)" fill="#e8deae"/><path d="M232.684,246.636s-2.9-14.216-10.151-22.444c0,0-3.372-.409-5.2,1.979,0,0-4.492,21.687-.686,29.951,8.161,17.721,21.946,24.79,21.946,24.79S236.949,257.533,232.684,246.636Z" transform="translate(-204.1 -204.149)" fill="#706f81"/><path d="M219.608,180.946s.962,2.8,7.457,5.34c0,0,.178-2.12,1.541-2.228a1.341,1.341,0,0,1,1.177.572,4.615,4.615,0,0,1,.926,2.93,10.536,10.536,0,0,0,.776,3.217c.473.961,1.478,1.224,2.3,1.912.913.8,1.5.806,1.955,0,.565-.988,2.75-1.853,3.17-5.13.276-2.154-.739-6.241-1.416-7.954C234.222,171.333,220.522,175.077,219.608,180.946Z" transform="translate(-205.199 -174.808)" fill="#dcdcdc"/><path d="M208.561,256.678a6.08,6.08,0,0,0,5.372-5.224c.529-3.881,1.188-9.486,1.328-14.17a12.456,12.456,0,0,0-4.727-10.166l-5.924,20.691Z" transform="translate(-176.025 -204.5)" fill="#e8deae"/><path d="M270.168,258.368s-4.733-1.587-5.792-3.8c0,0-.808-1.93-1.1-1.93-.271,0-.372.778-.066,2.555a1.406,1.406,0,0,1-.973,1.6,4.873,4.873,0,0,1-2.281-.066s-5.48-1.732-2.187,2.646a7.155,7.155,0,0,0,5.332,1.806,11.53,11.53,0,0,1,6.041,1.321Z" transform="translate(-254.452 -218.499)" fill="#f9977a"/><path d="M232.663,268.771l-12.177-3.441-1.021,4.134,10.506,6.4a12.365,12.365,0,0,0,7.335,1.773h0l-3.951-8.867Z" transform="translate(-204.77 -225.461)" fill="#c28c76"/></g><g transform="translate(430.996 5.388)"><path d="M90.113,56.269a8.578,8.578,0,0,0-4.007.343A6.864,6.864,0,0,0,82.214,59.7a10.461,10.461,0,0,0-.687,3.663,33.616,33.616,0,0,0-.114,3.549c0,.818.017,1.989.114,3.434.124,1.837.191,2.762.458,3.091,1.077,1.327,3.385.1,3.434,1.832.03,1.069-.649,1.746.243,2.7,1.106,1.189,5.31.739,6.854-.072.211-.11,3.3-1.772,3.091-3.663-.111-1.01-1.057-1.115-1.717-2.633a6.063,6.063,0,0,1-.343-3.32c.3-2.21,1.411-2.48,2.289-5.151a4.156,4.156,0,0,0-.687-4.007,8.488,8.488,0,0,0-5.037-2.862Z" transform="translate(-48.135 -56.171)" fill="#6c4f47"/><path d="M73.039,340.015l.553,5.52-9.585,4.683H78.726v-10.2Z" transform="translate(-22.818 -210.04)" fill="#6c4f47"/><path d="M107.536,340.015l.553,5.52L98.5,350.218h14.719v-10.2Z" transform="translate(-73.112 -210.04)" fill="#6c4f47"/><path d="M97.1,355.884v-.034a1.394,1.394,0,0,1,.767-1.245l9.949-5.014a.465.465,0,0,1,.581.136l1.945,2.588a.465.465,0,0,0,.61.119l2.283-1.37a.465.465,0,0,1,.7.4v4.42a.465.465,0,0,1-.465.465H97.569A.465.465,0,0,1,97.1,355.884Z" transform="translate(-73.19 -215.204)" fill="#935b50"/><path d="M62.607,355.884v-.034a1.394,1.394,0,0,1,.767-1.245l9.949-5.014a.465.465,0,0,1,.581.136l1.945,2.588a.465.465,0,0,0,.61.119l2.283-1.37a.465.465,0,0,1,.7.4v4.42a.465.465,0,0,1-.465.465H63.072A.465.465,0,0,1,62.607,355.884Z" transform="translate(-22.896 -215.204)" fill="#935b50"/><path d="M70,253.543h6.483c.73,0,2.845-.382,2.845-1.112L80.28,229.3c0-4.5.136-9.517,0-14.684,0,0-6.118-31.35-5.82-37.941l-18.932-1.4,11.715,75.942A5.379,5.379,0,0,0,70,253.543Z" transform="translate(-20.551 -120.736)" fill="#707070"/><path d="M83.966,173.13s-1,16.113-1,19.9c0,0-2.447,22.8-2.425,22.941.893,5.93.915,10.039,1.954,15.433l3.922,20.351a1.322,1.322,0,0,0,1.315,1.192h7.639c.768,0,2.568-1.049,2.513-1.815,0,0-.925-32.083-1.038-35.771l6.637-39.852Z" transform="translate(-55.153 -119.573)" fill="#707070"/><path d="M61.119,94.512l1.631.717s1.065,5.39,8.62-2.509l7.29,4.51a10.477,10.477,0,0,1,3.821,4.3,52.785,52.785,0,0,1,4.967,19.422s2.351,47.529,2.138,52.006c-.038.807-45.105.162-45.105-.759C44.481,172.2,47.49,106.188,61.119,94.512Z" transform="translate(-24.751 -75.984)" fill="#b4d2d0"/><path d="M170.105,107.236s-.069-1.818-2.866-4.7-5.3-4.847-3.848-2.421l1.14,1.83s-3.009-1.167-4.74-2.019a2.39,2.39,0,0,0-2.805.465c-.652.7-.633,1.473,1.167,2.838a22.928,22.928,0,0,0,5.452,3.222,1.361,1.361,0,0,1,.675.564l2.011,1.637Z" transform="translate(-156.595 -79.402)" fill="#6c4f47"/><path d="M135.385,97.422S133.87,98.1,132.7,98.7c-1.628.834-4.155,3.767-7.113,11.091l-1.966,4.867a124.61,124.61,0,0,0-11-11.256l-5.038,4.088,11.661,13.432a8.24,8.24,0,0,0,2.922,2.573c2.662,1.361,5.381.912,6.874-1.855,2.335-4.328,5.11-10.918,5.376-12.755Z" transform="translate(-99.428 -78.533)" fill="#b4d2d0"/><path d="M93.538,68.669c-.153,1.45-.014,2.323-.486,3.148-.305.534-1.376,1.025-1.422.528a4.845,4.845,0,0,1,.006-1.751,7.24,7.24,0,0,0,.529-1.81c.138-1-.062-2.49-.916-2.862a1.413,1.413,0,0,0-1.374.229,2.111,2.111,0,0,0-.572,1.6,20.809,20.809,0,0,0,0,3.091,9.835,9.835,0,0,1-.572,3.892,4.892,4.892,0,0,1-2.289,2.976,4.979,4.979,0,0,1-2.862.114A4.845,4.845,0,0,1,80.6,76.8a4.042,4.042,0,0,1-1.145-2.289c-.124-.763.086-.859,0-2.289-.062-1.006-.181-1.2,0-1.488s.859.544,1.259.458c.506-.11.768-1.083,1.259-.916a5.613,5.613,0,0,1,1.6,1.03c.668.525.778.735,1.145.8a1.86,1.86,0,0,0,1.6-.687c.525-.62.472-1.6.343-3.549a10.184,10.184,0,0,1,0-2.976,2.375,2.375,0,0,1,.572-1.374c.525-.5,1-.229,2.289-.572a7.638,7.638,0,0,0,2.29-1.03c.93-.63,1.016-1.03,1.488-1.03.744,0,1.45.983,1.717,1.832.391,1.25-.076,2.475-.572,3.778C93.905,67.934,93.624,67.863,93.538,68.669ZM80.779,73.5a2.773,2.773,0,0,1,1.747.223.4.4,0,0,0,.484-.588,2.079,2.079,0,0,0-2.528-.606.51.51,0,0,0-.338.481h0a.51.51,0,0,0,.635.491Z" transform="translate(-46.295 -58.726)" fill="#cdd3d1"/><path d="M63.888,203.871l1.516-2.019s0,2.1-.083,4.1a1.119,1.119,0,0,0,.954,1.151h.013l.284.041,1.2.174.275.041.911.133.27.041h0a1.117,1.117,0,0,0,.824-.87c.266-1.362.823-4.313.82-5.042,0-.353.408-4.332.408-4.332l-2.459-3.759s-1.955.847-3.911,5.115S61.86,206.485,63.888,203.871Z" transform="translate(-14.815 -130.63)" fill="#6c4f47"/><path d="M47.474,145.721l4.507-16.478a7.977,7.977,0,0,0-.317-3.907l-2.824-7.751a24.565,24.565,0,0,0-1.6-3.52c-1.684-3.031-4.973-10.126-.388-12.444,5.891-2.979,11.032,10.871,11.032,10.871l1.823,4.35a23.494,23.494,0,0,1,1.8,10.426,35.387,35.387,0,0,1-.382,3.77c-.715,3.948-5.911,16.643-5.911,16.643a5.5,5.5,0,0,1-6.979-.989S47.556,145.844,47.474,145.721Z" transform="translate(3.295 -80.581)" fill="#b4d2d0"/></g></g></g></svg>