<svg width="610" height="469" viewBox="0 0 610 469" fill="none" xmlns="http://www.w3.org/2000/svg">
<g clip-path="url(#clip0_467_612)">
<path opacity="0.1" d="M304.971 467.993C472.976 467.993 609.17 439.527 609.17 404.412C609.17 369.296 472.976 340.829 304.971 340.829C136.967 340.829 0.772339 369.296 0.772339 404.412C0.772339 439.527 136.967 467.993 304.971 467.993Z" fill="#00853B"/>
<path d="M267.822 189.124C267.822 189.124 277.859 196.073 276.7 204.95C275.543 213.829 267.049 248.956 265.506 264.783C263.964 280.61 262.42 304.544 258.557 316.124C254.696 327.705 250.838 345.848 254.312 351.639C255.337 353.111 255.886 354.862 255.886 356.657C255.886 358.452 255.337 360.203 254.312 361.675C254.312 361.675 247.749 367.466 249.68 370.553C251.61 373.64 276.7 377.502 276.7 377.502C276.7 377.502 314.917 373.255 322.634 374.413C330.351 375.571 362.394 375.957 367.799 374.413C373.204 372.869 375.906 372.482 374.748 365.92C373.59 359.357 373.204 357.426 367.799 357.426C362.394 357.426 358.535 355.496 359.306 351.636C360.077 347.775 358.535 301.067 356.217 294.118C353.9 287.169 344.637 242.777 345.408 236.215C346.179 229.652 341.941 211.895 345.408 204.948C348.875 198.001 367.024 190.664 370.113 191.436C373.202 192.207 391.345 199.929 396.362 198.385C401.38 196.841 415.663 181.013 421.068 178.311C426.472 175.609 436.895 170.978 436.895 170.978C436.895 170.978 427.243 164.415 425.315 166.731C423.385 169.047 416.821 181.787 407.172 184.103C397.522 186.419 392.116 191.436 384.782 191.436C377.449 191.436 365.482 181.013 359.302 181.013C353.123 181.013 342.316 186.419 342.316 186.419C342.316 186.419 351.967 169.047 362.769 170.978C373.571 172.909 392.492 166.731 392.492 166.731C392.492 166.731 397.896 164.029 402.528 162.099C407.159 160.17 421.057 149.362 421.057 149.362L400.212 146.272L392.492 159.784C390.084 161.028 387.467 161.813 384.771 162.099C380.526 162.486 378.981 150.14 384.771 149.362C390.563 148.583 374.736 149.362 374.736 149.362C374.736 149.362 376.667 160.17 372.42 162.099C368.173 164.029 367.789 158.633 359.295 162.099C350.802 165.566 348.1 166.731 348.1 166.731C348.1 166.731 352.346 152.835 356.206 152.835C360.067 152.835 374.736 142.413 374.736 142.413L367.787 136.237C367.787 136.237 347.333 145.888 345.397 149.362C343.461 152.835 342.695 157.082 338.448 157.082C334.202 157.082 328.413 160.549 326.489 157.082C324.565 153.615 313.363 138.168 313.363 133.535C313.363 128.901 310.661 120.796 310.661 120.796L301.01 126.588C301.01 126.588 307.959 138.168 313.362 142.414C315.588 144.087 317.306 146.343 318.328 148.931C319.35 151.52 319.636 154.342 319.153 157.084C318.78 159.862 317.833 162.534 316.371 164.926C314.908 167.319 312.963 169.38 310.659 170.98C307.266 173.183 304.04 175.634 301.008 178.313L291.744 162.099C291.744 162.099 285.181 147.431 283.25 139.323C281.531 132.991 279.337 126.798 276.689 120.794L273.222 129.288C273.222 129.288 273.993 148.203 276.689 149.362C279.384 150.519 268.938 142.247 265.495 136.237C262.05 130.227 273.215 120.796 273.215 120.796H265.495C262.822 126.833 260.501 133.019 258.546 139.325C257.001 145.501 260.861 157.082 260.861 157.082L276.689 174.068C276.689 174.068 258.159 166.348 254.299 162.108C250.438 157.869 245.034 139.332 245.034 139.332L249.666 120.803L258.544 106.521H249.666C249.666 106.521 245.419 128.909 242.717 133.541C240.015 138.172 238.856 156.317 242.717 159.791C246.577 163.264 249.666 170.985 249.666 170.985C249.666 170.985 224.869 154.024 225.256 147.847C225.642 141.669 227.082 117.924 227.082 117.924C227.082 117.924 224.574 138.944 223.801 142.417C223.028 145.891 214.15 129.293 214.15 129.293C214.15 129.293 216.852 149.366 221.484 152.84C226.115 156.313 230.362 165.193 236.537 166.736C242.713 168.279 250.049 174.072 258.54 174.072C267.032 174.072 248.986 179.204 236.537 177.365C224.089 175.526 213.097 170.919 208.743 166.731C204.39 162.543 200.637 136.235 200.637 136.235C200.637 136.235 194.074 151.288 196.777 159.782C199.479 168.276 213.764 180.627 223.798 184.101C233.831 187.574 283.899 178.767 282.365 178.309C280.831 177.852 253.611 170.234 253.611 170.234L248.61 162.098L277.842 179.703H261.991L243.856 183.281L239.695 184.101" fill="#707070"/>
<path d="M267.822 189.124C267.822 189.124 277.859 196.073 276.7 204.95C275.543 213.829 267.049 248.956 265.506 264.783C263.964 280.61 262.42 304.544 258.557 316.124C254.696 327.705 250.838 345.848 254.312 351.639C255.337 353.111 255.886 354.862 255.886 356.657C255.886 358.452 255.337 360.203 254.312 361.675C254.312 361.675 247.749 367.466 249.68 370.553C251.61 373.64 276.7 377.502 276.7 377.502C276.7 377.502 314.917 373.255 322.634 374.413C330.351 375.571 362.394 375.957 367.799 374.413C373.204 372.869 375.906 372.482 374.748 365.92C373.59 359.357 373.204 357.426 367.799 357.426C362.394 357.426 358.535 355.496 359.306 351.636C360.077 347.775 358.535 301.067 356.217 294.118C353.9 287.169 344.637 242.777 345.408 236.215C346.179 229.652 341.941 211.895 345.408 204.948C348.875 198.001 367.024 190.664 370.113 191.436C373.202 192.207 391.345 199.929 396.362 198.385C401.38 196.841 415.663 181.013 421.068 178.311C426.472 175.609 436.895 170.978 436.895 170.978C436.895 170.978 427.243 164.415 425.315 166.731C423.385 169.047 416.821 181.787 407.172 184.103C397.522 186.419 392.116 191.436 384.782 191.436C377.449 191.436 365.482 181.013 359.302 181.013C353.123 181.013 342.316 186.419 342.316 186.419C342.316 186.419 351.967 169.047 362.769 170.978C373.571 172.909 392.492 166.731 392.492 166.731C392.492 166.731 397.896 164.029 402.528 162.099C407.159 160.17 421.057 149.362 421.057 149.362L400.212 146.272L392.492 159.784C390.084 161.028 387.467 161.813 384.771 162.099C380.526 162.486 378.981 150.14 384.771 149.362C390.563 148.583 374.736 149.362 374.736 149.362C374.736 149.362 376.667 160.17 372.42 162.099C368.173 164.029 367.789 158.633 359.295 162.099C350.802 165.566 348.1 166.731 348.1 166.731C348.1 166.731 352.346 152.835 356.207 152.835C360.067 152.835 374.736 142.413 374.736 142.413L367.787 136.237C367.787 136.237 347.333 145.888 345.397 149.362C343.461 152.835 342.695 157.082 338.448 157.082C334.202 157.082 328.413 160.549 326.489 157.082C324.565 153.615 313.363 138.168 313.363 133.535C313.363 128.901 310.661 120.796 310.661 120.796L301.01 126.588C301.01 126.588 307.959 138.168 313.362 142.414C315.588 144.087 317.306 146.343 318.328 148.931C319.35 151.52 319.636 154.342 319.153 157.084C318.78 159.862 317.833 162.534 316.371 164.926C314.908 167.319 312.963 169.38 310.659 170.98C307.266 173.183 304.04 175.634 301.008 178.313L291.744 162.099C291.744 162.099 285.181 147.431 283.25 139.323C281.531 132.991 279.337 126.798 276.689 120.794L273.222 129.288C273.222 129.288 273.993 148.203 276.689 149.362C279.384 150.519 268.938 142.247 265.495 136.237C262.05 130.227 273.215 120.796 273.215 120.796H265.495C262.822 126.833 260.501 133.019 258.546 139.325C257.001 145.501 260.861 157.082 260.861 157.082L276.689 174.068C276.689 174.068 258.159 166.348 254.299 162.108C250.438 157.869 245.034 139.332 245.034 139.332L249.666 120.803L258.544 106.521H249.666C249.666 106.521 245.419 128.909 242.717 133.541C240.015 138.172 238.856 156.317 242.717 159.791C246.577 163.264 249.666 170.985 249.666 170.985C249.666 170.985 224.869 154.024 225.256 147.847C225.642 141.669 227.082 117.924 227.082 117.924C227.082 117.924 224.574 138.944 223.801 142.417C223.028 145.891 214.15 129.293 214.15 129.293C214.15 129.293 216.852 149.366 221.484 152.84C226.115 156.313 230.362 165.193 236.537 166.736C242.713 168.279 250.049 174.072 258.54 174.072C267.032 174.072 248.986 179.204 236.537 177.365C224.089 175.526 213.097 170.919 208.743 166.731C204.39 162.543 200.637 136.235 200.637 136.235C200.637 136.235 194.074 151.288 196.777 159.782C199.479 168.276 213.764 180.627 223.798 184.101C233.831 187.574 283.899 178.767 282.365 178.309C280.831 177.852 253.611 170.234 253.611 170.234L248.61 162.098L277.842 179.703H261.991L243.856 183.281L239.695 184.101" stroke="#707070"/>
<path d="M354.022 116.07C355.026 128.615 348.502 127.109 362.052 138.15C375.601 149.192 377.608 152.711 386.144 153.707C394.681 154.703 423.28 149.19 426.291 153.707C429.301 158.224 411.236 163.742 426.291 170.266C441.344 176.792 451.382 172.274 456.903 177.795C462.424 183.316 468.946 194.355 475.47 182.312C481.994 170.268 469.448 155.716 475.47 141.663C481.492 127.612 464.551 108.543 460.91 97.5039C457.27 86.4639 439.832 61.8733 426.283 60.8697C412.734 59.8662 383.628 61.3724 383.124 52.8409C382.619 44.3095 364.556 13.6989 351.007 13.1963C337.457 12.6936 315.376 1.15315 301.326 0.149552C287.276 -0.854045 262.184 3.1603 253.66 13.1963C245.135 23.2323 245.629 40.796 233.085 39.2915C220.541 37.787 204.485 26.2431 189.925 35.2771C175.366 44.3113 158.31 50.3329 158.812 60.8697C159.315 71.4066 127.196 79.9362 131.713 100.514C136.23 121.093 125.692 133.635 138.738 141.663C151.785 149.693 180.391 155.213 189.925 153.707C199.46 152.201 213.01 124.601 224.049 121.59C235.089 118.579 242.116 103.022 248.143 111.051C254.17 119.08 269.219 131.125 282.267 131.626C295.313 132.127 325.426 129.116 332.951 121.59C340.475 114.063 354.022 116.07 354.022 116.07Z" fill="#00853B"/>
<path d="M172.862 98.757C147.771 93.7299 127.196 99.259 127.699 112.808C128.201 126.358 144.258 127.863 149.78 138.904C155.3 149.946 150.282 157.97 164.835 155.967C179.389 153.963 173.867 168.512 188.421 146.433C202.973 124.355 202.98 111.806 198.959 107.792C194.937 103.778 172.862 98.757 172.862 98.757Z" fill="#00853B"/>
<path d="M288.137 15.0179C263.046 9.99126 242.471 15.5205 242.974 29.07C243.476 42.6194 259.533 44.1239 265.055 55.1652C270.575 66.2065 265.557 74.2318 280.11 72.2281C294.663 70.2244 289.142 84.7739 303.695 62.6947C318.248 40.6156 318.255 28.0682 314.234 24.0537C310.212 20.0394 288.137 15.0179 288.137 15.0179Z" fill="#00853B"/>
<path d="M398.183 63.1282C398.686 63.1282 410.226 54.5967 416.247 60.1174C422.269 65.638 429.797 71.6596 425.781 73.6668C421.765 75.674 443.344 76.1767 452.88 83.2001C462.414 90.2236 474.96 88.7208 464.422 96.7499C453.883 104.778 477.971 106.283 473.454 117.325C468.937 128.365 486 142.917 481.485 142.917C476.969 142.917 465.425 149.441 464.422 149.441C463.418 149.441 398.181 67.6436 398.181 67.6436C398.181 67.6436 397.68 63.1282 398.183 63.1282Z" fill="#00853B"/>
<path d="M316.744 7.54551C317.246 7.54551 328.787 -0.985921 334.809 4.53472C340.83 10.0553 348.358 16.077 344.342 18.0841C340.326 20.0914 361.906 20.594 371.441 27.6175C380.976 34.6409 393.522 33.1382 382.983 41.1669C372.444 49.1957 396.532 50.7002 392.015 61.7415C387.498 72.7828 404.561 87.3341 400.046 87.3341C395.531 87.3341 383.987 93.8583 382.983 93.8583C381.98 93.8583 316.742 12.0609 316.742 12.0609C316.742 12.0609 316.241 7.54551 316.744 7.54551Z" fill="#00853B"/>
<path d="M156.103 90.7996C156.207 90.308 150.264 77.2468 156.916 72.5044C163.568 67.7618 171.022 61.6538 172.15 65.9991C173.278 70.3443 178.258 49.3437 187.111 41.4793C195.963 33.6149 197.103 21.0325 202.763 33.0093C208.422 44.9861 214.904 21.7409 224.763 28.4552C234.622 35.1694 252.402 21.5086 251.463 25.9262C250.523 30.3439 254.503 42.9893 254.294 43.9708C254.086 44.9523 160.519 91.7388 160.519 91.7388C160.519 91.7388 155.998 91.2912 156.103 90.7996Z" fill="#00853B"/>
<path d="M338.032 114.531C337.647 114.853 334.29 128.807 326.128 128.45C317.965 128.093 308.33 128.318 310.116 124.198C311.902 120.079 295.048 133.566 283.229 134.314C271.41 135.063 262.766 144.279 265.678 131.354C268.59 118.429 249.171 132.76 245.533 121.399C241.896 110.037 219.472 109.858 222.932 106.954C226.393 104.051 231.041 91.6337 231.81 90.9887C232.578 90.3436 335.13 111.072 335.13 111.072C335.13 111.072 338.418 114.207 338.032 114.531Z" fill="#00853B"/>
<path d="M370.474 365.01C370.474 365.01 366.236 350.623 371.265 340.029C373.405 335.6 374.049 330.597 373.102 325.771C372.626 323.481 371.94 321.239 371.054 319.075" stroke="#535461" stroke-width="2" stroke-miterlimit="10"/>
<path d="M374.22 319.842C374.22 321.604 371.025 326.722 371.025 326.722C371.025 326.722 367.851 321.604 367.851 319.842C367.851 318.996 368.188 318.183 368.786 317.584C369.386 316.985 370.199 316.648 371.045 316.648C371.893 316.648 372.706 316.985 373.304 317.584C373.904 318.183 374.24 318.996 374.24 319.842H374.22Z" fill="#00853B"/>
<path d="M378.408 328.141C377.454 329.621 371.995 332.181 371.995 332.181C371.995 332.181 372.098 326.154 373.052 324.674C373.27 324.3 373.56 323.973 373.908 323.715C374.254 323.457 374.65 323.271 375.071 323.17C375.492 323.069 375.928 323.054 376.355 323.128C376.782 323.201 377.188 323.359 377.552 323.595C377.915 323.829 378.227 324.135 378.468 324.495C378.709 324.854 378.875 325.258 378.955 325.683C379.036 326.109 379.028 326.545 378.935 326.968C378.841 327.39 378.663 327.789 378.41 328.141H378.408Z" fill="#00853B"/>
<path d="M378.18 342.029C376.602 342.822 370.603 342.275 370.603 342.275C370.603 342.275 373.723 337.122 375.306 336.33C375.681 336.139 376.091 336.023 376.509 335.991C376.929 335.959 377.351 336.009 377.751 336.14C378.152 336.271 378.521 336.479 378.841 336.754C379.16 337.028 379.421 337.363 379.611 337.739C379.801 338.114 379.913 338.525 379.944 338.945C379.974 339.364 379.922 339.786 379.789 340.185C379.656 340.585 379.445 340.954 379.169 341.271C378.893 341.589 378.557 341.849 378.18 342.037V342.029Z" fill="#00853B"/>
<path d="M375.811 351.914C374.39 352.964 368.385 353.436 368.385 353.436C368.385 353.436 370.596 347.826 372.016 346.782C372.699 346.323 373.532 346.146 374.342 346.286C375.153 346.426 375.878 346.873 376.367 347.534C376.856 348.195 377.07 349.02 376.967 349.835C376.864 350.652 376.45 351.397 375.811 351.914Z" fill="#00853B"/>
<path d="M366.656 331.888C367.917 333.117 373.815 334.392 373.815 334.392C373.815 334.392 372.375 328.537 371.086 327.308C370.472 326.753 369.667 326.457 368.839 326.483C368.012 326.51 367.227 326.857 366.651 327.451C366.074 328.044 365.75 328.839 365.747 329.666C365.744 330.494 366.063 331.29 366.636 331.888H366.656Z" fill="#00853B"/>
<path d="M363.991 344.001C365.569 344.794 371.568 344.248 371.568 344.248C371.568 344.248 368.447 339.095 366.865 338.303C366.109 337.927 365.235 337.865 364.433 338.133C363.632 338.399 362.97 338.972 362.589 339.727C362.21 340.481 362.144 341.354 362.407 342.157C362.669 342.959 363.239 343.625 363.991 344.009V344.001Z" fill="#00853B"/>
<path d="M362.926 355.641C364.346 356.692 370.352 357.163 370.352 357.163C370.352 357.163 368.14 351.553 366.721 350.509C366.039 350.051 365.205 349.872 364.395 350.012C363.585 350.153 362.86 350.6 362.37 351.261C361.882 351.923 361.666 352.747 361.77 353.563C361.874 354.379 362.288 355.123 362.926 355.641Z" fill="#00853B"/>
<path d="M210.829 388.975C210.829 388.975 214.577 393.875 209.096 401.261C203.615 408.646 199.096 414.91 200.905 419.524C200.905 419.524 209.17 405.78 215.921 405.588C222.672 405.398 218.229 397.239 210.829 388.975Z" fill="#00853B"/>
<path d="M194.581 388.975C194.581 388.975 190.833 393.875 196.314 401.261C201.795 408.646 206.314 414.91 204.504 419.524C204.504 419.524 196.24 405.78 189.489 405.588C182.736 405.398 187.176 397.239 194.581 388.975Z" fill="#00853B"/>
<path d="M215.318 398.321C215.318 400.054 215.128 401.441 214.888 401.441C214.649 401.441 214.459 400.075 214.459 398.321C214.459 396.567 214.698 397.406 214.937 397.406C215.176 397.406 215.318 396.595 215.318 398.321Z" fill="#FFD037"/>
<path d="M217.512 400.264C215.998 401.091 214.673 401.589 214.566 401.377C214.459 401.166 215.59 400.327 217.105 399.5C218.621 398.673 218.02 399.275 218.137 399.5C218.253 399.726 219.037 399.465 217.512 400.264Z" fill="#FFD037"/>
<path d="M215.108 398.321C215.108 400.054 215.3 401.441 215.538 401.441C215.777 401.441 215.969 400.075 215.969 398.321C215.969 396.567 215.729 397.406 215.49 397.406C215.25 397.406 215.108 396.595 215.108 398.321Z" fill="#FFD037"/>
<path d="M212.713 400.264C214.228 401.091 215.553 401.589 215.66 401.377C215.767 401.166 214.635 400.327 213.121 399.5C211.606 398.673 212.206 399.275 212.089 399.5C211.973 399.726 211.226 399.465 212.713 400.264Z" fill="#FFD037"/>
<path d="M193.601 419.454C193.601 419.454 201.348 417.904 203.409 415.836C205.47 413.768 214.766 410.158 215.804 412.737C216.842 415.316 229.747 424.093 220.964 425.644C212.181 427.193 200.311 427.69 197.758 426.673C195.205 425.655 193.601 419.454 193.601 419.454Z" fill="#A8A8A8"/>
<path opacity="0.2" d="M220.967 424.361C212.19 425.91 200.315 426.407 197.761 425.392C195.796 424.607 194.429 420.826 193.891 419.072L193.631 419.127C193.631 419.127 195.181 425.324 197.759 426.355C200.339 427.387 212.215 426.876 220.966 425.324C223.498 424.873 224.221 423.83 223.949 422.499C223.731 423.346 222.851 424.014 220.967 424.361Z" fill="black"/>
<path d="M343.602 371.577C343.602 371.577 367.101 366.875 373.374 360.608C379.646 354.343 407.841 343.376 410.973 351.211C414.105 359.045 453.288 385.678 426.67 390.384C400.051 395.09 364.002 396.65 356.167 393.516C348.332 390.382 343.602 371.577 343.602 371.577Z" fill="#A8A8A8"/>
<path opacity="0.2" d="M426.649 387.467C400.031 392.169 363.98 393.733 356.146 390.599C350.181 388.21 346.032 376.744 344.394 371.414L343.609 371.577C343.609 371.577 348.311 390.38 356.139 393.512C363.967 396.645 400.011 395.083 426.642 390.38C434.334 389.014 436.531 385.834 435.698 381.808C435.051 384.437 432.369 386.46 426.649 387.467Z" fill="black"/>
<path d="M332.342 394.639C332.342 394.639 342.826 394.318 345.992 392.065C349.159 389.812 362.112 387.13 362.897 390.734C363.682 394.338 378.65 408.677 366.815 408.772C354.979 408.868 339.317 406.93 336.162 405.004C333.007 403.078 332.342 394.639 332.342 394.639Z" fill="#A8A8A8"/>
<path opacity="0.2" d="M367.021 407.31C355.186 407.405 339.523 405.467 336.369 403.542C333.966 402.08 333.011 396.831 332.691 394.41H332.344C332.344 394.41 333.027 402.867 336.158 404.784C339.287 406.702 354.974 408.648 366.809 408.552C370.222 408.552 371.403 407.31 371.342 405.508C370.871 406.606 369.579 407.289 367.021 407.31Z" fill="black"/>
<path d="M377.24 407.781C378.492 406.761 379.403 405.386 379.855 403.836C380.057 403.058 379.987 402.234 379.654 401.502C379.321 400.769 378.745 400.175 378.026 399.816C376.346 399.175 374.559 400.337 373.195 401.514C371.831 402.693 370.273 404.033 368.493 403.78C369.408 402.95 370.093 401.898 370.481 400.724C370.869 399.551 370.946 398.297 370.705 397.084C370.627 396.582 370.415 396.11 370.091 395.718C369.156 394.722 367.47 395.152 366.352 395.937C362.802 398.435 361.812 403.253 361.793 407.594C361.6 406.008 361.578 404.407 361.725 402.817C361.794 402.016 361.665 401.21 361.352 400.471C361.038 399.73 360.548 399.079 359.925 398.572C359.087 398.121 358.146 397.898 357.195 397.923C356.403 397.809 355.597 397.863 354.828 398.081C354.058 398.301 353.344 398.679 352.732 399.193C352.139 399.988 351.834 400.961 351.866 401.953C351.897 402.944 352.263 403.895 352.904 404.652C354.227 406.135 355.789 407.385 357.526 408.351C358.849 409.137 359.979 410.213 360.829 411.497C360.93 411.675 361.012 411.863 361.076 412.057H371.075C373.314 410.917 375.388 409.478 377.24 407.781Z" fill="#00853B"/>
<path d="M184.888 316.615L185.011 354.133H196.971V316.615H184.888Z" fill="#929292"/>
<path d="M202.594 316.734V350.171L196.71 354.132V316.734H202.594Z" fill="#838383"/>
<path d="M212.131 317.352L212.254 354.87H224.214V317.352H212.131Z" fill="#929292"/>
<path d="M229.837 317.47V350.908L223.953 354.868V317.47H229.837Z" fill="#838383"/>
<path d="M22.9052 395.029L23.0282 432.547H34.9881V395.029H22.9052Z" fill="#929292"/>
<path d="M39.5176 395.147V428.584L34.7272 432.545V395.147H39.5176Z" fill="#838383"/>
<path d="M50.1478 395.766L50.2708 433.284H62.2308V395.766H50.1478Z" fill="#929292"/>
<path d="M66.7602 395.884V429.322L61.9698 433.283V395.884H66.7602Z" fill="#838383"/>
<path d="M16.6904 399.126L71.7545 399.124C71.7545 399.124 96.7354 362.677 147.475 340.311C179.587 326.521 213.521 317.436 248.229 313.336L247.459 302.327L207.313 305.135C207.313 305.135 132.241 306.637 77.7345 329.152C57.1867 337.64 40.7704 351.843 31.7031 361.375C16.7897 377.056 15.8813 387.661 15.8813 387.661L16.6904 399.126Z" fill="#929292"/>
<path d="M15.8135 387.824L71.5509 387.447V399.11H15.8135V387.824Z" fill="#9F9F9F"/>
<path d="M71.3579 387.835C71.3579 387.835 84.1355 358.004 135.013 335.725C185.889 313.446 247.455 302.011 247.455 302.011C247.687 301.451 248.261 313.504 248.261 313.504C248.261 313.504 194.34 327.668 143.473 349.984C92.6046 372.3 71.5907 399.259 71.5907 399.259L71.3579 387.835Z" fill="#838383"/>
<path d="M202.407 241.626C202.407 241.626 203.285 241.718 204.607 241.812C207.44 242.012 211.384 247.282 216.622 258.373L220.102 265.744C220.102 265.744 234.635 248.917 240.982 244.821L243.622 252.678L227.455 275.066C226.381 276.806 224.907 278.262 223.155 279.316C219.148 281.662 214.894 281.209 212.334 277.052C208.329 270.549 203.44 260.585 202.864 257.756L202.407 241.626Z" fill="#C08F8F"/>
<path d="M157.4 230.413C161.925 230.413 165.593 226.16 165.593 220.913C165.593 215.666 161.925 211.413 157.4 211.413C152.877 211.413 149.209 215.666 149.209 220.913C149.209 226.16 152.877 230.413 157.4 230.413Z" fill="#766E6E"/>
<path d="M227.183 365.129C227.183 365.129 227.477 373.141 248.475 378.367C248.678 378.411 248.862 378.515 249.007 378.663C249.151 378.812 249.247 379 249.285 379.204C249.432 380.244 247.999 381.903 236.043 380.62C230.279 380.001 224.461 380.059 218.71 380.793C218.266 380.864 217.813 380.835 217.382 380.708C216.951 380.582 216.553 380.362 216.217 380.063C215.881 379.765 215.615 379.396 215.439 378.983C215.263 378.57 215.18 378.123 215.197 377.674L215.268 366.753L227.183 365.129Z" fill="#C08F8F"/>
<path d="M244.236 361.876C244.236 361.876 244.53 369.888 265.528 375.114C265.73 375.158 265.915 375.261 266.059 375.41C266.202 375.559 266.3 375.747 266.337 375.951C266.484 376.99 265.051 378.649 253.096 377.367C247.332 376.747 241.514 376.806 235.763 377.54C235.319 377.61 234.865 377.581 234.434 377.455C234.003 377.328 233.606 377.108 233.27 376.81C232.934 376.512 232.668 376.143 232.492 375.73C232.315 375.316 232.233 374.869 232.249 374.42L232.321 363.5L244.236 361.876Z" fill="#C08F8F"/>
<path d="M179.905 234.81C181.141 234.307 182.158 233.953 183.068 233.47C189.125 230.266 193.742 219.713 190.032 213.217C188.693 211.04 186.938 209.149 184.866 207.652C182.794 206.155 180.448 205.083 177.96 204.495C174.773 204.561 171.618 205.146 168.619 206.228C165.94 207.631 163.85 209.944 162.726 212.751C161.679 215.497 161.212 218.429 161.353 221.365C160.906 224.477 165.288 240.021 179.905 234.81Z" fill="#766E6E"/>
<path d="M243.589 310.039C240.842 305.172 236.458 301.436 231.216 299.497C224.071 297.401 204.856 297.504 197.616 293.43C197.616 293.43 178.662 293.82 167.078 287.724C167.078 287.724 155.611 303.584 164.983 316.312C167.118 319.212 171.464 323.093 174.907 324.147C178.981 325.392 184.649 325.067 194.709 325.067C199.314 325.067 202.384 325.282 204.814 329.094C206.043 331.021 208.264 343.827 201.175 365.286C201.038 365.7 201.8 366.409 201.897 366.452C207.7 368.735 213.885 369.889 220.122 369.851C230.776 369.79 263.987 368.333 263.388 365.013C259.159 341.587 243.589 310.039 243.589 310.039Z" fill="#E8DEAE"/>
<path d="M176.068 231.851L177.627 238.266C177.837 239.132 177.763 240.043 177.415 240.864C177.068 241.685 176.465 242.372 175.698 242.825L168.212 247.237C164.78 249.26 168.425 267.402 169.692 267.516C169.692 267.516 174.599 279.065 168.413 287.725C168.664 287.666 176.095 294.39 185.186 295.883C191.177 296.587 197.238 296.437 203.187 295.437C203.187 295.437 212.027 271.503 207.91 259.405L204.616 241.808C204.616 241.808 189.219 241.267 189.219 233.289L176.068 231.851Z" fill="#C08F8F"/>
<path d="M168.147 247.29C164.954 249.672 162.505 252.915 161.089 256.638L151.593 281.599C151.593 281.599 162.492 284.892 162.859 284.07C164.71 279.976 170.536 267.309 171.808 267.287L168.147 247.29Z" fill="#43A16D"/>
<path d="M202.407 241.227C202.407 241.227 203.285 241.319 204.607 241.415C207.44 241.618 211.384 246.941 216.622 258.144L220.102 265.598C220.102 265.598 224.914 278.265 223.153 279.307C219.146 281.676 214.892 281.214 212.332 277.019C208.327 270.449 203.438 260.379 202.862 257.527L202.407 241.227Z" fill="#43A16D"/>
<path d="M189.953 217.427C186.566 210.099 179.761 206.033 174.754 208.347C170.888 210.132 169.224 215.196 170.222 220.785C170.01 220.707 169.783 220.677 169.557 220.696C169.332 220.716 169.113 220.785 168.917 220.899C167.877 221.592 168.151 223.845 169.536 225.917C169.91 226.644 170.456 227.269 171.125 227.737C171.795 228.206 172.568 228.505 173.379 228.609C177.018 234.121 182.688 236.884 187.015 234.886C192.023 232.572 193.338 224.756 189.953 217.427Z" fill="#C08F8F"/>
<path d="M171.16 281.238C170.272 276.716 169.781 272.126 169.69 267.518C168.423 267.404 168.208 247.239 168.208 247.239L175.696 242.827C177.273 241.895 183.909 252.437 186.897 251.87C190.017 251.281 191.116 237.598 191.75 238.092C191.877 238.19 192.01 238.286 192.143 238.381C196.607 241.528 204.624 241.81 204.624 241.81L207.917 259.407C210.567 265.838 209.293 276.567 208.811 279.125C208.749 279.457 207.963 279.751 207.624 279.784C202.93 280.238 171.583 283.27 171.16 281.238Z" fill="#43A16D"/>
<path d="M175.762 279.643C175.762 279.643 193.496 238.641 199.519 239.681C199.519 239.681 204.455 239.079 205.981 241.252C207.506 243.424 205.239 281.954 198.937 295.884C193.705 307.447 166.891 290.124 166.891 290.124C167.135 289.187 167.665 288.349 168.408 287.727C171.402 285.582 173.908 282.827 175.762 279.643Z" fill="#E8DEAE"/>
<path d="M179.173 208.633C178.081 209.184 177.652 210.222 176.79 212.298C175.127 216.309 174.776 221.369 173.261 222.608C173.095 222.759 172.888 222.856 172.665 222.884C171.971 222.945 171.498 222.14 170.465 221.097C169.685 220.308 169.402 220.208 168.953 219.767C168.134 218.888 167.533 217.829 167.198 216.674C166.864 215.521 166.806 214.304 167.029 213.124C167.52 211.129 168.748 209.394 170.467 208.27C173.003 206.545 176.11 205.871 179.134 206.391C181.124 206.673 183.034 207.37 184.739 208.435C186.444 209.5 187.906 210.912 189.032 212.577C188.833 212.827 182.812 206.798 179.173 208.633Z" fill="#766E6E"/>
<path d="M150.341 283.306C150.029 284.131 150.014 285.039 150.299 285.874C150.584 286.711 151.149 287.42 151.902 287.884C153.696 289.028 155.753 289.695 157.877 289.821C166.406 290.333 180.598 289.984 188.273 286.979L185.388 279.699L161.322 277.357C159.498 277.16 157.655 277.415 155.954 278.099C154.253 278.785 152.747 279.878 151.57 281.285C151.061 281.892 150.646 282.574 150.341 283.306Z" fill="#C08F8F"/>
<path d="M187.937 286.971C187.937 286.971 191.561 288.396 197.135 284.271C197.461 284.033 197.731 283.728 197.931 283.379C198.13 283.029 198.253 282.64 198.292 282.24L198.505 279.924C198.57 279.215 198.366 278.508 197.932 277.943C197.498 277.378 196.867 276.998 196.165 276.879C195.627 276.86 195.091 276.924 194.574 277.069C192.579 277.936 192.941 277.749 192.457 277.563C192.457 277.563 194.782 275.459 194.854 274.112C194.928 272.765 186.726 277.041 185.051 279.688L187.937 286.971Z" fill="#C08F8F"/>
<path d="M243.081 252.72C243.081 252.72 246.705 254.144 252.279 250.018C252.605 249.781 252.876 249.477 253.075 249.126C253.274 248.776 253.397 248.388 253.436 247.987L253.649 245.671C253.715 244.963 253.51 244.255 253.076 243.69C252.642 243.125 252.011 242.745 251.309 242.626C250.772 242.607 250.236 242.672 249.718 242.816C247.723 243.683 248.085 243.496 247.602 243.311C247.602 243.311 249.926 241.206 249.999 239.859C250.072 238.513 241.869 242.789 240.195 245.436L243.081 252.72Z" fill="#C08F8F"/>
<path d="M181.385 390.11C178.085 390.618 174.714 389.918 171.89 388.138C170.759 387.417 169.393 387.159 168.077 387.417L168.149 390.254L163.883 390.129C163.883 390.129 163.671 387.316 163.48 384.784C163.512 383.702 163.674 382.626 163.959 381.583C164.188 380.48 164.537 379.407 165 378.381C167.297 378.458 173.222 378.802 174.313 377.488C174.731 378.337 175.291 379.108 175.968 379.77C176.19 379.993 176.423 380.215 176.661 380.43C176.901 380.644 177.073 380.768 177.282 380.932C177.549 381.145 177.823 381.354 178.114 381.561C181.025 383.616 184.647 385.191 186.652 386.651C189.774 388.973 185.453 389.526 181.385 390.11Z" fill="#C28C76"/>
<path d="M164.979 378.397C164.07 380.409 163.555 382.575 163.46 384.78C163.508 385.363 163.547 385.863 163.586 386.271C165.086 386.297 166.844 386.172 166.153 385.355C165.005 383.997 165.931 378.421 165.931 378.421L164.979 378.397Z" fill="#65554F"/>
<path d="M187.275 387.225C187.077 387.022 186.862 386.837 186.632 386.671C185.307 385.706 183.267 384.687 181.2 383.516C179.565 383.971 178.104 384.904 177.003 386.195C176.055 387.358 175.979 389.238 175.721 389.559C176.774 390.618 187.488 389.268 187.693 388.209V388.175C187.675 387.817 187.526 387.479 187.275 387.225Z" fill="#65554F"/>
<path d="M181.381 390.11C184.652 389.639 188.074 389.192 187.676 387.84C177.646 391.332 173.178 387.706 172.313 386.575C171.962 386.22 171.541 385.942 171.077 385.757C170.613 385.574 170.116 385.489 169.618 385.507C167.467 385.86 165.262 385.393 163.44 384.198C163.435 384.393 163.444 384.587 163.466 384.78C163.658 387.312 163.868 390.126 163.868 390.126L168.137 390.251L168.064 387.414C168.745 387.331 169.434 387.427 170.066 387.693C170.697 387.958 171.249 388.383 171.666 388.927C172.688 390.315 177.308 390.698 181.381 390.11Z" fill="#65554F"/>
<path d="M171.671 378.397C172.041 379.19 172.541 379.915 173.152 380.541C173.739 381.179 174.383 381.763 175.076 382.286C175.76 382.813 176.482 383.289 177.236 383.709C177.613 383.919 178.001 384.111 178.4 384.292C178.796 384.473 179.201 384.633 179.613 384.771C179.3 384.481 178.966 384.189 178.633 383.928C178.299 383.666 177.968 383.39 177.632 383.134C176.968 382.601 176.29 382.104 175.625 381.586C174.959 381.068 174.296 380.559 173.636 380.034C172.974 379.509 172.302 378.992 171.671 378.397Z" fill="#65554F"/>
<path d="M165.632 400.022C162.115 400.69 158.474 400.063 155.385 398.255C154.106 397.484 152.616 397.134 151.127 397.257L151.217 399.665L146.632 399.687C146.632 399.687 146.531 397.677 146.24 394.964C146.23 393.807 146.365 392.653 146.641 391.529C146.848 390.344 147.182 389.185 147.637 388.071C150.103 388.069 156.465 388.227 157.575 386.774C158.055 387.667 158.684 388.473 159.435 389.155C159.677 389.391 159.938 389.616 160.201 389.838C160.426 390.017 160.646 390.188 160.882 390.357C161.179 390.576 161.478 390.791 161.793 390.997C164.979 393.101 168.929 394.651 171.13 396.144C174.587 398.494 169.98 399.25 165.632 400.022Z" fill="#C28C76"/>
<path d="M147.638 388.071C146.739 390.259 146.266 392.6 146.245 394.965C146.302 395.608 146.379 396.129 146.432 396.56C148.044 396.535 149.922 396.332 149.147 395.481C147.876 394.079 148.657 388.058 148.657 388.058L147.638 388.071Z" fill="#65554F"/>
<path d="M171.844 396.713C171.623 396.504 171.385 396.315 171.133 396.146C169.675 395.156 167.454 394.139 165.196 392.96C163.462 393.509 161.93 394.563 160.797 395.985C159.824 397.262 159.804 399.281 159.545 399.637C160.712 400.732 172.142 398.9 172.322 397.75L172.329 397.712C172.292 397.331 172.12 396.977 171.844 396.713Z" fill="#65554F"/>
<path d="M165.63 400.021C169.12 399.398 172.774 398.79 172.296 397.358C161.679 401.465 156.75 397.747 155.784 396.567C155.396 396.199 154.937 395.917 154.435 395.737C153.932 395.558 153.397 395.486 152.865 395.524C150.573 395.983 148.193 395.561 146.198 394.344C146.21 394.559 146.226 394.77 146.247 394.975C146.538 397.687 146.637 399.694 146.637 399.694L151.219 399.669L151.139 397.262C152.625 397.144 154.11 397.495 155.387 398.265C158.477 400.067 162.115 400.692 165.63 400.021Z" fill="#65554F"/>
<path d="M154.797 387.828C155.222 388.663 155.783 389.421 156.46 390.07C157.114 390.733 157.825 391.336 158.587 391.872C159.339 392.412 160.13 392.895 160.952 393.32C161.365 393.531 161.787 393.722 162.208 393.912C162.635 394.099 163.073 394.256 163.522 394.38C163.171 394.067 162.803 393.789 162.438 393.512C162.074 393.235 161.695 392.968 161.335 392.698C160.592 392.154 159.867 391.637 159.133 391.107C158.4 390.578 157.675 390.058 156.936 389.521C156.198 388.984 155.499 388.437 154.797 387.828Z" fill="#65554F"/>
<path d="M143.11 308.415C143.11 308.415 162.675 314.173 167.26 316.376C168.453 316.95 177.859 319.638 178.922 325.36C181.54 339.474 177.373 377.085 174.34 379.173C171.308 381.261 163.871 379.178 163.871 379.178C163.715 376.399 163.713 373.614 163.867 370.836C164.337 358.676 164.822 339.554 158.825 335.837L147.068 330.143C147.068 330.143 160.869 338.847 161.972 340.82C163.074 342.794 160.427 388.708 160.427 388.708C160.427 388.708 144.63 391.454 143.965 387.929C143.3 384.406 142.457 365.524 139.15 352.386C128.055 346.44 127.463 345.707 116.366 339.766C110.286 339.088 106.478 331.671 106.478 331.671C106.478 331.671 100.82 322.253 109.609 306.754L143.11 308.415Z" fill="#A8A8A8"/>
<path d="M119.661 254.41C125.411 254.41 130.072 249.749 130.072 243.999C130.072 238.25 125.411 233.589 119.661 233.589C113.912 233.589 109.251 238.25 109.251 243.999C109.251 249.749 113.912 254.41 119.661 254.41Z" fill="#ABBCCA"/>
<path d="M132.268 249.61C119.765 252.527 116.815 246.093 116.465 240.675C116.115 235.256 118.177 226.193 126.05 223.25C133.923 220.306 157.713 243.684 132.268 249.61Z" fill="#ABBCCA"/>
<path d="M133.06 222.697C127.896 223.701 124.724 230.282 125.454 237.92H125.416C124.003 238.196 123.162 240 123.552 241.992C123.942 243.984 125.395 245.326 126.808 245.067C126.996 245.03 127.177 244.964 127.345 244.871C130.218 250.652 135.788 253.872 140.373 252.976C146.062 251.867 148.079 244.845 146.4 236.248C144.72 227.65 138.754 221.587 133.06 222.697Z" fill="#C28C76"/>
<path d="M138.56 253.813C138.298 252.893 139.394 250.641 140.061 249.347C135.535 250.04 130.151 246.845 127.345 241.2C127.177 241.293 126.996 241.359 126.808 241.395C126.808 241.395 126.366 253.153 123.82 253.299C120.84 255.853 111.103 264.504 113.088 268.522C114.756 271.885 123.74 270.152 137.138 267.564C138.441 267.36 139.656 266.781 140.634 265.896C143.447 263.216 142.68 258.394 142.301 257.308C141.773 255.864 138.936 255.143 138.56 253.813Z" fill="#C28C76"/>
<path d="M144.387 230.31C144.387 230.31 141.774 226.247 141.016 227.155C140.259 228.063 138.803 230.514 133.835 230.251C131.79 233.042 130.415 236.266 129.813 239.673C129.12 244.762 125.416 237.923 125.416 237.923C125.416 237.923 120.665 226.087 125.796 223.269C128.12 221.871 130.781 221.133 133.493 221.133C136.206 221.133 138.867 221.871 141.191 223.269C146.313 226.152 144.387 230.31 144.387 230.31Z" fill="#ABBCCA"/>
<path d="M198.098 302.538C197.089 302.538 197.593 301.468 197.593 301.468C209.22 301.218 207.087 299.771 206.895 299.079C206.702 298.387 198.142 298.637 195.93 298.637C194.919 298.75 193.899 298.544 193.012 298.046C197.663 293.998 195.65 293.295 194.52 293.295C193.754 293.295 190.099 296.358 187.822 298.321C187.234 298.832 186.542 299.211 185.795 299.43C185.047 299.649 184.26 299.705 183.49 299.592L162.935 296.624C162.422 296.551 161.939 296.34 161.536 296.014C161.134 295.689 160.827 295.26 160.647 294.774L158.426 288.777C158.309 288.456 157.262 285.596 153.333 274.423C149.131 262.475 147.182 256.407 144.284 255.736C142.617 255.352 143.53 263.288 138.056 266.232C134.014 268.405 122.975 265.782 122.975 265.782L123.587 253.35C112.049 255.33 107.313 262.373 107.313 262.373C107.313 262.373 90.2259 288.494 89.0212 292.087C85.2703 303.364 84.6671 328.114 84.57 334.595C84.5584 335.368 84.4559 336.137 84.2649 336.886L82.5975 344.208C80.3303 350.795 79.9975 350.968 80.5938 352.517C81.19 354.067 83.0117 348.396 83.478 347.099C83.9443 345.803 84.3707 346.025 84.3707 346.025C82.8783 358.902 83.9287 357.335 84.6792 357.385C85.4298 357.435 86.2877 348.42 86.4385 348.054C86.5893 347.688 87.3676 348.304 87.3676 348.304C86.9845 355.901 86.6431 357.263 87.8339 358.305C89.0246 359.347 89.6001 349.791 89.6677 348.787C89.7353 347.784 90.7684 348.372 90.7684 348.372C90.2484 359.985 91.8275 357.956 92.5312 357.815C93.235 357.673 93.5521 349.126 93.7029 346.895C93.6562 345.876 93.9302 344.869 94.4864 344.016C98.2163 348.93 99.0505 346.962 99.1287 345.838C99.1817 345.004 95.6893 340.398 93.9282 338.136C93.6201 337.738 93.4047 337.277 93.2974 336.785C93.1901 336.293 93.1935 335.784 93.3077 335.294L101.688 299.599C101.96 298.449 102.408 297.348 103.018 296.336L108.591 287.075L113.882 278.283L143.142 286.268C144.422 292.582 146.849 302.174 150.31 305.772C156.016 311.701 178.992 309.739 185.126 308.876C186.129 308.734 187.147 308.746 188.147 308.909L194.01 309.85C200.737 311.675 200.925 311.987 202.433 311.296C203.941 310.604 198.162 309.162 196.839 308.794C195.517 308.427 195.706 307.961 195.706 307.961C208.659 308.59 207.024 307.648 207.024 306.894C207.024 306.14 197.968 305.885 197.593 305.761C197.219 305.636 197.78 304.82 197.78 304.82C205.387 304.695 206.769 304.945 207.711 303.686C208.652 302.428 199.098 302.538 198.098 302.538Z" fill="#C28C76"/>
<path d="M140.028 254.554C140.028 254.554 145.446 254.892 146.978 257.204C148.341 259.233 153.546 273.27 157.089 283.072C159.493 289.74 160.59 292.42 161.045 293.458C161.12 293.634 161.133 293.831 161.081 294.015C161.028 294.199 160.914 294.36 160.757 294.47C156.697 297.369 152.439 299.98 148.017 302.287C147.827 302.356 147.621 302.355 147.433 302.283C147.245 302.21 147.09 302.073 146.995 301.895C145.103 298.328 135.273 279.28 137.636 273.671C140.229 267.468 140.028 254.554 140.028 254.554Z" fill="#737065"/>
<path d="M146.195 307.598C142.628 287.023 146.694 293.183 146.694 279.518C146.694 275.151 141.13 265.003 141.436 263.225L142.715 255.772C142.741 255.62 142.717 255.463 142.645 255.326C142.575 255.19 142.462 255.079 142.323 255.012C142.323 255.012 139.688 254.226 139.61 254.692L138.847 259.069C138.533 260.863 137.582 262.483 136.168 263.631C134.755 264.779 132.975 265.379 131.155 265.319H130.95C128.997 265.256 127.144 264.441 125.78 263.042C124.415 261.644 123.644 259.771 123.629 257.817L123.587 253.31C119.03 253.464 114.627 255.007 110.972 257.732C105.309 261.863 92.7303 283.438 88.638 290.319C88.5593 290.451 88.5093 290.598 88.4911 290.751C88.4728 290.903 88.4867 291.059 88.532 291.205C88.5772 291.352 88.6528 291.488 88.7538 291.604C88.8547 291.72 88.9789 291.814 89.1182 291.879L102.161 298.031L111.842 281.64L106.27 308.391C106.247 308.502 106.249 308.616 106.276 308.726C106.303 308.836 106.353 308.938 106.424 309.026C106.496 309.114 106.585 309.184 106.688 309.233C106.79 309.282 106.901 309.307 107.015 309.308L146.718 309.203C146.444 308.706 146.266 308.162 146.195 307.598Z" fill="#737065"/>
<path d="M136.683 400.882C136.683 400.882 142.602 402.593 133.26 409.797C133.26 409.797 102.118 410.729 98.783 408.126C95.4484 405.522 100.43 392.245 100.43 392.245C107.12 393.934 113.951 395.007 120.838 395.45C123.192 395.542 125.529 399.35 125.529 399.35L136.683 400.882Z" fill="#4C4C56"/>
<path d="M99.9222 348.408C99.9222 348.408 131.032 338.337 131.918 358.478C132.803 378.619 113.544 418.855 113.544 418.855L96.0899 413.368L101.116 382.251C101.116 382.251 81.2682 375.383 80.0809 374.931C78.8935 374.478 99.9222 348.408 99.9222 348.408Z" fill="#6B6A7E"/>
<path d="M96.199 359.404L98.3776 361.567L99.7745 362.964C99.7745 362.964 106.882 375.663 116.068 367.852C125.254 360.042 108.941 354.195 105.68 353.895C105.006 353.773 104.372 353.487 103.836 353.059C103.3 352.632 102.878 352.078 102.609 351.448C102.106 350.481 101.744 349.447 101.534 348.379L96.199 359.404Z" fill="#866067"/>
<path opacity="0.05" d="M96.199 359.404L98.3776 361.567L99.7745 362.964C99.7745 362.964 106.882 375.663 116.068 367.852C125.254 360.042 108.941 354.195 105.68 353.895C105.006 353.773 104.372 353.487 103.836 353.059C103.3 352.632 102.878 352.078 102.609 351.448C102.106 350.481 101.744 349.447 101.534 348.379L96.199 359.404Z" fill="black"/>
<path opacity="0.1" d="M97.6343 359.405L99.8132 361.568C100.09 357.81 101.58 354.242 104.058 351.402C103.555 350.436 103.193 349.402 102.984 348.332L97.6343 359.405Z" fill="black"/>
<path d="M85.9586 326.521L106.394 348.987C106.394 348.987 99.288 355.823 100.768 362.988L85.9532 344.751L85.9586 326.521Z" fill="#C4C8E2"/>
<path opacity="0.1" d="M86.0763 326.521V344.759L88.4493 347.682L95.4935 356.348L100.891 362.992C99.4106 355.826 106.518 348.988 106.518 348.988L86.0763 326.521Z" fill="black"/>
<path d="M88.0714 294.279C88.0714 294.279 88.0714 301.115 82.7379 299.167C77.4045 297.219 81.5506 376.341 81.5506 376.341C81.5506 376.341 96.9584 363.642 93.9907 354.526C91.314 346.453 90.2027 337.943 90.7164 329.452C90.9972 320.352 88.0714 294.279 88.0714 294.279Z" fill="#D39999"/>
<path d="M90.4564 305.608C90.4564 305.608 86.0087 318.955 90.4564 329.056C94.9042 339.158 64.0804 323.51 64.0804 323.51C64.0804 323.51 70.8942 319.927 68.5282 302.67L90.4564 305.608Z" fill="#FDC2CC"/>
<path opacity="0.1" d="M89.0491 336.94C88.8665 340.52 88.8665 344.107 89.0491 347.686L96.0933 356.353C95.0671 353.942 93.9016 351.593 92.6024 349.318C91.5069 347.453 91.2625 340.018 91.2053 331.532L88.6227 328.693C88.8947 333.272 89.0491 336.94 89.0491 336.94Z" fill="black"/>
<path d="M84.8561 292.513C84.5286 290.802 87.0973 293.38 87.9207 294.876L87.9622 294.96C89.1496 297.262 88.5551 296.587 90.3352 301.797C92.1153 307.007 89.7424 344.764 92.4291 349.368C94.2539 352.613 95.8384 355.988 97.1699 359.464L92.4291 357.508C92.4291 357.508 90.6489 351.646 89.4685 350.342C88.2881 349.038 88.8758 336.996 88.8758 336.996C88.8758 336.996 87.9883 316.155 87.0956 311.599C86.3919 307.927 85.5547 296.113 84.8561 292.513Z" fill="#C4C8E2"/>
<path opacity="0.1" d="M84.8561 292.513C84.5286 290.802 87.0973 293.38 87.9207 294.876L87.9622 294.96C89.1496 297.262 88.5551 296.587 90.3352 301.797C92.1153 307.007 89.7424 344.764 92.4291 349.368C94.2539 352.613 95.8384 355.988 97.1699 359.464L92.4291 357.508C92.4291 357.508 90.6489 351.646 89.4685 350.342C88.2881 349.038 88.8758 336.996 88.8758 336.996C88.8758 336.996 87.9883 316.155 87.0956 311.599C86.3919 307.927 85.5547 296.113 84.8561 292.513Z" fill="black"/>
<path d="M75.6329 373.729C75.6329 373.729 122.443 371.772 128.371 385.454C134.299 399.135 120.077 407.605 120.077 407.605C120.077 407.605 100.229 400.769 95.7812 401.743C91.3335 402.717 75.6329 399.135 75.6329 399.135V373.729Z" fill="#706F81"/>
<path d="M99.4752 365.267C99.4752 365.267 110.144 358.754 116.07 362.966C121.996 367.178 121.403 378.595 113.11 378.912C110.733 379.036 108.359 378.632 106.156 377.732C103.953 376.831 101.977 375.455 100.367 373.702L99.4752 365.267Z" fill="#8C676D"/>
<path d="M77.1584 288.095C77.1584 288.095 67.677 280.927 53.7497 307.276C39.8225 333.623 43.3827 378.909 43.3827 378.909C43.3827 378.909 53.7497 379.56 53.4568 390.302C53.1639 401.043 93.7532 403.345 93.7532 403.345C93.7532 403.345 93.1604 296.541 89.0126 293.626C85.2778 291.349 81.3021 289.494 77.1584 288.095Z" fill="#CFD1DC"/>
<path opacity="0.1" d="M73.4751 307.522C75.1864 308.927 76.5594 310.7 77.4923 312.708C78.4253 314.716 78.894 316.908 78.8639 319.123C78.9125 328.875 79.1291 349.891 80.0305 353.866C81.2178 359.076 98.9915 365.912 108.179 365.59C108.179 365.59 112.628 374.705 107.292 376.662C101.957 378.619 69.3688 376.662 69.3688 376.662C69.3688 376.662 56.6271 360.716 56.3342 346.738C56.0413 332.76 54.2403 317.099 56.3342 314.176C58.0467 311.695 65.2019 301.107 73.4751 307.522Z" fill="black"/>
<path d="M73.9379 306.218C75.6579 307.62 77.0391 309.394 77.9784 311.405C78.9178 313.416 79.3912 315.612 79.3632 317.831C79.4117 327.583 79.6284 348.6 80.5297 352.574C81.717 357.785 99.4926 364.621 108.679 364.298C108.679 364.298 113.127 373.413 107.791 375.37C102.456 377.328 69.868 375.37 69.868 375.37C69.868 375.37 57.1263 359.424 56.8334 345.447C56.5404 331.47 54.7396 315.807 56.8334 312.885C58.5096 310.421 65.6648 299.803 73.9379 306.218Z" fill="#CFD1DC"/>
<path d="M133.421 416.243C133.421 416.243 139.34 417.953 129.999 425.157C129.999 425.157 98.8564 426.09 95.5213 423.486C92.1864 420.883 97.1679 407.606 97.1679 407.606C103.858 409.295 110.69 410.367 117.577 410.81C119.93 410.903 122.267 414.711 122.267 414.711L133.421 416.243Z" fill="#4C4C56"/>
<path opacity="0.1" d="M74.4838 330.585C74.4838 330.585 75.9641 351.103 85.7505 355.66L74.4838 330.585Z" fill="black"/>
<path d="M58.2259 284.674C58.6464 286.299 59.2536 287.87 60.0354 289.356L60.1616 289.588C65.2415 298.908 76.0305 302.307 84.8288 297.353C93.627 292.4 97.4131 280.783 93.4833 270.813C89.5534 260.844 79.258 255.941 69.9471 259.597C60.6363 263.253 55.5154 274.234 58.2284 284.682L58.2259 284.674Z" fill="#8C676D"/>
<path opacity="0.1" d="M53.7567 307.629C55.6765 303.907 57.8918 300.347 60.3814 296.98C58.3813 299.871 56.5646 302.885 54.9423 306.003C41.015 332.383 44.5752 377.636 44.5752 377.636C44.5752 377.636 54.9422 378.288 54.6493 389.03C54.3841 398.674 87.0504 401.497 93.7462 401.974V403.678C93.7462 403.678 53.1552 401.376 53.4499 390.634C53.7445 379.893 43.3758 379.242 43.3758 379.242C43.3758 379.242 39.845 334.009 53.7567 307.629Z" fill="black"/>
<path d="M55.2807 261.914C55.9683 260.966 56.8658 260.189 57.903 259.645C58.9402 259.101 60.0892 258.804 61.2602 258.777C62.7174 257.978 64.2494 257.325 65.8343 256.825C66.7244 256.622 67.5696 256.258 68.3279 255.749C68.8711 255.251 69.3769 254.714 69.8414 254.142C72.0879 251.757 75.1792 251.413 78.08 250.928C80.4399 250.536 84.0478 248.416 86.1108 250.863C86.4152 251.203 86.61 251.626 86.6699 252.079C86.7298 252.53 86.6518 252.99 86.4463 253.397C86.2454 253.684 85.9379 253.869 85.8201 254.227C85.7377 254.699 85.831 255.185 86.0824 255.594L90.655 265.327C89.9414 266.051 89.0772 266.609 88.124 266.961C87.1706 267.315 86.1514 267.454 85.1385 267.369C84.5777 267.31 84.0206 267.219 83.4702 267.096C82.3301 268.542 80.6817 268.238 79.0867 269.172C78.1447 269.83 77.419 270.753 77.0017 271.824C75.6243 274.798 75.0611 278.086 75.3694 281.35C75.4871 282.578 75.6186 284.105 74.6695 284.763C74.3025 284.97 73.9168 285.141 73.5176 285.274C71.7249 286.122 71.5888 288.792 70.8058 290.77C69.8498 293.178 67.5568 295.275 68.0547 297.847C68.294 298.481 68.3822 299.16 68.3125 299.834C68.1844 300.22 67.9164 300.544 67.5613 300.742C67.0118 301.011 66.3927 301.105 65.7882 301.009C65.1838 300.914 64.6233 300.635 64.183 300.211C63.2639 299.312 62.5213 298.249 61.9934 297.077L54.5773 283.049C53.6949 281.487 52.9414 279.856 52.3241 278.172C51.4321 275.429 51.2352 272.507 51.7513 269.67C52.2673 266.832 53.4801 264.167 55.2807 261.914Z" fill="#9A8A8D"/>
<path d="M440.653 211.917C434.399 210.184 439.266 205.314 439.266 205.314L439.3 204.95C439.308 204.876 439.298 204.803 439.27 204.734C439.242 204.667 439.199 204.606 439.143 204.559C439.087 204.511 439.02 204.477 438.949 204.461C438.878 204.446 438.803 204.447 438.732 204.466C437.489 204.795 434.892 205.202 435.421 202.645C435.411 202.304 435.322 201.969 435.16 201.669C434.998 201.368 434.768 201.109 434.489 200.912C434.415 200.86 434.352 200.792 434.306 200.712C434.261 200.633 434.234 200.545 434.226 200.455C434.219 200.364 434.232 200.272 434.264 200.187C434.296 200.101 434.346 200.024 434.411 199.96C435.075 199.369 435.607 198.645 435.971 197.835C435.996 197.761 436.001 197.681 435.984 197.605C435.968 197.528 435.931 197.457 435.878 197.399C435.825 197.342 435.757 197.3 435.682 197.276C435.607 197.254 435.527 197.251 435.45 197.271L433.053 197.907C433.001 197.922 432.945 197.924 432.891 197.915C432.837 197.904 432.786 197.881 432.743 197.847C432.7 197.813 432.665 197.77 432.642 197.72C432.619 197.669 432.607 197.615 432.61 197.56V197.236C432.61 197.186 432.6 197.136 432.58 197.09C432.561 197.045 432.533 197.003 432.497 196.968C432.462 196.933 432.419 196.906 432.373 196.886C432.326 196.868 432.277 196.858 432.227 196.859L431.374 196.874C431.235 196.876 431.098 196.846 430.974 196.787C430.849 196.727 430.739 196.64 430.654 196.531C430.568 196.422 430.509 196.296 430.481 196.159C430.453 196.024 430.456 195.884 430.492 195.75L431.358 192.414C431.509 191.833 431.443 191.217 431.173 190.68C429.697 187.843 428.982 184.669 429.102 181.473C429.102 181.473 432.445 186.463 442.027 190.729C442.027 190.729 441.944 184.558 446.613 187.394C446.613 187.394 448.426 188.434 448.347 192.941L450.304 194.166C451.712 195.052 452.769 196.4 453.292 197.979C454.112 200.407 455.386 202.657 457.046 204.608C457.046 204.608 446.901 213.654 440.653 211.917Z" fill="#C28C76"/>
<path d="M429.56 389.243C429.56 389.243 432.432 403.129 431.403 403.569C430.375 404.009 403.361 405.848 408.042 403.448L415.83 399.96C417.192 399.35 418.349 398.36 419.164 397.109C419.978 395.859 420.414 394.399 420.421 392.907L420.44 388.475L429.56 389.243Z" fill="#C28C76"/>
<path d="M409.037 403.004L416.505 402.591C415.926 401.885 415.295 401.223 414.618 400.61C414.518 400.517 414.443 400.401 414.4 400.272C414.355 400.144 414.345 400.006 414.367 399.871C414.39 399.737 414.446 399.611 414.529 399.504C414.613 399.396 414.722 399.311 414.847 399.256C415.068 399.158 415.311 399.12 415.551 399.146C415.792 399.173 416.022 399.262 416.216 399.405C417.24 400.29 418.13 401.32 418.858 402.462L421.111 402.336C421.667 401.296 423.824 398.228 430.817 395.955C430.87 395.937 430.925 395.932 430.98 395.938C431.034 395.944 431.086 395.962 431.133 395.991C431.179 396.019 431.22 396.058 431.25 396.103C431.281 396.149 431.301 396.2 431.31 396.254L431.484 397.328C431.497 397.417 431.48 397.508 431.433 397.585C431.387 397.662 431.316 397.719 431.231 397.748C428.412 398.723 425.808 400.235 423.565 402.201L431.612 401.756C432.033 402.897 432.061 404.146 431.691 405.306C418.691 406.999 406.385 405.937 404.478 404.822C402.572 403.708 409.037 403.004 409.037 403.004Z" fill="#6F5C59"/>
<path d="M461.642 389.243C461.642 389.243 464.514 403.129 463.486 403.569C462.458 404.009 435.444 405.848 440.124 403.448L447.912 399.96C449.274 399.35 450.431 398.36 451.245 397.109C452.06 395.859 452.497 394.399 452.503 392.907L452.523 388.475L461.642 389.243Z" fill="#C28C76"/>
<path d="M441.119 403.004L448.588 402.591C448.008 401.885 447.377 401.223 446.7 400.61C446.601 400.517 446.525 400.401 446.482 400.272C446.438 400.144 446.427 400.006 446.449 399.871C446.472 399.737 446.528 399.611 446.611 399.504C446.695 399.396 446.804 399.311 446.929 399.256C447.15 399.158 447.393 399.12 447.634 399.146C447.874 399.173 448.103 399.262 448.298 399.405C449.322 400.29 450.212 401.32 450.94 402.462L453.193 402.336C453.75 401.296 455.905 398.228 462.9 395.955C462.952 395.937 463.007 395.932 463.061 395.938C463.116 395.944 463.168 395.962 463.214 395.991C463.262 396.019 463.301 396.058 463.332 396.103C463.363 396.149 463.383 396.2 463.392 396.254L463.566 397.328C463.579 397.417 463.562 397.508 463.516 397.585C463.469 397.662 463.397 397.719 463.312 397.748C460.493 398.723 457.89 400.235 455.648 402.201L463.693 401.756C464.115 402.897 464.143 404.146 463.773 405.306C450.773 406.999 438.467 405.937 436.561 404.822C434.654 403.708 441.119 403.004 441.119 403.004Z" fill="#6F5C59"/>
<path d="M409.893 392.813C409.687 382.251 408.433 298.001 420.148 260.907L424.883 251.326L456.457 264.556C463.105 283.551 465.464 303.782 463.363 323.796C462.891 328.537 463.162 333.321 464.167 337.978L471.62 389.919C471.765 390.925 471.552 391.95 471.018 392.814C470.484 393.679 469.662 394.329 468.698 394.649C449.931 400.898 429.625 400.761 410.944 394.264C410.641 394.158 410.379 393.962 410.191 393.703C410.003 393.444 409.9 393.134 409.893 392.813Z" fill="#706F81"/>
<path d="M456.63 204.273C456.63 204.273 447.248 213.656 440.994 211.917C434.74 210.178 439.607 205.314 439.607 205.314L433.714 206.243C430.606 206.489 428.488 210.403 427.071 213.177C427.369 216.904 427.369 220.65 427.071 224.377C426.588 230.954 427.925 252.217 427.925 252.217C427.925 252.217 425.189 268.039 456.809 264.565L455.942 261.271H460.524C462.864 261.019 465.052 259.99 466.739 258.35C468.427 256.709 469.517 254.55 469.835 252.219C470.751 245.492 471.894 235.776 472.137 227.657C472.243 224.284 471.557 220.933 470.134 217.872C468.711 214.812 466.591 212.128 463.943 210.036L456.63 204.273Z" fill="#E8DEAE"/>
<path d="M453.668 244.468C453.668 244.468 448.642 219.827 436.073 205.566C436.073 205.566 430.228 204.857 427.06 208.996C427.06 208.996 419.274 246.587 425.871 260.911C440.017 291.627 463.91 303.88 463.91 303.88C463.91 303.88 461.061 263.356 453.668 244.468Z" fill="#706F81"/>
<path d="M429.098 181.464C429.098 181.464 430.765 186.317 442.024 190.72C442.024 190.72 442.332 187.045 444.695 186.858C445.091 186.836 445.487 186.915 445.844 187.089C446.201 187.261 446.508 187.524 446.735 187.849C447.835 189.309 448.4 191.102 448.339 192.928C448.492 194.847 448.946 196.728 449.685 198.504C450.505 200.17 452.246 200.625 453.671 201.819C455.254 203.205 456.271 203.216 457.06 201.819C458.04 200.106 461.827 198.607 462.555 192.926C463.033 189.193 461.274 182.109 460.1 179.139C454.429 164.801 430.682 171.291 429.098 181.464Z" fill="#DCDCDC"/>
<path d="M460.518 261.266C462.858 261.013 465.047 259.985 466.734 258.344C468.422 256.703 469.512 254.544 469.829 252.212C470.746 245.484 471.889 235.769 472.132 227.65C472.238 224.277 471.553 220.926 470.13 217.866C468.707 214.805 466.586 212.122 463.938 210.029L453.669 245.893L460.518 261.266Z" fill="#E8DEAE"/>
<path d="M431.364 239.931C431.364 239.931 423.16 237.18 421.325 233.344C421.325 233.344 419.924 229.999 419.418 229.999C418.948 229.999 418.773 231.348 419.303 234.427C419.412 235.016 419.3 235.624 418.988 236.136C418.677 236.648 418.189 237.026 417.616 237.201C416.308 237.476 414.953 237.437 413.663 237.087C413.663 237.087 404.164 234.084 409.872 241.673C411.121 242.792 412.584 243.647 414.172 244.185C415.761 244.723 417.442 244.934 419.114 244.803C422.748 244.599 426.369 245.39 429.585 247.093L431.364 239.931Z" fill="#F9977A"/>
<path d="M452.47 245.895L431.364 239.931L429.594 247.096L447.805 258.19C451.618 260.513 456.064 261.588 460.518 261.262L453.669 245.893L452.47 245.895Z" fill="#C28C76"/>
<path d="M497.287 191.392C494.958 191.037 492.577 191.242 490.342 191.987C487.504 192.867 485.097 194.776 483.596 197.339C482.822 199.368 482.418 201.518 482.405 203.689C482.231 205.734 482.164 207.788 482.208 209.84C482.208 211.258 482.237 213.288 482.405 215.793C482.62 218.977 482.736 220.58 483.199 221.15C485.065 223.45 489.066 221.324 489.151 224.326C489.203 226.179 488.026 227.352 489.572 229.005C491.489 231.067 498.776 230.287 501.452 228.881C501.818 228.691 507.172 225.81 506.81 222.531C506.618 220.781 504.978 220.599 503.834 217.968C503.101 216.143 502.895 214.149 503.239 212.213C503.759 208.382 505.685 207.914 507.207 203.285C507.62 202.122 507.727 200.873 507.519 199.656C507.31 198.441 506.793 197.299 506.016 196.339C503.778 193.713 500.687 191.957 497.285 191.379L497.287 191.392Z" fill="#6C4F47"/>
<path d="M511.575 416.512L512.534 426.08L495.919 434.197H521.432V416.517L511.575 416.512Z" fill="#6C4F47"/>
<path d="M484.194 416.512L485.152 426.08L468.532 434.197H494.045V416.517L484.194 416.512Z" fill="#6C4F47"/>
<path d="M465.97 435.067V435.008C465.97 434.56 466.094 434.122 466.329 433.741C466.563 433.359 466.899 433.051 467.299 432.85L484.544 424.159C484.713 424.074 484.906 424.051 485.09 424.094C485.274 424.137 485.437 424.244 485.551 424.395L488.922 428.881C489.042 429.039 489.217 429.148 489.412 429.186C489.607 429.224 489.809 429.189 489.979 429.086L493.936 426.712C494.059 426.641 494.198 426.602 494.34 426.601C494.482 426.601 494.621 426.637 494.744 426.708C494.867 426.778 494.969 426.879 495.041 427.002C495.112 427.125 495.15 427.264 495.15 427.406V435.067C495.15 435.28 495.065 435.486 494.914 435.637C494.763 435.788 494.558 435.873 494.344 435.873H466.782C466.676 435.874 466.57 435.854 466.472 435.813C466.373 435.774 466.283 435.714 466.208 435.64C466.133 435.564 466.072 435.475 466.031 435.377C465.991 435.279 465.97 435.173 465.97 435.067Z" fill="#935B50"/>
<path d="M493.358 435.067V435.008C493.358 434.56 493.482 434.122 493.717 433.741C493.952 433.359 494.288 433.051 494.687 432.85L511.933 424.159C512.101 424.074 512.295 424.051 512.479 424.094C512.662 424.137 512.826 424.244 512.939 424.395L516.311 428.881C516.43 429.039 516.604 429.148 516.8 429.186C516.995 429.224 517.197 429.189 517.368 429.086L521.325 426.712C521.448 426.641 521.587 426.602 521.728 426.601C521.869 426.601 522.009 426.637 522.132 426.708C522.256 426.778 522.358 426.879 522.429 427.002C522.5 427.125 522.538 427.264 522.538 427.406V435.067C522.538 435.28 522.453 435.486 522.302 435.637C522.151 435.788 521.946 435.873 521.732 435.873H494.164C493.95 435.873 493.745 435.788 493.594 435.637C493.443 435.486 493.358 435.28 493.358 435.067Z" fill="#935B50"/>
<path d="M510.237 421.42H521.475C522.739 421.42 526.406 420.758 526.406 419.493L528.056 379.399C528.056 371.599 528.291 362.903 528.056 353.947C528.056 353.947 517.451 299.607 517.967 288.183L485.152 285.757L505.459 417.389C506.54 419.242 508.227 420.666 510.237 421.42Z" fill="#707070"/>
<path d="M474.468 284.055C474.468 284.055 472.734 311.984 472.734 318.548C472.734 318.548 468.493 358.067 468.532 358.312C470.079 368.59 470.117 375.713 471.918 385.062L478.717 420.338C478.772 420.904 479.036 421.428 479.457 421.81C479.879 422.191 480.427 422.403 480.996 422.404H494.237C495.568 422.404 498.688 420.585 498.593 419.258C498.593 419.258 496.989 363.647 496.793 357.255L508.298 288.178L474.468 284.055Z" fill="#707070"/>
<path d="M487.563 223.338L490.391 224.58C490.391 224.58 492.236 233.923 505.332 220.232L517.967 228.049C520.828 229.867 523.122 232.448 524.591 235.502C529.585 246.071 532.507 257.498 533.2 269.166C533.2 269.166 537.275 351.55 536.906 359.31C536.84 360.709 458.724 359.591 458.724 357.994C458.724 357.996 463.939 243.576 487.563 223.338Z" fill="#B4D2D0"/>
<path d="M447.943 239.469C447.943 239.469 447.823 236.317 442.976 231.321C438.127 226.326 433.789 222.921 436.306 227.125L438.281 230.297C438.281 230.297 433.066 228.275 430.065 226.798C429.276 226.394 428.377 226.254 427.501 226.399C426.627 226.544 425.82 226.967 425.204 227.604C424.073 228.817 424.106 230.157 427.226 232.522C430.103 234.812 433.283 236.692 436.676 238.107C437.164 238.295 437.575 238.639 437.846 239.085L441.332 241.923L447.943 239.469Z" fill="#6C4F47"/>
<path d="M486.851 223.964C486.851 223.964 484.224 225.139 482.197 226.179C479.375 227.624 474.995 232.709 469.868 245.403L466.46 253.84C460.522 246.941 454.154 240.424 447.393 234.329L438.661 241.415L458.873 264.696C460.181 266.566 461.918 268.096 463.938 269.157C468.552 271.516 473.265 270.738 475.852 265.942C479.9 258.44 484.71 247.017 485.172 243.833L486.851 223.964Z" fill="#B4D2D0"/>
<path d="M506.413 208.457C506.148 210.971 506.389 212.484 505.571 213.913C505.042 214.839 503.186 215.691 503.106 214.828C502.925 213.824 502.929 212.796 503.116 211.793C503.558 210.792 503.866 209.738 504.034 208.657C504.273 206.923 503.926 204.34 502.446 203.695C502.049 203.551 501.62 203.51 501.203 203.581C500.785 203.65 500.393 203.826 500.064 204.092C499.715 204.461 499.448 204.897 499.277 205.375C499.106 205.852 499.037 206.36 499.072 206.866C498.94 208.649 498.94 210.44 499.072 212.224C499.2 214.516 498.863 216.81 498.081 218.969C497.792 220.048 497.293 221.059 496.612 221.944C495.931 222.83 495.082 223.572 494.114 224.128C492.515 224.679 490.79 224.747 489.153 224.325C487.281 224.326 485.463 223.702 483.988 222.551C482.914 221.478 482.217 220.086 482.003 218.583C481.788 217.26 482.152 217.094 482.003 214.615C481.895 212.872 481.689 212.536 482.003 212.037C482.317 211.537 483.492 212.979 484.185 212.83C485.063 212.64 485.516 210.953 486.368 211.242C487.387 211.675 488.325 212.279 489.14 213.028C490.299 213.937 490.489 214.301 491.125 214.414C491.649 214.457 492.177 214.371 492.66 214.163C493.143 213.956 493.569 213.633 493.899 213.224C494.808 212.149 494.717 210.45 494.494 207.072C494.241 205.362 494.241 203.624 494.494 201.913C494.56 201.034 494.908 200.199 495.485 199.532C496.394 198.666 497.218 199.135 499.452 198.54C500.865 198.169 502.206 197.565 503.422 196.755C505.034 195.663 505.182 194.97 506.001 194.97C507.29 194.97 508.514 196.674 508.977 198.145C509.654 200.312 508.845 202.436 507.985 204.694C507.05 207.182 506.562 207.06 506.413 208.457ZM484.298 216.831C485.322 216.627 486.385 216.763 487.326 217.217C487.462 217.271 487.612 217.281 487.755 217.244C487.897 217.207 488.023 217.126 488.117 217.013C488.21 216.9 488.265 216.76 488.273 216.614C488.282 216.467 488.244 216.321 488.165 216.198C487.662 215.551 486.955 215.094 486.158 214.904C485.362 214.713 484.524 214.799 483.783 215.148C483.611 215.209 483.463 215.322 483.358 215.471C483.253 215.621 483.196 215.799 483.197 215.981C483.198 216.115 483.229 216.248 483.289 216.367C483.348 216.488 483.435 216.592 483.54 216.674C483.646 216.756 483.77 216.813 483.901 216.84C484.032 216.868 484.168 216.865 484.298 216.833V216.831Z" fill="#CDD3D1"/>
<path d="M509.586 318.173L512.212 314.673C512.212 314.673 512.213 318.314 512.069 321.781C512.05 322.259 512.209 322.726 512.514 323.095C512.819 323.463 513.249 323.705 513.722 323.775H513.746L514.238 323.847L516.317 324.148L516.794 324.219L518.373 324.45L518.841 324.521C519.198 324.431 519.522 324.242 519.775 323.974C520.027 323.708 520.199 323.374 520.27 323.013C520.73 320.652 521.696 315.537 521.691 314.273C521.691 313.662 522.398 306.765 522.398 306.765L518.135 300.249C518.135 300.249 514.747 301.717 511.357 309.115C507.967 316.513 506.07 322.705 509.586 318.173Z" fill="#6C4F47"/>
<path d="M512.525 304.131L520.337 275.57C520.72 273.302 520.531 270.974 519.788 268.797L514.893 255.363C514.13 253.259 513.203 251.219 512.12 249.262C509.201 244.008 503.5 231.71 511.447 227.692C521.658 222.529 530.569 246.535 530.569 246.535L533.729 254.075C536.129 259.783 537.196 265.964 536.849 272.146C536.745 274.335 536.524 276.517 536.186 278.681C534.947 285.524 525.941 307.529 525.941 307.529C524.043 308.705 521.792 309.177 519.582 308.865C517.371 308.551 515.34 307.472 513.844 305.815C513.844 305.815 512.667 304.345 512.525 304.131Z" fill="#B4D2D0"/>
</g>
<defs>
<clipPath id="clip0_467_612">
<rect width="609.17" height="468.221" fill="white"/>
</clipPath>
</defs>
</svg>
