<svg width="610" height="465" viewBox="0 0 610 465" fill="none" xmlns="http://www.w3.org/2000/svg">
<path opacity="0.1" d="M305.082 465C473.299 465 609.666 436.497 609.666 401.337C609.666 366.177 473.299 337.674 305.082 337.674C136.865 337.674 0.498047 366.177 0.498047 401.337C0.498047 436.497 136.865 465 305.082 465Z" fill="#00853B"/>
<path d="M339.08 189.363C339.08 189.363 349.13 196.321 347.97 205.21C346.81 214.099 338.303 249.272 336.76 265.119C335.217 280.967 333.668 304.93 329.803 316.525C325.938 328.12 322.072 346.286 325.551 352.084C329.03 357.881 325.551 362.133 325.551 362.133C325.551 362.133 318.98 367.93 320.913 371.022C322.845 374.114 347.968 377.98 347.968 377.98C347.968 377.98 386.233 373.728 393.963 374.888C401.694 376.048 433.774 376.433 439.185 374.888C444.595 373.342 447.301 372.956 446.142 366.386C444.983 359.817 444.596 357.885 439.185 357.885C433.773 357.885 429.909 355.952 430.683 352.087C431.458 348.222 429.91 301.454 427.591 294.498C425.272 287.542 415.996 243.092 416.768 236.522C417.541 229.951 413.29 212.171 416.768 205.214C420.247 198.256 438.413 190.912 441.505 191.686C444.597 192.459 462.763 200.187 467.787 198.643C472.811 197.099 487.113 181.25 492.523 178.544C497.934 175.839 508.37 171.2 508.37 171.2C508.37 171.2 498.704 164.63 496.775 166.948C494.847 169.267 488.274 182.022 478.608 184.342C468.941 186.661 463.533 191.686 456.19 191.686C448.847 191.686 436.865 181.25 430.685 181.25C424.506 181.25 413.682 186.66 413.682 186.66C413.682 186.66 423.348 169.267 434.168 171.2C444.987 173.133 463.929 166.948 463.929 166.948C463.929 166.948 469.34 164.243 473.978 162.31C478.617 160.376 492.53 149.555 492.53 149.555L471.658 146.463L463.928 159.991C461.517 161.237 458.896 162.023 456.197 162.31C451.945 162.696 450.4 150.328 456.197 149.555C461.995 148.782 446.148 149.555 446.148 149.555C446.148 149.555 448.081 160.378 443.829 162.31C439.577 164.242 439.191 158.831 430.688 162.31C422.185 165.788 419.479 166.948 419.479 166.948C419.479 166.948 423.73 153.034 427.596 153.034C431.461 153.034 446.148 142.598 446.148 142.598L439.19 136.414C439.19 136.414 418.705 146.08 416.773 149.555C414.841 153.03 414.068 157.286 409.816 157.286C405.564 157.286 399.766 160.764 397.834 157.286C395.902 153.807 384.693 138.347 384.693 133.708C384.693 129.07 381.988 120.954 381.988 120.954L372.321 126.751C372.321 126.751 379.279 138.346 384.689 142.598C386.917 144.273 388.637 146.532 389.66 149.124C390.683 151.716 390.969 154.541 390.487 157.286C389.714 161.924 387.395 167.722 381.985 171.2C378.586 173.406 375.356 175.861 372.319 178.544L363.043 162.311C363.043 162.311 356.472 147.623 354.542 139.507C352.819 133.167 350.623 126.965 347.971 120.955L344.492 129.456C344.492 129.456 345.264 148.395 347.971 149.555C350.677 150.715 340.212 142.43 336.762 136.414C333.311 130.397 344.492 120.954 344.492 120.954H336.762C336.762 120.954 331.351 133.322 329.804 139.506C328.258 145.69 332.123 157.286 332.123 157.286L347.97 174.289C347.97 174.289 329.418 166.558 325.552 162.307C321.687 158.057 316.276 139.503 316.276 139.503L320.915 120.951L329.804 106.65H320.915C320.915 106.65 316.663 129.067 313.958 133.706C311.252 138.345 310.092 156.51 313.958 159.989C317.823 163.467 320.915 171.198 320.915 171.198C320.915 171.198 296.087 154.215 296.473 148.031C296.86 141.847 298.303 118.07 298.303 118.07C298.303 118.07 295.792 139.117 295.019 142.595C294.246 146.074 285.353 129.454 285.353 129.454C285.353 129.454 288.058 149.553 292.697 153.031C297.335 156.51 301.587 165.399 307.771 166.946C313.955 168.493 321.299 174.29 329.802 174.29C338.305 174.29 320.236 179.429 307.771 177.593C295.306 175.756 284.301 171.139 279.937 166.946C275.573 162.753 271.82 136.411 271.82 136.411C271.82 136.411 265.249 151.485 267.955 159.989C270.66 168.493 284.958 180.861 295.011 184.339C305.063 187.818 355.188 178.998 353.653 178.542C352.118 178.085 324.863 170.455 324.863 170.455L319.855 162.303L349.124 179.93H333.253L315.094 183.512L310.93 184.333" fill="#707070"/>
<path d="M339.08 189.363C339.08 189.363 349.13 196.321 347.97 205.21C346.81 214.099 338.303 249.272 336.76 265.119C335.217 280.967 333.668 304.93 329.803 316.525C325.938 328.12 322.072 346.286 325.551 352.084C329.03 357.881 325.551 362.133 325.551 362.133C325.551 362.133 318.98 367.93 320.913 371.022C322.845 374.114 347.968 377.98 347.968 377.98C347.968 377.98 386.233 373.728 393.963 374.888C401.694 376.048 433.774 376.433 439.185 374.888C444.595 373.342 447.301 372.956 446.142 366.386C444.983 359.817 444.596 357.885 439.185 357.885C433.773 357.885 429.909 355.952 430.683 352.087C431.458 348.222 429.91 301.454 427.591 294.498C425.272 287.542 415.996 243.092 416.768 236.522C417.541 229.951 413.29 212.171 416.768 205.214C420.247 198.256 438.413 190.912 441.505 191.686C444.597 192.459 462.763 200.187 467.787 198.643C472.811 197.099 487.113 181.25 492.523 178.544C497.934 175.839 508.37 171.2 508.37 171.2C508.37 171.2 498.704 164.63 496.775 166.948C494.847 169.267 488.274 182.022 478.608 184.342C468.941 186.661 463.533 191.686 456.19 191.686C448.847 191.686 436.865 181.25 430.685 181.25C424.506 181.25 413.682 186.66 413.682 186.66C413.682 186.66 423.348 169.267 434.168 171.2C444.987 173.133 463.929 166.948 463.929 166.948C463.929 166.948 469.34 164.243 473.978 162.31C478.617 160.376 492.53 149.555 492.53 149.555L471.658 146.463L463.928 159.991C461.517 161.237 458.896 162.023 456.197 162.31C451.945 162.696 450.4 150.328 456.197 149.555C461.995 148.782 446.148 149.555 446.148 149.555C446.148 149.555 448.081 160.378 443.829 162.31C439.577 164.242 439.191 158.831 430.688 162.31C422.185 165.788 419.479 166.948 419.479 166.948C419.479 166.948 423.73 153.034 427.596 153.034C431.461 153.034 446.148 142.598 446.148 142.598L439.19 136.414C439.19 136.414 418.705 146.08 416.773 149.555C414.841 153.03 414.068 157.286 409.816 157.286C405.564 157.286 399.766 160.764 397.834 157.286C395.902 153.807 384.693 138.347 384.693 133.708C384.693 129.07 381.988 120.954 381.988 120.954L372.321 126.751C372.321 126.751 379.279 138.346 384.689 142.598C386.917 144.273 388.637 146.532 389.66 149.124C390.683 151.716 390.969 154.541 390.487 157.286C389.714 161.924 387.395 167.722 381.985 171.2C378.586 173.406 375.356 175.861 372.319 178.544L363.043 162.311C363.043 162.311 356.472 147.623 354.542 139.507C352.819 133.167 350.623 126.965 347.971 120.955L344.492 129.456C344.492 129.456 345.264 148.395 347.971 149.555C350.677 150.715 340.212 142.43 336.762 136.414C333.311 130.397 344.492 120.954 344.492 120.954H336.762C336.762 120.954 331.351 133.322 329.804 139.506C328.258 145.69 332.123 157.286 332.123 157.286L347.97 174.289C347.97 174.289 329.418 166.558 325.552 162.307C321.687 158.057 316.276 139.503 316.276 139.503L320.915 120.951L329.804 106.65H320.915C320.915 106.65 316.663 129.067 313.957 133.706C311.252 138.345 310.092 156.51 313.957 159.989C317.823 163.467 320.915 171.198 320.915 171.198C320.915 171.198 296.087 154.215 296.473 148.031C296.86 141.847 298.303 118.07 298.303 118.07C298.303 118.07 295.792 139.117 295.019 142.595C294.246 146.074 285.353 129.454 285.353 129.454C285.353 129.454 288.058 149.553 292.697 153.031C297.335 156.51 301.587 165.399 307.771 166.946C313.955 168.493 321.299 174.29 329.802 174.29C338.305 174.29 320.236 179.429 307.771 177.593C295.306 175.756 284.301 171.139 279.937 166.946C275.573 162.753 271.82 136.411 271.82 136.411C271.82 136.411 265.249 151.485 267.955 159.989C270.66 168.493 284.958 180.861 295.011 184.339C305.063 187.818 355.188 178.998 353.653 178.542C352.118 178.085 324.863 170.455 324.863 170.455L319.855 162.303L349.124 179.93H333.253L315.094 183.512L310.93 184.333" stroke="#707070"/>
<path d="M425.389 116.219C426.394 128.78 419.861 127.273 433.424 138.327C446.987 149.382 449.001 152.899 457.542 153.904C466.083 154.909 494.724 149.382 497.739 153.904C500.755 158.426 482.666 163.953 497.739 170.485C512.813 177.018 522.862 172.496 528.389 178.023C533.917 183.55 540.449 194.604 546.981 182.545C553.513 170.485 540.952 155.914 546.981 141.846C553.01 127.777 536.052 108.684 532.41 97.6292C528.767 86.5748 511.307 61.954 497.739 60.9443C484.172 59.9346 455.03 61.4474 454.533 52.9085C454.035 44.3697 435.941 13.7162 422.375 13.2143C408.808 12.7123 386.701 1.15482 372.631 0.149768C358.562 -0.855282 333.439 3.16494 324.896 13.2143C316.354 23.2636 316.861 40.8491 304.296 39.3421C291.731 37.8351 275.656 26.2776 261.089 35.3219C246.522 44.3662 229.434 50.3954 229.936 60.9431C230.438 71.4909 198.281 80.0367 202.801 100.637C207.321 121.238 196.772 133.8 209.835 141.84C222.898 149.879 251.539 155.406 261.087 153.899C270.634 152.392 284.199 124.756 295.254 121.741C306.308 118.726 313.342 103.149 319.371 111.19C325.401 119.23 340.475 131.288 353.54 131.79C366.604 132.292 396.746 129.278 404.288 121.741C411.83 114.204 425.389 116.219 425.389 116.219Z" fill="#00853B"/>
<path d="M243.997 98.8833C218.875 93.8581 198.274 99.3853 198.776 112.953C199.278 126.52 215.358 128.026 220.885 139.081C226.412 150.135 221.388 158.174 235.958 156.164C250.528 154.154 245.003 168.726 259.574 146.614C274.146 124.503 274.145 111.944 270.125 107.925C266.105 103.906 243.997 98.8833 243.997 98.8833Z" fill="#00853B"/>
<path d="M359.419 15.0402C334.296 10.015 313.696 15.5422 314.197 29.1098C314.699 42.6774 330.779 44.1832 336.306 55.2376C341.833 66.292 336.809 74.3312 351.38 72.3211C365.95 70.311 360.424 84.8825 374.996 62.7714C389.567 40.6603 389.567 28.1012 385.547 24.0822C381.527 20.0631 359.419 15.0402 359.419 15.0402Z" fill="#00853B"/>
<path d="M469.604 63.2094C470.107 63.2094 481.664 54.667 487.693 60.1942C493.722 65.7214 501.259 71.7505 497.242 73.7606C493.226 75.7707 514.828 76.2727 524.378 83.3104C533.927 90.3481 546.486 88.8376 535.934 96.8768C525.381 104.916 549.5 106.427 544.978 117.477C540.456 128.528 557.541 143.099 553.014 143.099C548.487 143.099 536.936 149.631 535.931 149.631C534.925 149.631 469.605 67.7292 469.605 67.7292C469.605 67.7292 469.102 63.2094 469.604 63.2094Z" fill="#00853B"/>
<path d="M388.063 7.55628C388.566 7.55628 400.123 -0.986048 406.152 4.54115C412.181 10.0683 419.718 16.0975 415.701 18.1076C411.685 20.1177 433.287 20.6196 442.837 27.6573C452.386 34.695 464.945 33.1845 454.393 41.2237C443.84 49.263 467.959 50.7735 463.437 61.8244C458.915 72.8753 476 87.4456 471.473 87.4456C466.946 87.4456 455.395 93.9778 454.389 93.9778C453.384 93.9778 388.064 12.0761 388.064 12.0761C388.064 12.0761 387.561 7.55628 388.063 7.55628Z" fill="#00853B"/>
<path d="M227.218 90.9166C227.322 90.4246 221.372 77.3457 228.031 72.5988C234.691 67.852 242.155 61.7346 243.286 66.081C244.416 70.4274 249.4 49.4049 258.269 41.5291C267.139 33.6533 268.269 21.065 273.938 33.0529C279.606 45.0408 286.099 21.7713 295.966 28.4925C305.834 35.2138 323.637 21.5356 322.695 25.9628C321.754 30.39 325.749 43.0448 325.54 44.0277C325.331 45.0106 231.64 91.8572 231.64 91.8572C231.64 91.8572 227.113 91.4086 227.218 90.9166Z" fill="#00853B"/>
<path d="M409.38 114.678C408.994 115.001 405.632 128.973 397.461 128.614C389.29 128.256 379.64 128.482 381.425 124.36C383.21 120.239 366.339 133.74 354.5 134.487C342.661 135.234 334.019 144.46 336.932 131.522C339.845 118.583 320.401 132.926 316.762 121.554C313.123 110.182 290.669 110.002 294.137 107.093C297.605 104.183 302.246 91.7486 303.016 91.1025C303.786 90.4565 406.473 111.213 406.473 111.213C406.473 111.213 409.765 114.354 409.38 114.678Z" fill="#00853B"/>
<path d="M304.716 368.729C304.716 368.729 300.472 354.323 305.509 343.717C307.65 339.283 308.295 334.274 307.347 329.442C306.87 327.149 306.184 324.905 305.297 322.738" stroke="#535461" stroke-width="2" stroke-miterlimit="10"/>
<path d="M308.467 323.506C308.467 325.269 305.269 330.394 305.269 330.394C305.269 330.394 302.091 325.269 302.091 323.506C302.091 323.086 302.174 322.67 302.334 322.282C302.495 321.894 302.731 321.541 303.028 321.244C303.325 320.947 303.677 320.712 304.065 320.551C304.453 320.39 304.869 320.308 305.289 320.308C305.709 320.308 306.125 320.39 306.513 320.551C306.901 320.712 307.253 320.947 307.55 321.244C307.847 321.541 308.083 321.894 308.243 322.282C308.404 322.67 308.487 323.086 308.487 323.506H308.467Z" fill="#00853B"/>
<path d="M312.663 331.815C311.706 333.294 306.239 335.856 306.239 335.856C306.239 335.856 306.342 329.823 307.298 328.339C307.52 327.973 307.814 327.656 308.161 327.407C308.508 327.157 308.901 326.979 309.318 326.884C309.735 326.788 310.167 326.778 310.588 326.853C311.009 326.927 311.411 327.086 311.77 327.318C312.129 327.551 312.437 327.853 312.677 328.207C312.917 328.561 313.083 328.96 313.167 329.379C313.25 329.799 313.248 330.231 313.161 330.65C313.075 331.068 312.905 331.465 312.662 331.817L312.663 331.815Z" fill="#00853B"/>
<path d="M312.434 345.72C310.856 346.513 304.849 345.966 304.849 345.966C304.849 345.966 307.978 340.807 309.557 340.014C310.315 339.632 311.193 339.567 311.998 339.833C312.804 340.099 313.471 340.675 313.852 341.432C314.234 342.19 314.298 343.068 314.032 343.874C313.766 344.679 313.191 345.346 312.434 345.727V345.72Z" fill="#00853B"/>
<path d="M310.059 355.618C308.637 356.667 302.625 357.143 302.625 357.143C302.625 357.143 304.837 351.526 306.26 350.48C306.944 350.013 307.782 349.828 308.598 349.966C309.414 350.104 310.146 350.552 310.638 351.218C311.13 351.884 311.345 352.714 311.237 353.535C311.13 354.356 310.708 355.103 310.06 355.62L310.059 355.618Z" fill="#00853B"/>
<path d="M300.893 335.567C302.157 336.797 308.061 338.076 308.061 338.076C308.061 338.076 306.619 332.212 305.327 330.982C304.714 330.419 303.906 330.117 303.073 330.141C302.241 330.164 301.451 330.512 300.871 331.109C300.29 331.706 299.966 332.506 299.966 333.338C299.966 334.171 300.291 334.971 300.872 335.567H300.893Z" fill="#00853B"/>
<path d="M298.224 347.697C299.804 348.49 305.809 347.942 305.809 347.942C305.809 347.942 302.68 342.783 301.101 341.99C300.343 341.609 299.465 341.544 298.66 341.81C297.854 342.076 297.187 342.651 296.806 343.409C296.424 344.166 296.36 345.044 296.626 345.85C296.892 346.655 297.467 347.322 298.224 347.704V347.697Z" fill="#00853B"/>
<path d="M297.161 359.35C298.583 360.398 304.596 360.873 304.596 360.873C304.596 360.873 302.383 355.256 300.96 354.21C300.277 353.743 299.439 353.558 298.622 353.696C297.806 353.834 297.075 354.283 296.583 354.948C296.09 355.614 295.876 356.445 295.983 357.265C296.091 358.086 296.513 358.833 297.16 359.35H297.161Z" fill="#00853B"/>
<path d="M313.218 403.235C313.218 403.235 316.969 408.142 311.481 415.536C305.994 422.93 301.466 429.204 303.282 433.82C303.282 433.82 311.557 420.057 318.315 419.866C325.074 419.675 320.625 411.511 313.218 403.235Z" fill="#00853B"/>
<path d="M296.946 403.235C296.946 403.235 293.195 408.142 298.681 415.536C304.168 422.93 308.697 429.204 306.881 433.82C306.881 433.82 298.605 420.057 291.847 419.866C285.089 419.675 289.533 411.511 296.946 403.235Z" fill="#00853B"/>
<path d="M317.712 412.593C317.712 414.322 317.521 415.722 317.281 415.722C317.041 415.722 316.85 414.355 316.85 412.593C316.85 410.831 317.089 411.678 317.329 411.678C317.569 411.678 317.712 410.866 317.712 412.593Z" fill="#FFD037"/>
<path d="M319.916 414.538C318.402 415.365 317.074 415.863 316.964 415.651C316.855 415.439 317.989 414.603 319.507 413.772C321.024 412.94 320.422 413.546 320.538 413.772C320.655 413.998 321.434 413.739 319.916 414.538Z" fill="#FFD037"/>
<path d="M317.502 412.593C317.502 414.322 317.693 415.722 317.933 415.722C318.173 415.722 318.364 414.355 318.364 412.593C318.364 410.831 318.125 411.678 317.885 411.678C317.645 411.678 317.502 410.866 317.502 412.593Z" fill="#FFD037"/>
<path d="M315.103 414.538C316.617 415.365 317.946 415.863 318.055 415.651C318.165 415.439 317.03 414.603 315.513 413.772C313.995 412.94 314.598 413.546 314.481 413.772C314.365 413.998 313.613 413.739 315.103 414.538Z" fill="#FFD037"/>
<path d="M295.968 433.754C295.968 433.754 303.724 432.203 305.788 430.132C307.851 428.061 317.159 424.447 318.198 427.03C319.237 429.613 332.159 438.401 323.364 439.957C314.569 441.513 302.685 442.006 300.129 440.988C297.573 439.971 295.968 433.754 295.968 433.754Z" fill="#A8A8A8"/>
<path opacity="0.2" d="M323.368 438.672C314.58 440.223 302.69 440.721 300.133 439.704C298.165 438.918 296.799 435.131 296.259 433.375L295.999 433.43C295.999 433.43 297.55 439.635 300.133 440.667C302.716 441.699 314.607 441.186 323.368 439.635C325.904 439.184 326.629 438.138 326.354 436.806C326.135 437.65 325.254 438.322 323.368 438.672Z" fill="black"/>
<path d="M346.086 387.842C346.086 387.842 369.611 383.133 375.9 376.86C382.189 370.586 410.411 359.605 413.547 367.45C416.683 375.294 455.916 401.96 429.269 406.669C402.622 411.377 366.522 412.942 358.677 409.805C350.832 406.667 346.086 387.842 346.086 387.842Z" fill="#A8A8A8"/>
<path opacity="0.2" d="M429.238 403.75C402.586 408.459 366.49 410.024 358.646 406.886C352.674 404.494 348.514 393.014 346.883 387.676L346.097 387.84C346.097 387.84 350.806 406.667 358.643 409.804C366.481 412.94 402.571 411.376 429.236 406.667C436.937 405.3 439.135 402.116 438.304 398.084C437.651 400.716 434.965 402.746 429.238 403.75Z" fill="black"/>
<path d="M26.7554 387.183C26.7554 387.183 37.252 386.861 40.4232 384.606C43.5944 382.352 56.5715 379.666 57.3506 383.274C58.1298 386.882 73.1228 401.24 61.273 401.336C49.4232 401.431 33.7395 399.491 30.5823 397.564C27.4251 395.636 26.7554 387.183 26.7554 387.183Z" fill="#A8A8A8"/>
<path opacity="0.2" d="M61.4777 399.867C49.6279 399.963 33.9442 398.023 30.787 396.095C28.3809 394.633 27.4248 389.378 27.1034 386.952H26.754C26.754 386.952 27.4376 395.419 30.5739 397.339C33.7101 399.259 49.4148 401.207 61.2646 401.111C64.6815 401.111 65.8636 399.867 65.8065 398.063C65.3313 399.164 64.0398 399.844 61.4777 399.867Z" fill="black"/>
<path d="M77.1743 424.093C78.4267 423.072 79.3393 421.694 79.7912 420.143C79.9946 419.364 79.9236 418.538 79.5899 417.805C79.2563 417.072 78.6805 416.476 77.9592 416.118C76.2787 415.475 74.4806 416.638 73.1215 417.82C71.7624 419.002 70.1972 420.341 68.413 420.088C69.3294 419.257 70.0148 418.203 70.4026 417.028C70.7904 415.853 70.8673 414.598 70.6258 413.385C70.5488 412.882 70.3362 412.409 70.0108 412.018C69.0792 411.019 67.387 411.45 66.2655 412.236C62.7123 414.738 61.7235 419.562 61.7003 423.908C61.5064 422.32 61.4834 420.717 61.6315 419.124C61.6176 417.539 61.1808 415.707 59.8276 414.873C58.9884 414.423 58.0463 414.199 57.0943 414.224C56.3018 414.11 55.494 414.164 54.7238 414.383C53.9536 414.602 53.2382 414.981 52.6245 415.495C51.2573 416.944 51.6195 419.384 52.8027 420.962C54.1271 422.446 55.6911 423.698 57.4297 424.665C58.7551 425.453 59.8857 426.53 60.7371 427.815C60.8372 427.994 60.9195 428.181 60.9829 428.375H70.9984C73.2408 427.233 75.3183 425.793 77.1743 424.093Z" fill="#00853B"/>
<path d="M584.888 407.421C586.14 406.4 587.052 405.022 587.504 403.471C587.708 402.692 587.637 401.866 587.303 401.133C586.97 400.4 586.394 399.804 585.672 399.446C583.992 398.803 582.194 399.965 580.835 401.147C579.476 402.329 577.909 403.669 576.126 403.416C577.043 402.585 577.728 401.531 578.116 400.356C578.504 399.181 578.58 397.926 578.339 396.713C578.262 396.209 578.049 395.737 577.724 395.345C576.792 394.347 575.1 394.778 573.98 395.564C570.427 398.066 569.438 402.89 569.415 407.236C569.221 405.648 569.198 404.044 569.346 402.452C569.332 400.867 568.895 399.035 567.542 398.201C566.703 397.751 565.761 397.527 564.809 397.552C564.016 397.438 563.208 397.491 562.438 397.71C561.668 397.929 560.953 398.308 560.339 398.823C558.972 400.272 559.334 402.711 560.517 404.289C561.841 405.774 563.405 407.026 565.144 407.993C566.469 408.781 567.6 409.858 568.451 411.143C568.552 411.321 568.634 411.509 568.697 411.703H578.713C580.955 410.561 583.032 409.12 584.888 407.421Z" fill="#00853B"/>
<path d="M250.164 321.369L250.287 358.934H262.255V321.369H250.164Z" fill="#929292"/>
<path d="M267.893 321.486V354.966L262.001 358.933V321.486H267.893Z" fill="#838383"/>
<path d="M277.441 322.106L277.565 359.671H289.532V322.106H277.441Z" fill="#929292"/>
<path d="M295.17 322.223V355.703L289.279 359.67V322.223H295.17Z" fill="#838383"/>
<path d="M87.9746 399.882L88.098 437.448H100.065V399.882H87.9746Z" fill="#929292"/>
<path d="M104.607 400V433.48L99.812 437.447V400H104.607Z" fill="#838383"/>
<path d="M115.252 400.62L115.375 438.185H127.343V400.62H115.252Z" fill="#929292"/>
<path d="M131.884 400.737V434.217L127.089 438.184V400.737H131.884Z" fill="#838383"/>
<path d="M81.7533 403.984L136.887 403.981C136.887 403.981 161.9 367.488 212.705 345.092C263.51 322.695 313.591 318.081 313.591 318.081L312.819 307.057L272.626 309.871C272.626 309.871 197.451 311.377 142.875 333.921C122.298 342.421 105.865 356.642 96.7843 366.189C81.8529 381.894 80.9495 392.5 80.9495 392.5L81.7533 403.984Z" fill="#929292"/>
<path d="M80.875 392.667L136.685 392.291V403.968H80.875V392.667Z" fill="#9F9F9F"/>
<path d="M136.49 392.679C136.49 392.679 149.282 362.816 200.223 340.502C251.164 318.189 312.81 306.746 312.81 306.746C313.043 306.186 313.617 318.253 313.617 318.253C313.617 318.253 259.635 332.434 208.694 354.779C157.753 377.124 136.722 404.116 136.722 404.116L136.49 392.679Z" fill="#838383"/>
<path d="M267.704 246.285C267.704 246.285 268.583 246.377 269.906 246.47C272.743 246.671 276.692 251.943 281.937 263.053L285.421 270.433C285.421 270.433 299.972 253.583 306.327 249.484L308.969 257.351L292.781 279.767C291.706 281.509 290.228 282.968 288.472 284.021C284.46 286.37 280.204 285.916 277.642 281.754C273.632 275.242 268.736 265.261 268.161 262.433L267.704 246.285Z" fill="#C08F8F"/>
<path d="M222.641 235.058C227.171 235.058 230.844 230.799 230.844 225.545C230.844 220.292 227.171 216.033 222.641 216.033C218.111 216.033 214.439 220.292 214.439 225.545C214.439 230.799 218.111 235.058 222.641 235.058Z" fill="#766E6E"/>
<path d="M292.513 369.944C292.513 369.944 292.808 377.966 313.831 383.198C314.034 383.241 314.221 383.344 314.366 383.493C314.511 383.642 314.608 383.831 314.646 384.036C314.793 385.084 313.358 386.738 301.388 385.453C295.614 384.836 289.788 384.897 284.029 385.635C283.585 385.705 283.131 385.676 282.7 385.55C282.269 385.424 281.871 385.204 281.534 384.906C281.198 384.608 280.932 384.24 280.755 383.827C280.578 383.414 280.494 382.967 280.51 382.518L280.58 371.583L292.513 369.944Z" fill="#C08F8F"/>
<path d="M309.586 366.687C309.586 366.687 309.882 374.709 330.904 379.941C331.108 379.984 331.294 380.086 331.439 380.236C331.584 380.385 331.682 380.574 331.719 380.778C331.866 381.827 330.431 383.48 318.461 382.196C312.688 381.578 306.861 381.639 301.102 382.377C300.658 382.447 300.204 382.418 299.773 382.292C299.342 382.167 298.944 381.947 298.608 381.649C298.271 381.351 298.005 380.982 297.828 380.57C297.651 380.157 297.567 379.71 297.583 379.261L297.653 368.325L309.586 366.687Z" fill="#C08F8F"/>
<path d="M245.174 239.46C246.412 238.956 247.429 238.6 248.342 238.118C254.406 234.91 259.028 224.343 255.315 217.838C252.08 212.168 245.269 209.234 243.228 209.103C240.036 209.173 236.877 209.764 233.875 210.85C231.192 212.254 229.098 214.571 227.97 217.381C226.055 222.827 226.832 224.362 226.596 226.008C226.15 229.114 230.537 244.68 245.174 239.46Z" fill="#766E6E"/>
<path d="M308.937 314.785C306.907 310.526 301.077 305.558 296.549 304.23C289.395 302.134 270.156 302.235 262.905 298.158C262.905 298.158 243.922 298.548 232.329 292.445C232.329 292.445 220.846 308.325 230.233 321.068C232.371 323.973 236.723 327.857 240.172 328.912C244.248 330.16 249.925 329.833 259.999 329.833C264.611 329.833 267.685 330.048 270.117 333.865C271.348 335.794 273.571 348.616 266.466 370.102C266.329 370.517 267.093 371.227 267.189 371.267C272.999 373.554 279.193 374.709 285.436 374.671C296.104 374.609 329.357 373.15 328.759 369.828C324.528 346.373 308.937 314.785 308.937 314.785Z" fill="#E8DEAE"/>
<path d="M241.332 236.497L242.888 242.919C243.098 243.787 243.024 244.699 242.676 245.521C242.328 246.343 241.725 247.032 240.956 247.485L233.46 251.903C230.024 253.928 233.674 272.094 234.943 272.21C234.943 272.21 239.856 283.772 233.662 292.443C233.915 292.385 241.348 299.118 250.457 300.611C258.492 301.93 268.479 300.165 268.479 300.165C268.479 300.165 277.338 276.201 273.208 264.088L269.904 246.47C269.904 246.47 254.487 245.928 254.487 237.94L241.332 236.497Z" fill="#C08F8F"/>
<path d="M233.401 251.956C230.203 254.341 227.752 257.588 226.334 261.316L216.826 286.314C216.826 286.314 227.738 289.611 228.11 288.788C229.963 284.688 235.796 272.006 237.07 271.983L233.401 251.956Z" fill="#43A16D"/>
<path d="M267.704 245.885C267.704 245.885 268.583 245.978 269.906 246.073C272.743 246.275 276.692 251.606 281.937 262.823L285.421 270.276C285.421 270.276 290.239 282.96 288.476 284.004C284.464 286.377 280.207 285.918 277.645 281.714C273.635 275.137 268.739 265.053 268.164 262.198L267.704 245.885Z" fill="#43A16D"/>
<path d="M255.235 222.056C251.845 214.719 245.031 210.643 240.016 212.964C236.145 214.752 234.481 219.824 235.474 225.418C235.261 225.341 235.034 225.311 234.808 225.331C234.582 225.351 234.363 225.421 234.167 225.535C233.119 226.234 233.401 228.48 234.786 230.559C235.95 232.314 237.54 233.382 238.629 233.255C242.279 238.774 247.946 241.54 252.283 239.544C257.308 237.221 258.624 229.393 255.235 222.056Z" fill="#C08F8F"/>
<path d="M236.416 285.945C235.527 281.416 235.035 276.818 234.944 272.203C233.675 272.086 233.46 251.896 233.46 251.896L240.958 247.479C242.537 246.548 249.181 257.1 252.173 256.534C255.297 255.944 256.398 242.245 257.025 242.738C257.151 242.837 257.285 242.934 257.418 243.03C261.888 246.18 269.906 246.463 269.906 246.463L273.21 264.082C275.863 270.521 274.589 281.255 274.106 283.825C274.043 284.16 273.256 284.452 272.918 284.486C268.226 284.945 236.84 287.98 236.416 285.945Z" fill="#43A16D"/>
<path d="M241.025 284.348C241.025 284.348 258.781 243.296 264.812 244.332C264.812 244.332 269.755 243.73 271.282 245.904C272.809 248.078 270.539 286.657 264.229 300.605C258.988 312.184 232.143 294.838 232.143 294.838C232.386 293.9 232.915 293.061 233.657 292.438C235.511 290.791 238.863 288.593 241.025 284.348Z" fill="#E8DEAE"/>
<path d="M244.441 213.25C243.349 213.802 242.918 214.84 242.055 216.92C240.39 220.937 240.038 226.004 238.522 227.245C238.356 227.395 238.148 227.491 237.925 227.519C237.227 227.58 236.761 226.775 235.723 225.729C234.942 224.94 234.66 224.839 234.209 224.398C233.388 223.518 232.786 222.457 232.451 221.302C232.116 220.146 232.058 218.927 232.282 217.745C232.772 215.746 234.001 214.008 235.723 212.882C238.262 211.157 241.37 210.483 244.395 211.001C250.67 211.867 254.468 216.98 254.305 217.195C254.114 217.449 248.084 211.412 244.441 213.25Z" fill="#766E6E"/>
<path d="M215.572 288.013C215.261 288.841 215.247 289.75 215.533 290.587C215.819 291.423 216.388 292.133 217.141 292.596C218.938 293.742 220.998 294.409 223.125 294.536C231.664 295.048 245.874 294.699 253.558 291.69L250.673 284.403L226.577 282.059C224.749 281.861 222.901 282.117 221.196 282.804C219.492 283.492 217.983 284.589 216.804 286C216.295 286.605 215.879 287.284 215.572 288.013Z" fill="#C08F8F"/>
<path d="M253.216 291.689C253.216 291.689 256.846 293.115 262.427 288.983C262.752 288.745 263.023 288.44 263.223 288.09C263.422 287.739 263.545 287.35 263.584 286.949L263.798 284.631C263.864 283.922 263.659 283.213 263.225 282.648C262.79 282.083 262.159 281.702 261.456 281.582C260.918 281.563 260.381 281.627 259.862 281.772C257.865 282.633 258.232 282.452 257.743 282.267C257.743 282.267 260.072 280.159 260.142 278.812C260.211 277.464 252.002 281.745 250.325 284.395L253.216 291.689Z" fill="#C08F8F"/>
<path d="M308.428 257.393C308.428 257.393 312.058 258.819 317.639 254.687C317.964 254.449 318.236 254.144 318.435 253.794C318.635 253.443 318.758 253.054 318.797 252.653L319.011 250.335C319.076 249.625 318.871 248.917 318.437 248.352C318.003 247.787 317.371 247.406 316.669 247.286C316.131 247.267 315.593 247.331 315.075 247.476C313.077 248.337 313.444 248.156 312.955 247.971C312.955 247.971 315.284 245.863 315.354 244.516C315.424 243.168 307.215 247.449 305.538 250.099L308.428 257.393Z" fill="#C08F8F"/>
<path d="M246.653 394.956C242.577 395.539 238.602 394.175 237.145 392.977C236.01 392.253 234.64 391.994 233.319 392.254L233.393 395.095L229.121 394.969C229.121 394.969 228.908 392.152 228.716 389.612C228.748 388.528 228.91 387.453 229.197 386.407C229.427 385.303 229.779 384.229 230.245 383.202C232.544 383.278 238.476 383.625 239.568 382.308C239.988 383.157 240.549 383.929 241.227 384.591C241.448 384.816 241.681 385.037 241.926 385.253C242.17 385.468 242.337 385.591 242.546 385.757C242.814 385.97 243.088 386.18 243.38 386.386C246.292 388.443 249.922 390.02 251.93 391.482C255.059 393.816 250.732 394.371 246.653 394.956Z" fill="#C28C76"/>
<path d="M230.229 383.228C230.229 383.228 228.516 387.082 228.709 389.62C228.755 390.202 228.796 390.704 228.834 391.112C230.338 391.139 232.095 391.013 231.405 390.194C230.256 388.836 231.183 383.253 231.183 383.253L230.229 383.228Z" fill="#65554F"/>
<path d="M252.555 392.066C252.356 391.863 252.141 391.678 251.911 391.513C250.585 390.545 248.543 389.526 246.471 388.354C244.835 388.808 243.371 389.741 242.269 391.033C241.319 392.197 241.243 394.08 240.988 394.401C242.043 395.462 252.771 394.11 252.975 393.049V393.014C252.956 392.657 252.806 392.319 252.555 392.066Z" fill="#65554F"/>
<path d="M246.656 394.955C249.931 394.483 253.357 394.034 252.959 392.683C242.918 396.177 238.442 392.549 237.577 391.416C237.226 391.061 236.804 390.782 236.34 390.598C235.875 390.414 235.378 390.328 234.879 390.347C231.542 390.638 229.654 389.764 228.692 389.035C228.688 389.23 228.697 389.424 228.719 389.618C228.911 392.153 229.121 394.975 229.121 394.975L233.395 395.101L233.321 392.26C234.003 392.177 234.694 392.273 235.327 392.538C235.961 392.804 236.513 393.23 236.932 393.774C237.95 395.162 242.577 395.544 246.656 394.955Z" fill="#65554F"/>
<path d="M236.932 383.228C237.301 384.022 237.803 384.748 238.414 385.375C239.003 386.014 239.647 386.599 240.341 387.122C241.025 387.649 241.748 388.126 242.502 388.548C242.881 388.757 243.268 388.949 243.667 389.13C244.061 389.311 244.464 389.472 244.875 389.611C244.561 389.32 244.226 389.028 243.894 388.765C243.562 388.502 243.23 388.226 242.891 387.97C242.227 387.436 241.548 386.938 240.881 386.42C240.214 385.902 239.55 385.391 238.888 384.867C238.227 384.343 237.564 383.823 236.932 383.228Z" fill="#65554F"/>
<path d="M230.884 404.881C226.534 405.661 222.23 404.338 220.624 403.112C219.344 402.34 217.853 401.99 216.362 402.112L216.442 404.522L211.863 404.55C211.863 404.55 211.765 402.53 211.467 399.818C211.456 398.659 211.591 397.504 211.866 396.379C212.074 395.192 212.409 394.031 212.866 392.916C215.333 392.914 221.705 393.07 222.809 391.621C223.289 392.515 223.919 393.322 224.67 394.005C224.912 394.241 225.174 394.467 225.437 394.69C225.663 394.869 225.887 395.038 226.121 395.212C226.42 395.432 226.721 395.65 227.038 395.858C230.224 397.96 234.184 399.513 236.387 401.008C239.852 403.35 235.238 404.107 230.884 404.881Z" fill="#C28C76"/>
<path d="M212.867 392.915C212.867 392.915 211.172 397.107 211.472 399.818C211.529 400.461 211.602 400.978 211.659 401.414C213.273 401.388 215.157 401.185 214.378 400.333C213.106 398.935 213.888 392.901 213.888 392.901L212.867 392.915Z" fill="#65554F"/>
<path d="M237.104 401.567C236.883 401.358 236.646 401.168 236.393 400.999C234.934 400.008 232.709 398.989 230.45 397.81C228.713 398.36 227.179 399.414 226.044 400.838C225.065 402.115 225.055 404.145 224.79 404.496C225.956 405.587 237.404 403.759 237.584 402.608L237.591 402.569C237.554 402.188 237.381 401.832 237.104 401.567Z" fill="#65554F"/>
<path d="M230.884 404.881C234.379 404.258 238.037 403.648 237.557 402.215C226.924 406.324 221.993 402.606 221.025 401.42C220.637 401.053 220.176 400.77 219.673 400.591C219.17 400.411 218.634 400.338 218.102 400.377C214.542 400.816 212.485 399.939 211.427 399.197C211.439 399.411 211.454 399.624 211.475 399.828C211.773 402.541 211.866 404.554 211.866 404.554L216.449 404.531L216.368 402.121C217.858 402.001 219.347 402.351 220.627 403.121C222.229 404.347 226.535 405.663 230.884 404.881Z" fill="#65554F"/>
<path d="M220.036 392.671C220.462 393.508 221.025 394.268 221.703 394.918C222.357 395.581 223.069 396.185 223.831 396.721C224.584 397.261 225.376 397.746 226.2 398.171C226.613 398.382 227.033 398.574 227.458 398.762C227.885 398.95 228.325 399.106 228.774 399.232C228.422 398.919 228.054 398.64 227.689 398.362C227.325 398.084 226.943 397.817 226.584 397.546C225.845 397.008 225.115 396.484 224.385 395.951C223.654 395.418 222.916 394.903 222.181 394.371C221.445 393.839 220.739 393.283 220.036 392.671Z" fill="#65554F"/>
<path d="M208.335 313.156C208.335 313.156 227.925 318.922 232.515 321.129C233.71 321.703 243.129 324.393 244.192 330.122C246.814 344.254 242.641 381.914 239.603 384.004C236.565 386.094 229.121 384.009 229.121 384.009C228.965 381.227 228.964 378.439 229.117 375.657C229.588 363.48 230.079 344.329 224.07 340.614L212.299 334.914C212.299 334.914 226.114 343.636 227.22 345.608C228.326 347.579 225.674 393.553 225.674 393.553C225.674 393.553 209.857 396.301 209.187 392.772C208.517 389.242 207.681 370.337 204.369 357.184C193.26 351.229 192.667 350.496 181.556 344.549C175.471 343.864 171.657 336.443 171.657 336.443C171.657 336.443 165.992 327.012 174.79 311.494L208.335 313.156Z" fill="#A8A8A8"/>
<path d="M184.854 259.082C190.611 259.082 195.278 254.416 195.278 248.659C195.278 242.902 190.611 238.236 184.854 238.236C179.098 238.236 174.431 242.902 174.431 248.659C174.431 254.416 179.098 259.082 184.854 259.082Z" fill="#ABBCCA"/>
<path d="M197.478 254.277C184.959 257.198 182.005 250.755 181.654 245.33C181.304 239.906 183.37 230.83 191.252 227.885C199.134 224.94 222.948 248.343 197.478 254.277Z" fill="#ABBCCA"/>
<path d="M198.269 227.329C193.1 228.336 189.924 234.924 190.654 242.573H190.617C189.202 242.848 188.368 244.659 188.753 246.649C189.139 248.639 190.598 249.987 192.014 249.728C192.203 249.691 192.384 249.625 192.552 249.532C195.428 255.321 201.006 258.545 205.596 257.649C211.292 256.539 213.311 249.508 211.63 240.899C209.948 232.291 203.965 226.216 198.269 227.329Z" fill="#C28C76"/>
<path d="M203.778 258.486C203.514 257.564 204.613 255.31 205.28 254.013C200.749 254.706 195.358 251.509 192.549 245.851C192.381 245.944 192.199 246.01 192.011 246.047C192.011 246.047 191.568 257.819 189.019 257.964C186.035 260.526 176.287 269.185 178.274 273.208C179.943 276.575 188.94 274.838 202.355 272.248C203.659 272.044 204.876 271.464 205.855 270.579C208.672 267.901 207.904 263.069 207.524 261.979C206.996 260.539 204.154 259.817 203.778 258.486Z" fill="#C28C76"/>
<path d="M209.612 234.953C209.612 234.953 206.995 230.885 206.234 231.794C205.474 232.704 204.022 235.158 199.044 234.894C196.997 237.689 195.619 240.916 195.017 244.328C194.329 249.423 190.615 242.581 190.615 242.581C190.615 242.581 185.857 230.73 190.994 227.907C193.321 226.507 195.986 225.768 198.702 225.768C201.417 225.768 204.082 226.507 206.409 227.907C211.539 230.788 209.612 234.953 209.612 234.953Z" fill="#ABBCCA"/>
<path d="M263.39 307.273C262.381 307.273 262.886 306.201 262.886 306.201C274.532 305.95 272.391 304.503 272.203 303.81C272.014 303.117 263.44 303.367 261.224 303.367C260.212 303.48 259.191 303.273 258.303 302.775C262.962 298.723 260.945 298.017 259.817 298.017C259.05 298.017 255.392 301.085 253.111 303.058C252.522 303.57 251.828 303.949 251.079 304.169C250.329 304.388 249.54 304.444 248.767 304.331L228.18 301.358C227.666 301.285 227.182 301.074 226.779 300.748C226.376 300.421 226.068 299.992 225.889 299.506L223.664 293.501C223.548 293.179 222.5 290.317 218.566 279.13C214.359 267.167 212.407 261.091 209.506 260.419C207.838 260.035 208.752 267.98 203.268 270.931C199.221 273.105 188.171 270.48 188.171 270.48L188.785 258.035C177.231 260.015 172.49 267.069 172.49 267.069C172.49 267.069 155.382 293.224 154.175 296.821C150.419 308.118 149.815 332.895 149.718 339.383C149.707 340.157 149.604 340.928 149.413 341.678L147.744 349.015C145.474 355.613 145.148 355.784 145.738 357.336C146.327 358.889 148.158 353.209 148.625 351.911C149.092 350.614 149.518 350.835 149.518 350.835C148.024 363.729 149.075 362.16 149.827 362.21C150.578 362.26 151.437 353.234 151.587 352.868C151.738 352.501 152.519 353.118 152.519 353.118C152.135 360.725 151.793 362.085 152.985 363.133C154.176 364.182 154.754 354.609 154.82 353.602C154.887 352.596 155.922 353.185 155.922 353.185C155.397 364.819 156.982 362.783 157.688 362.641C158.393 362.499 158.71 353.94 158.86 351.712C158.814 350.693 159.088 349.684 159.645 348.829C163.38 353.748 164.214 351.783 164.293 350.652C164.348 349.817 160.851 345.207 159.086 342.942C158.778 342.543 158.562 342.081 158.454 341.589C158.347 341.096 158.35 340.586 158.464 340.095L166.855 304.356C167.127 303.205 167.577 302.103 168.186 301.089L173.765 291.818L179.064 283.014L208.36 291.009C209.642 297.33 212.07 306.936 215.538 310.537C221.25 316.476 244.255 314.509 250.397 313.645C251.402 313.504 252.423 313.515 253.425 313.679L259.295 314.622C266.03 316.449 266.218 316.763 267.728 316.07C269.239 315.377 263.452 313.933 262.129 313.566C260.806 313.199 260.993 312.731 260.993 312.731C273.962 313.361 272.326 312.417 272.326 311.663C272.326 310.908 263.259 310.653 262.884 310.527C262.509 310.402 263.071 309.584 263.071 309.584C270.686 309.459 272.072 309.71 273.014 308.449C273.957 307.187 264.395 307.273 263.39 307.273Z" fill="#C28C76"/>
<path d="M205.247 259.229C205.247 259.229 210.671 259.567 212.206 261.883C213.571 263.915 218.783 277.968 222.329 287.784C224.737 294.46 225.835 297.144 226.289 298.182C226.365 298.359 226.378 298.556 226.325 298.741C226.273 298.925 226.158 299.087 226.001 299.197C223.819 300.694 216.053 305.951 213.245 307.025C213.056 307.094 212.848 307.092 212.661 307.02C212.473 306.948 212.317 306.81 212.223 306.633C210.328 303.061 200.485 283.987 202.842 278.37C205.447 272.161 205.247 259.229 205.247 259.229Z" fill="#737065"/>
<path d="M211.422 312.339C207.851 291.739 211.923 297.905 211.923 284.232C211.923 279.859 206.353 269.697 206.657 267.927L207.938 260.458C207.964 260.306 207.94 260.149 207.869 260.012C207.798 259.875 207.685 259.765 207.545 259.698C207.545 259.698 204.909 258.91 204.828 259.377L204.064 263.758C203.75 265.554 202.797 267.176 201.382 268.326C199.967 269.476 198.184 270.076 196.362 270.017H196.157C194.2 269.956 192.343 269.14 190.975 267.74C189.606 266.34 188.834 264.464 188.82 262.506L188.778 257.999C184.215 258.151 179.807 259.696 176.147 262.425C170.476 266.56 157.882 288.162 153.786 295.051C153.709 295.183 153.659 295.33 153.641 295.482C153.623 295.634 153.638 295.788 153.683 295.935C153.728 296.081 153.803 296.217 153.903 296.332C154.004 296.448 154.127 296.541 154.266 296.607L167.327 302.765L177.02 286.354L171.442 313.139C171.419 313.25 171.421 313.365 171.448 313.475C171.475 313.585 171.526 313.687 171.597 313.775C171.669 313.863 171.759 313.934 171.861 313.983C171.963 314.031 172.075 314.057 172.188 314.057L211.942 313.952C211.668 313.452 211.492 312.905 211.422 312.339Z" fill="#737065"/>
<path d="M201.897 405.742C201.897 405.742 207.825 407.454 198.471 414.668C198.471 414.668 167.29 415.6 163.95 412.995C160.61 410.39 165.599 397.092 165.599 397.092C172.298 398.783 179.137 399.857 186.032 400.301C188.389 400.393 190.729 404.207 190.729 404.207L201.897 405.742Z" fill="#4C4C56"/>
<path d="M165.091 353.201C165.091 353.201 196.239 343.118 197.128 363.284C198.017 383.45 178.735 423.741 178.735 423.741L161.259 418.246L166.3 387.091C166.3 387.091 146.426 380.219 145.238 379.761C144.05 379.302 165.091 353.201 165.091 353.201Z" fill="#6B6A7E"/>
<path d="M161.363 364.212L163.545 366.378L164.942 367.776C164.942 367.776 172.066 380.489 181.258 372.667C190.45 364.844 174.121 358.992 170.856 358.692C170.181 358.57 169.547 358.283 169.01 357.857C168.473 357.43 168.051 356.876 167.78 356.246C167.277 355.278 166.914 354.243 166.704 353.173L161.363 364.212Z" fill="#866067"/>
<path opacity="0.05" d="M161.363 364.212L163.545 366.378L164.942 367.776C164.942 367.776 172.066 380.489 181.258 372.667C190.45 364.844 174.121 358.992 170.856 358.692C170.181 358.57 169.547 358.283 169.01 357.857C168.473 357.43 168.051 356.876 167.78 356.246C167.277 355.278 166.914 354.243 166.704 353.173L161.363 364.212Z" fill="black"/>
<path opacity="0.1" d="M162.799 364.212L164.981 366.378C164.981 362.198 167.504 358.358 169.231 356.198C168.728 355.231 168.365 354.196 168.155 353.125L162.799 364.212Z" fill="black"/>
<path d="M151.107 331.285L171.575 353.779C171.575 353.779 164.453 360.625 165.941 367.8L151.107 349.539V331.285Z" fill="#C4C8E2"/>
<path opacity="0.1" d="M151.227 331.285V349.546L153.604 352.473L160.656 361.154L166.06 367.807C164.578 360.632 171.694 353.786 171.694 353.786L151.227 331.285Z" fill="black"/>
<path d="M153.228 299.004C153.228 299.004 153.228 305.849 147.887 303.895C142.547 301.941 146.7 381.165 146.7 381.165C146.7 381.165 162.127 368.451 159.161 359.324C156.195 350.197 155.603 343.33 155.882 334.218C156.162 325.106 153.228 299.004 153.228 299.004Z" fill="#D39999"/>
<path d="M155.613 310.348C155.613 310.348 151.161 323.715 155.613 333.825C160.066 343.935 129.204 328.279 129.204 328.279C129.204 328.279 136.026 324.691 133.656 307.414L155.613 310.348Z" fill="#FDC2CC"/>
<path opacity="0.1" d="M154.202 341.717C154.02 345.299 154.02 348.889 154.202 352.472L161.255 361.153C160.228 358.738 159.061 356.386 157.761 354.108C156.664 352.244 156.419 344.791 156.363 336.3L153.777 333.457C154.048 338.044 154.202 341.717 154.202 341.717Z" fill="black"/>
<path d="M150.006 297.236C149.678 295.523 152.25 298.103 153.075 299.602L153.117 299.687C154.304 301.992 153.711 301.318 155.494 306.533C157.277 311.748 154.9 349.554 157.59 354.165C159.417 357.414 161.004 360.793 162.337 364.275L157.59 362.316C157.59 362.316 155.807 356.446 154.626 355.141C153.445 353.835 154.032 341.774 154.032 341.774C154.032 341.774 153.145 320.909 152.249 316.345C151.54 312.668 150.706 300.839 150.006 297.236Z" fill="#C4C8E2"/>
<path opacity="0.1" d="M150.006 297.236C149.678 295.523 152.25 298.103 153.075 299.602L153.117 299.687C154.304 301.992 153.711 301.318 155.494 306.533C157.277 311.748 154.9 349.554 157.59 354.165C159.417 357.414 161.004 360.793 162.337 364.275L157.59 362.316C157.59 362.316 155.807 356.446 154.626 355.141C153.445 353.835 154.032 341.774 154.032 341.774C154.032 341.774 153.145 320.909 152.249 316.345C151.54 312.668 150.706 300.839 150.006 297.236Z" fill="black"/>
<path d="M140.771 378.554C140.771 378.554 187.641 376.595 193.576 390.293C199.511 403.991 185.271 412.472 185.271 412.472C185.271 412.472 165.397 405.626 160.945 406.602C156.493 407.578 140.771 403.99 140.771 403.99V378.554Z" fill="#706F81"/>
<path d="M164.644 370.082C164.644 370.082 175.326 363.56 181.261 367.777C187.195 371.994 186.601 383.426 178.297 383.748C175.917 383.872 173.54 383.469 171.335 382.567C169.13 381.665 167.151 380.287 165.54 378.532L164.644 370.082Z" fill="#8C676D"/>
<path d="M142.294 292.812C142.294 292.812 132.801 285.636 118.855 312.017C104.909 338.397 108.475 383.74 108.475 383.74C108.475 383.74 118.855 384.393 118.562 395.153C118.268 405.913 158.911 408.213 158.911 408.213C158.911 408.213 158.317 301.273 154.164 298.354C150.011 295.434 142.294 292.812 142.294 292.812Z" fill="#CFD1DC"/>
<path opacity="0.1" d="M138.609 312.264C140.323 313.671 141.698 315.445 142.632 317.456C143.566 319.467 144.036 321.662 144.006 323.879C144.055 333.643 144.272 354.685 145.171 358.666C146.359 363.882 164.154 370.728 173.354 370.405C173.354 370.405 177.806 379.532 172.467 381.491C167.127 383.45 134.501 381.491 134.501 381.491C134.501 381.491 121.744 365.52 121.45 351.529C121.157 337.539 119.354 321.86 121.45 318.921C123.161 316.444 130.327 305.841 138.609 312.264Z" fill="black"/>
<path d="M139.073 310.957C140.795 312.362 142.178 314.137 143.119 316.151C144.059 318.165 144.533 320.365 144.504 322.588C144.553 332.352 144.77 353.394 145.669 357.375C146.857 362.591 164.652 369.436 173.852 369.114C173.852 369.114 178.305 378.241 172.965 380.2C167.625 382.158 134.999 380.2 134.999 380.2C134.999 380.2 122.241 364.226 121.947 350.237C121.654 336.247 119.851 320.567 121.947 317.628C123.627 315.167 130.79 304.534 139.073 310.957Z" fill="#CFD1DC"/>
<path d="M198.632 421.121C198.632 421.121 204.559 422.833 195.205 430.048C195.205 430.048 164.024 430.98 160.684 428.375C157.344 425.769 162.333 412.472 162.333 412.472C169.032 414.163 175.872 415.237 182.766 415.68C185.123 415.772 187.463 419.586 187.463 419.586L198.632 421.121Z" fill="#4C4C56"/>
<path opacity="0.1" d="M139.62 335.357C139.62 335.357 141.101 355.899 150.896 360.463L139.62 335.357Z" fill="black"/>
<path d="M123.348 289.384C123.769 291.012 124.378 292.586 125.161 294.074L125.287 294.306C130.367 303.644 141.169 307.048 149.978 302.083C158.787 297.118 162.578 285.491 158.644 275.508C154.709 265.525 144.398 260.61 135.078 264.278C125.758 267.945 120.626 278.932 123.351 289.392L123.348 289.384Z" fill="#8C676D"/>
<path opacity="0.1" d="M118.862 312.371C120.786 308.645 123.006 305.079 125.5 301.708C123.498 304.603 121.679 307.62 120.055 310.743C106.108 337.155 109.673 382.466 109.673 382.466C109.673 382.466 120.053 383.119 119.76 393.879C119.494 403.536 152.202 406.364 158.906 406.84V408.545C158.906 408.545 118.261 406.24 118.557 395.485C118.853 384.73 108.47 384.072 108.47 384.072C108.47 384.072 104.937 338.783 118.862 312.371Z" fill="black"/>
<path d="M120.39 266.599C121.949 264.757 124.138 263.277 126.38 263.458C127.839 262.658 129.373 262.003 130.96 261.502C131.851 261.299 132.698 260.933 133.457 260.423C134 259.924 134.506 259.387 134.971 258.814C137.222 256.429 140.317 256.084 143.223 255.599C145.586 255.207 149.199 253.085 151.264 255.535C151.567 255.875 151.761 256.298 151.821 256.75C151.88 257.201 151.802 257.66 151.597 258.067C151.396 258.354 151.088 258.539 150.97 258.897C150.887 259.37 150.981 259.858 151.234 260.268L155.813 270.013C155.098 270.738 154.233 271.297 153.278 271.65C152.323 272.003 151.302 272.143 150.288 272.058C149.726 271.999 149.168 271.907 148.617 271.785C147.475 273.232 145.825 272.928 144.228 273.863C143.286 274.523 142.56 275.448 142.143 276.521C140.764 279.5 140.2 282.792 140.509 286.06C140.627 287.294 140.756 288.82 139.808 289.478C139.44 289.683 139.054 289.853 138.654 289.986C136.855 290.84 136.723 293.511 135.937 295.49C134.981 297.901 132.685 299.999 133.183 302.579C133.422 303.212 133.51 303.892 133.44 304.565C133.312 304.951 133.043 305.276 132.688 305.474C132.138 305.743 131.518 305.837 130.913 305.742C130.307 305.646 129.746 305.367 129.305 304.942C128.385 304.042 127.641 302.978 127.112 301.805L119.69 287.759C118.806 286.195 118.052 284.562 117.434 282.876C116.541 280.13 116.343 277.205 116.859 274.365C117.375 271.524 118.588 268.855 120.39 266.599Z" fill="#9A8A8D"/>
<path d="M512.085 221.892C505.823 220.152 510.693 215.281 510.693 215.281L510.727 214.916C510.734 214.843 510.723 214.769 510.696 214.701C510.668 214.633 510.624 214.573 510.568 214.526C510.513 214.478 510.446 214.445 510.374 214.429C510.303 214.412 510.229 214.414 510.158 214.432C508.914 214.762 506.314 215.17 506.843 212.61C506.835 212.266 506.746 211.929 506.585 211.626C506.423 211.322 506.192 211.061 505.911 210.863C505.837 210.81 505.774 210.742 505.729 210.663C505.683 210.584 505.656 210.495 505.649 210.404C505.641 210.313 505.654 210.222 505.686 210.136C505.718 210.05 505.768 209.973 505.833 209.909C506.501 209.318 507.035 208.593 507.402 207.781C507.428 207.706 507.432 207.625 507.415 207.548C507.399 207.47 507.361 207.399 507.307 207.341C507.252 207.283 507.184 207.241 507.107 207.219C507.031 207.197 506.95 207.196 506.873 207.217L504.473 207.852C504.421 207.867 504.365 207.87 504.312 207.859C504.258 207.849 504.208 207.827 504.165 207.793C504.121 207.76 504.086 207.717 504.063 207.668C504.039 207.619 504.027 207.565 504.028 207.51V207.185C504.028 207.135 504.018 207.085 503.999 207.039C503.98 206.993 503.951 206.951 503.915 206.916C503.88 206.881 503.837 206.853 503.791 206.834C503.744 206.816 503.694 206.807 503.644 206.808L502.79 206.823C502.652 206.825 502.515 206.796 502.389 206.736C502.264 206.676 502.155 206.589 502.069 206.48C501.983 206.371 501.924 206.244 501.896 206.108C501.868 205.972 501.871 205.832 501.906 205.698L502.78 202.357C502.933 201.771 502.867 201.15 502.594 200.61C501.115 197.768 500.401 194.591 500.521 191.391C500.521 191.391 503.869 196.388 513.463 200.659C513.463 200.659 513.379 194.479 518.055 197.319C518.055 197.319 519.87 198.367 519.788 202.871L521.747 204.099C523.156 204.985 524.213 206.332 524.738 207.912C525.505 210.206 527.476 213.745 528.497 214.55C528.498 214.555 518.347 223.626 512.085 221.892Z" fill="#C28C76"/>
<path d="M500.983 399.446C500.983 399.446 503.859 413.349 502.83 413.79C501.8 414.231 474.743 416.064 479.438 413.66L487.24 410.166C488.604 409.555 489.763 408.564 490.579 407.312C491.394 406.06 491.832 404.599 491.838 403.105L491.858 398.668L500.983 399.446Z" fill="#C28C76"/>
<path d="M480.426 413.217L487.905 412.804C487.325 412.098 486.694 411.436 486.016 410.824C485.917 410.731 485.842 410.614 485.798 410.485C485.754 410.356 485.744 410.218 485.767 410.083C485.79 409.949 485.846 409.822 485.93 409.715C486.015 409.607 486.124 409.523 486.249 409.468C486.471 409.37 486.714 409.332 486.955 409.359C487.195 409.385 487.425 409.474 487.62 409.617C488.645 410.504 489.536 411.535 490.265 412.678L492.516 412.553C493.073 411.505 495.232 408.44 502.231 406.162C502.283 406.145 502.338 406.14 502.393 406.146C502.447 406.153 502.5 406.171 502.546 406.199C502.593 406.228 502.633 406.266 502.664 406.312C502.694 406.357 502.715 406.408 502.724 406.462L502.898 407.539C502.913 407.627 502.895 407.718 502.849 407.795C502.803 407.872 502.731 407.93 502.646 407.959C499.824 408.935 497.218 410.449 494.972 412.417L503.028 411.971C503.449 413.114 503.478 414.365 503.108 415.525C490.084 417.221 477.768 416.158 475.868 415.041C473.969 413.924 480.426 413.217 480.426 413.217Z" fill="#6F5C59"/>
<path d="M533.107 399.446C533.107 399.446 535.984 413.349 534.954 413.79C533.925 414.231 506.868 416.064 511.562 413.66L519.365 410.166C520.729 409.555 521.888 408.564 522.703 407.312C523.519 406.06 523.956 404.599 523.963 403.105L523.983 398.668L533.107 399.446Z" fill="#C28C76"/>
<path d="M512.551 413.217L520.03 412.804C519.45 412.098 518.818 411.437 518.141 410.824C518.041 410.731 517.966 410.615 517.922 410.485C517.879 410.356 517.868 410.218 517.891 410.083C517.914 409.949 517.971 409.822 518.055 409.715C518.139 409.607 518.249 409.523 518.374 409.468C518.595 409.37 518.839 409.332 519.079 409.359C519.32 409.385 519.55 409.474 519.745 409.617C520.77 410.504 521.661 411.535 522.389 412.678L524.641 412.553C525.197 411.505 527.356 408.44 534.356 406.162C534.408 406.145 534.463 406.14 534.517 406.146C534.572 406.153 534.624 406.171 534.671 406.199C534.718 406.228 534.758 406.266 534.788 406.312C534.819 406.357 534.839 406.408 534.848 406.463L535.023 407.539C535.037 407.627 535.02 407.718 534.974 407.795C534.927 407.872 534.855 407.93 534.77 407.959C531.948 408.935 529.342 410.449 527.097 412.417L535.152 411.971C535.574 413.114 535.602 414.365 535.233 415.525C522.209 417.221 509.892 416.158 507.993 415.041C506.093 413.924 512.551 413.217 512.551 413.217Z" fill="#6F5C59"/>
<path d="M481.292 403.014C481.084 392.438 479.83 308.084 491.559 270.948L496.301 261.354L527.915 274.602C527.915 274.602 538.23 300.055 534.829 333.916C534.357 338.662 534.628 343.453 535.634 348.116L543.102 400.123C543.246 401.131 543.032 402.157 542.497 403.023C541.963 403.888 541.141 404.539 540.175 404.86C521.385 411.115 501.053 410.98 482.348 404.474C482.043 404.369 481.779 404.172 481.59 403.91C481.401 403.649 481.297 403.336 481.292 403.014Z" fill="#706F81"/>
<path d="M528.089 214.233C528.089 214.233 518.695 223.627 512.433 221.887C506.171 220.147 511.041 215.277 511.041 215.277L505.139 216.209C502.027 216.454 499.907 220.366 498.487 223.146C498.786 226.878 498.786 230.628 498.487 234.36C498.005 240.945 499.343 262.235 499.343 262.235C499.343 262.235 496.604 278.073 528.265 274.598L527.395 271.3H531.981C534.324 271.047 536.515 270.017 538.205 268.374C539.894 266.731 540.985 264.57 541.304 262.235C542.221 255.499 543.365 245.772 543.608 237.643C543.715 234.266 543.028 230.911 541.603 227.847C540.178 224.783 538.055 222.095 535.404 220.001L528.089 214.233Z" fill="#E8DEAE"/>
<path d="M525.122 254.48C525.122 254.48 520.084 229.808 507.505 215.529C507.505 215.529 501.653 214.818 498.487 218.963C498.487 218.963 490.691 256.601 497.295 270.944C511.459 301.7 535.378 313.968 535.378 313.968C535.378 313.968 532.523 273.392 525.122 254.48Z" fill="#706F81"/>
<path d="M500.52 191.396C500.52 191.396 502.19 196.259 513.463 200.664C513.463 200.664 513.771 196.985 516.141 196.797C516.538 196.774 516.935 196.854 517.292 197.028C517.65 197.202 517.958 197.464 518.185 197.791C519.286 199.252 519.854 201.047 519.793 202.876C519.945 204.797 520.399 206.682 521.14 208.461C521.961 210.129 523.702 210.585 525.13 211.78C526.715 213.177 527.724 213.177 528.523 211.78C529.504 210.064 533.298 208.564 534.025 202.877C534.503 199.139 532.744 192.047 531.567 189.073C525.883 174.712 502.107 181.21 500.52 191.396Z" fill="#DCDCDC"/>
<path d="M531.983 271.298C534.326 271.045 536.517 270.015 538.207 268.372C539.897 266.729 540.988 264.568 541.306 262.232C542.224 255.496 543.367 245.77 543.611 237.641C543.717 234.263 543.03 230.908 541.605 227.844C540.181 224.78 538.057 222.093 535.406 219.998L525.125 255.909L531.983 271.298Z" fill="#E8DEAE"/>
<path d="M502.789 249.937C502.789 249.937 494.575 247.182 492.737 243.342C492.737 243.342 491.34 239.992 490.834 239.992C490.368 239.992 490.188 241.342 490.718 244.427C490.826 245.016 490.713 245.625 490.402 246.137C490.09 246.649 489.602 247.029 489.029 247.204C487.719 247.48 486.362 247.44 485.07 247.088C485.07 247.088 475.558 244.082 481.274 251.68C482.524 252.801 483.989 253.657 485.58 254.196C487.17 254.735 488.854 254.946 490.528 254.815C494.165 254.611 497.79 255.404 501.009 257.108L502.789 249.937Z" fill="#F9977A"/>
<path d="M523.922 255.909L502.789 249.937L501.016 257.111L519.251 268.221C523.069 270.548 527.52 271.623 531.98 271.298L525.123 255.909H523.922Z" fill="#C28C76"/>
<path d="M469.873 201.336C467.54 200.98 465.157 201.185 462.919 201.932C460.076 202.813 457.666 204.727 456.164 207.296C455.454 208.675 455.293 210.334 454.973 213.654C454.798 215.701 454.731 217.757 454.773 219.812C454.773 221.232 454.804 223.264 454.973 225.772C455.187 228.96 455.303 230.565 455.767 231.136C457.63 233.439 461.642 231.311 461.727 234.315C461.78 236.17 460.601 237.343 462.15 239.008C464.071 241.072 471.366 240.289 474.045 238.883C474.411 238.691 479.772 235.808 479.409 232.526C479.216 230.773 477.575 230.591 476.429 227.956C475.695 226.129 475.489 224.133 475.833 222.195C476.35 218.358 478.279 217.886 479.807 213.254C480.22 212.09 480.327 210.839 480.119 209.621C479.91 208.404 479.392 207.26 478.614 206.3C476.373 203.671 473.279 201.913 469.873 201.333V201.336Z" fill="#6C4F47"/>
<path d="M484.179 426.741L485.139 436.321L468.503 444.448H494.048V426.746L484.179 426.741Z" fill="#6C4F47"/>
<path d="M456.764 426.741L457.724 436.321L441.084 444.447H466.628V426.745L456.764 426.741Z" fill="#6C4F47"/>
<path d="M438.52 445.318V445.26C438.519 444.812 438.644 444.373 438.879 443.992C439.113 443.61 439.45 443.301 439.85 443.1L457.116 434.398C457.284 434.312 457.478 434.289 457.662 434.331C457.846 434.374 458.009 434.48 458.123 434.631L461.501 439.123C461.62 439.282 461.795 439.392 461.991 439.43C462.186 439.468 462.389 439.433 462.56 439.33L466.52 436.953C466.642 436.879 466.782 436.839 466.925 436.838C467.068 436.836 467.209 436.872 467.333 436.942C467.457 437.012 467.561 437.115 467.632 437.238C467.704 437.362 467.742 437.502 467.742 437.645V445.316C467.742 445.53 467.657 445.735 467.506 445.886C467.355 446.037 467.15 446.122 466.936 446.122H439.335C439.228 446.123 439.123 446.103 439.024 446.063C438.925 446.024 438.835 445.965 438.76 445.89C438.684 445.815 438.624 445.726 438.582 445.628C438.541 445.53 438.52 445.425 438.52 445.318Z" fill="#935B50"/>
<path d="M465.939 445.318V445.26C465.939 444.812 466.063 444.373 466.298 443.992C466.533 443.61 466.869 443.301 467.269 443.1L484.535 434.398C484.704 434.312 484.897 434.289 485.081 434.331C485.265 434.374 485.429 434.48 485.543 434.631L488.92 439.123C489.04 439.282 489.214 439.392 489.41 439.43C489.606 439.468 489.809 439.433 489.98 439.33L493.939 436.953C494.062 436.879 494.202 436.839 494.344 436.838C494.487 436.836 494.628 436.872 494.752 436.942C494.877 437.012 494.98 437.115 495.052 437.238C495.124 437.362 495.161 437.502 495.161 437.645V445.316C495.161 445.53 495.076 445.735 494.925 445.886C494.774 446.037 494.569 446.122 494.355 446.122H466.746C466.532 446.122 466.328 446.038 466.176 445.887C466.025 445.736 465.94 445.532 465.939 445.318Z" fill="#935B50"/>
<path d="M482.841 431.656H494.093C495.36 431.656 499.031 430.992 499.031 429.727L500.682 389.575C500.682 381.757 500.915 373.057 500.682 364.091C500.682 364.091 490.065 309.682 490.581 298.244L457.724 295.818L478.054 427.617C478.243 428.72 481.723 431.656 482.841 431.656Z" fill="#707070"/>
<path d="M447.026 294.113C447.026 294.113 445.299 322.078 445.299 328.652C445.299 328.652 441.052 368.219 441.09 368.466C442.639 378.758 442.677 385.889 444.481 395.252L451.285 430.57C451.341 431.136 451.605 431.662 452.027 432.044C452.449 432.426 452.998 432.638 453.567 432.638H466.825C468.157 432.638 471.283 430.818 471.186 429.494C471.186 429.494 469.581 373.813 469.385 367.412L480.904 298.248L447.026 294.113Z" fill="#707070"/>
<path d="M460.137 233.321L462.968 234.566C462.968 234.566 464.816 243.92 477.928 230.212L490.581 238.039C493.444 239.86 495.741 242.447 497.212 245.505C502.211 256.088 505.137 267.53 505.83 279.214C505.83 279.214 509.906 361.701 509.54 369.47C509.474 370.868 431.259 369.751 431.259 368.153C431.262 368.155 436.484 253.585 460.137 233.321Z" fill="#B4D2D0"/>
<path d="M420.468 249.473C420.468 249.473 420.352 246.317 415.494 241.321C410.637 236.325 406.294 232.909 408.816 237.12L410.796 240.296C410.796 240.296 405.575 238.271 402.569 236.793C401.779 236.388 400.879 236.248 400.002 236.393C399.126 236.538 398.319 236.961 397.701 237.599C396.569 238.82 396.603 240.155 399.727 242.524C402.607 244.816 405.791 246.697 409.189 248.114C409.676 248.302 410.088 248.646 410.359 249.092L413.853 251.934L420.468 249.473Z" fill="#6C4F47"/>
<path d="M459.425 233.948C459.425 233.948 456.795 235.123 454.757 236.168C451.932 237.616 447.546 242.705 442.413 255.416L439.001 263.863C439.001 263.863 428.761 251.91 419.902 244.328L411.158 251.423L431.397 274.735C432.706 276.607 434.445 278.138 436.467 279.201C441.088 281.563 445.806 280.784 448.396 275.982C452.448 268.47 457.265 257.033 457.726 253.846L459.425 233.948Z" fill="#B4D2D0"/>
<path d="M479.011 218.421C478.747 220.938 478.987 222.453 478.167 223.885C477.637 224.816 475.778 225.664 475.699 224.801C475.518 223.796 475.521 222.766 475.708 221.761C476.151 220.758 476.46 219.701 476.627 218.617C476.867 216.886 476.52 214.296 475.038 213.65C474.64 213.505 474.211 213.465 473.793 213.535C473.376 213.604 472.983 213.781 472.654 214.047C472.304 214.416 472.035 214.854 471.864 215.333C471.693 215.812 471.624 216.321 471.66 216.828C471.527 218.614 471.527 220.407 471.66 222.192C471.787 224.488 471.449 226.785 470.667 228.947C470.054 230.537 469.085 233.036 466.693 234.112C465.236 234.767 463.898 234.592 461.726 234.311C459.576 234.033 457.946 233.827 456.561 232.531C455.483 231.456 454.784 230.06 454.569 228.553C454.353 227.229 454.718 227.064 454.569 224.58C454.461 222.833 454.254 222.502 454.569 221.997C454.883 221.491 456.058 222.94 456.753 222.791C457.63 222.601 458.086 220.912 458.939 221.201C459.961 221.634 460.902 222.239 461.72 222.989C462.885 223.9 463.07 224.264 463.707 224.379C464.233 224.423 464.761 224.337 465.246 224.129C465.731 223.921 466.157 223.598 466.488 223.187C467.399 222.111 467.303 220.406 467.085 217.029C466.832 215.316 466.832 213.576 467.085 211.864C467.152 210.983 467.5 210.147 468.078 209.48C468.989 208.619 469.807 209.082 472.052 208.486C473.466 208.114 474.808 207.51 476.025 206.699C477.639 205.606 477.788 204.911 478.608 204.911C479.9 204.903 481.125 206.616 481.588 208.089C482.267 210.258 481.456 212.385 480.595 214.646C479.648 217.146 479.159 217.023 479.011 218.421ZM456.869 226.807C457.893 226.603 458.956 226.739 459.897 227.193C460.034 227.253 460.186 227.267 460.332 227.232C460.477 227.197 460.607 227.116 460.703 227.001C460.798 226.885 460.853 226.742 460.859 226.593C460.865 226.443 460.823 226.296 460.737 226.173C460.234 225.526 459.525 225.07 458.728 224.879C457.93 224.689 457.092 224.776 456.35 225.125C456.179 225.187 456.032 225.301 455.928 225.45C455.823 225.599 455.768 225.777 455.768 225.959C455.769 226.093 455.8 226.225 455.86 226.345C455.919 226.466 456.005 226.571 456.112 226.653C456.218 226.735 456.341 226.792 456.473 226.819C456.604 226.846 456.74 226.843 456.87 226.81L456.869 226.807Z" fill="#CDD3D1"/>
<path d="M482.187 328.276L484.818 324.771C484.818 324.771 484.818 328.411 484.674 331.876C484.655 332.354 484.813 332.822 485.119 333.191C485.424 333.56 485.855 333.803 486.329 333.873H486.343H486.355L486.848 333.944L488.922 334.245L489.398 334.317L490.98 334.549L491.446 334.621C491.804 334.53 492.128 334.34 492.381 334.072C492.635 333.804 492.806 333.469 492.876 333.107C493.342 330.742 494.305 325.622 494.299 324.356C494.291 323.744 495.006 316.837 495.006 316.837L490.739 310.315C490.739 310.315 487.345 311.785 483.952 319.192C480.558 326.599 478.669 332.813 482.187 328.276Z" fill="#6C4F47"/>
<path d="M485.13 314.217L492.953 285.618C493.336 283.347 493.147 281.016 492.403 278.836L487.5 265.385C486.735 263.279 485.805 261.237 484.719 259.277C481.797 254.016 476.087 241.703 484.046 237.679C494.27 232.51 503.193 256.546 503.193 256.546L506.357 264.095C508.759 269.811 509.826 275.999 509.476 282.189C509.372 284.38 509.151 286.564 508.813 288.732C507.572 295.584 498.556 317.614 498.556 317.614C498.556 317.614 491.888 321.854 486.444 315.897C486.444 315.9 485.273 314.43 485.13 314.217Z" fill="#B4D2D0"/>
</svg>
