<svg width="747" height="739" viewBox="0 0 747 739" fill="none" xmlns="http://www.w3.org/2000/svg">
<path d="M518.852 401.372L517.951 401.651L517.114 401.011L518.25 400.833L518.852 401.372ZM525.574 396.648L525.961 395.367L527.103 395.303L526.868 397.263L525.574 396.648ZM514.584 406.991L514.571 406.762L514.584 406.991ZM495.959 403.559L497.969 400.585L496.232 400.223L498.122 395.08L497.868 392.575L502.339 388.549L503.239 390.331L506.087 385.936L509.689 382.759L508.516 380.191L503.582 377.946L504.635 374.223L503.659 373.132L504.242 369.207L506.722 366.436L509.867 367.406L512.081 366.024L515.53 368.351L517.141 366.43L522.436 364.876L526.825 365.549L530.383 361.573L532.196 365.365L534.53 366.151L534.092 368.58L535.893 372.144L538.969 375.981L539.805 382.805L538.41 386.546L536.076 387.821L532.138 395.253L528.517 396.026L525.917 394.568L523.875 396.971L520.323 396.939L514.749 399.653L515.624 400.979L513.462 405.335L514.241 407.01L506.137 407.46L503.087 408.201L498.476 411.778L495.819 411.353L495.369 407.37L495.959 403.559Z" fill="#009743" stroke="white" stroke-width="0.5" stroke-miterlimit="12"/>
<path d="M305.534 372.453L307.488 372.573L303.866 373.347L304.501 372.395L305.534 372.453ZM265.392 358.88L265.646 353.141L264.321 345.772L264.563 335.682L267.27 334.96L267.353 332.321L270.346 328.491L270.594 324.699L272.725 321.833L271.457 317.552L269.269 315.269L270.036 312.593L269.973 305.268L273.398 300.956L273.512 296.828L276.601 294.71L283.075 293.778L285.415 292.617L292.378 294.292L297.242 299.403L301.301 298.262L304.275 296.15L307.021 296.112L312.342 299.138L320.605 299.48L322.85 296.608L329.008 294.09L335.52 293.843L340.892 295.721L344.456 295.981L345.166 294.338L351.666 289.741L353.841 289.735L358.027 294.998L359.39 300.991L363.607 302.704L363.359 308.557L359.833 311.043L358.216 310.789L354.969 316.236L354.081 320.866L352.515 321.525L352.432 326.224L349.661 327.866L349.464 332.572L344.885 336.719L344.853 340.27L341.315 346.65L342.646 347.95L340.014 350.043L338.169 353.924L331.707 348.901L330.883 350.55L327.629 349.7L317.565 360.22L317.431 366.067L315.884 369.13L312.745 368.274L313.271 371.565L308.61 372.167L305.027 371.565L302.725 373.41L295.711 374.944L290.524 372.255L288.019 366.326L283.827 360.948L279.553 358.208L274.956 357.891L265.392 358.88Z" fill="#009743" stroke="white" stroke-width="0.5" stroke-miterlimit="12"/>
<path d="M301.792 410.217L300.473 409.145L301.868 407.464L302.952 408.435L301.792 410.217Z" fill="#009743" stroke="white" stroke-width="0.5" stroke-miterlimit="12"/>
<path d="M584.219 463.008L583.16 462.495L583.902 461.423L585.468 460.764L584.219 463.008ZM578.988 445.093L579.724 443.907L581.67 450.097L578.785 447.623L578.988 445.093ZM582.33 441.358L582.413 436.659L583.592 437.28L584.068 439.659L582.33 441.358ZM524.388 414.461L525.777 414.728L526.436 416.294L523.633 415.305L524.388 414.461ZM545.616 495.723L545.578 495.038L545.198 494.372L545.071 494.151L544.957 494.157L544.126 493.63L543.524 493.091L543.403 492.984L543.517 492.977L540.962 482.013L539.142 480.167L538.292 479.298L538.052 479.083L537.449 478.544L537.329 478.436L537.214 478.442L536.092 478.848L535.94 480.23L531.666 479.552L527.461 478.068L522.762 475.924L519.42 475.537L515.596 472.658L512.343 471.808L507.035 462.828L506.661 458.154L502.654 454.026L499.134 452.503L500.916 449.542L498.976 445.528L499.515 442.864L497.467 441.031L497.822 437.119L500.593 435.476L504.113 428.754L506.739 426.548L506.828 424.024L503.34 423.072L504.272 419.242L506.53 418.659L506.175 412.266L502.846 407.986L505.896 407.244L514.001 406.794L513.912 407.257L514.229 406.781L514.343 406.775L514.641 408.018L512.89 415.672L515.7 418.837L515.027 421.164L518.129 417.213L519.473 418.742L526.588 419.034L531.706 416.345L529.429 414.525L529.873 410.149L533.209 406.3L564.175 421.641L563.94 425.662L577.847 434.851L577.593 438.53L574.948 446.577L575.665 449.171L581.042 453.223L581.854 455.468L579.793 459.59L581.473 463.046L580.135 465.754L581.01 469.141L583.635 473.117L585.201 478.64L584.453 479.598L590.807 482.68L590.756 483.828L587.262 486.885L581.377 490.188L578.073 490.486L574.763 492.731L572.759 491.697L569.575 492.103L568.896 494.316L566.005 495.851L560.798 494.88L558.705 496.371L555.604 496.199L552.383 493.859L550.417 495.571L545.616 495.723Z" fill="#009743" stroke="white" stroke-width="0.5" stroke-miterlimit="12"/>
<path d="M135.46 357.277L136.24 358.951L135.523 358.419L132.511 357.784L135.46 357.277ZM154.428 348.323L153.901 351.215L151.802 352.591L152.037 354.754L146.063 360.581L145.371 362.566L142.182 360.797L136.366 359.173L137.089 357.759L132.238 354.937L131.845 351.982L130.285 352.755L128.503 345.412L130.755 344.714L133.336 341.708L134.718 337.739L139.671 336.204L145.03 335.792L150.49 341.329L152.506 346.713L150.616 349.795L154.428 348.323Z" fill="#009743" stroke="white" stroke-width="0.5" stroke-miterlimit="12"/>
<path d="M102.827 328.402L105.008 328.51L105.401 329.405L102.56 329.791L102.827 328.402ZM112.758 329.912L109.339 328.155L108.623 325.562L111.997 324.458L110.551 323.165L107.025 325.65L109.2 321.522L104.298 323.97L97.3923 319.201L101.552 317.825L106.233 317.565L110.221 315.168L122.651 314.249L123.076 317.775L120.964 318.922L123.203 320.058L123.348 322.683L118.694 323.4L115.351 325.074L112.758 329.912Z" fill="#009743" stroke="white" stroke-width="0.5" stroke-miterlimit="12"/>
<path d="M31.4088 302.139L29.7664 301.429L30.7303 300.23L31.6942 301.093L31.4088 302.139ZM36.0701 297.415L38.8413 299.894L38.5495 300.827L36.0953 299.932L36.0701 297.415ZM40.8517 296.92L41.4984 298.258L40.9594 298.861L40.2428 298.328L40.8517 296.92ZM43.0462 289.012L44.4286 289.165L43.6041 290.813L42.3358 290.655L43.0462 289.012ZM30.5153 286.044L31.105 286.355L30.363 287.427L29.4752 285.873L30.5153 286.044ZM23.286 281.636L24.3577 282.378L21.7132 284.243L21.3962 282.657L23.286 281.636Z" fill="#009743" stroke="white" stroke-width="0.5" stroke-miterlimit="12"/>
<path d="M715.003 428.382L715.606 428.921L715.428 429.847L714.921 428.959L715.003 428.382Z" fill="#B48DAE" stroke="#444444" stroke-width="0.5" stroke-miterlimit="12"/>
<path d="M658.218 504.815L658.3 506.299L657.368 506.007L657.19 504.872L658.218 504.815ZM639.664 616.11L636.703 616.388L634.065 614.245L630.133 613.547L627.26 611.302L624.337 606.083L623.373 599.037L624.306 597.268L620.678 591.744L619.233 586.329L621.174 577.977L623.641 577.038L624.268 573.912L628.702 565.078L628.626 561.647L626.337 557.538L626.438 555.242L624.542 552.027L623.268 543.51L627.009 536.662L626.991 532.197L630.32 532.356L633.713 529.534L636.598 529.946L637.182 528.082L641.488 527.27L647.525 522.584L647.455 525.45L649.694 524.525L648.216 522.66L651.381 517.79L651.698 521.436L653.753 517.2L653.296 515.164L656.017 512.609L654.501 510.06L655.174 507.732L658.382 509.844L659.055 507.517L661.744 506.451L663.285 501.213L662.594 499.076L665.492 493.534L668.212 499.222L671.497 502.704L673.456 509.122L674.598 517.302L677.001 523.467L675.086 528.153L673.646 526.973L672.295 523.27L670.184 524.418L672.384 533.112L669.206 539.815L669.961 543.093L669.079 549.898L666.999 555.739L663.295 569.455L660.821 580.585L658.329 589.311L656.375 599.495L653.159 609.635L649.405 612.134L645.873 612.444L639.664 616.11Z" fill="#009743" stroke="white" stroke-width="0.5" stroke-miterlimit="12"/>
<path d="M533.564 406.509L534.04 400.643L539.722 399.87L538.701 397.98L534.674 399.692L532.398 397.872L532.259 395.361L536.197 387.928L538.531 386.654L539.926 382.912L539.089 376.089L536.014 372.252L534.213 368.688L534.65 366.259L532.317 365.473L530.503 361.68L533.744 358.18L542.223 354.16L544.131 357.603L546.757 357.457L547.873 358.999L554.614 358.739L565.629 365.341L568.933 365.043L577.83 366.495L580.234 362.354L587.806 358.499L590.926 361.074L597.426 360.598L593.114 367.479L590.196 370.618L591.717 402.136L596.613 407.818L596.784 408.839L594.742 411.242L591.457 411.883L591.888 413.462L589.421 416.461L585.755 418.497L586.206 420.418L584.221 423.849L582.876 428.504L580.009 434.617L578.215 435.289L564.308 426.1L564.543 422.079L533.564 406.509Z" fill="#009743" stroke="white" stroke-width="0.5" stroke-miterlimit="12"/>
<path d="M491.957 416.033L492.21 418.538L491.545 418.918L491.494 418.005L491.957 416.033ZM508.523 380.305L502.225 386.494L502.231 388.669L497.76 392.696L498.014 395.201L496.124 400.344L493.118 403.946L493.777 405.512L495.959 403.559L495.477 407.25L495.927 411.232L494.151 412.247L493.092 413.794L491.678 413.071L490.226 417.846L490.505 420.808L490.701 422.286L491.76 422.799L493.739 425.437L493.65 427.961L492.952 433.954L494.093 438.013L493.44 442.744L495.976 447.183L494.524 449.897L497.517 456.372L503.548 461.877L504.448 465.72L507.264 468.998L493.451 471.826L493.229 471.953L488.828 477.235L489.044 481.117L490.572 479.772L492.03 483.355L492.03 489.538L490.07 497.548L491.529 501.131L496.107 505.228L500.026 505.697L499.697 503.883L502.398 503.046L502.892 514.011L500.971 512.4L497.642 514.302L490.324 506.236L484.426 505.189L480.311 499.12L476.417 503.229L470.544 502.639L465.053 500.654L464.273 496.919L456.029 498.98L456.701 496.652L453.048 494.794L451.976 496.113L449.091 495.701L445.159 497.064L441.132 496.715L438.722 498.681L437.847 495.294L438.875 491.115L437.41 487.418L434.639 484.938L434.753 474.627L433.079 471.285L432.965 465.108L422.35 465.698L422.978 462.571L420.276 463.408L413.769 463.769L413.883 467.885L412.558 468.76L412.875 472.407L402.944 472.958L397.731 473.934L390.686 462.532L388.949 455.987L386.52 455.55L372.949 456.532L360.158 457.128L354.089 459.182L351.895 456.785L354.273 456.309L353.385 450.634L358.433 446.689L360.907 447.926L363.824 446.848L369.221 442.999L369.734 448.123L373.355 447.349L376.215 443.183L379.152 440.387L381.733 439.442L384.276 433.69L383.629 430.291L383.724 423.759L385.995 421.343L388.341 416.175L392.108 413.905L395.641 409.472L395.261 406.745L396.884 400.93L395.939 396.288L397.398 391.627L396.999 386.496L401.109 378.024L401.058 375.05L401.045 370.7L399.98 368.011L401.547 367.351L404.375 362.614L407.007 360.522L409.626 360.262L415.048 363.052L417.388 366.014L419.652 365.545L422.582 366.756L426.913 366.401L432.925 367.441L436.597 361.398L440.814 363.11L449.819 358.259L452.533 359.712L456.82 358.558L457.15 356.249L461.082 356.947L463.561 356.237L466.51 357.791L469.947 357.829L472.04 356.339L474.843 357.328L477.805 361.171L483.322 363.613L486.163 361.165L489.803 362.795L492.048 359.922L498.668 365.738L501.446 366.271L501.687 368.547L504.255 369.435L503.671 373.361L504.648 374.451L503.595 378.174L508.523 380.305Z" fill="#009743" stroke="white" stroke-width="0.5" stroke-miterlimit="12"/>
<path d="M721.118 569.451L724.231 571.912L723.971 573.415L720.058 573.06L718.809 571.182L721.118 569.451ZM632.623 501.656L631.856 502.271L631.691 503.425L630.543 501.314L632.623 501.656Z" fill="#009743" stroke="white" stroke-width="0.5" stroke-miterlimit="12"/>
<path d="M155.823 177.525L184.074 193.475L190.346 197.135L175.291 198.2L184.281 248.768L188.961 275.301L191.351 277.115L190.495 284.376L157.88 286.759L153.834 288.129L146.173 288.325L144.848 291.261L140.383 287.158L137.79 287.875L137.422 293.62L133.724 295.085L129.089 292.022L127.32 289.028L124.986 288.242L122.557 283.682L119.837 284.177L115.024 279.979L110.001 280.257L103.812 282.204L98.2309 282.743L96.8546 288.888L97.0071 281.322L98.9795 275.602L99.7725 269.261L97.5469 260.11L94.6045 256.609L96.8117 248.929L93.6982 244.408L92.5883 245.042L90.0645 240.831L89.1259 244.547L89.5256 239.372L123.047 236.824L121.653 226.139L120.841 223.894L121.951 221.199L125.128 218.618L130.144 216.164L128.344 191.989L156.514 189.967L155.823 177.525Z" fill="#009743" stroke="white" stroke-width="0.5" stroke-miterlimit="12"/>
<path d="M184.074 193.475L155.823 177.525L155.506 173.879L154.733 164.075L163.345 156.268L167.385 154.785L179.186 152.87L181.063 153.682L183.029 149.908L190.329 143.206L196.366 140.58L196.918 138.145L194.432 134.619L195.504 131.239L202.493 129.248L201.434 126.674L205.036 125.558L215.899 125.298L217.364 120.751L213.927 118.652L211.479 113.75L210.864 104.738L208.867 99.6967L209.698 98.162L205.614 94.7247L209.47 94.0527L213.535 90.9645L214.112 88.9859L221.101 84.9339L223.111 86.0818L225.121 83.1076L232.617 77.8825L246.125 75.7585L248.624 73.3298L253.202 73.3046L256.202 71.6496L264.433 71.4216L268.454 73.7174L276.52 70.5215L277.675 68.6254L282.684 70.1793L286.68 67.8965L291.391 70.2684L297.264 68.7974L295.849 72.1964L294.961 80.9478L295.754 82.8503L295.658 93.5042L292.373 96.2056L289.703 101.735L292.493 108.68L295.41 109.663L297.769 115.028L304.326 119.702L309.577 137.959L307.592 139.329L311.174 144.054L312.81 148.772L312.937 157.238L314.528 161.157L313.006 166.738L314.845 170.987L314.458 174.329L311.465 176.098L310.907 178.419L316.195 184.995L317.058 190.214L320.336 193.582L323.146 192.624L330.483 194.851L334.3 201.738L297.549 228.625L284.333 242.183L270.927 246.133L263.247 248.048L261.338 246.665L262.486 244.655L261.928 240.793L254.838 238.897L252.898 236.943L250.532 237.647L248.218 235.142L244.001 233.43L243.589 230.132L190.359 197.363L184.074 193.475Z" fill="#009743" stroke="white" stroke-width="0.5" stroke-miterlimit="12"/>
<path d="M576.617 258.016L579.857 260.699L577.549 260.369L575.894 259.43L576.617 258.016ZM604.214 284.88L600.612 288.057L597.93 287.176L594.074 283.726L591.95 280.523L587.429 277.454L584.106 273.287L577.758 270.319L572.685 269.685L570.123 270.972L568.88 269.209L563.394 271.46L558.606 267.718L556.234 274.491L553.787 271.65L552.049 273.349L547.381 273.837L546.164 266.348L550.172 256.049L549.462 253.57L550.338 248.712L553.781 248.864L554.549 246.188L560.383 244.032L563.452 239.511L566.496 244.838L568.817 251.579L569.647 256.228L571.765 261.377L574.061 263.54L575.203 261.415L579.033 266.47L581.043 265.556L583.243 268.068L586.585 268.455L591.265 274.378L596.579 277.289L601.037 283.339L604.214 284.88Z" fill="#009743" stroke="white" stroke-width="0.5" stroke-miterlimit="12"/>
<path d="M317.97 377.831L319.619 378.655L317.545 382.549L315.687 382.079L317.97 377.831ZM340.286 389.988L341.066 399.907L328.173 400.737L324.203 399.354L327.628 392.981L327.305 389.221L328.991 390.73L340.286 389.988Z" fill="#009743" stroke="white" stroke-width="0.5" stroke-miterlimit="12"/>
<path d="M739.356 561.797L739.204 565.241L736.82 565.602L737.949 561.189L739.356 561.797Z" fill="#009743" stroke="white" stroke-width="0.5" stroke-miterlimit="12"/>
<path d="M98.0331 308.058L94.3426 301.393L92.1485 298.996L89.0158 298.254L92.2374 296.472L96.7085 288.323L98.0849 282.178L103.665 281.64L109.855 279.693L114.878 279.414L119.691 283.612L122.411 283.118L124.84 287.678L127.174 288.464L128.943 291.457L133.578 294.52L134.105 297.812L136.622 301.909L135.582 303.798L139.97 306.532L142.234 310.185L142.494 314.865L136.672 315.188L134.326 316.234L128.067 314.864L128.01 313.837L122.404 313.919L109.974 314.838L105.985 317.235L101.305 317.495L97.1449 318.871L96.6821 316.721L96.5617 312.491L97.1959 311.54L104.267 311.033L104.299 309.543L109.264 308.236L109.873 306.829L116.43 309.442L120.945 308.275L119.569 306.176L116.557 307.603L114.401 305.89L109.994 304.875L106.575 307.241L98.0331 308.058Z" fill="#009743" stroke="white" stroke-width="0.5" stroke-miterlimit="12"/>
<path d="M625.572 496.323L625.939 498.821L623.206 497.026L624.589 497.179L625.572 496.323ZM617.042 495.308L615.273 494.375L615.292 490.596L616.231 491.002L617.042 495.308Z" fill="#009743" stroke="white" stroke-width="0.5" stroke-miterlimit="12"/>
<path d="M593.478 297.728L592.609 298.577L593.573 299.44L595.012 300.619L600.536 299.053L603.206 299.707L601.1 303.03L602.901 306.594L608.082 313.29L613.421 316.658L638.794 324.066L647.241 323.597L634.709 337.117L622.78 351.176L614.536 351.175L607.491 354.2L604.802 357.326L599.36 358.316L597.299 360.376L590.799 360.852L587.679 358.277L580.107 362.132L577.704 366.273L568.806 364.821L565.502 365.119L554.487 358.517L547.746 358.777L546.63 357.235L545.419 356.043L545.387 351.35L541.259 351.236L538.171 347.171L535.736 340.436L531.918 337.671L526.687 332.122L521.024 331.177L521.88 325.977L528.596 325.26L529.763 323.593L529.021 316.42L530.803 309.337L530.315 306.73L532.795 303.959L535.883 303.902L536.245 295.982L537.551 294.764L540.767 288.746L544.819 287.49L545.637 281.605L546.792 279.709L547.705 273.476L552.372 272.988L554.11 271.288L556.558 274.129L558.93 267.356L563.718 271.098L569.203 268.847L570.446 270.61L573.008 269.323L578.081 269.957L584.429 272.925L587.752 277.092L592.274 280.161L594.398 283.364L598.253 286.814L593.338 295.216L593.478 297.728Z" fill="#009743" stroke="white" stroke-width="0.5" stroke-miterlimit="12"/>
<path d="M216.942 373.02L215.795 372.969L216.942 373.02ZM179.324 376.024L180.681 371.598L179.984 369.347L176.845 368.491L175.786 365.916L169.641 364.539L171.797 362.13L171.956 358.8L170.155 355.236L172.33 355.23L173.763 350.112L171.671 347.481L176.268 345.737L173.903 344.38L174.29 338.977L172.59 339.3L171.417 334.671L172.908 332.641L175.508 329.978L181.672 331.697L183.765 330.207L183.847 327.568L186.06 328.247L187.462 326.681L187.785 330.441L189.777 331.247L191.381 329.211L193.765 328.85L196.442 329.617L198.813 333.15L201.318 334.957L209.746 332.085L213.64 332.097L217.654 336.34L218.174 335.395L217.692 339.086L219.011 340.158L220.381 346.265L217.831 349.841L216.588 356.322L214.983 360.419L218.084 368.835L219.701 369.088L219.447 372.766L215.471 373.331L209.713 372.734L194.182 375.543L185.462 379.348L180.357 382.265L179.324 376.024Z" fill="#009743" stroke="white" stroke-width="0.5" stroke-miterlimit="12"/>
<path d="M216.942 373.02L218.077 372.842L219.308 372.316L219.561 368.638L217.944 368.384L214.844 359.969L216.448 355.872L217.691 349.391L220.241 345.815L218.871 339.708L217.552 338.636L218.034 334.945L215.39 324.443L216.633 322.084L233.971 320.893L238.468 319.384L240.097 319.866L239.501 323.563L243.775 326.302L242.748 332.543L245.456 333.881L244.529 339.886L247.586 343.381L246.482 344.129L247.586 351.625L246.793 355.905L249.158 359.323L252.842 361.752L251.371 364.124L245.695 365.012L240.013 367.846L236.608 370.44L230.203 372.627L226.004 375.379L223.633 373.908L216.942 373.02Z" fill="#009743" stroke="white" stroke-width="0.5" stroke-miterlimit="12"/>
<path d="M496.061 541.527L493.334 541.907L489.827 544.735L487.881 544.729L484.399 550.075L482.147 554.894L479.579 556.067L475.267 554.704L473.491 555.718L471.005 554.253L467.46 554.336L464.822 552.192L458.626 551.964L451.632 553.841L446.14 549.794L440.477 544.727L439.266 541.474L437.624 513.97L454.512 512.918L453.269 511.155L454.449 507.655L453.511 501.066L454.202 499.081L453.162 494.788L456.815 496.646L456.143 498.973L464.387 496.912L465.167 500.648L470.658 502.633L476.531 503.223L480.424 499.114L484.54 505.183L490.438 506.229L497.756 514.296L501.085 512.394L503.006 514.005L502.512 503.04L499.811 503.877L500.14 505.691L496.221 505.221L491.643 501.124L490.184 497.541L492.144 489.532L492.144 483.349L490.686 479.766L494.611 476.227L495.607 473.539L493.35 472.061L493.572 471.934L507.384 469.106L506.718 471.548L509.483 471.852L511.537 473.799L512.577 471.909L515.831 472.759L519.655 475.638L522.997 476.025L527.696 478.169L531.697 482.183L534.531 487.866L531.684 490.199L532.419 493.135L531.17 495.38L531.747 501.646L532.844 504.905L529.407 506.928L529.971 510.905L528.62 515.445L530.383 518.324L532.082 518.001L507.54 527.607L509.461 533.34L504.769 533.372L501.281 534.482L496.873 537.589L496.061 541.527Z" fill="#009743" stroke="white" stroke-width="0.5" stroke-miterlimit="12"/>
<path d="M451.517 553.847L458.512 551.97L464.708 552.199L467.346 554.342L464.828 554.367L461.195 556.974L458.442 556.897L453.635 561.057L451.13 557.189L448.391 557.341L435.974 560.549L431.763 561.012L433.69 593.652L425.376 594.457L426.884 619.564L428.893 653.688L425.431 655.254L421.657 659.471L418.854 658.482L414.092 659.319L407.712 657.841L406.881 653.193L403.039 652.032L402.392 654.816L399.874 656.902L398.726 656.851L392.81 651.34L389.17 645.588L385.917 636.495L384.592 631.187L383.527 622.315L380.572 616.525L380.363 604.514L378.816 599.332L374.922 595.198L373.844 592.28L369.76 586.782L367.376 580.96L359.348 568.353L355.423 563.647L353.99 558.46L354.186 555.815L356.305 554.782L360.687 555.34L365.678 552.429L372.406 556.063L374.562 555.715L409.942 553.636L412.745 556.686L423.43 557.353L425.923 556.871L429.892 558.253L434.902 557.746L451.517 553.847Z" fill="#009743" stroke="white" stroke-width="0.5" stroke-miterlimit="12"/>
<path d="M503.201 408.195L506.53 412.476L506.885 418.868L504.627 419.451L499.338 419.058L499.268 421.924L497.632 423.389L491.874 422.793L490.815 422.279L490.612 420.688L494.519 416.807L493.098 413.908L494.157 412.361L495.933 411.347L498.59 411.772L503.201 408.195Z" fill="#009743" stroke="white" stroke-width="0.5" stroke-miterlimit="12"/>
<path d="M654.141 295.276L654.775 310.813L647.247 323.711L638.8 324.18L613.427 316.772L608.088 313.405L602.907 306.708L601.106 303.144L603.212 299.821L605.717 295.445L611.075 301.216L615.007 303.975L620.854 304.108L627.824 299.714L633.277 301.014L640.811 296.474L647.565 296.442L651.7 294.61L654.141 295.276Z" fill="#009743" stroke="white" stroke-width="0.5" stroke-miterlimit="12"/>
<path d="M647.247 323.711L654.775 310.813L654.141 295.276L659.405 293.152L665.17 291.801L669.545 288.123L673.845 289.259L672.335 295.067L673.318 300.394L675.189 301.092L671.263 302.569L670.883 310.148L667.623 315.367L666.659 318.626L663.025 323.294L662.904 325.247L659.359 331.512L656.924 339.204L653.93 345.096L648.356 353.993L637.727 366.72L632.862 371.913L620.712 379.916L612.017 388.299L600.95 401.394L596.657 408.617L596.486 407.596L591.59 401.914L590.069 370.396L592.987 367.257L597.299 360.377L599.36 358.316L604.801 357.327L607.49 354.2L614.536 351.176L622.78 351.176L634.709 337.117L647.247 323.711Z" fill="#009743" stroke="white" stroke-width="0.5" stroke-miterlimit="12"/>
<path d="M359.834 294.554L359.587 296.286L361.597 295.373L364.501 298.188L365.427 302.488L366.714 302.989L367.78 307.739L367.038 310.872L367.564 314.163L369.847 318.158L373.195 320.72L365.128 321.855L360.417 321.544L358.527 324.626L362.179 328.546L369.58 333.974L372.661 342.047L370.619 344.451L366.871 353.246L364.239 355.339L365.888 356.163L367.644 367.172L370.149 368.98L371.823 374.383L380.003 381.486L381.208 386.686L381.221 391.036L373.319 388.956L370.478 389.343L367.643 387.783L365.157 388.379L356.939 388.835L356.432 387.947L340.444 388.72L340.279 389.874L329.099 390.61L327.412 389.1L328.326 382.866L325.485 379.131L325.054 375.491L322.441 375.865L319.505 374.54L318.947 370.678L315.421 371.102L315.973 368.667L317.52 365.604L317.654 359.757L327.718 349.237L330.971 350.087L331.796 348.438L338.258 353.461L340.103 349.58L342.735 347.487L341.403 346.187L344.942 339.808L344.974 336.256L349.553 332.109L349.75 327.404L352.521 325.761L352.604 321.062L354.17 320.403L355.058 315.773L358.305 310.326L359.922 310.58L363.448 308.094L363.696 302.241L359.479 300.528L358.116 294.535L359.834 294.554ZM360.405 294.523L360.532 294.745L360.291 294.529L360.405 294.523Z" fill="#009743" stroke="white" stroke-width="0.5" stroke-miterlimit="12"/>
<path d="M356.951 389.063L365.17 388.607L367.656 388.011L370.491 389.571L373.332 389.184L381.233 391.265L381.221 386.914L383.339 381.759L383.726 376.356L391.139 373.769L394.418 375.075L399.624 373.985L400.95 375.171L401 378.145L396.891 386.617L397.29 391.747L395.831 396.408L396.776 401.05L395.152 406.866L395.533 409.593L392 414.025L388.233 416.295L385.887 421.464L383.616 423.88L383.521 430.412L384.168 433.811L381.625 439.562L379.043 440.507L376.107 443.304L373.247 447.47L369.626 448.244L369.112 443.12L363.716 446.969L360.798 448.047L358.325 446.81L356.391 444.971L352.611 447.013L349.612 450.729L347.823 447.393L341.45 441.907L344.33 438.083L345.782 439.491L347.995 436.048L345.763 435.027L344.241 428.241L348.496 428.577L351.769 427.709L351.223 424.075L354.426 424.012L356.011 427.817L360.266 428.153L362.391 425.173L365.428 428.324L368.175 420.042L367.363 415.736L367.978 412.382L364.63 409.82L362.182 409.04L362.335 405.596L367.021 399.267L364.402 395.405L361.073 395.246L356.608 397.326L355.512 394.067L356.951 389.063Z" fill="#009743" stroke="white" stroke-width="0.5" stroke-miterlimit="12"/>
<path d="M89.0942 243.976L88.7201 243.424L89.1071 238.021L99.7928 236.627L107.568 236.424L109.071 232.562L112.254 228.034L113.168 217.678L115.02 213.912L118.793 211.756L120.626 207.646L125.649 203.245L128.205 191.539L130.792 190.708L133.703 185.394L132.999 183.029L136.925 181.551L142.702 182.49L147.154 182.243L149.767 179.808L154.992 179.06L154.472 173.822L155.614 173.758L155.931 177.405L156.508 189.853L128.344 191.989L129.999 215.599L124.982 218.053L121.805 220.634L120.695 223.329L121.507 225.574L122.902 236.26L89.3798 238.808L89.0942 243.976Z" fill="#009743" stroke="white" stroke-width="0.5" stroke-miterlimit="12"/>
<path d="M265.393 358.88L258.594 360.173L256.343 360.871L257.681 360.224L255.671 357.015L256.09 354.244L254.651 336.576L253.053 334.604L251.911 328.484L246.94 325.554L247.783 320.126L249.578 319.454L252.115 315.649L256.928 315.725L259.896 311.438L259.516 308.711L263.536 306.885L270.265 312.58L269.497 315.256L271.685 317.539L272.953 321.82L270.822 324.686L270.575 328.479L267.581 332.309L267.499 334.947L264.791 335.67L264.55 345.759L265.875 353.128L265.393 358.88Z" fill="#009743" stroke="white" stroke-width="0.5" stroke-miterlimit="12"/>
<path d="M259.547 311.343L256.579 315.63L251.766 315.554L249.229 319.359L247.435 320.031L243.89 320.113L238.353 319.39L233.857 320.899L216.519 322.091L215.276 324.45L217.92 334.951L217.4 335.896L213.386 331.654L209.492 331.641L201.064 334.513L198.559 332.706L196.188 329.173L193.512 328.406L193.328 323.035L195.541 319.591L194.768 315.97L200.666 312.895L201.852 309.508L200.964 307.955L203.196 306.915L201.795 304.359L204.82 301.099L209.303 303.484L210.952 302.247L210.521 298.607L213.749 299.001L214.009 295.437L217.085 293.09L220.896 293.68L221.207 291.03L223.483 290.789L228.798 287.517L231.068 285.101L235.406 284.86L239.357 285.9L238.963 289.128L243.491 296.433L246.281 297.195L246.757 301.634L251.754 305.02L256.516 304.183L257.791 306.517L256.364 307.627L259.547 311.343Z" fill="#009743" stroke="white" stroke-width="0.5" stroke-miterlimit="12"/>
<path d="M256.337 360.757L254.758 361.188L252.741 361.987L249.057 359.558L246.691 356.14L247.484 351.859L246.381 344.363L247.485 343.615L244.428 340.121L245.354 334.115L242.646 332.777L243.674 326.537L239.4 323.797L239.996 320.1L238.366 319.618L243.902 320.341L247.447 320.259L246.604 325.687L251.575 328.617L252.717 334.737L254.315 336.709L255.754 354.377L255.335 357.148L257.345 360.357L256.337 360.757Z" fill="#009743" stroke="white" stroke-width="0.5" stroke-miterlimit="12"/>
<path d="M269.801 312.491L263.073 306.796L259.053 308.623L259.433 311.35L256.491 307.849L257.918 306.739L256.643 304.405L251.88 305.242L246.883 301.856L246.408 297.417L243.618 296.656L239.09 289.35L239.483 286.122L245.831 284.968L248.767 282.171L267.209 280.232L270.114 276.864L272.39 270.44L272.448 265.285L271.148 246.006L284.555 242.056L297.771 228.498L334.408 201.617L347.471 203.869L354.263 208.645L360.345 204.757L362.57 213.908L362.938 218.468L366.869 223.288L366.375 224.689L370.129 228.374L368.543 232.813L367.87 259.873L359.207 270.888L355.002 277.648L354.577 280.305L352.117 283.418L353.816 289.278L351.641 289.284L345.14 293.882L344.43 295.524L340.866 295.264L335.495 293.387L328.982 293.634L322.824 296.151L320.579 299.024L312.316 298.681L306.996 295.656L304.25 295.694L301.275 297.806L297.217 298.947L292.353 293.835L285.39 292.161L283.05 293.321L276.575 294.253L273.487 296.371L273.372 300.5L269.948 304.812L269.801 312.491Z" fill="#009743" stroke="white" stroke-width="0.5" stroke-miterlimit="12"/>
<path d="M360.123 204.884L354.041 208.771L347.249 203.996L334.186 201.744L330.368 194.857L323.031 192.631L320.222 193.588L316.943 190.221L316.081 185.002L310.792 178.425L311.35 176.104L314.344 174.335L314.731 170.993L312.892 166.744L314.414 161.164L312.822 157.244L312.696 148.778L311.06 144.06L307.477 139.335L309.462 137.966L312.36 136.545L315.462 130.534L313.819 125.701L319.914 117.92L325.659 114.166L324.537 112.511L324.683 106.892L332.071 110.032L335.4 110.191L340.588 108.758L347.766 110.191L350.392 112.106L356.626 113.02L359.663 120.294L364.679 124.023L370.526 124.156L376.081 125.222L383.095 127.809L390.108 132.458L393.292 132.052L396.716 129.801L398.936 126.472L399.628 122.426L397.408 117.511L398.404 112.761L402.406 108.532L411.214 104.264L415.768 103.782L424.037 106.3L424.335 109.604L433.074 112.325L440.747 112.357L442.408 115.471L440.049 118.35L441.526 124.336L439.262 130.989L442.306 140.438L446.108 208.927L447.129 227.305L438.574 227.895L438.821 232.346L368.779 199.938L360.123 204.884Z" fill="#009743" stroke="white" stroke-width="0.5" stroke-miterlimit="12"/>
<path d="M170.154 355.236L171.955 358.8L171.797 362.13L169.64 364.539L175.785 365.916L176.844 368.491L179.983 369.347L180.681 371.598L179.324 376.025L180.116 382.049L173.851 380.565L164.915 376.366L154.852 368.338L146.506 364.45L145.263 362.687L145.955 360.702L151.929 354.874L151.694 352.712L153.793 351.336L154.32 348.444L158.296 347.88L160.997 349.104L162.709 355.192L161.885 356.84L164.846 358.623L167.091 357.811L168.258 354.082L170.154 355.236Z" fill="#009743" stroke="white" stroke-width="0.5" stroke-miterlimit="12"/>
<path d="M545.198 494.373L545.071 494.151L544.957 494.157L545.071 494.151L545.198 494.373ZM543.644 493.2L543.517 492.978L543.644 493.2ZM539.136 480.053L538.286 479.184L539.136 480.053ZM537.449 478.544L537.328 478.436L537.449 478.544ZM527.575 478.062L531.78 479.546L536.054 480.224L536.529 482.602L539.37 486.338L538.888 487.967L540.194 497.055L538.038 501.526L540.942 508.464L541.012 511.78L543.783 514.26L543.003 516.708L544.632 519.251L545.876 516.892L549.262 520.139L547.34 514.406L545.521 512.56L547.436 514.057L554.297 522.149L553.986 526.861L554.493 533.932L551.024 535.384L549.16 538.923L550.498 540.337L550.815 543.983L549.102 544.078L548.272 541.491L542.824 536.183L541.423 533.627L543.979 528.104L543.072 522.085L541.728 520.557L536.521 521.648L535.894 522.713L531.962 517.893L530.262 518.217L528.5 515.337L529.851 510.797L529.286 506.821L532.723 504.798L531.627 501.538L531.05 495.273L532.299 493.028L531.564 490.092L534.411 487.758L531.576 482.076L527.575 478.062Z" fill="#009743" stroke="white" stroke-width="0.5" stroke-miterlimit="12"/>
<path d="M96.8027 312.707L95.9847 310.348L98.0331 308.058L106.81 307.342L110.228 304.977L114.636 305.992L116.792 307.704L119.804 306.277L121.18 308.376L116.665 309.543L110.108 306.93L109.499 308.338L104.533 309.644L104.501 311.134L97.4305 311.641L96.8027 312.707Z" fill="#009743" stroke="white" stroke-width="0.5" stroke-miterlimit="12"/>
<path d="M361.603 295.487L363.836 294.447L361.692 292.963L360.405 294.523L360.176 294.535L359.466 294.117L359.834 294.554L357.672 294.789L353.486 289.525L351.787 283.666L354.248 280.552L354.673 277.895L358.877 271.135L367.54 260.12L368.214 233.06L369.799 228.621L366.045 224.937L366.54 223.535L362.608 218.715L362.241 214.156L360.015 205.005L368.342 200.306L438.383 232.714L440.38 266.61L432.859 267.257L431.559 268.588L432.066 271.537L429.821 276.471L427.265 277.872L428.844 281.563L425.128 284.746L427.055 288.532L424.335 291.088L424.537 294.741L426.77 293.701L430.517 299.332L430.023 302.795L433.358 305.129L433.13 309.263L429.667 308.769L423.681 312.307L424.017 314.235L418.176 320.399L416.736 323.341L413.559 325.922L402.322 327.691L400.451 329.054L402.708 330.532L398.554 336.144L390.938 337.139L383.379 341.223L381.406 338.699L380.011 340.38L375.325 342.586L372.668 342.161L369.586 334.088L362.185 328.66L358.533 324.74L360.423 321.658L365.135 321.969L373.201 320.835L369.853 318.272L367.57 314.277L367.044 310.986L367.786 307.853L366.721 303.103L365.433 302.602L364.508 298.303L361.603 295.487Z" fill="#009743" stroke="white" stroke-width="0.5" stroke-miterlimit="12"/>
<path d="M328.173 400.737L341.065 399.907L340.285 389.989L340.45 388.834L356.438 388.061L356.945 388.949L355.949 393.699L357.046 396.959L361.511 394.879L364.84 395.037L367.459 398.9L362.772 405.228L362.62 408.672L365.068 409.452L368.416 412.014L367.801 415.369L368.612 419.675L365.866 427.957L362.828 424.805L360.704 427.785L356.449 427.449L354.863 423.644L351.661 423.707L352.206 427.341L348.934 428.21L344.679 427.873L346.2 434.659L348.433 435.68L346.219 439.123L344.767 437.716L341.888 441.539L337.785 437.76L337.607 436.625L331.158 431.83L325.407 425.165L325.844 420.675L323.079 420.37L319.89 414.479L322.801 415.348L324.488 412.735L324.481 406.438L326.181 408.176L328.914 407.909L326.092 406.578L324.336 403.813L327.088 403.889L326.238 400.959L328.173 400.737Z" fill="#009743" stroke="white" stroke-width="0.5" stroke-miterlimit="12"/>
<path d="M603.206 299.707L600.536 299.053L595.012 300.62L593.573 299.44L594.334 298.711L593.484 297.842L593.129 295.572L598.044 287.169L600.727 288.051L604.329 284.874L606.149 286.719L606.726 290.924L601.621 293.841L601.576 295.103L605.838 295.553L603.206 299.707Z" fill="#009743" stroke="white" stroke-width="0.5" stroke-miterlimit="12"/>
<path d="M497.942 437.227L494.994 431.551L493.65 427.961L493.738 425.437L491.76 422.799L497.518 423.396L499.154 421.931L499.224 419.064L504.513 419.458L503.581 423.288L507.069 424.239L506.98 426.763L504.354 428.97L500.834 435.692L497.942 437.227Z" fill="#009743" stroke="white" stroke-width="0.5" stroke-miterlimit="12"/>
<path d="M352.009 456.779L351.99 454.375L349.948 450.595L352.948 446.879L356.727 444.838L358.661 446.677L353.613 450.621L354.501 456.297L352.009 456.779ZM390.686 462.532L393.723 467.745L397.953 473.808L403.166 472.831L413.097 472.28L412.78 468.633L414.105 467.758L413.991 463.643L420.498 463.281L423.199 462.444L422.571 465.571L433.187 464.981L433.301 471.158L434.975 474.5L434.861 484.812L437.632 487.291L439.097 490.989L438.069 495.168L438.944 498.554L441.354 496.588L445.381 496.937L449.313 495.574L452.198 495.986L453.27 494.667L454.31 498.96L453.619 500.945L454.557 507.534L453.377 511.035L454.62 512.798L437.732 513.85L439.374 541.354L440.585 544.607L446.248 549.674L451.739 553.72L435.372 557.949L430.362 558.457L426.392 557.074L423.9 557.556L413.214 556.889L410.411 553.839L375.031 555.918L372.875 556.266L366.147 552.632L361.156 555.543L356.774 554.985L354.656 556.018L354.732 549.144L353.718 543.246L355.684 541.534L357.548 533.874L357.682 528.027L358.937 525.896L358.849 522.237L362.28 518.039L362.083 516.561L365.514 514.424L367.632 511.33L368.66 507.151L368.685 501.424L367.665 497.473L362.535 489.629L360.537 484.587L363.569 481.442L363.252 477.795L358.413 469.018L358.014 465.949L356.219 464.56L352.966 459.588L356.816 458.802L360.38 457.001L373.171 456.405L386.742 455.423L389.171 455.861L390.686 462.532Z" fill="#009743" stroke="white" stroke-width="0.5" stroke-miterlimit="12"/>
<path d="M128.503 345.412L125.529 339.279L117.9 335.924L116.309 332.005L112.643 329.919L115.117 324.972L118.459 323.298L123.114 322.582L122.968 319.956L120.729 318.821L122.841 317.673L122.416 314.147L128.022 314.065L128.079 315.093L134.339 316.463L136.685 315.416L142.507 315.093L141.695 316.97L144.517 318.302L146.825 316.571L148.689 319.215L152.292 316.038L157.06 317.377L160.326 314.333L163.041 313.724L164.981 317.738L164.651 320.047L168.894 322.216L166.953 324.384L169.642 325.38L170.092 329.363L172.901 332.527L171.411 334.557L172.584 339.186L174.283 338.863L173.896 344.266L176.262 345.623L171.664 347.367L173.757 349.998L172.323 355.116L170.148 355.122L168.372 354.076L167.205 357.805L164.961 358.616L161.999 356.834L162.824 355.186L161.112 349.097L158.41 347.873L154.434 348.438L150.743 350.017L152.633 346.935L150.616 341.551L145.157 336.014L139.798 336.426L134.845 337.961L133.462 341.93L130.881 344.936L128.503 345.412Z" fill="#009743" stroke="white" stroke-width="0.5" stroke-miterlimit="12"/>
<path d="M467.346 554.342L470.891 554.26L473.377 555.725L475.153 554.71L479.465 556.074L482.033 554.901L487.259 547.97L490.17 546.777L490.62 544.577L495.624 543.956L497.932 542.224L495.833 541.54L496.398 537.272L500.805 534.164L504.293 533.055L508.986 533.023L509.157 536.105L516.361 535.934L521.923 539.175L525.138 539.34L530.953 540.964L529.824 543.316L531.625 546.881L531.194 551.485L532.221 555.55L531.187 559.614L529.608 560.046L531.123 562.595L530.495 565.721L532.823 568.455L532.721 570.75L529.899 575.602L528.764 575.779L528.212 582.336L519.403 592.787L515.579 591.969L511.038 592.679L506.371 591.106L502.972 591.753L500.619 590.624L500.264 588.353L491.823 586.875L488.615 582.703L488.552 577.439L485.007 577.521L484.36 574.122L480.162 572.752L474.917 569.036L473.034 563.988L466.61 555.528L467.346 554.342Z" fill="#009743" stroke="white" stroke-width="0.5" stroke-miterlimit="12"/>
<path d="M528.869 633.367L530.937 633.482L535.49 633L533.232 645.949L532.052 649.45L527.017 653.622L522.66 659.704L516.73 672.514L513.775 677.029L508.879 681.651L504.839 687.257L497.153 695.241L491.115 699.927L486.016 702.958L481.305 702.647L479.072 703.687L479.427 705.958L473.238 705.843L472.553 707.942L462.28 706.452L460.523 707.809L453.497 707.054L446.527 711.448L440.008 711.581L436.862 712.672L432.277 716.705L429.633 716.508L426.342 712.913L422.442 712.785L422.664 710.598L418.218 710.959L419.423 707.915L413.481 697.825L416.925 695.917L417.28 692.004L415.473 686.265L413.019 683.309L407.35 674.006L402.67 661.9L399.779 657.251L402.296 655.165L402.943 652.381L406.786 653.542L407.617 658.19L413.997 659.668L418.759 658.831L421.562 659.82L425.335 655.603L428.798 654.037L426.789 619.913L430.131 622.361L432.388 625.9L434.69 632.298L433.016 635.139L433.827 639.445L442.141 638.64L450.246 629.946L451.014 625.209L452.295 623.535L456.049 623.098L460.108 626.078L467.521 627.613L473.92 625.311L475.86 616.96L480.255 615.685L483.712 611.944L484.663 606.395L490.726 602.165L495.311 596.071L500.035 594.549L501.063 592.431L503.555 591.949L506.954 591.303L511.622 592.876L516.162 592.165L519.986 592.984L522.428 599.833L522.44 602.122L525.452 606.878L526.834 611.153L527.278 625.326L522.826 623.512L520.289 625.256L517.835 630.545L518.133 633.849L521.304 637.337L528.095 637.99L528.064 633.298L528.869 633.367ZM498.263 667.814L505.835 663.958L505.823 661.669L507.935 658.46L500.902 651.408L498.879 652.093L493.774 655.01L491.294 659.842L488.104 662.195L490.774 666.97L494.56 671.225L497.331 671.644L498.263 667.814Z" fill="#009743" stroke="white" stroke-width="0.5" stroke-miterlimit="12"/>
<path d="M535.382 633.12L530.829 633.602L528.761 633.488L527.906 628.383L526.935 625.345L526.492 611.172L525.11 606.897L522.098 602.141L522.085 599.852L519.644 593.003L528.453 582.552L529.005 575.995L530.14 575.817L532.962 570.966L533.064 568.67L530.736 565.937L531.364 562.811L529.849 560.261L531.428 559.83L532.462 555.765L531.434 551.7L531.866 547.096L530.065 543.532L531.194 541.179L525.379 539.556L522.163 539.391L516.602 536.15L509.398 536.321L509.227 533.239L507.306 527.506L531.848 517.9L535.78 522.719L536.407 521.654L541.614 520.563L542.958 522.092L543.865 528.11L541.309 533.633L542.71 536.189L548.158 541.497L548.988 544.085L550.7 543.99L550.384 540.343L549.046 538.929L550.91 535.39L554.379 533.938L553.872 526.867L554.183 522.156L547.322 514.063L545.406 512.567L544.335 507.703L544.798 505.73L543.517 501.222L544.931 499.884L545.509 495.844L550.658 495.787L552.624 494.075L555.845 496.415L558.946 496.586L561.039 495.096L566.246 496.067L569.137 494.532L569.816 492.319L573 491.913L575.003 492.947L578.314 490.702L581.618 490.404L587.503 487.1L590.997 484.044L592.659 487.158L591.441 494.095L593.33 505.441L593.197 511.288L595.993 518.346L596.044 521.32L594.503 524.497L594.426 527.249L590.983 531.219L589.055 535.677L582.77 540.034L572.852 544.935L566.244 549.653L561.455 556.217L554.879 561.505L550.592 566.781L547.484 568.557L547.066 573.389L549.957 575.977L550.357 579.046L552.697 584.069L553.419 590.898L554.631 587.969L555.385 595.369L554.719 603.994L555.657 606.461L552.594 611.096L548.935 613.246L541.433 616.296L534.577 620.684L531.812 624.502L534.615 627.552L535.706 624.515L535.382 633.12Z" fill="#009743" stroke="white" stroke-width="0.5" stroke-miterlimit="12"/>
<path d="M527.043 625.225L528.013 628.262L528.869 633.367L527.829 633.196L527.861 637.889L521.069 637.235L517.898 633.747L517.6 630.443L520.055 625.155L522.592 623.411L527.043 625.225Z" fill="#009743" stroke="white" stroke-width="0.5" stroke-miterlimit="12"/>
<path d="M190.346 197.135L243.576 229.904L243.988 233.201L248.205 234.914L250.52 237.419L252.885 236.715L254.826 238.668L261.916 240.565L262.474 244.427L261.326 246.437L263.234 247.819L270.914 245.905L272.214 265.183L272.156 270.339L269.879 276.763L266.975 280.13L248.533 282.07L245.724 285.088L239.376 286.242L235.425 285.202L231.087 285.443L228.817 287.859L223.503 291.131L221.226 291.372L220.915 294.023L217.104 293.433L214.028 295.779L213.768 299.343L210.54 298.95L210.971 302.59L209.322 303.826L204.839 301.442L201.814 304.701L203.215 307.257L200.983 308.297L201.871 309.851L200.685 313.237L194.787 316.313L195.56 319.934L193.347 323.377L193.531 328.748L191.146 329.11L189.542 331.145L187.551 330.34L187.227 326.579L185.826 328.146L183.613 327.467L183.53 330.105L181.437 331.595L175.273 329.876L172.673 332.54L169.864 329.375L169.414 325.393L166.725 324.397L168.666 322.228L164.423 320.059L164.753 317.751L162.813 313.737L160.098 314.345L156.832 317.389L152.064 316.051L148.461 319.228L146.597 316.583L144.289 318.315L141.467 316.983L142.279 315.106L142.019 310.426L139.755 306.773L135.367 304.039L136.407 302.15L133.889 298.053L133.363 294.761L137.06 293.297L137.428 287.551L140.022 286.835L144.486 290.938L145.812 288.002L153.472 287.805L157.518 286.436L190.133 284.053L190.99 276.792L188.599 274.978L183.92 248.444L174.93 197.876L190.346 197.135Z" fill="#009743" stroke="white" stroke-width="0.5" stroke-miterlimit="12"/>
<path d="M426.878 619.45L425.37 594.343L433.684 593.538L431.757 560.898L435.968 560.435L448.385 557.227L451.124 557.075L453.629 560.943L458.436 556.783L461.188 556.86L464.822 554.253L467.34 554.228L467.175 555.382L473.599 563.842L475.482 568.89L480.726 572.606L484.924 573.976L485.571 577.376L489.116 577.293L489.179 582.557L492.388 586.73L500.829 588.208L501.184 590.478L503.536 591.607L501.044 592.089L500.017 594.207L495.292 595.728L490.707 601.823L484.644 606.052L483.693 611.601L480.236 615.342L475.842 616.617L473.901 624.969L467.502 627.271L460.089 625.736L456.03 622.755L452.276 623.192L450.995 624.866L450.227 629.604L442.122 638.298L433.809 639.103L432.997 634.797L434.671 631.956L432.37 625.557L430.112 622.018L426.878 619.45Z" fill="#009743" stroke="white" stroke-width="0.5" stroke-miterlimit="12"/>
<path d="M547.162 203.889L547.34 207.085L549.477 210.516L550.751 216.972L550.402 218.938L552.266 229.827L554.314 233.72L555.443 233.429L558.95 236.784L563.573 239.618L560.503 244.14L554.669 246.296L553.902 248.972L550.458 248.82L549.583 253.677L550.293 256.157L546.285 266.455L547.502 273.945L546.589 280.179L545.434 282.075L544.616 287.96L540.564 289.215L537.348 295.233L536.042 296.451L535.68 304.371L532.592 304.428L530.112 307.2L530.6 309.806L528.818 316.89L527.448 316.966L527.093 310.573L520.727 305.202L519.566 298.74L520.41 293.311L516.408 293.419L516.624 295.239L511.037 295.664L513.459 298.048L514.353 303.838L510.542 307.37L508.474 311.378L505.024 315.233L500.947 316.032L494.523 311.694L491.314 313.705L490.318 316.393L486.399 317.985L485.156 320.344L478.421 320.718L477.039 318.505L470.183 318.771L465.89 319.811L459.974 314.3L459.295 312.391L452.966 313.887L450.689 318.25L449.186 326.234L445.971 328.13L440.099 327.54L439.801 324.236L441.006 323.253L440.594 317.895L437.48 313.373L433.599 309.466L433.828 305.332L430.492 302.998L430.987 299.535L427.239 293.904L425.007 294.944L424.804 291.291L427.525 288.735L425.597 284.949L429.313 281.766L427.734 278.075L430.29 276.674L432.535 271.74L432.028 268.791L433.328 267.459L440.849 266.813L438.853 232.917L438.606 228.465L447.161 227.876L446.14 209.498L499.568 206.646L547.162 203.889Z" fill="#009743" stroke="white" stroke-width="0.5" stroke-miterlimit="12"/>
<path d="M88.9927 238.028L89.1514 234.699L91.0604 229.898L92.6331 229.353L94.1553 223.772L97.9924 214.514L104.746 206.238L105.26 198.996L107.905 190.949L114.285 186.243L117.405 176.452L118.991 174.074L126.652 171.817L131.319 169.268L134.731 164.727L138.6 162.222L142.012 157.682L145.734 150.491L145.918 147.618L143.369 145.011L143.198 137.807L146.953 131.187L147.435 125.435L153.2 117.901L161.761 113.304L167.24 108.878L171.198 99.727L173.855 89.8469L178.117 88.2363L179.683 91.6989L183.995 95.1235L187.471 95.8466L193.432 93.9126L195.651 94.7054L199.348 93.2406L200.243 94.9085L205.982 95.1624L210.066 98.5997L209.235 100.134L211.232 105.176L211.847 114.187L214.295 119.09L217.732 121.189L216.267 125.736L205.403 125.995L201.801 127.111L202.86 129.686L195.872 131.677L194.8 135.057L197.286 138.583L196.734 141.018L190.697 143.643L183.397 150.346L181.431 154.119L179.554 153.308L167.752 155.222L163.713 156.706L155.1 164.512L155.874 174.316L154.732 174.38L155.252 179.618L150.027 180.366L147.414 182.801L142.734 183.061L136.956 182.122L133.031 183.6L133.735 185.965L130.824 191.279L128.236 192.11L125.68 203.816L120.657 208.217L118.825 212.327L115.051 214.483L113.199 218.249L112.286 228.605L109.102 233.133L107.599 236.995L99.8242 237.198L88.9927 238.028Z" fill="#009743" stroke="white" stroke-width="0.5" stroke-miterlimit="12"/>
<path d="M547.162 203.889L499.207 206.323L445.779 209.174L441.977 140.685L438.933 131.236L441.197 124.584L439.72 118.597L442.079 115.718L444.336 117.196L447.926 115.851L461.078 117.64L466.012 119.885L470.369 119.987L475.765 122.321L479.799 120.723L486.8 114.838L488.461 115.891L494.175 113.627L496.877 114.851L500.257 113.862L499.128 116.215L501.994 118.346L503.941 116.291L506.338 118.219L510.575 116.152L515.324 117.148L519.897 114.947L526.022 130.408L524.842 140.092L523.041 144.772L523.447 147.955L520.574 149.832L512.964 142.698L511.912 138.176L508.132 134.035L506.604 129.196L504.746 132.849L507.054 135.24L507.492 138.994L509.755 142.647L515.577 148.507L515.634 151.595L520.288 159.123L520.529 161.4L525.57 169.707L532.095 182.055L536.414 185.593L534.714 185.917L534.733 190.381L536.737 195.537L541.106 197.928L547.162 203.889Z" fill="#009743" stroke="white" stroke-width="0.5" stroke-miterlimit="12"/>
<path d="M498.264 667.814L497.331 671.644L494.56 671.225L490.774 666.97L488.105 662.195L491.294 659.842L493.774 655.01L498.879 652.093L500.902 651.408L507.935 658.46L505.823 661.669L505.836 663.958L498.264 667.814Z" fill="#009743" stroke="white" stroke-width="0.5" stroke-miterlimit="12"/>
<path d="M530.503 361.68L526.945 365.656L522.557 364.984L517.262 366.538L515.651 368.459L512.201 366.132L509.988 367.514L506.842 366.544L504.363 369.315L501.794 368.427L501.553 366.15L498.776 365.617L492.155 359.802L489.91 362.675L486.27 361.045L483.429 363.492L477.912 361.051L474.951 357.208L471.996 351.417L466.358 348.868L464.627 346.56L465.299 344.232L462.167 341.429L456.409 338.772L455.572 336.07L451.564 331.942L445.539 330.673L445.717 327.686L448.932 325.79L450.436 317.806L452.712 313.443L459.041 311.947L459.72 313.856L465.636 319.367L469.93 318.327L476.785 318.061L478.167 320.274L484.902 319.9L486.145 317.541L490.064 315.95L491.06 313.261L494.269 311.251L500.693 315.589L504.771 314.79L508.221 310.934L510.288 306.926L514.1 303.394L513.206 297.604L510.783 295.22L516.37 294.795L516.155 292.975L520.156 292.867L519.312 298.296L520.473 304.758L526.84 310.129L527.194 316.522L528.564 316.446L529.306 323.618L528.494 325.495L521.778 326.212L520.922 331.412L526.585 332.357L531.817 337.906L535.634 340.671L538.069 347.406L541.157 351.471L545.286 351.585L545.317 356.278L546.528 357.47L543.903 357.616L541.994 354.172L533.515 358.193L530.503 361.68Z" fill="#009743" stroke="white" stroke-width="0.5" stroke-miterlimit="12"/>
<path d="M445.616 327.921L445.438 330.908L451.463 332.176L455.47 336.305L456.307 339.006L462.065 341.664L465.198 344.467L464.526 346.794L466.257 349.103L471.895 351.652L474.849 357.442L472.047 356.453L469.954 357.943L466.517 357.905L463.568 356.351L461.088 357.061L457.156 356.363L456.827 358.672L452.54 359.826L449.826 358.373L440.82 363.224L436.603 361.512L432.931 367.555L426.919 366.515L422.588 366.87L419.658 365.659L417.394 366.128L415.054 363.166L409.632 360.376L407.013 360.636L404.381 362.728L401.553 367.465L399.987 368.125L401.052 370.814L401.064 375.164L399.739 373.978L394.532 375.069L391.254 373.762L383.84 376.349L383.453 381.752L381.335 386.908L380.13 381.708L371.95 374.605L370.276 369.202L367.771 367.394L366.015 356.385L364.366 355.561L366.998 353.468L370.746 344.673L372.788 342.269L375.445 342.694L380.132 340.487L381.527 338.807L383.499 341.331L391.059 337.247L398.675 336.252L402.829 330.64L400.571 329.162L402.442 327.799L413.68 326.03L416.857 323.449L418.297 320.506L424.137 314.343L423.801 312.415L429.788 308.876L433.25 309.371L437.131 313.278L440.245 317.799L440.657 323.158L439.452 324.141L439.75 327.445L445.616 327.921Z" fill="#009743" stroke="white" stroke-width="0.5" stroke-miterlimit="12"/>
<path d="M354.495 356.102L354.892 355.441C378.449 312.297 378.714 256.184 355.422 212.776C332.394 169.633 287.53 139.591 238.829 134.298L238.961 133.371C288.06 138.533 333.188 168.839 356.348 212.379C379.64 255.787 379.508 311.768 356.216 355.176C386.919 355.705 418.681 368.41 445.679 391.173C470.691 412.215 487.763 441.463 494.116 473.489L493.189 473.622C486.837 441.86 469.765 412.877 445.017 391.835C417.887 368.939 386.125 356.235 355.422 355.97L354.495 356.102Z" fill="#FFCB0A"/>
<path d="M533.024 454.962C553.802 411.951 557.11 359.146 542.023 309.651C527.995 263.596 498.747 220.849 457.854 186.044C400.947 137.871 325.645 110.212 251.136 110.079L251.136 109.021C326.042 109.021 401.476 136.812 458.516 185.117C499.674 219.923 528.921 262.934 542.95 309.254C558.169 358.882 554.86 412.215 533.95 455.359L533.024 454.962Z" fill="#FFCB0A"/>
<path d="M176.364 278.815L175.967 277.888C204.817 265.448 239.49 265.184 268.473 277.227C297.456 289.27 321.807 313.885 333.453 343.001L332.527 343.398C321.013 314.415 296.794 289.932 268.076 278.153C239.49 266.242 205.082 266.507 176.364 278.815Z" fill="#FFCB0A"/>
<path d="M414.01 679.612C450.23 640.635 468.518 585.732 462.743 532.893C462.723 532.707 462.723 532.707 462.703 532.521C456.949 479.868 427.607 430.17 383.99 399.729L384.467 398.924C428.29 429.53 457.838 479.394 463.633 532.419C463.653 532.605 463.653 532.605 463.674 532.791C469.302 586.022 451.035 641.112 414.65 680.295L414.01 679.612Z" fill="#FFCB0A"/>
<path d="M203.626 251.288L202.964 250.626C223.874 230.775 235.388 200.469 232.741 171.883C230.226 143.165 213.684 115.505 189.465 99.7567L189.995 98.9626C214.478 114.976 231.153 143.032 233.8 171.883C236.314 200.866 224.8 231.172 203.626 251.288Z" fill="#FFCB0A"/>
<path d="M501.659 421.479L501.527 420.553C535.671 415.259 571.933 427.17 596.416 451.388C596.548 451.521 596.548 451.521 596.68 451.653C620.899 475.871 632.942 512.001 628.045 546.013L627.119 545.88C632.016 512.133 620.105 476.401 596.019 452.315C595.886 452.182 595.886 452.182 595.754 452.05C571.403 427.964 535.406 416.318 501.659 421.479Z" fill="#FFCB0A"/>
<path fill-rule="evenodd" clip-rule="evenodd" d="M191.677 262.925C194.825 266.073 194.825 271.178 191.677 274.327C190.143 275.86 187.287 276.842 184.271 277.547C184.562 278.22 184.778 278.893 184.918 279.551C185.378 281.733 184.991 283.754 183.646 285.099C182.301 286.444 180.279 286.832 178.098 286.371C176.002 285.928 173.746 284.694 171.827 282.776C169.908 280.857 168.675 278.601 168.233 276.505C167.772 274.324 168.159 272.302 169.504 270.957C170.099 270.362 170.833 269.953 171.66 269.723C172.495 269.49 173.418 269.443 174.381 269.57C174.696 269.612 174.917 269.902 174.875 270.217C174.833 270.532 174.543 270.753 174.229 270.711C173.414 270.603 172.648 270.64 171.969 270.829C171.338 271.005 170.777 271.317 170.321 271.773C169.269 272.826 168.978 274.466 169.358 276.266C169.756 278.152 170.883 280.2 172.643 281.96C174.405 283.721 176.451 284.848 178.338 285.245C180.139 285.626 181.779 285.334 182.83 284.283C183.883 283.23 184.173 281.59 183.793 279.79C183.656 279.14 183.432 278.471 183.126 277.801C180.229 278.41 177.319 278.799 175.399 279.204C176.284 275.014 177.088 266.113 180.277 262.925C183.425 259.776 188.53 259.776 191.679 262.925L191.677 262.925ZM189.104 265.498C190.832 267.225 190.832 270.026 189.104 271.754C187.377 273.481 184.576 273.481 182.848 271.754C181.12 270.026 181.12 267.225 182.847 265.498C184.575 263.77 187.376 263.77 189.104 265.498Z" fill="#FFCB0A"/>
<path fill-rule="evenodd" clip-rule="evenodd" d="M218.547 236.055C221.695 239.203 221.695 244.308 218.547 247.457C217.013 248.99 214.157 249.972 211.141 250.677C211.432 251.35 211.648 252.023 211.787 252.681C212.248 254.863 211.861 256.884 210.516 258.229C209.171 259.574 207.149 259.961 204.968 259.5C202.872 259.058 200.616 257.824 198.697 255.906C196.778 253.987 195.545 251.731 195.102 249.635C194.641 247.454 195.029 245.431 196.374 244.087C196.969 243.492 197.703 243.083 198.53 242.853C199.364 242.62 200.288 242.573 201.25 242.7C201.566 242.742 201.787 243.032 201.745 243.347C201.703 243.662 201.413 243.883 201.099 243.841C200.284 243.733 199.518 243.77 198.839 243.959C198.207 244.135 197.647 244.447 197.191 244.903C196.138 245.955 195.848 247.596 196.228 249.396C196.626 251.282 197.753 253.329 199.513 255.09C201.275 256.851 203.321 257.978 205.207 258.375C207.009 258.756 208.648 258.464 209.7 257.412C210.753 256.36 211.043 254.72 210.663 252.92C210.526 252.27 210.302 251.601 209.996 250.931C207.099 251.54 204.189 251.929 202.269 252.334C203.154 248.144 203.958 239.243 207.147 236.055C210.295 232.906 215.4 232.906 218.549 236.055L218.547 236.055ZM215.974 238.628C217.702 240.355 217.702 243.156 215.974 244.884C214.247 246.611 211.446 246.611 209.718 244.883C207.99 243.156 207.99 240.355 209.717 238.628C211.445 236.9 214.246 236.9 215.974 238.628Z" fill="#FFCB0A"/>
<path fill-rule="evenodd" clip-rule="evenodd" d="M205.819 83.3197C208.967 86.4681 208.967 91.5732 205.819 94.7216C204.285 96.2552 201.429 97.2369 198.413 97.9417C198.704 98.6151 198.92 99.2881 199.06 99.9457C199.52 102.128 199.133 104.149 197.788 105.494C196.443 106.839 194.421 107.226 192.24 106.765C190.144 106.323 187.888 105.089 185.969 103.171C184.05 101.252 182.817 98.9957 182.375 96.9C181.914 94.7188 182.301 92.6964 183.646 91.3521C184.241 90.757 184.975 90.3482 185.802 90.1181C186.637 89.8848 187.56 89.8376 188.523 89.9649C188.838 90.0065 189.059 90.2972 189.017 90.6119C188.975 90.9265 188.685 91.1478 188.371 91.1056C187.557 90.9978 186.79 91.0351 186.111 91.2235C185.48 91.4 184.919 91.7121 184.463 92.168C183.411 93.2204 183.12 94.8607 183.5 96.6608C183.898 98.5469 185.025 100.594 186.785 102.355C188.547 104.116 190.594 105.242 192.48 105.64C194.281 106.02 195.921 105.729 196.972 104.677C198.025 103.625 198.315 101.985 197.935 100.185C197.798 99.5345 197.574 98.8655 197.268 98.1958C194.371 98.8048 191.461 99.194 189.541 99.5992C190.426 95.4091 191.23 86.5081 194.419 83.3196C197.567 80.1712 202.672 80.1712 205.821 83.3196L205.819 83.3197ZM203.246 85.8925C204.974 87.6203 204.974 90.4213 203.246 92.149C201.519 93.8761 198.718 93.8761 196.99 92.1484C195.262 90.4205 195.262 87.6196 196.989 85.8925C198.717 84.1647 201.518 84.1647 203.246 85.8925Z" fill="#FFCB0A"/>
<path fill-rule="evenodd" clip-rule="evenodd" d="M254.609 117.968C257.758 121.116 257.758 126.221 254.609 129.37C253.075 130.903 250.22 131.885 247.203 132.59C247.494 133.263 247.711 133.936 247.85 134.594C248.31 136.776 247.923 138.798 246.578 140.143C245.233 141.488 243.211 141.875 241.03 141.414C238.934 140.971 236.678 139.737 234.76 137.819C232.841 135.9 231.607 133.644 231.165 131.548C230.704 129.367 231.092 127.345 232.436 126C233.031 125.405 233.765 124.996 234.592 124.766C235.427 124.533 236.351 124.486 237.313 124.613C237.628 124.655 237.85 124.945 237.807 125.26C237.765 125.575 237.476 125.796 237.161 125.754C236.347 125.646 235.581 125.683 234.902 125.872C234.27 126.048 233.709 126.36 233.253 126.816C232.201 127.869 231.91 129.509 232.29 131.309C232.688 133.195 233.815 135.243 235.576 137.003C237.337 138.765 239.384 139.891 241.27 140.289C243.071 140.669 244.711 140.377 245.763 139.326C246.815 138.273 247.106 136.633 246.726 134.833C246.589 134.183 246.365 133.514 246.058 132.844C243.162 133.453 240.252 133.842 238.331 134.247C239.216 130.057 240.021 121.156 243.209 117.968C246.358 114.819 251.463 114.819 254.611 117.968L254.609 117.968ZM252.036 120.541C253.764 122.269 253.764 125.07 252.036 126.797C250.309 128.524 247.508 128.524 245.78 126.797C244.053 125.069 244.053 122.268 245.78 120.541C247.508 118.813 250.309 118.813 252.036 120.541Z" fill="#FFCB0A"/>
<path fill-rule="evenodd" clip-rule="evenodd" d="M266.63 94.6334C269.778 97.7818 269.778 102.887 266.63 106.035C265.096 107.569 262.241 108.551 259.224 109.255C259.515 109.929 259.732 110.602 259.871 111.259C260.331 113.441 259.944 115.463 258.599 116.808C257.254 118.153 255.232 118.54 253.051 118.079C250.955 117.636 248.699 116.403 246.78 114.484C244.861 112.566 243.628 110.309 243.186 108.214C242.725 106.033 243.112 104.01 244.457 102.666C245.052 102.071 245.786 101.662 246.613 101.432C247.448 101.198 248.371 101.151 249.334 101.279C249.649 101.32 249.87 101.611 249.828 101.926C249.786 102.24 249.496 102.461 249.182 102.419C248.368 102.312 247.601 102.349 246.922 102.537C246.291 102.714 245.73 103.026 245.274 103.482C244.222 104.534 243.931 106.174 244.311 107.975C244.709 109.861 245.836 111.908 247.596 113.669C249.358 115.43 251.405 116.556 253.291 116.954C255.092 117.334 256.732 117.043 257.783 115.991C258.836 114.939 259.127 113.299 258.746 111.498C258.609 110.848 258.385 110.179 258.079 109.509C255.182 110.119 252.272 110.508 250.352 110.913C251.237 106.723 252.041 97.8218 255.23 94.6333C258.378 91.4849 263.483 91.4849 266.632 94.6333L266.63 94.6334ZM264.057 97.2062C265.785 98.934 265.785 101.735 264.057 103.463C262.33 105.19 259.529 105.19 257.801 103.462C256.073 101.734 256.073 98.9333 257.8 97.2062C259.528 95.4784 262.329 95.4784 264.057 97.2062Z" fill="#FFCB0A"/>
<path fill-rule="evenodd" clip-rule="evenodd" d="M517.633 405.645C520.781 408.794 520.781 413.899 517.633 417.047C516.099 418.581 513.244 419.563 510.227 420.267C510.518 420.941 510.735 421.614 510.874 422.271C511.334 424.453 510.947 426.475 509.602 427.82C508.257 429.165 506.235 429.552 504.054 429.091C501.958 428.648 499.702 427.415 497.783 425.496C495.865 423.578 494.631 421.321 494.189 419.226C493.728 417.045 494.116 415.022 495.46 413.678C496.055 413.083 496.789 412.674 497.616 412.444C498.451 412.211 499.375 412.163 500.337 412.291C500.652 412.332 500.873 412.623 500.831 412.938C500.789 413.252 500.5 413.473 500.185 413.431C499.371 413.324 498.605 413.361 497.926 413.549C497.294 413.726 496.733 414.038 496.277 414.494C495.225 415.546 494.934 417.186 495.314 418.987C495.712 420.873 496.839 422.92 498.6 424.681C500.361 426.442 502.408 427.568 504.294 427.966C506.095 428.346 507.735 428.055 508.787 427.003C509.839 425.951 510.13 424.311 509.749 422.51C509.612 421.86 509.389 421.191 509.082 420.522C506.186 421.131 503.275 421.52 501.355 421.925C502.24 417.735 503.045 408.834 506.233 405.645C509.381 402.497 514.487 402.497 517.635 405.645L517.633 405.645ZM515.06 408.218C516.788 409.946 516.788 412.747 515.06 414.475C513.333 416.202 510.532 416.202 508.804 414.474C507.077 412.746 507.077 409.945 508.804 408.218C510.531 406.49 513.332 406.49 515.06 408.218Z" fill="#FFCB0A"/>
<path fill-rule="evenodd" clip-rule="evenodd" d="M548.766 440.409C551.914 443.557 551.914 448.662 548.766 451.811C547.232 453.344 544.376 454.326 541.36 455.031C541.651 455.704 541.867 456.377 542.006 457.035C542.467 459.217 542.08 461.238 540.735 462.583C539.39 463.928 537.368 464.315 535.187 463.854C533.091 463.412 530.835 462.178 528.916 460.26C526.997 458.341 525.764 456.085 525.321 453.989C524.86 451.808 525.248 449.785 526.593 448.441C527.188 447.846 527.922 447.437 528.749 447.207C529.583 446.974 530.507 446.927 531.469 447.054C531.785 447.095 532.006 447.386 531.964 447.701C531.922 448.015 531.632 448.237 531.318 448.195C530.503 448.087 529.737 448.124 529.058 448.312C528.426 448.489 527.866 448.801 527.41 449.257C526.357 450.309 526.067 451.95 526.447 453.75C526.845 455.636 527.972 457.683 529.732 459.444C531.494 461.205 533.54 462.331 535.426 462.729C537.228 463.109 538.867 462.818 539.919 461.766C540.971 460.714 541.262 459.074 540.882 457.274C540.745 456.623 540.521 455.954 540.215 455.285C537.318 455.894 534.408 456.283 532.488 456.688C533.373 452.498 534.177 443.597 537.366 440.409C540.514 437.26 545.619 437.26 548.768 440.409L548.766 440.409ZM546.193 442.981C547.921 444.709 547.921 447.51 546.193 449.238C544.466 450.965 541.665 450.965 539.937 449.237C538.209 447.509 538.209 444.709 539.936 442.981C541.664 441.254 544.465 441.254 546.193 442.981Z" fill="#FFCB0A"/>
<path fill-rule="evenodd" clip-rule="evenodd" d="M642.811 530.211C645.959 533.36 645.959 538.465 642.811 541.613C641.277 543.147 638.421 544.128 635.405 544.833C635.696 545.507 635.912 546.18 636.052 546.837C636.512 549.019 636.125 551.041 634.78 552.386C633.435 553.731 631.413 554.118 629.232 553.657C627.136 553.214 624.88 551.981 622.961 550.062C621.042 548.143 619.809 545.887 619.367 543.792C618.906 541.61 619.293 539.588 620.638 538.244C621.233 537.649 621.967 537.24 622.794 537.01C623.629 536.776 624.552 536.729 625.515 536.856C625.83 536.898 626.051 537.189 626.009 537.503C625.967 537.818 625.677 538.039 625.363 537.997C624.549 537.889 623.782 537.927 623.103 538.115C622.472 538.292 621.911 538.604 621.455 539.06C620.403 540.112 620.112 541.752 620.492 543.552C620.89 545.438 622.017 547.486 623.777 549.246C625.539 551.008 627.585 552.134 629.472 552.532C631.273 552.912 632.913 552.621 633.964 551.569C635.017 550.517 635.307 548.876 634.927 547.076C634.79 546.426 634.566 545.757 634.26 545.087C631.363 545.696 628.453 546.086 626.533 546.491C627.418 542.301 628.222 533.4 631.411 530.211C634.559 527.063 639.664 527.063 642.813 530.211L642.811 530.211ZM640.238 532.784C641.966 534.512 641.966 537.313 640.238 539.041C638.511 540.768 635.71 540.768 633.982 539.04C632.254 537.312 632.254 534.511 633.981 532.784C635.709 531.056 638.51 531.056 640.238 532.784Z" fill="#FFCB0A"/>
<path fill-rule="evenodd" clip-rule="evenodd" d="M399.566 384.547C402.714 387.696 402.714 392.801 399.566 395.949C398.032 397.483 395.177 398.464 392.16 399.169C392.451 399.843 392.668 400.516 392.807 401.173C393.267 403.355 392.88 405.377 391.535 406.722C390.19 408.067 388.168 408.454 385.987 407.993C383.891 407.55 381.635 406.317 379.716 404.398C377.797 402.48 376.564 400.223 376.122 398.128C375.661 395.946 376.048 393.924 377.393 392.58C377.988 391.985 378.722 391.576 379.549 391.346C380.384 391.112 381.307 391.065 382.27 391.192C382.585 391.234 382.806 391.525 382.764 391.839C382.722 392.154 382.432 392.375 382.118 392.333C381.304 392.225 380.538 392.263 379.858 392.451C379.227 392.628 378.666 392.94 378.21 393.396C377.158 394.448 376.867 396.088 377.247 397.888C377.645 399.774 378.772 401.822 380.533 403.583C382.294 405.344 384.341 406.47 386.227 406.868C388.028 407.248 389.668 406.957 390.719 405.905C391.772 404.853 392.063 403.212 391.682 401.412C391.545 400.762 391.322 400.093 391.015 399.423C388.118 400.032 385.208 400.422 383.288 400.827C384.173 396.637 384.977 387.736 388.166 384.547C391.314 381.399 396.419 381.399 399.568 384.547L399.566 384.547ZM396.993 387.12C398.721 388.848 398.721 391.649 396.993 393.377C395.266 395.104 392.465 395.104 390.737 393.376C389.009 391.648 389.009 388.847 390.737 387.12C392.464 385.392 395.265 385.392 396.993 387.12Z" fill="#FFCB0A"/>
<path fill-rule="evenodd" clip-rule="evenodd" d="M429.264 664.562C432.413 667.71 432.413 672.815 429.264 675.963C427.731 677.497 424.875 678.479 421.858 679.184C422.15 679.857 422.366 680.53 422.505 681.188C422.966 683.369 422.578 685.391 421.233 686.736C419.888 688.081 417.867 688.468 415.686 688.007C413.59 687.564 411.333 686.331 409.415 684.413C407.496 682.494 406.263 680.238 405.82 678.142C405.359 675.961 405.747 673.938 407.091 672.594C407.686 671.999 408.421 671.59 409.247 671.36C410.082 671.127 411.006 671.079 411.968 671.207C412.283 671.248 412.505 671.539 412.463 671.854C412.421 672.168 412.131 672.39 411.816 672.348C411.002 672.24 410.236 672.277 409.557 672.465C408.925 672.642 408.364 672.954 407.909 673.41C406.856 674.462 406.565 676.103 406.946 677.903C407.343 679.789 408.47 681.836 410.231 683.597C411.992 685.358 414.039 686.484 415.925 686.882C417.727 687.262 419.366 686.971 420.418 685.919C421.47 684.867 421.761 683.227 421.381 681.427C421.244 680.776 421.02 680.107 420.714 679.438C417.817 680.047 414.907 680.436 412.987 680.841C413.871 676.651 414.676 667.75 417.864 664.562C421.013 661.413 426.118 661.413 429.266 664.562L429.264 664.562ZM426.692 667.134C428.419 668.862 428.419 671.663 426.692 673.391C424.964 675.118 422.163 675.118 420.436 673.39C418.708 671.662 418.708 668.861 420.435 667.134C422.163 665.407 424.964 665.407 426.692 667.134Z" fill="#FFCB0A"/>
<path fill-rule="evenodd" clip-rule="evenodd" d="M509.167 457.379C512.316 460.528 512.316 465.633 509.167 468.781C507.634 470.315 504.778 471.296 501.761 472.001C502.053 472.675 502.269 473.348 502.408 474.005C502.869 476.187 502.482 478.209 501.136 479.554C499.791 480.899 497.77 481.286 495.589 480.825C493.493 480.382 491.236 479.149 489.318 477.23C487.399 475.311 486.166 473.055 485.723 470.959C485.262 468.778 485.65 466.756 486.994 465.412C487.59 464.816 488.324 464.408 489.15 464.178C489.985 463.944 490.909 463.897 491.871 464.024C492.186 464.066 492.408 464.357 492.366 464.671C492.324 464.986 492.034 465.207 491.719 465.165C490.905 465.057 490.139 465.095 489.46 465.283C488.828 465.46 488.268 465.772 487.812 466.228C486.759 467.28 486.468 468.92 486.849 470.72C487.247 472.606 488.373 474.654 490.134 476.414C491.895 478.176 493.942 479.302 495.828 479.7C497.63 480.08 499.269 479.789 500.321 478.737C501.373 477.685 501.664 476.044 501.284 474.244C501.147 473.594 500.923 472.925 500.617 472.255C497.72 472.864 494.81 473.254 492.89 473.659C493.775 469.469 494.579 460.568 497.767 457.379C500.916 454.231 506.021 454.231 509.169 457.379L509.167 457.379ZM506.595 459.952C508.322 461.68 508.322 464.481 506.595 466.209C504.868 467.936 502.067 467.936 500.339 466.208C498.611 464.48 498.611 461.679 500.338 459.952C502.066 458.224 504.867 458.224 506.595 459.952Z" fill="#FFCB0A"/>
<path fill-rule="evenodd" clip-rule="evenodd" d="M370.575 339.999C373.723 343.148 373.723 348.253 370.575 351.401C369.041 352.935 366.185 353.917 363.169 354.621C363.46 355.295 363.676 355.968 363.816 356.625C364.276 358.807 363.889 360.829 362.544 362.174C361.199 363.519 359.177 363.906 356.996 363.445C354.9 363.002 352.644 361.769 350.725 359.85C348.806 357.932 347.573 355.675 347.13 353.58C346.669 351.399 347.057 349.376 348.402 348.032C348.997 347.437 349.731 347.028 350.558 346.798C351.393 346.565 352.316 346.517 353.279 346.645C353.594 346.686 353.815 346.977 353.773 347.292C353.731 347.606 353.441 347.828 353.127 347.785C352.312 347.678 351.546 347.715 350.867 347.903C350.235 348.08 349.675 348.392 349.219 348.848C348.166 349.9 347.876 351.54 348.256 353.341C348.654 355.227 349.781 357.274 351.541 359.035C353.303 360.796 355.349 361.922 357.235 362.32C359.037 362.7 360.677 362.409 361.728 361.357C362.781 360.305 363.071 358.665 362.691 356.864C362.554 356.214 362.33 355.545 362.024 354.876C359.127 355.485 356.217 355.874 354.297 356.279C355.182 352.089 355.986 343.188 359.175 339.999C362.323 336.851 367.428 336.851 370.577 339.999L370.575 339.999ZM368.002 342.572C369.73 344.3 369.73 347.101 368.002 348.829C366.275 350.556 363.474 350.556 361.746 348.828C360.018 347.1 360.018 344.299 361.745 342.572C363.473 340.844 366.274 340.844 368.002 342.572Z" fill="#FFCB0A"/>
<path fill-rule="evenodd" clip-rule="evenodd" d="M347.24 327.979C350.389 331.127 350.389 336.232 347.24 339.381C345.707 340.914 342.851 341.896 339.834 342.601C340.125 343.274 340.342 343.947 340.481 344.605C340.941 346.787 340.554 348.808 339.209 350.153C337.864 351.498 335.843 351.885 333.661 351.424C331.565 350.982 329.309 349.748 327.391 347.83C325.472 345.911 324.238 343.655 323.796 341.559C323.335 339.378 323.723 337.355 325.067 336.011C325.662 335.416 326.396 335.007 327.223 334.777C328.058 334.544 328.982 334.497 329.944 334.624C330.259 334.665 330.481 334.956 330.438 335.271C330.396 335.586 330.107 335.807 329.792 335.765C328.978 335.657 328.212 335.694 327.533 335.883C326.901 336.059 326.34 336.371 325.884 336.827C324.832 337.879 324.541 339.52 324.921 341.32C325.319 343.206 326.446 345.253 328.207 347.014C329.968 348.775 332.015 349.901 333.901 350.299C335.703 350.679 337.342 350.388 338.394 349.336C339.446 348.284 339.737 346.644 339.357 344.844C339.22 344.194 338.996 343.524 338.69 342.855C335.793 343.464 332.883 343.853 330.963 344.258C331.847 340.068 332.652 331.167 335.84 327.979C338.989 324.83 344.094 324.83 347.242 327.979L347.24 327.979ZM344.667 330.551C346.395 332.279 346.395 335.08 344.667 336.808C342.94 338.535 340.139 338.535 338.412 336.807C336.684 335.08 336.684 332.279 338.411 330.551C340.139 328.824 342.94 328.824 344.667 330.551Z" fill="#FFCB0A"/>
</svg>
