<svg width="19" height="17" viewBox="0 0 19 17" fill="none" xmlns="http://www.w3.org/2000/svg">
<path d="M19 10.9483C18.9982 12.5529 18.3614 14.0914 17.2298 15.2257C16.0979 16.3602 14.5635 16.9985 12.9631 17H6.02287C5.72194 17 5.44369 16.8388 5.29315 16.5774C5.14279 16.3161 5.14279 15.9941 5.29315 15.7328C5.44372 15.4712 5.72196 15.3102 6.02287 15.3102H12.9631C14.1275 15.3265 15.2498 14.874 16.0792 14.0543C16.9084 13.2344 17.3753 12.1157 17.3753 10.9481C17.3753 9.78055 16.9084 8.66157 16.0792 7.84166C15.2498 7.02198 14.1275 6.56952 12.9631 6.58579H3.28014L7.5777 9.96516V9.96494C7.81102 10.1527 7.92756 10.4499 7.88419 10.7465C7.84082 11.0431 7.64397 11.2944 7.36707 11.407C7.08994 11.5196 6.77411 11.4765 6.53702 11.2939L0.322729 6.40241C0.118996 6.2423 0 5.99701 0 5.73748C0 5.47795 0.11899 5.23286 0.322729 5.07256L6.53702 0.180206C6.71295 0.0419524 6.93648 -0.0207038 7.15845 0.00605189C7.38042 0.0330337 7.58259 0.147206 7.72072 0.323587C7.85862 0.499745 7.92111 0.72385 7.89443 0.946384C7.86751 1.16892 7.75363 1.37162 7.5777 1.5101L3.28014 4.88947L12.9631 4.88925C14.5648 4.89081 16.1003 5.52991 17.2324 6.66601C18.3643 7.80235 19.0002 9.34256 19 10.9483L19 10.9483Z" fill="#009743"/>
</svg>
