<svg width="791" height="958" viewBox="0 0 791 958" fill="none" xmlns="http://www.w3.org/2000/svg">
<path d="M766.23 423.419C765.487 551.042 734.232 679.661 639.169 764.019C544.433 848.086 414.148 861.68 288.633 847.242C150.445 831.348 6.14109 797.657 -72.5856 682.164C-160.09 553.803 -199.387 377.421 -124.336 241.417C-54.3299 114.554 116.896 121.866 256.527 85.7578C388.707 51.5759 529.307 -32.6675 643.379 42.8951C759.818 120.036 767.049 283.129 766.23 423.419Z" fill="#DBF6DD"/>
<path opacity="0.01" d="M412.823 281.899L422.275 308.008C431.727 334.118 450.63 386.336 405.517 444.155C360.403 501.974 251.272 565.394 255.95 618.858C260.627 672.321 379.113 715.827 369.564 770.535C360.015 825.242 222.432 891.151 153.641 924.106L84.8497 957.061" stroke="white" stroke-width="2"/>
<path opacity="0.0621053" d="M434.376 293.182L441.413 319.776C448.451 346.37 462.526 399.558 413.263 452.747C364 505.935 251.398 559.123 251.398 612.311C251.398 665.499 364 718.687 349.925 771.875C335.849 825.063 195.098 878.252 124.722 904.846L54.3457 931.44" stroke="white" stroke-width="2"/>
<path opacity="0.114211" d="M454.143 305.534L458.755 332.393C463.367 359.251 472.59 412.969 419.636 461.246C366.682 509.524 251.55 552.361 246.956 604.87C242.362 657.378 348.306 719.557 329.895 770.857C311.484 822.156 168.718 862.576 97.3346 882.786L25.9515 902.996" stroke="white" stroke-width="2"/>
<path opacity="0.166316" d="M472.081 318.8L474.275 345.705C476.469 372.609 480.856 426.419 424.686 469.55C368.517 512.681 251.789 545.134 242.719 596.571C233.65 648.007 332.238 718.426 309.711 767.49C287.184 816.553 143.542 844.261 71.7215 858.114L-0.0994558 871.968" stroke="white" stroke-width="2"/>
<path opacity="0.218421" d="M488.158 332.823L487.962 359.558C487.765 386.294 487.372 439.765 428.474 477.559C369.577 515.354 252.175 537.472 238.78 587.46C225.386 637.447 316.001 715.303 289.606 761.807C263.21 808.31 119.806 823.461 48.104 831.037L-23.5982 838.613" stroke="white" stroke-width="2"/>
<path opacity="0.270526" d="M502.356 347.45L499.816 373.806C497.276 400.162 492.195 452.875 431.066 485.188C369.937 517.501 252.76 529.414 235.225 577.593C217.689 625.772 299.794 710.218 269.803 753.864C239.812 797.51 97.7247 800.357 26.6811 801.78L-44.3625 803.203" stroke="white" stroke-width="2"/>
<path opacity="0.322632" d="M514.67 362.528L509.85 388.303C505.031 414.077 495.392 465.625 432.533 492.356C369.674 519.088 253.594 521.002 232.129 567.036C210.663 613.069 283.811 703.222 250.518 743.74C217.226 784.259 77.4933 775.143 7.62699 770.586L-62.2393 766.028" stroke="white" stroke-width="2"/>
<path opacity="0.374737" d="M525.105 377.911L518.089 402.908C511.072 427.905 497.039 477.899 432.951 498.995C368.863 520.09 254.719 512.286 229.563 555.858C204.406 599.431 268.236 694.38 231.956 731.53C195.677 768.68 59.2867 748.032 -8.90825 737.708L-77.1032 727.384" stroke="white" stroke-width="2"/>
<path opacity="0.426842" d="M533.679 393.453L524.564 417.489C515.449 441.524 497.218 489.595 432.398 505.044C367.579 520.492 256.169 503.319 227.586 544.14C199.002 584.962 253.244 683.779 214.308 717.351C175.371 750.923 43.255 719.25 -22.8029 703.414L-88.8607 687.578" stroke="white" stroke-width="2"/>
<path opacity="0.478947" d="M540.419 409.017L529.319 431.917C518.219 454.817 496.019 500.617 430.957 510.452C365.896 520.287 257.973 494.157 226.248 531.965C194.524 569.773 238.998 671.519 197.748 701.334C156.499 731.15 29.5258 689.035 -33.9606 667.978L-97.447 646.921" stroke="white" stroke-width="2"/>
<path opacity="0.531053" d="M545.362 424.469L532.405 446.073C519.448 467.676 493.535 510.883 428.711 515.179C363.886 519.475 260.151 484.86 225.59 519.421C191.03 553.981 225.645 657.716 182.438 683.63C139.231 709.543 18.2014 657.634 -42.3133 631.68L-102.828 605.725" stroke="white" stroke-width="2"/>
<path opacity="0.583158" d="M548.555 439.683L533.883 459.842C519.21 480.002 489.865 520.321 425.741 519.193C361.618 518.065 262.716 475.49 225.642 506.598C188.568 537.707 213.322 642.499 168.52 664.397C123.718 686.295 9.35894 625.299 -47.8205 594.801L-105 564.303" stroke="white" stroke-width="2"/>
<path opacity="0.635263" d="M550.053 454.54L533.817 473.123C517.58 491.706 485.107 528.871 422.131 522.472C359.154 516.073 265.673 466.109 226.422 493.593C187.17 521.078 202.148 626.009 156.118 643.813C110.087 661.616 3.04938 592.291 -50.4697 557.628L-103.989 522.966" stroke="white" stroke-width="2"/>
<path opacity="0.687368" d="M549.917 468.928L532.279 485.816C514.641 502.704 479.365 536.48 417.959 524.999C356.554 513.518 269.019 456.78 227.937 480.499C186.854 504.218 192.224 608.394 145.335 622.056C98.4455 635.718 -0.70235 558.865 -50.2763 520.438L-99.8502 482.012" stroke="white" stroke-width="2"/>
<path opacity="0.739474" d="M548.216 482.743L529.347 497.835C510.478 512.928 472.74 543.112 413.306 526.771C353.873 510.43 272.744 447.564 230.185 467.409C187.626 487.255 183.636 589.813 136.256 599.32C88.8754 608.826 -1.89562 525.282 -47.2811 483.509L-92.6666 441.737" stroke="white" stroke-width="2"/>
<path opacity="0.791579" d="M545.022 495.889L525.1 509.101C505.177 522.313 465.332 548.737 408.245 527.789C351.158 506.841 276.829 438.521 233.152 454.418C189.475 470.315 176.451 570.429 128.943 575.799C81.4348 581.169 -0.557343 491.795 -41.5534 447.108L-82.5495 402.421" stroke="white" stroke-width="2"/>
<path opacity="0.843684" d="M540.415 508.277L519.622 519.541C498.829 530.805 457.242 553.334 402.847 528.06C348.451 502.786 281.247 429.71 236.814 441.615C192.381 453.521 170.719 550.409 123.439 551.692C76.1596 552.975 3.26283 458.653 -33.1856 411.492L-69.634 364.331" stroke="white" stroke-width="2"/>
<path opacity="0.895789" d="M534.477 519.829L512.999 529.096C491.522 538.362 448.566 556.895 397.177 527.6C345.788 498.306 285.965 421.183 241.136 429.088C196.306 436.993 166.469 529.925 119.765 527.201C73.0608 524.477 9.49033 426.098 -22.2949 376.909L-54.0802 327.719" stroke="white" stroke-width="2"/>
<path opacity="0.947895" d="M527.294 530.473L505.32 537.709C483.346 544.945 439.398 559.418 391.297 526.429C343.197 493.441 290.944 412.992 246.073 416.917C201.203 420.843 163.714 509.144 117.92 502.523C72.1265 495.901 18.0284 394.358 -9.0207 343.587L-36.0698 292.815" stroke="white" stroke-width="2"/>
<path d="M518.951 540.146L496.67 545.337C474.388 550.528 429.825 560.91 385.262 524.573C340.699 488.236 296.136 405.18 251.573 405.18C207.01 405.18 162.447 488.236 117.884 477.854C73.3211 467.472 28.7581 363.652 6.47659 311.742L-15.8049 259.832" stroke="white" stroke-width="2"/>
</svg>
