<svg width="40" height="40" viewBox="0 0 40 40" fill="none" xmlns="http://www.w3.org/2000/svg">
<rect width="40" height="40" rx="5" fill="#009743"/>
<g clip-path="url(#clip0_12_2320)">
<path fill-rule="evenodd" clip-rule="evenodd" d="M21.8909 12.3491L22.5218 14.1887C23.8879 15.5436 25.0943 17.0434 26.1185 18.66C28.5227 22.7779 25.1022 26.9607 20.5223 26.8852C15.9387 26.9607 12.5218 22.7779 14.926 18.66C15.9502 17.0433 17.1566 15.5436 18.5227 14.1887L19.1558 12.3512L17.6138 10.847C17.4447 10.6824 17.344 10.4626 17.3311 10.2299C17.3182 9.9972 17.394 9.76807 17.5439 9.58662C17.6938 9.40518 17.9073 9.28424 18.1431 9.2471C18.3789 9.20996 18.6205 9.25924 18.8213 9.38545C18.8889 9.4277 18.966 9.45337 19.0459 9.46029C19.1259 9.4672 19.2064 9.45515 19.2805 9.42516C19.3547 9.39517 19.4203 9.34813 19.4718 9.28805C19.5232 9.22798 19.5591 9.15665 19.5762 9.08014C19.6229 8.86932 19.7422 8.68046 19.9143 8.54502C20.0864 8.40957 20.3008 8.33569 20.5219 8.33569C20.743 8.33569 20.9574 8.40957 21.1295 8.54502C21.3016 8.68046 21.4209 8.86932 21.4676 9.08014C21.4847 9.15665 21.5206 9.22798 21.572 9.28805C21.6235 9.34813 21.6891 9.39517 21.7633 9.42516C21.8374 9.45515 21.9179 9.4672 21.9979 9.46029C22.0778 9.45337 22.1549 9.4277 22.2225 9.38545C22.4086 9.26963 22.6295 9.21906 22.849 9.24204C23.0684 9.26502 23.2733 9.3602 23.43 9.51191C23.6108 9.68929 23.7123 9.92929 23.7123 10.1795C23.7123 10.4296 23.6108 10.6696 23.43 10.847L21.8909 12.3491Z" fill="white" fill-opacity="0.1"/>
<path fill-rule="evenodd" clip-rule="evenodd" d="M10.2882 25.1035L14.8402 22.5304C15.2178 22.2586 15.6516 22.0706 16.1114 21.9793C16.5712 21.8881 17.0459 21.8959 17.5023 22.0022C18.9665 22.5591 20.4707 23.01 22.0028 23.3513C22.3156 23.4403 22.5811 23.6436 22.744 23.9189C22.9069 24.1942 22.9547 24.5202 22.8772 24.829C22.8367 24.9829 22.7651 25.1274 22.6666 25.2539C22.5681 25.3805 22.4447 25.4866 22.3037 25.5661C22.1626 25.6455 22.0067 25.6967 21.8451 25.7166C21.6835 25.7365 21.5194 25.7248 21.3625 25.682L21.972 25.777C22.642 25.8985 23.3345 25.7807 23.9229 25.4452L28.2995 22.958C31.702 21.0248 32.2012 23.999 31.0704 24.6781L23.1279 29.4498C22.7804 29.6629 22.3907 29.8019 21.9842 29.8578C21.5778 29.9137 21.1638 29.8851 20.7695 29.774L15.0085 28.2684L12.875 29.4701C12.7772 29.5252 12.6693 29.561 12.5573 29.5753C12.4453 29.5897 12.3315 29.5824 12.2224 29.5539C12.1134 29.5253 12.0111 29.4761 11.9216 29.409C11.832 29.3418 11.7569 29.2581 11.7005 29.1627L9.9752 26.2472C9.86161 26.055 9.83077 25.8267 9.88943 25.6123C9.9481 25.3979 10.0915 25.215 10.2882 25.1035Z" fill="#FAFAFA" fill-opacity="0.1"/>
<path fill-rule="evenodd" clip-rule="evenodd" d="M12.716 28.0993L13.3549 29.2011L13.9865 30.2903C14.0706 30.4351 14.0923 30.6064 14.0471 30.7668C14.0019 30.9272 13.8933 31.0636 13.7452 31.1461L14.1842 30.9037C14.3329 30.8215 14.442 30.6852 14.4877 30.5246C14.5334 30.364 14.5118 30.1923 14.4277 30.0472L13.7939 28.9544L12.5205 26.76L11.2457 24.5627L10.816 23.8243C10.7436 23.6995 10.6298 23.6027 10.4933 23.5497C10.3568 23.4967 10.2058 23.4908 10.0654 23.5329L10.8074 24.8122L12.0808 27.0066L12.7146 28.0993H12.716Z" fill="#B1B1B5"/>
<path fill-rule="evenodd" clip-rule="evenodd" d="M9.91744 24.6319C9.83166 24.6442 9.75152 24.6809 9.68716 24.7376C9.62279 24.7942 9.5771 24.8682 9.55585 24.9502C9.5346 25.0322 9.53876 25.1185 9.56779 25.1982C9.59681 25.2779 9.64942 25.3474 9.71894 25.3979C9.78846 25.4484 9.87178 25.4777 9.95836 25.482C10.0449 25.4864 10.1309 25.4655 10.2053 25.4222C10.2798 25.3789 10.3394 25.315 10.3766 25.2386C10.4138 25.1622 10.427 25.0768 10.4145 24.9931C10.3977 24.8809 10.3358 24.7799 10.2426 24.7121C10.1494 24.6444 10.0325 24.6155 9.91744 24.6319Z" fill="white" fill-opacity="0.1"/>
<path fill-rule="evenodd" clip-rule="evenodd" d="M10.48 25.1001C10.4924 25.1835 10.4792 25.2686 10.442 25.3447C10.4048 25.4208 10.3454 25.4844 10.2711 25.5275C10.1969 25.5706 10.1113 25.5913 10.025 25.5869C9.93873 25.5826 9.85572 25.5533 9.78647 25.503C9.71722 25.4526 9.66484 25.3833 9.63593 25.3039C9.60703 25.2245 9.60291 25.1385 9.62409 25.0568C9.64527 24.9751 9.6908 24.9014 9.75493 24.8449C9.81905 24.7885 9.8989 24.7518 9.98437 24.7396C10.0412 24.7314 10.0991 24.7343 10.1548 24.7479C10.2105 24.7616 10.2629 24.7859 10.309 24.8194C10.355 24.8529 10.3938 24.895 10.4232 24.9431C10.4525 24.9913 10.4718 25.0447 10.48 25.1001ZM30.8711 24.4679L22.9523 29.2243C22.6503 29.4096 22.3115 29.5303 21.9582 29.5785C21.6048 29.6267 21.2451 29.6012 20.9026 29.5037L15.1595 28.003C15.0611 27.9775 14.9564 27.9908 14.868 28.0401L13.9921 28.5333L11.8285 24.8074L15.0836 22.9693C15.4149 22.7278 15.7956 22.5587 16.1998 22.4734C16.6039 22.388 17.0222 22.3884 17.4262 22.4746C17.6919 22.5584 17.9992 22.666 18.3515 22.7918C19.5138 23.2329 20.7116 23.5794 21.9324 23.8279C22.1459 23.89 22.3268 24.0296 22.4378 24.218C22.5488 24.4063 22.5814 24.6291 22.529 24.8402C22.4745 25.0486 22.3375 25.2273 22.148 25.3372C21.9586 25.4471 21.7322 25.4792 21.5185 25.4264C20.8739 25.2972 20.2645 25.1274 19.6185 24.9478C19.3119 24.8619 18.9954 24.7739 18.6695 24.6886C18.5721 24.6658 18.4693 24.6811 18.3832 24.7311C18.2971 24.7811 18.2344 24.8619 18.2084 24.9563C18.1825 25.0508 18.1953 25.1513 18.2443 25.2367C18.2932 25.322 18.3743 25.3853 18.4704 25.4131C18.7898 25.4963 19.1042 25.5843 19.4072 25.6688C20.0732 25.8547 20.702 26.03 21.3796 26.1649L21.9375 26.2536C22.6932 26.3894 23.4737 26.2558 24.1369 25.877L28.4998 23.3975C29.7575 22.6828 30.7257 22.6108 31.0903 23.2047C31.2116 23.4074 31.2557 23.6454 31.2148 23.8767C31.174 24.108 31.0507 24.3179 30.8668 24.4693L30.8711 24.4679ZM13.9771 30.5412C14.0359 30.5078 14.079 30.4534 14.0972 30.3894C14.1154 30.3254 14.1073 30.2571 14.0745 30.1989L10.475 23.9928C10.4404 23.9356 10.3844 23.8938 10.3188 23.876C10.2532 23.8583 10.1831 23.8661 10.1233 23.8978L8.89935 24.5734C8.84048 24.6069 8.79735 24.6615 8.77915 24.7256C8.76096 24.7896 8.76914 24.8581 8.80195 24.9164L12.4015 31.119C12.4358 31.1764 12.4918 31.2185 12.5575 31.2363C12.6232 31.254 12.6934 31.246 12.7531 31.214L13.9771 30.5384V30.5412ZM15.2612 18.8801C14.6126 19.9255 14.383 21.1679 14.6166 22.3684L14.7026 22.3195C15.1257 22.0223 15.6101 21.8184 16.1221 21.7219C16.634 21.6253 17.1614 21.6386 17.6676 21.7606C17.9168 21.8395 18.2062 21.9408 18.5134 22.0484C18.5084 22.0324 18.5041 22.0163 18.4998 21.9995C18.4762 21.9034 18.4925 21.802 18.5451 21.7175C18.5977 21.633 18.6824 21.5722 18.7807 21.5483C18.8791 21.5243 18.9831 21.5392 19.0702 21.5897C19.1574 21.6402 19.2205 21.7222 19.246 21.8179C19.2881 21.9768 19.3686 22.1236 19.4807 22.246C19.5929 22.3684 19.7334 22.4628 19.8906 22.5214C20.1731 22.6429 20.4856 22.6823 20.7905 22.6348C21.0954 22.5873 21.3797 22.4551 21.6095 22.2538C21.6666 22.1896 21.7085 22.1138 21.7321 22.0319C21.7558 21.95 21.7606 21.8641 21.7462 21.7802C21.7076 21.472 21.5249 21.0969 20.4442 20.9236C19.0119 20.6945 18.681 19.9797 18.6538 19.4208C18.6445 19.0348 18.7789 18.6586 19.0321 18.3619C19.2853 18.0652 19.6402 17.868 20.031 17.8069L20.1184 17.7895V17.4255C20.1161 17.3749 20.1244 17.3244 20.1427 17.277C20.161 17.2296 20.1889 17.1864 20.2248 17.1498C20.2607 17.1132 20.3039 17.0841 20.3516 17.0642C20.3993 17.0444 20.4507 17.0341 20.5026 17.0341C20.5545 17.0341 20.6059 17.0444 20.6536 17.0642C20.7013 17.0841 20.7444 17.1132 20.7803 17.1498C20.8162 17.1864 20.8442 17.2296 20.8625 17.277C20.8808 17.3244 20.8891 17.3749 20.8868 17.4255V17.7853C21.2113 17.8338 21.5173 17.9637 21.7749 18.1622C22.0325 18.3607 22.2329 18.6211 22.3564 18.9178C22.376 18.9632 22.3862 19.0118 22.3865 19.0611C22.3868 19.1103 22.3771 19.1591 22.358 19.2046C22.339 19.2502 22.3109 19.2917 22.2754 19.3267C22.2399 19.3617 22.1978 19.3895 22.1512 19.4086C22.1047 19.4277 22.0548 19.4376 22.0044 19.4379C21.9539 19.4382 21.9039 19.4287 21.8572 19.4102C21.8105 19.3916 21.768 19.3642 21.7321 19.3296C21.6962 19.295 21.6677 19.2538 21.6481 19.2084C21.5567 18.9939 21.4005 18.8117 21.2002 18.686C21 18.5604 20.7653 18.4972 20.5273 18.5049C20.5137 18.5056 20.5001 18.5056 20.4865 18.5049C20.3901 18.5071 20.2941 18.5185 20.2 18.5391C19.9868 18.5634 19.79 18.6628 19.6466 18.8186C19.5031 18.9743 19.4228 19.1758 19.4208 19.3852C19.4294 19.555 19.4516 20.0056 20.5667 20.1844C21.0093 20.2543 22.3571 20.4709 22.5068 21.6907C22.5341 21.8784 22.5198 22.0696 22.4649 22.2515C22.4101 22.4333 22.3159 22.6016 22.1888 22.745C22.0848 22.8605 21.9642 22.9607 21.8308 23.0426C21.9188 23.0601 22.0084 23.0775 22.0972 23.0929C22.1142 23.0956 22.1309 23.0996 22.1473 23.1048C22.5526 23.2236 22.8954 23.49 23.1048 23.8487C23.3141 24.2075 23.3739 24.6311 23.2717 25.0317C23.228 25.1941 23.1597 25.3493 23.069 25.4921C23.3083 25.4375 23.5377 25.3477 23.7494 25.2259L25.6179 24.1639C26.179 23.3978 26.4942 22.4863 26.5232 21.5452C26.5523 20.604 26.294 19.6757 25.7812 18.878C24.8062 17.3326 23.6575 15.8983 22.3564 14.6015H18.691C17.388 15.8987 16.2376 17.3338 15.2612 18.8801ZM18.4232 12.7641H22.6243C22.7721 12.7641 22.9138 12.8214 23.0183 12.9233C23.1228 13.0252 23.1815 13.1635 23.1815 13.3076C23.1815 13.4518 23.1228 13.59 23.0183 13.692C22.9138 13.7939 22.7721 13.8512 22.6243 13.8512H18.4224C18.2747 13.8512 18.1329 13.7939 18.0284 13.692C17.924 13.59 17.8652 13.4518 17.8652 13.3076C17.8652 13.1635 17.924 13.0252 18.0284 12.9233C18.1329 12.8214 18.2754 12.7641 18.4232 12.7641ZM17.7177 10.2175C17.7173 10.1428 17.7321 10.0688 17.7612 9.9997C17.7904 9.93062 17.8333 9.86787 17.8874 9.81509C17.9822 9.72415 18.1057 9.66724 18.2379 9.65366C18.37 9.64008 18.503 9.67064 18.6151 9.74033C18.7348 9.81533 18.8713 9.86097 19.0129 9.87335C19.1546 9.88573 19.2973 9.86449 19.4287 9.81143C19.5601 9.75837 19.6765 9.67508 19.7678 9.56865C19.859 9.46223 19.9226 9.33584 19.9529 9.20028C19.9808 9.07298 20.0527 8.95888 20.1564 8.87702C20.2602 8.79517 20.3896 8.75051 20.523 8.75051C20.6564 8.75051 20.7858 8.79517 20.8896 8.87702C20.9933 8.95888 21.0652 9.07298 21.0931 9.20028C21.1236 9.33542 21.1871 9.46137 21.2782 9.56745C21.3693 9.67353 21.4853 9.7566 21.6163 9.80961C21.7474 9.86262 21.8896 9.884 22.0309 9.87194C22.1722 9.85988 22.3084 9.81473 22.428 9.74033C22.5403 9.67064 22.6736 9.64021 22.8059 9.65405C22.9382 9.66789 23.0618 9.72516 23.1564 9.81649C23.2652 9.92352 23.3263 10.0682 23.3263 10.2189C23.3263 10.3697 23.2652 10.5143 23.1564 10.6213L21.724 12.0186H19.3155L17.8832 10.6213C17.829 10.5685 17.7861 10.5058 17.7569 10.4367C17.7278 10.3676 17.713 10.2936 17.7134 10.2189L17.7177 10.2175ZM31.7549 22.8169C31.5264 22.446 30.5904 21.3428 28.1181 22.7471L26.9006 23.4387C27.1176 22.9137 27.2474 22.3583 27.2852 21.7934C27.3473 20.6428 27.0582 19.5001 26.4544 18.5098C25.5412 17.0469 24.4683 15.6847 23.2545 14.4471C23.5006 14.3177 23.6985 14.1156 23.8198 13.8699C23.9411 13.6241 23.9797 13.3472 23.9299 13.0788C23.8802 12.8104 23.7447 12.5642 23.5429 12.3754C23.3411 12.1866 23.0832 12.0649 22.8062 12.0277L23.7029 11.1502C23.9347 10.9193 24.0716 10.6133 24.0875 10.2904C24.1033 9.96746 23.9971 9.65011 23.7889 9.39859C23.5807 9.14706 23.2851 8.97887 22.9582 8.92595C22.6313 8.87304 22.2958 8.93908 22.0155 9.11155C22.0001 9.12121 21.9825 9.12708 21.9643 9.12866C21.9461 9.13024 21.9277 9.12747 21.9108 9.1206C21.8939 9.11373 21.879 9.10296 21.8673 9.08921C21.8556 9.07547 21.8475 9.05916 21.8436 9.04168C21.7778 8.74769 21.6109 8.48449 21.3706 8.29577C21.1303 8.10705 20.8311 8.00415 20.5226 8.00415C20.2142 8.00415 19.915 8.10705 19.6747 8.29577C19.4344 8.48449 19.2675 8.74769 19.2016 9.04168C19.1978 9.05916 19.1897 9.07547 19.178 9.08921C19.1663 9.10296 19.1514 9.11373 19.1345 9.1206C19.1176 9.12747 19.0992 9.13024 19.081 9.12866C19.0627 9.12708 19.0452 9.12121 19.0298 9.11155C18.7696 8.95018 18.4609 8.87979 18.1544 8.9119C17.8478 8.94401 17.5616 9.07673 17.3424 9.28831C17.0896 9.53604 16.9476 9.8714 16.9476 10.221C16.9476 10.5706 17.0896 10.906 17.3424 11.1537L18.2405 12.0305C17.9635 12.0677 17.7057 12.1894 17.5038 12.3782C17.302 12.567 17.1665 12.8132 17.1168 13.0816C17.067 13.35 17.1056 13.6269 17.2269 13.8727C17.3482 14.1184 17.5461 14.3205 17.7922 14.4499C16.5786 15.6877 15.5057 17.0498 14.5923 18.5126C13.8002 19.7877 13.5577 21.3169 13.9176 22.7659L11.4511 24.1591L11.1439 23.6288C11.0094 23.398 10.7865 23.2286 10.5242 23.1577C10.2619 23.0869 9.9815 23.1203 9.74445 23.2508L8.52049 23.9229C8.28361 24.0539 8.10968 24.2712 8.03691 24.5272C7.96413 24.7831 7.99844 25.0568 8.13232 25.2881L11.7319 31.4921C11.8662 31.723 12.0891 31.8926 12.3514 31.9634C12.6138 32.0343 12.8943 32.0007 13.1313 31.87L14.3552 31.1945C14.592 31.0634 14.7658 30.846 14.8384 30.5901C14.9111 30.3341 14.8766 30.0605 14.7427 29.8293L14.3703 29.1879L15.1137 28.7687L20.6999 30.2296C21.0033 30.3106 21.3164 30.3522 21.6309 30.3533C22.2415 30.3519 22.8393 30.1823 23.3555 29.8642L31.2743 25.1078C31.6324 24.853 31.88 24.477 31.9688 24.0534C32.0575 23.6298 31.981 23.1891 31.7542 22.8176L31.7549 22.8169Z" fill="white"/>
</g>
<defs>
<clipPath id="clip0_12_2320">
<rect width="24" height="24" fill="white" transform="translate(8 8)"/>
</clipPath>
</defs>
</svg>
