<svg xmlns="http://www.w3.org/2000/svg" width="30.5" height="30.5" viewBox="0 0 30.5 30.5"><path d="M14.033,29.5H3.4A2.9,2.9,0,0,1,.5,26.6V3.4A2.9,2.9,0,0,1,3.4.5H26.6a2.9,2.9,0,0,1,2.9,2.9V26.6a2.9,2.9,0,0,1-2.9,2.9H19.833V18.867h2.9l1.933-4.833H19.833V10.167c0-1.063.87-.967,1.933-.967H23.7V4.367H19.833a5.809,5.809,0,0,0-5.8,5.8v3.867H10.167v4.833h3.867Z" transform="translate(0.25 0.25)" fill="none" stroke="#000" stroke-linecap="round" stroke-linejoin="round" stroke-miterlimit="10" stroke-width="1.5" fill-rule="evenodd"/></svg>