<svg width="1146" height="206" viewBox="0 0 1146 206" fill="none" xmlns="http://www.w3.org/2000/svg">
<mask id="mask0_239_185" style="mask-type:alpha" maskUnits="userSpaceOnUse" x="0" y="0" width="1146" height="206">
<rect width="1146" height="206" rx="10" fill="#E7FFF0"/>
</mask>
<g mask="url(#mask0_239_185)">
<g opacity="0.15">
<g opacity="0.8">
<path opacity="0.8" d="M-265.111 243.362C-264.996 240.801 -264.158 238.331 -262.684 236.22L-26.0804 -102.195C-24.0077 -105.163 -20.9012 -107.144 -17.3304 -107.776C-13.7596 -108.408 -10.1552 -107.618 -7.18271 -105.55L332.19 130.507C336.024 133.173 338.192 137.553 337.986 142.215C337.872 144.776 337.034 147.246 335.56 149.357L98.9562 487.772C96.8835 490.74 93.777 492.722 90.2062 493.353C86.6353 493.99 83.031 493.195 80.0585 491.128L-259.309 255.07C-263.148 252.399 -265.316 248.024 -265.111 243.362ZM336.905 142.163C337.091 137.874 335.095 133.844 331.568 131.393L-7.80496 -104.665C-10.5381 -106.57 -13.8553 -107.298 -17.1389 -106.714C-20.4225 -106.13 -23.2802 -104.306 -25.19 -101.578L-261.798 236.838C-263.158 238.781 -263.928 241.05 -264.029 243.405C-264.215 247.698 -262.219 251.724 -258.696 254.18L80.676 490.233C83.414 492.138 86.7263 492.865 90.0147 492.281C93.2983 491.697 96.156 489.874 98.0658 487.145L334.669 148.73C336.029 146.787 336.799 144.513 336.905 142.163Z" fill="#009743"/>
<path opacity="0.8" d="M-266.919 230.265C-266.809 227.709 -265.957 225.254 -264.454 223.162L-29.6313 -103.77C-27.5731 -106.637 -24.5144 -108.533 -21.0249 -109.107C-17.5355 -109.681 -14.0269 -108.868 -11.1501 -106.809L316.706 127.468C320.358 130.076 322.421 134.312 322.229 138.793C322.115 141.349 321.267 143.809 319.764 145.901L84.9416 472.833C80.6911 478.754 72.3958 480.118 66.4604 475.877L-261.395 241.6C-265.052 238.987 -267.12 234.75 -266.919 230.265ZM321.138 138.745C321.32 134.628 319.424 130.742 316.069 128.344L-11.7867 -105.929C-14.4242 -107.819 -17.6408 -108.566 -20.8478 -108.04C-24.0501 -107.513 -26.8598 -105.771 -28.7506 -103.138L-263.573 223.794C-264.952 225.713 -265.732 227.968 -265.837 230.313C-266.019 234.43 -264.124 238.317 -260.768 240.71L67.0874 474.992C72.5394 478.883 80.1501 477.634 84.0513 472.201L318.874 145.269C320.253 143.35 321.038 141.095 321.138 138.745Z" fill="#009743"/>
<path opacity="0.8" d="M-268.734 217.174C-268.624 214.618 -267.757 212.172 -266.226 210.104L-33.1835 -105.34C-28.9569 -111.06 -20.8531 -112.28 -15.1187 -108.068L301.22 124.428C304.696 126.979 306.653 131.072 306.467 135.375C306.357 137.931 305.49 140.377 303.963 142.445L70.921 457.889C68.8723 460.661 65.8663 462.47 62.4535 462.982C59.0406 463.499 55.6325 462.657 52.8563 460.618L-263.483 228.116C-266.963 225.57 -268.921 221.477 -268.734 217.174ZM305.375 135.332C305.548 131.393 303.753 127.64 300.574 125.304L-15.7649 -107.192C-21.0207 -111.055 -28.44 -109.935 -32.3123 -104.694L-265.354 210.75C-266.757 212.646 -267.552 214.886 -267.652 217.227C-267.824 221.166 -266.029 224.914 -262.846 227.25L53.4881 459.751C56.0346 461.623 59.1555 462.389 62.2812 461.92C65.4068 461.45 68.1591 459.789 70.0355 457.253L303.078 141.809C304.48 139.913 305.275 137.673 305.375 135.332Z" fill="#009743"/>
<path opacity="0.8" d="M-270.548 204.087C-270.438 201.531 -269.557 199.1 -267.997 197.051L-36.7403 -106.91C-34.706 -109.581 -31.7478 -111.304 -28.4163 -111.759C-25.0848 -112.213 -21.7725 -111.347 -19.092 -109.318L285.731 121.403C289.024 123.897 290.881 127.846 290.699 131.967C290.584 134.523 289.708 136.955 288.148 139.004L56.8863 442.964C52.6884 448.479 44.7713 449.565 39.2427 445.377L-265.58 214.656C-268.873 212.158 -270.73 208.209 -270.548 204.087ZM289.617 131.919C289.78 128.152 288.081 124.543 285.075 122.265L-19.7477 -108.456C-22.1985 -110.308 -25.2236 -111.103 -28.268 -110.687C-31.3123 -110.27 -34.0119 -108.695 -35.8691 -106.254L-267.131 197.707C-268.552 199.578 -269.361 201.799 -269.462 204.135C-269.625 207.902 -267.93 211.511 -264.919 213.79L39.9033 444.511C44.958 448.335 52.1906 447.349 56.0247 442.309L287.286 138.348C288.708 136.476 289.512 134.255 289.617 131.919Z" fill="#009743"/>
<path opacity="0.8" d="M-272.367 190.991C-272.252 188.435 -271.357 186.013 -269.773 183.988L-40.2921 -108.48C-38.2721 -111.055 -35.3666 -112.692 -32.1165 -113.085C-28.8616 -113.482 -25.6497 -112.587 -23.065 -110.572L270.241 118.368C273.357 120.8 275.114 124.605 274.941 128.549C274.831 131.105 273.931 133.527 272.347 135.552L42.8662 428.025C40.8462 430.601 37.9407 432.238 34.6858 432.63C31.4309 433.027 28.2191 432.137 25.639 430.122L-267.667 201.182C-270.783 198.745 -272.54 194.94 -272.367 190.991ZM273.855 128.506C274.013 124.907 272.409 121.436 269.571 119.22L-23.7303 -109.72C-26.0853 -111.558 -29.0147 -112.372 -31.9777 -112.008C-34.9454 -111.649 -37.5924 -110.155 -39.4353 -107.81L-268.916 184.663C-270.362 186.506 -271.18 188.713 -271.281 191.044C-271.439 194.638 -269.835 198.109 -266.997 200.33L26.3092 429.27C28.6642 431.103 31.5936 431.917 34.5565 431.558C37.5243 431.199 40.1713 429.705 42.0141 427.36L271.495 134.887C272.936 133.039 273.754 130.833 273.855 128.506Z" fill="#009743"/>
<path opacity="0.8" d="M-274.186 177.9C-274.076 175.339 -273.161 172.931 -271.539 170.935L-43.8432 -110.05C-39.7027 -115.162 -32.159 -115.957 -27.0325 -111.826L254.757 115.338C257.696 117.703 259.347 121.37 259.184 125.137C259.074 127.698 258.16 130.105 256.542 132.101L28.8371 413.086C26.8315 415.566 23.9739 417.112 20.8004 417.447C17.622 417.782 14.5059 416.868 12.0264 414.862L-269.763 187.698C-272.697 185.333 -274.353 181.672 -274.186 177.9ZM258.103 125.089C258.251 121.662 256.748 118.33 254.077 116.176L-27.7122 -110.983C-32.3744 -114.741 -39.2289 -114.018 -42.9959 -109.37L-270.701 171.62C-272.17 173.434 -273.003 175.621 -273.104 177.948C-273.252 181.375 -271.749 184.706 -269.078 186.86L12.7109 414.025C14.9702 415.848 17.8039 416.681 20.6902 416.375C23.5766 416.068 26.1757 414.661 27.9947 412.411L255.7 131.422C257.169 129.607 258.002 127.415 258.103 125.089Z" fill="#009743"/>
<path opacity="0.8" d="M-276.01 164.808C-275.9 162.248 -274.966 159.854 -273.315 157.877L-47.3951 -111.625C-45.3991 -114.004 -42.5989 -115.463 -39.5019 -115.741C-36.405 -116.019 -33.3846 -115.071 -31.0009 -113.085L239.272 112.304C242.077 114.644 243.594 118.076 243.436 121.724C243.326 124.29 242.393 126.683 240.737 128.655L14.8168 398.157C10.7003 403.068 3.34805 403.719 -1.57739 399.617L-271.85 174.233C-274.655 171.893 -276.172 168.456 -276.01 164.808ZM242.35 121.676C242.493 118.368 241.119 115.257 238.578 113.137L-31.6949 -112.252C-33.8585 -114.056 -36.5964 -114.908 -39.4014 -114.659C-42.2112 -114.41 -44.7481 -113.085 -46.5574 -110.926L-272.477 158.576C-273.975 160.366 -274.823 162.535 -274.923 164.856C-275.067 168.164 -273.688 171.28 -271.146 173.396L-0.873779 398.784C3.59216 402.508 10.2552 401.914 13.9887 397.463L239.908 127.961C241.402 126.171 242.249 123.998 242.35 121.676Z" fill="#009743"/>
<path opacity="0.8" d="M-277.838 151.717C-277.728 149.151 -276.771 146.767 -275.081 144.819L-50.9419 -113.195C-48.9603 -115.473 -46.2079 -116.847 -43.1924 -117.062C-40.172 -117.278 -37.2522 -116.306 -34.9689 -114.329L223.782 109.274C226.415 111.547 227.832 114.841 227.683 118.311C227.568 120.877 226.621 123.26 224.931 125.208L0.792053 383.223C-1.18484 385.506 -3.94196 386.879 -6.95752 387.095C-9.97311 387.305 -12.8978 386.339 -15.181 384.362L-273.937 160.754C-276.57 158.48 -277.986 155.187 -277.838 151.717ZM226.602 118.263C226.74 115.123 225.453 112.146 223.079 110.092L-35.6774 -113.515C-37.7452 -115.306 -40.3874 -116.182 -43.1158 -115.985C-45.8442 -115.789 -48.3332 -114.549 -50.1234 -112.486L-274.262 145.533C-275.789 147.294 -276.651 149.448 -276.751 151.77C-276.89 154.91 -275.603 157.887 -273.229 159.94L-14.4774 383.548C-12.4095 385.333 -9.7673 386.209 -7.03891 386.018C-4.31055 385.826 -1.82626 384.582 -0.0312805 382.524L224.108 124.505C225.639 122.739 226.501 120.585 226.602 118.263Z" fill="#009743"/>
<path opacity="0.8" d="M-279.666 138.625C-279.556 136.088 -278.556 133.652 -276.852 131.761L-54.4933 -114.77C-52.526 -116.952 -49.8215 -118.24 -46.8825 -118.393C-43.9435 -118.546 -41.1194 -117.551 -38.9319 -115.588L208.303 106.244C210.758 108.446 212.084 111.6 211.94 114.898C211.83 117.435 210.83 119.871 209.126 121.762L-13.2325 368.288C-15.1998 370.466 -17.8994 371.754 -20.8384 371.912C-23.7774 372.065 -26.6015 371.069 -28.789 369.107L-276.028 147.28C-278.484 145.078 -279.81 141.919 -279.666 138.625ZM210.854 114.85C210.983 111.878 209.786 109.034 207.575 107.048L-39.6643 -114.784C-41.6364 -116.555 -44.1781 -117.45 -46.8299 -117.311C-49.4769 -117.172 -51.9133 -116.014 -53.6891 -114.047L-276.047 132.484C-277.584 134.188 -278.484 136.385 -278.584 138.668C-278.714 141.641 -277.517 144.484 -275.306 146.471L-28.0663 368.302C-26.0942 370.069 -23.5525 370.969 -20.9007 370.83C-18.2536 370.691 -15.8172 369.533 -14.0414 367.565L208.317 121.034C209.853 119.33 210.758 117.133 210.854 114.85Z" fill="#009743"/>
<path opacity="0.8" d="M-281.505 125.534C-281.395 122.992 -280.37 120.565 -278.623 118.703L-58.0455 -116.339C-56.0925 -118.422 -53.4407 -119.623 -50.5783 -119.714C-47.7207 -119.81 -44.9923 -118.785 -42.9053 -116.837L192.817 103.209C195.105 105.344 196.336 108.355 196.202 111.48C196.091 114.022 195.067 116.449 193.32 118.311L-27.2626 353.359C-31.2977 357.657 -38.09 357.882 -42.4027 353.857L-278.125 133.81C-280.404 131.67 -281.639 128.655 -281.505 125.534ZM195.115 111.433C195.235 108.628 194.129 105.918 192.075 103.999L-43.6472 -116.047C-45.5236 -117.799 -47.9744 -118.718 -50.5448 -118.632C-53.1152 -118.546 -55.499 -117.469 -57.2557 -115.598L-277.829 119.445C-279.399 121.116 -280.318 123.294 -280.418 125.582C-280.538 128.387 -279.432 131.096 -277.379 133.016L-41.656 353.062C-37.7836 356.681 -31.6759 356.48 -28.0524 352.617L192.525 117.569C194.095 115.899 195.014 113.721 195.115 111.433Z" fill="#009743"/>
<path opacity="0.8" d="M-283.342 112.438C-283.232 109.886 -282.184 107.474 -280.394 105.645L-61.5966 -117.914C-57.5854 -122.012 -50.9847 -122.088 -46.8777 -118.092L177.328 100.179C179.444 102.242 180.588 105.114 180.459 108.067C180.349 110.619 179.3 113.036 177.51 114.864L-41.287 338.424C-45.2934 342.522 -51.8989 342.603 -56.0059 338.601L-280.207 120.331C-282.328 118.268 -283.467 115.391 -283.342 112.438ZM179.377 108.02C179.492 105.377 178.472 102.802 176.577 100.954L-47.6245 -117.316C-51.3054 -120.897 -57.2217 -120.825 -60.8116 -117.158L-279.609 106.402C-281.212 108.039 -282.15 110.202 -282.251 112.485C-282.366 115.132 -281.346 117.703 -279.446 119.551L-55.2448 337.821C-51.5639 341.402 -45.6476 341.33 -42.0576 337.663L176.74 114.103C178.338 112.466 179.276 110.308 179.377 108.02Z" fill="#009743"/>
<path opacity="0.8" d="M-285.185 99.3462C-285.07 96.7805 -283.998 94.3825 -282.16 92.5827L-65.1434 -119.489C-61.161 -123.381 -54.7421 -123.314 -50.841 -119.341L161.848 97.1539C163.801 99.1404 164.85 101.874 164.73 104.655C164.62 107.22 163.543 109.623 161.705 111.418L-55.3117 323.49C-59.2942 327.382 -65.7131 327.315 -69.6142 323.342L-282.304 106.852C-284.256 104.865 -285.305 102.127 -285.185 99.3462ZM163.643 104.607C163.753 102.122 162.815 99.686 161.073 97.9102L-51.6116 -118.585C-55.0963 -122.131 -60.8259 -122.189 -64.3776 -118.714L-281.394 93.3581C-283.036 94.9616 -283.993 97.106 -284.094 99.3941C-284.199 101.874 -283.261 104.315 -281.519 106.091L-68.8435 322.585C-65.3588 326.132 -59.6292 326.19 -56.0728 322.71L160.944 110.643C162.586 109.039 163.543 106.895 163.643 104.607Z" fill="#009743"/>
<path opacity="0.8" d="M-287.034 86.2549C-286.919 83.6749 -285.818 81.2912 -283.927 79.5297L-68.6911 -121.059C-66.7717 -122.844 -64.2731 -123.783 -61.65 -123.692C-59.0269 -123.606 -56.6001 -122.5 -54.8051 -120.59L146.363 94.1242C148.182 96.0627 149.115 98.5901 149 101.242C148.885 103.822 147.784 106.21 145.894 107.972L-69.3421 308.556C-73.2959 312.242 -79.5281 312.031 -83.2234 308.087L-284.391 93.3727C-286.21 91.4341 -287.148 88.9067 -287.034 86.2549ZM147.918 101.194C148.019 98.8342 147.191 96.5893 145.573 94.8613L-55.5997 -119.848C-57.1889 -121.547 -59.3524 -122.529 -61.6835 -122.61C-64.0146 -122.691 -66.2404 -121.858 -67.9444 -120.269L-283.18 80.3195C-284.865 81.8895 -285.842 84.01 -285.942 86.3076C-286.043 88.6626 -285.215 90.9123 -283.597 92.6355L-82.424 307.35C-79.1356 310.858 -73.5974 311.045 -70.0745 307.766L145.161 107.177C146.837 105.612 147.813 103.487 147.918 101.194Z" fill="#009743"/>
<path opacity="0.8" d="M-288.885 73.1632C-288.77 70.5689 -287.636 68.1899 -285.688 66.4667L-72.2371 -122.634C-68.3073 -126.114 -62.2666 -125.76 -58.7723 -121.84L130.884 91.094C132.535 92.9512 133.392 95.3397 133.282 97.824C133.167 100.418 132.033 102.797 130.089 104.52L-83.3661 293.626C-87.2959 297.106 -93.3366 296.747 -96.8309 292.827L-286.482 79.8932C-288.143 78.036 -288.995 75.6475 -288.885 73.1632ZM132.195 97.7809C132.291 95.5791 131.535 93.4634 130.07 91.8168L-59.586 -121.117C-62.683 -124.592 -68.0345 -124.908 -71.5191 -121.825L-284.97 67.2757C-286.693 68.8026 -287.698 70.9087 -287.798 73.2111C-287.894 75.4082 -287.138 77.5287 -285.673 79.1753L-96.0171 292.109C-92.9202 295.584 -87.5735 295.9 -84.084 292.812L129.371 103.712C131.09 102.185 132.095 100.078 132.195 97.7809Z" fill="#009743"/>
<path opacity="0.8" d="M-290.748 60.0718C-290.633 57.4918 -289.437 55.065 -287.46 53.4088L-75.7851 -124.209C-73.8896 -125.793 -71.4915 -126.554 -69.0311 -126.344C-66.566 -126.133 -64.3354 -124.975 -62.7415 -123.089L115.393 88.0688C116.891 89.8447 117.662 92.0992 117.562 94.4111C117.451 96.9863 116.25 99.418 114.273 101.079L-97.4015 278.692C-101.307 281.971 -107.157 281.463 -110.445 277.572L-288.58 66.4141C-290.078 64.6382 -290.849 62.3885 -290.748 60.0718ZM116.48 94.368C116.571 92.3241 115.891 90.3329 114.57 88.7677L-63.5696 -122.39C-64.9721 -124.056 -66.9442 -125.075 -69.1173 -125.262C-71.2952 -125.449 -73.4109 -124.783 -75.0814 -123.381L-286.756 54.2369C-288.498 55.7016 -289.556 57.846 -289.657 60.1197C-289.748 62.1636 -289.068 64.15 -287.747 65.72L-109.607 276.878C-106.707 280.314 -101.542 280.76 -98.0956 277.868L113.574 100.251C115.321 98.7861 116.379 96.6417 116.48 94.368Z" fill="#009743"/>
<path opacity="0.8" d="M-292.614 46.9757C-292.504 44.3765 -291.264 41.9593 -289.22 40.3462L-79.3264 -125.784C-77.4452 -127.272 -75.0998 -127.938 -72.716 -127.665C-70.3323 -127.392 -68.1975 -126.21 -66.704 -124.333L99.9188 85.0438C101.264 86.7335 101.953 88.8492 101.857 90.9984C101.742 93.5975 100.508 96.0148 98.4684 97.6279L-111.43 263.762C-115.308 266.831 -120.97 266.18 -124.053 262.312L-290.676 52.935C-292.016 51.2453 -292.705 49.1297 -292.614 46.9757ZM100.771 90.9505C100.852 89.0598 100.249 87.1978 99.0667 85.7139L-67.556 -123.658C-68.8676 -125.305 -70.744 -126.348 -72.8405 -126.588C-74.937 -126.827 -77.0001 -126.243 -78.6515 -124.936L-288.545 41.1934C-290.34 42.6151 -291.427 44.7355 -291.528 47.0235C-291.609 48.9143 -291.006 50.7715 -289.824 52.2601L-123.205 261.637C-120.496 265.04 -115.518 265.615 -112.105 262.91L97.7887 96.7806C99.5837 95.3638 100.67 93.2385 100.771 90.9505Z" fill="#009743"/>
<path opacity="0.8" d="M-294.486 33.8842C-294.371 31.2563 -293.093 28.8534 -290.982 27.2834L-82.869 -127.358C-79.0157 -130.221 -73.5398 -129.422 -70.6678 -125.578L84.4335 82.0186C85.6302 83.6173 86.2429 85.599 86.1519 87.5854C86.037 90.2133 84.759 92.6162 82.6481 94.1862L-125.46 248.833C-129.314 251.695 -134.79 250.896 -137.662 247.057L-292.768 39.4606C-293.96 37.8523 -294.572 35.8754 -294.486 33.8842ZM85.0654 87.5423C85.142 85.8 84.6059 84.0672 83.5624 82.6648L-71.5438 -124.932C-74.0568 -128.297 -78.8482 -128.995 -82.2276 -126.487L-290.336 28.1593C-292.184 29.5331 -293.304 31.6392 -293.404 33.9368C-293.481 35.6791 -292.945 37.4071 -291.901 38.8144L-136.795 246.416C-134.282 249.781 -129.491 250.479 -126.116 247.971L81.9971 93.3246C83.8495 91.946 84.9648 89.8399 85.0654 87.5423Z" fill="#009743"/>
<path opacity="0.8" d="M-296.368 20.7879C-296.253 18.1361 -294.932 15.738 -292.744 14.2254L-86.4115 -128.933C-82.5822 -131.59 -77.2978 -130.642 -74.6316 -126.822L68.9579 78.9982C70.0253 80.5299 70.5471 82.3201 70.4657 84.1773C70.3508 86.8339 69.0297 89.2272 66.847 90.7446L-139.495 233.903C-143.325 236.56 -148.609 235.612 -151.27 231.792L-294.86 25.9719C-295.927 24.4401 -296.449 22.6499 -296.368 20.7879ZM69.3743 84.1295C69.4461 82.5116 68.9914 80.9464 68.0628 79.6157L-75.5267 -126.205C-77.8482 -129.536 -82.453 -130.36 -85.794 -128.043L-292.127 15.1158C-294.032 16.4369 -295.181 18.5238 -295.281 20.8358C-295.353 22.4537 -294.898 24.0141 -293.965 25.3496L-150.38 231.17C-148.059 234.502 -143.454 235.325 -140.113 233.008L66.2199 89.8495C68.125 88.5332 69.2738 86.4462 69.3743 84.1295Z" fill="#009743"/>
<path opacity="0.8" d="M-298.258 7.69646C-298.143 5.04465 -296.741 2.60347 -294.506 1.16747L-89.9582 -130.508C-86.1529 -132.959 -81.0599 -131.863 -78.6043 -128.067L53.4637 75.973C54.3924 77.409 54.8471 79.0652 54.7705 80.7645C54.6556 83.4162 53.2531 85.8574 51.0178 87.2934L-153.534 218.969C-157.34 221.415 -162.433 220.324 -164.888 216.528L-296.961 12.4879C-297.88 11.0519 -298.335 9.39571 -298.258 7.69646ZM53.6887 80.7214C53.7557 79.2471 53.3632 77.8111 52.5543 76.5618L-79.5138 -127.483C-81.6438 -130.776 -86.0667 -131.724 -89.3647 -129.599L-293.917 2.07216C-295.855 3.32147 -297.071 5.44194 -297.172 7.73953C-297.234 9.21381 -296.841 10.6498 -296.037 11.8943L-163.969 215.939C-161.839 219.227 -157.421 220.18 -154.118 218.055L50.4338 86.384C52.3724 85.1394 53.5882 83.019 53.6887 80.7214Z" fill="#009743"/>
<path opacity="0.8" d="M-300.159 -5.39974C-300.039 -8.09462 -298.588 -10.5214 -296.267 -11.8952L-93.4955 -132.083C-89.7141 -134.323 -84.8125 -133.078 -82.5676 -129.307L37.9838 72.9575C38.7784 74.293 39.1661 75.8151 39.0991 77.3612C38.9794 80.0561 37.5243 82.4829 35.2076 83.8567L-167.564 204.044C-171.341 206.284 -176.247 205.04 -178.492 201.268L-299.048 -0.996033C-299.843 -2.3315 -300.226 -3.85844 -300.159 -5.39974ZM38.0125 77.3085C38.07 75.9779 37.7397 74.6615 37.0504 73.5079L-83.501 -128.756C-85.4444 -132.011 -89.6758 -133.088 -92.9403 -131.154L-295.712 -10.9666C-297.717 -9.77951 -298.976 -7.67818 -299.077 -5.35188C-299.134 -4.0164 -298.804 -2.70486 -298.115 -1.55128L-177.558 200.713C-175.615 203.968 -171.384 205.045 -168.119 203.106L34.6523 82.9185C36.6579 81.7314 37.912 79.6348 38.0125 77.3085Z" fill="#009743"/>
<path opacity="0.8" d="M-302.073 -18.4961C-301.953 -21.1957 -300.407 -23.6704 -298.028 -24.958L-97.037 -133.658C-93.2843 -135.687 -88.5695 -134.294 -86.5351 -130.546L22.4996 69.937C23.1698 71.172 23.4905 72.5553 23.4283 73.9482C23.3086 76.6479 21.7577 79.1226 19.3835 80.4102L-181.607 189.11C-185.36 191.139 -190.07 189.747 -192.109 185.999L-301.139 -14.4849C-301.809 -15.7198 -302.13 -17.1031 -302.073 -18.4961ZM22.3513 73.9004C22.4039 72.7037 22.1263 71.5118 21.5519 70.454L-87.4877 -130.034C-89.2396 -133.256 -93.2891 -134.452 -96.5201 -132.71L-297.511 -24.0103C-299.588 -22.8854 -300.885 -20.8128 -300.991 -18.453C-301.043 -17.2563 -300.766 -16.0644 -300.191 -15.0018L-191.152 185.482C-189.4 188.698 -185.35 189.9 -182.124 188.153L18.8666 79.4529C20.9488 78.3328 22.2459 76.2554 22.3513 73.9004Z" fill="#009743"/>
<path opacity="0.8" d="M-303.992 -31.597C-303.873 -34.3493 -302.255 -36.8096 -299.78 -38.0206L-100.57 -135.237C-96.841 -137.056 -92.3224 -135.51 -90.4939 -131.791L7.0242 66.9168C7.57468 68.0416 7.83792 69.2957 7.78525 70.5355C7.66559 73.2878 6.05249 75.7529 3.56824 76.9592L-195.642 174.176C-199.371 175.995 -203.889 174.453 -205.713 170.729L-303.236 -27.9783C-303.786 -29.0983 -304.05 -30.3524 -303.992 -31.597ZM6.69873 70.4924C6.74658 69.4298 6.51682 68.3576 6.04294 67.3954L-91.4752 -131.312C-93.0356 -134.495 -96.9032 -135.816 -100.096 -134.261L-299.306 -37.0441C-301.427 -36.0102 -302.81 -33.9041 -302.91 -31.5491C-302.958 -30.4865 -302.733 -29.4143 -302.26 -28.4521L-204.741 170.255C-203.181 173.439 -199.313 174.76 -196.121 173.204L3.09436 75.9923C5.21484 74.9536 6.59821 72.8474 6.69873 70.4924Z" fill="#009743"/>
</g>
</g>
<g opacity="0.15">
<g opacity="0.8">
<path opacity="0.8" d="M1397.11 240.362C1397 237.801 1396.16 235.331 1394.68 233.22L1158.08 -105.195C1156.01 -108.163 1152.9 -110.144 1149.33 -110.776C1145.76 -111.408 1142.16 -110.618 1139.18 -108.55L799.81 127.507C795.976 130.173 793.808 134.553 794.014 139.215C794.128 141.776 794.966 144.246 796.44 146.357L1033.04 484.772C1035.12 487.74 1038.22 489.722 1041.79 490.353C1045.36 490.99 1048.97 490.195 1051.94 488.128L1391.31 252.07C1395.15 249.399 1397.32 245.024 1397.11 240.362ZM795.095 139.163C794.909 134.874 796.905 130.844 800.432 128.393L1139.8 -107.665C1142.54 -109.57 1145.86 -110.298 1149.14 -109.714C1152.42 -109.13 1155.28 -107.306 1157.19 -104.578L1393.8 233.838C1395.16 235.781 1395.93 238.05 1396.03 240.405C1396.22 244.698 1394.22 248.724 1390.7 251.18L1051.32 487.233C1048.59 489.138 1045.27 489.865 1041.99 489.281C1038.7 488.697 1035.84 486.874 1033.93 484.145L797.331 145.73C795.971 143.787 795.201 141.513 795.095 139.163Z" fill="#009743"/>
<path opacity="0.8" d="M1398.92 227.265C1398.81 224.709 1397.96 222.254 1396.45 220.162L1161.63 -106.77C1159.57 -109.637 1156.51 -111.533 1153.02 -112.107C1149.54 -112.681 1146.03 -111.868 1143.15 -109.809L815.294 124.468C811.642 127.076 809.579 131.312 809.771 135.793C809.885 138.349 810.733 140.809 812.236 142.901L1047.06 469.833C1051.31 475.754 1059.6 477.118 1065.54 472.877L1393.4 238.6C1397.05 235.987 1399.12 231.75 1398.92 227.265ZM810.862 135.745C810.68 131.628 812.576 127.742 815.931 125.344L1143.79 -108.929C1146.42 -110.819 1149.64 -111.566 1152.85 -111.04C1156.05 -110.513 1158.86 -108.771 1160.75 -106.138L1395.57 220.794C1396.95 222.713 1397.73 224.968 1397.84 227.313C1398.02 231.43 1396.12 235.317 1392.77 237.71L1064.91 471.992C1059.46 475.883 1051.85 474.634 1047.95 469.201L813.126 142.269C811.747 140.35 810.962 138.095 810.862 135.745Z" fill="#009743"/>
<path opacity="0.8" d="M1400.73 214.174C1400.62 211.618 1399.76 209.172 1398.23 207.104L1165.18 -108.34C1160.96 -114.06 1152.85 -115.28 1147.12 -111.068L830.78 121.428C827.304 123.979 825.347 128.072 825.533 132.375C825.643 134.931 826.51 137.377 828.037 139.445L1061.08 454.889C1063.13 457.661 1066.13 459.47 1069.55 459.982C1072.96 460.499 1076.37 459.657 1079.14 457.618L1395.48 225.116C1398.96 222.57 1400.92 218.477 1400.73 214.174ZM826.625 132.332C826.452 128.393 828.247 124.64 831.426 122.304L1147.76 -110.192C1153.02 -114.055 1160.44 -112.935 1164.31 -107.694L1397.35 207.75C1398.76 209.646 1399.55 211.886 1399.65 214.227C1399.82 218.166 1398.03 221.914 1394.85 224.25L1078.51 456.751C1075.97 458.623 1072.84 459.389 1069.72 458.92C1066.59 458.45 1063.84 456.789 1061.96 454.253L828.922 138.809C827.52 136.913 826.725 134.673 826.625 132.332Z" fill="#009743"/>
<path opacity="0.8" d="M1402.55 201.087C1402.44 198.531 1401.56 196.1 1400 194.051L1168.74 -109.91C1166.71 -112.581 1163.75 -114.304 1160.42 -114.759C1157.08 -115.213 1153.77 -114.347 1151.09 -112.318L846.269 118.403C842.976 120.897 841.119 124.846 841.301 128.967C841.416 131.523 842.292 133.955 843.852 136.004L1075.11 439.964C1079.31 445.479 1087.23 446.565 1092.76 442.377L1397.58 211.656C1400.87 209.158 1402.73 205.209 1402.55 201.087ZM842.383 128.919C842.22 125.152 843.919 121.543 846.925 119.265L1151.75 -111.456C1154.2 -113.308 1157.22 -114.103 1160.27 -113.687C1163.31 -113.27 1166.01 -111.695 1167.87 -109.254L1399.13 194.707C1400.55 196.578 1401.36 198.799 1401.46 201.135C1401.62 204.902 1399.93 208.511 1396.92 210.79L1092.1 441.511C1087.04 445.335 1079.81 444.349 1075.98 439.309L844.714 135.348C843.292 133.476 842.488 131.255 842.383 128.919Z" fill="#009743"/>
<path opacity="0.8" d="M1404.37 187.991C1404.25 185.435 1403.36 183.013 1401.77 180.988L1172.29 -111.48C1170.27 -114.055 1167.37 -115.692 1164.12 -116.085C1160.86 -116.482 1157.65 -115.587 1155.06 -113.572L861.759 115.368C858.643 117.8 856.886 121.605 857.059 125.549C857.169 128.105 858.069 130.527 859.653 132.552L1089.13 425.025C1091.15 427.601 1094.06 429.238 1097.31 429.63C1100.57 430.027 1103.78 429.137 1106.36 427.122L1399.67 198.182C1402.78 195.745 1404.54 191.94 1404.37 187.991ZM858.145 125.506C857.987 121.907 859.591 118.436 862.429 116.22L1155.73 -112.72C1158.09 -114.558 1161.01 -115.372 1163.98 -115.008C1166.95 -114.649 1169.59 -113.155 1171.44 -110.81L1400.92 181.663C1402.36 183.506 1403.18 185.713 1403.28 188.044C1403.44 191.638 1401.84 195.109 1399 197.33L1105.69 426.27C1103.34 428.103 1100.41 428.917 1097.44 428.558C1094.48 428.199 1091.83 426.705 1089.99 424.36L860.505 131.887C859.064 130.039 858.246 127.833 858.145 125.506Z" fill="#009743"/>
<path opacity="0.8" d="M1406.19 174.9C1406.08 172.339 1405.16 169.931 1403.54 167.935L1175.84 -113.05C1171.7 -118.162 1164.16 -118.957 1159.03 -114.826L877.243 112.338C874.304 114.703 872.653 118.37 872.816 122.137C872.926 124.698 873.84 127.105 875.458 129.101L1103.16 410.086C1105.17 412.566 1108.03 414.112 1111.2 414.447C1114.38 414.782 1117.49 413.868 1119.97 411.862L1401.76 184.698C1404.7 182.333 1406.35 178.672 1406.19 174.9ZM873.897 122.089C873.749 118.662 875.252 115.33 877.923 113.176L1159.71 -113.983C1164.37 -117.741 1171.23 -117.018 1175 -112.37L1402.7 168.62C1404.17 170.434 1405 172.621 1405.1 174.948C1405.25 178.375 1403.75 181.706 1401.08 183.86L1119.29 411.025C1117.03 412.848 1114.2 413.681 1111.31 413.375C1108.42 413.068 1105.82 411.661 1104.01 409.411L876.3 128.422C874.831 126.607 873.998 124.415 873.897 122.089Z" fill="#009743"/>
<path opacity="0.8" d="M1408.01 161.808C1407.9 159.248 1406.97 156.854 1405.31 154.877L1179.4 -114.625C1177.4 -117.004 1174.6 -118.463 1171.5 -118.741C1168.4 -119.019 1165.38 -118.071 1163 -116.085L892.728 109.304C889.923 111.644 888.406 115.076 888.564 118.724C888.674 121.29 889.607 123.683 891.263 125.655L1117.18 395.157C1121.3 400.068 1128.65 400.719 1133.58 396.617L1403.85 171.233C1406.66 168.893 1408.17 165.456 1408.01 161.808ZM889.65 118.676C889.507 115.368 890.881 112.257 893.422 110.137L1163.69 -115.252C1165.86 -117.056 1168.6 -117.908 1171.4 -117.659C1174.21 -117.41 1176.75 -116.085 1178.56 -113.926L1404.48 155.576C1405.98 157.366 1406.82 159.535 1406.92 161.856C1407.07 165.164 1405.69 168.28 1403.15 170.396L1132.87 395.784C1128.41 399.508 1121.74 398.914 1118.01 394.463L892.092 124.961C890.598 123.171 889.751 120.998 889.65 118.676Z" fill="#009743"/>
<path opacity="0.8" d="M1409.84 148.717C1409.73 146.151 1408.77 143.767 1407.08 141.819L1182.94 -116.195C1180.96 -118.473 1178.21 -119.847 1175.19 -120.062C1172.17 -120.278 1169.25 -119.306 1166.97 -117.329L908.218 106.274C905.585 108.547 904.168 111.841 904.317 115.311C904.432 117.877 905.379 120.26 907.069 122.208L1131.21 380.223C1133.18 382.506 1135.94 383.879 1138.96 384.095C1141.97 384.305 1144.9 383.339 1147.18 381.362L1405.94 157.754C1408.57 155.48 1409.99 152.187 1409.84 148.717ZM905.398 115.263C905.26 112.123 906.547 109.146 908.921 107.092L1167.68 -116.515C1169.75 -118.306 1172.39 -119.182 1175.12 -118.985C1177.84 -118.789 1180.33 -117.549 1182.12 -115.486L1406.26 142.533C1407.79 144.294 1408.65 146.448 1408.75 148.77C1408.89 151.91 1407.6 154.887 1405.23 156.94L1146.48 380.548C1144.41 382.333 1141.77 383.209 1139.04 383.018C1136.31 382.826 1133.83 381.582 1132.03 379.524L907.892 121.505C906.361 119.739 905.499 117.585 905.398 115.263Z" fill="#009743"/>
<path opacity="0.8" d="M1411.67 135.625C1411.56 133.088 1410.56 130.652 1408.85 128.761L1186.49 -117.77C1184.53 -119.952 1181.82 -121.24 1178.88 -121.393C1175.94 -121.546 1173.12 -120.551 1170.93 -118.588L923.697 103.244C921.242 105.446 919.916 108.6 920.06 111.898C920.17 114.435 921.17 116.871 922.874 118.762L1145.23 365.288C1147.2 367.466 1149.9 368.754 1152.84 368.912C1155.78 369.065 1158.6 368.069 1160.79 366.107L1408.03 144.28C1410.48 142.078 1411.81 138.919 1411.67 135.625ZM921.146 111.85C921.017 108.878 922.214 106.034 924.425 104.048L1171.66 -117.784C1173.64 -119.555 1176.18 -120.45 1178.83 -120.311C1181.48 -120.172 1183.91 -119.014 1185.69 -117.047L1408.05 129.484C1409.58 131.188 1410.48 133.385 1410.58 135.668C1410.71 138.641 1409.52 141.484 1407.31 143.471L1160.07 365.302C1158.09 367.069 1155.55 367.969 1152.9 367.83C1150.25 367.691 1147.82 366.533 1146.04 364.565L923.683 118.034C922.147 116.33 921.242 114.133 921.146 111.85Z" fill="#009743"/>
<path opacity="0.8" d="M1413.5 122.534C1413.39 119.992 1412.37 117.565 1410.62 115.703L1190.05 -119.339C1188.09 -121.422 1185.44 -122.623 1182.58 -122.714C1179.72 -122.81 1176.99 -121.785 1174.91 -119.837L939.183 100.209C936.895 102.344 935.664 105.355 935.798 108.48C935.909 111.022 936.933 113.449 938.68 115.311L1159.26 350.359C1163.3 354.657 1170.09 354.882 1174.4 350.857L1410.13 130.81C1412.4 128.67 1413.64 125.655 1413.5 122.534ZM936.885 108.433C936.765 105.628 937.871 102.918 939.925 100.999L1175.65 -119.047C1177.52 -120.799 1179.97 -121.718 1182.54 -121.632C1185.12 -121.546 1187.5 -120.469 1189.26 -118.598L1409.83 116.445C1411.4 118.116 1412.32 120.294 1412.42 122.582C1412.54 125.387 1411.43 128.096 1409.38 130.016L1173.66 350.062C1169.78 353.681 1163.68 353.48 1160.05 349.617L939.475 114.569C937.905 112.899 936.986 110.721 936.885 108.433Z" fill="#009743"/>
<path opacity="0.8" d="M1415.34 109.438C1415.23 106.886 1414.18 104.474 1412.39 102.645L1193.6 -120.914C1189.59 -125.012 1182.98 -125.088 1178.88 -121.092L954.672 97.179C952.556 99.2421 951.412 102.114 951.541 105.067C951.651 107.619 952.7 110.036 954.49 111.864L1173.29 335.424C1177.29 339.522 1183.9 339.603 1188.01 335.601L1412.21 117.331C1414.33 115.268 1415.47 112.391 1415.34 109.438ZM952.623 105.02C952.508 102.377 953.528 99.8021 955.423 97.9545L1179.62 -120.316C1183.31 -123.897 1189.22 -123.825 1192.81 -120.158L1411.61 103.402C1413.21 105.039 1414.15 107.202 1414.25 109.485C1414.37 112.132 1413.35 114.703 1411.45 116.551L1187.24 334.821C1183.56 338.402 1177.65 338.33 1174.06 334.663L955.26 111.103C953.662 109.466 952.724 107.308 952.623 105.02Z" fill="#009743"/>
<path opacity="0.8" d="M1417.19 96.3462C1417.07 93.7805 1416 91.3825 1414.16 89.5827L1197.14 -122.489C1193.16 -126.381 1186.74 -126.314 1182.84 -122.341L970.152 94.1539C968.199 96.1404 967.15 98.8736 967.27 101.655C967.38 104.22 968.457 106.623 970.295 108.418L1187.31 320.49C1191.29 324.382 1197.71 324.315 1201.61 320.342L1414.3 103.852C1416.26 101.865 1417.3 99.1272 1417.19 96.3462ZM968.357 101.607C968.247 99.1224 969.185 96.6861 970.927 94.9102L1183.61 -121.585C1187.1 -125.131 1192.83 -125.189 1196.38 -121.714L1413.39 90.3581C1415.04 91.9616 1415.99 94.106 1416.09 96.3941C1416.2 98.8735 1415.26 101.315 1413.52 103.091L1200.84 319.585C1197.36 323.132 1191.63 323.19 1188.07 319.71L971.056 107.643C969.414 106.039 968.457 103.895 968.357 101.607Z" fill="#009743"/>
<path opacity="0.8" d="M1419.03 83.2549C1418.92 80.6749 1417.82 78.2912 1415.93 76.5297L1200.69 -124.059C1198.77 -125.844 1196.27 -126.783 1193.65 -126.692C1191.03 -126.606 1188.6 -125.5 1186.81 -123.59L985.637 91.1242C983.818 93.0627 982.885 95.5901 983 98.2419C983.115 100.822 984.216 103.21 986.106 104.972L1201.34 305.556C1205.3 309.242 1211.53 309.031 1215.22 305.087L1416.39 90.3727C1418.21 88.4341 1419.15 85.9067 1419.03 83.2549ZM984.082 98.194C983.981 95.8342 984.809 93.5893 986.427 91.8613L1187.6 -122.848C1189.19 -124.547 1191.35 -125.529 1193.68 -125.61C1196.01 -125.691 1198.24 -124.858 1199.94 -123.269L1415.18 77.3195C1416.87 78.8895 1417.84 81.01 1417.94 83.3076C1418.04 85.6626 1417.21 87.9123 1415.6 89.6355L1214.42 304.35C1211.14 307.858 1205.6 308.045 1202.07 304.766L986.839 104.177C985.163 102.612 984.187 100.487 984.082 98.194Z" fill="#009743"/>
<path opacity="0.8" d="M1420.89 70.1632C1420.77 67.5689 1419.64 65.1899 1417.69 63.4667L1204.24 -125.634C1200.31 -129.114 1194.27 -128.76 1190.77 -124.84L1001.12 88.094C999.465 89.9512 998.608 92.3397 998.718 94.824C998.833 97.4184 999.967 99.7973 1001.91 101.52L1215.37 290.626C1219.3 294.106 1225.34 293.747 1228.83 289.827L1418.48 76.8932C1420.14 75.036 1421 72.6475 1420.89 70.1632ZM999.805 94.7809C999.709 92.5791 1000.47 90.4634 1001.93 88.8168L1191.59 -124.117C1194.68 -127.592 1200.03 -127.908 1203.52 -124.825L1416.97 64.2757C1418.69 65.8026 1419.7 67.9087 1419.8 70.2111C1419.89 72.4082 1419.14 74.5287 1417.67 76.1753L1228.02 289.109C1224.92 292.584 1219.57 292.9 1216.08 289.812L1002.63 100.712C1000.91 99.1846 999.905 97.0785 999.805 94.7809Z" fill="#009743"/>
<path opacity="0.8" d="M1422.75 57.0718C1422.63 54.4918 1421.44 52.065 1419.46 50.4088L1207.79 -127.209C1205.89 -128.793 1203.49 -129.554 1201.03 -129.344C1198.57 -129.133 1196.34 -127.975 1194.74 -126.089L1016.61 85.0688C1015.11 86.8447 1014.34 89.0992 1014.44 91.4111C1014.55 93.9863 1015.75 96.418 1017.73 98.0789L1229.4 275.692C1233.31 278.971 1239.16 278.463 1242.45 274.572L1420.58 63.4141C1422.08 61.6382 1422.85 59.3885 1422.75 57.0718ZM1015.52 91.368C1015.43 89.3241 1016.11 87.3329 1017.43 85.7677L1195.57 -125.39C1196.97 -127.056 1198.94 -128.075 1201.12 -128.262C1203.3 -128.449 1205.41 -127.783 1207.08 -126.381L1418.76 51.2369C1420.5 52.7016 1421.56 54.846 1421.66 57.1197C1421.75 59.1636 1421.07 61.15 1419.75 62.72L1241.61 273.878C1238.71 277.314 1233.54 277.76 1230.1 274.868L1018.43 97.2508C1016.68 95.7861 1015.62 93.6417 1015.52 91.368Z" fill="#009743"/>
<path opacity="0.8" d="M1424.61 43.9757C1424.5 41.3765 1423.26 38.9593 1421.22 37.3462L1211.33 -128.784C1209.45 -130.272 1207.1 -130.938 1204.72 -130.665C1202.33 -130.392 1200.2 -129.21 1198.7 -127.333L1032.08 82.0438C1030.74 83.7335 1030.05 85.8492 1030.14 87.9984C1030.26 90.5975 1031.49 93.0148 1033.53 94.6279L1243.43 260.762C1247.31 263.831 1252.97 263.18 1256.05 259.312L1422.68 49.935C1424.02 48.2453 1424.71 46.1297 1424.61 43.9757ZM1031.23 87.9505C1031.15 86.0598 1031.75 84.1978 1032.93 82.7139L1199.56 -126.658C1200.87 -128.305 1202.74 -129.348 1204.84 -129.588C1206.94 -129.827 1209 -129.243 1210.65 -127.936L1420.55 38.1934C1422.34 39.6151 1423.43 41.7355 1423.53 44.0235C1423.61 45.9143 1423.01 47.7715 1421.82 49.2601L1255.21 258.637C1252.5 262.04 1247.52 262.615 1244.11 259.91L1034.21 93.7806C1032.42 92.3638 1031.33 90.2385 1031.23 87.9505Z" fill="#009743"/>
<path opacity="0.8" d="M1426.49 30.8842C1426.37 28.2563 1425.09 25.8534 1422.98 24.2834L1214.87 -130.358C1211.02 -133.221 1205.54 -132.422 1202.67 -128.578L1047.57 79.0186C1046.37 80.6173 1045.76 82.599 1045.85 84.5854C1045.96 87.2133 1047.24 89.6162 1049.35 91.1862L1257.46 245.833C1261.31 248.695 1266.79 247.896 1269.66 244.057L1424.77 36.4606C1425.96 34.8523 1426.57 32.8754 1426.49 30.8842ZM1046.93 84.5423C1046.86 82.8 1047.39 81.0672 1048.44 79.6648L1203.54 -127.932C1206.06 -131.297 1210.85 -131.995 1214.23 -129.487L1422.34 25.1593C1424.18 26.5331 1425.3 28.6392 1425.4 30.9368C1425.48 32.6791 1424.94 34.4071 1423.9 35.8144L1268.8 243.416C1266.28 246.781 1261.49 247.479 1258.12 244.971L1050 90.3246C1048.15 88.946 1047.04 86.8399 1046.93 84.5423Z" fill="#009743"/>
<path opacity="0.8" d="M1428.37 17.7879C1428.25 15.1361 1426.93 12.738 1424.74 11.2254L1218.41 -131.933C1214.58 -134.59 1209.3 -133.642 1206.63 -129.822L1063.04 75.9982C1061.97 77.5299 1061.45 79.3201 1061.53 81.1773C1061.65 83.8339 1062.97 86.2272 1065.15 87.7446L1271.5 230.903C1275.32 233.56 1280.61 232.612 1283.27 228.792L1426.86 22.9719C1427.93 21.4401 1428.45 19.6499 1428.37 17.7879ZM1062.63 81.1295C1062.55 79.5116 1063.01 77.9464 1063.94 76.6157L1207.53 -129.205C1209.85 -132.536 1214.45 -133.36 1217.79 -131.043L1424.13 12.1158C1426.03 13.4369 1427.18 15.5238 1427.28 17.8358C1427.35 19.4537 1426.9 21.0141 1425.96 22.3496L1282.38 228.17C1280.06 231.502 1275.45 232.325 1272.11 230.008L1065.78 86.8495C1063.87 85.5332 1062.73 83.4462 1062.63 81.1295Z" fill="#009743"/>
<path opacity="0.8" d="M1430.26 4.69646C1430.14 2.04465 1428.74 -0.39653 1426.51 -1.83253L1221.96 -133.508C1218.15 -135.959 1213.06 -134.863 1210.6 -131.067L1078.54 72.973C1077.61 74.409 1077.15 76.0652 1077.23 77.7645C1077.34 80.4162 1078.75 82.8574 1080.98 84.2934L1285.53 215.969C1289.34 218.415 1294.43 217.324 1296.89 213.528L1428.96 9.48787C1429.88 8.05186 1430.33 6.39571 1430.26 4.69646ZM1078.31 77.7214C1078.24 76.2471 1078.64 74.8111 1079.45 73.5618L1211.51 -130.483C1213.64 -133.776 1218.07 -134.724 1221.36 -132.599L1425.92 -0.927841C1427.86 0.321472 1429.07 2.44194 1429.17 4.73953C1429.23 6.21381 1428.84 7.6498 1428.04 8.89432L1295.97 212.939C1293.84 216.227 1289.42 217.18 1286.12 215.055L1081.57 83.384C1079.63 82.1394 1078.41 80.019 1078.31 77.7214Z" fill="#009743"/>
<path opacity="0.8" d="M1432.16 -8.39974C1432.04 -11.0946 1430.59 -13.5214 1428.27 -14.8952L1225.5 -135.083C1221.71 -137.323 1216.81 -136.078 1214.57 -132.307L1094.02 69.9575C1093.22 71.293 1092.83 72.8151 1092.9 74.3612C1093.02 77.0561 1094.48 79.4829 1096.79 80.8567L1299.56 201.044C1303.34 203.284 1308.25 202.04 1310.49 198.268L1431.05 -3.99603C1431.84 -5.3315 1432.23 -6.85844 1432.16 -8.39974ZM1093.99 74.3085C1093.93 72.9779 1094.26 71.6615 1094.95 70.5079L1215.5 -131.756C1217.44 -135.011 1221.68 -136.088 1224.94 -134.154L1427.71 -13.9666C1429.72 -12.7795 1430.98 -10.6782 1431.08 -8.35188C1431.13 -7.0164 1430.8 -5.70486 1430.11 -4.55128L1309.56 197.713C1307.62 200.968 1303.38 202.045 1300.12 200.106L1097.35 79.9185C1095.34 78.7314 1094.09 76.6348 1093.99 74.3085Z" fill="#009743"/>
<path opacity="0.8" d="M1434.07 -21.4961C1433.95 -24.1957 1432.41 -26.6704 1430.03 -27.958L1229.04 -136.658C1225.28 -138.687 1220.57 -137.294 1218.54 -133.546L1109.5 66.937C1108.83 68.172 1108.51 69.5553 1108.57 70.9482C1108.69 73.6479 1110.24 76.1226 1112.62 77.4102L1313.61 186.11C1317.36 188.139 1322.07 186.747 1324.11 182.999L1433.14 -17.4849C1433.81 -18.7198 1434.13 -20.1031 1434.07 -21.4961ZM1109.65 70.9004C1109.6 69.7037 1109.87 68.5118 1110.45 67.454L1219.49 -133.034C1221.24 -136.256 1225.29 -137.452 1228.52 -135.71L1429.51 -27.0103C1431.59 -25.8854 1432.89 -23.8128 1432.99 -21.453C1433.04 -20.2563 1432.77 -19.0644 1432.19 -18.0018L1323.15 182.482C1321.4 185.698 1317.35 186.9 1314.12 185.153L1113.13 76.4529C1111.05 75.3328 1109.75 73.2554 1109.65 70.9004Z" fill="#009743"/>
<path opacity="0.8" d="M1435.99 -34.597C1435.87 -37.3493 1434.25 -39.8096 1431.78 -41.0206L1232.57 -138.237C1228.84 -140.056 1224.32 -138.51 1222.49 -134.791L1124.98 63.9168C1124.43 65.0416 1124.16 66.2957 1124.21 67.5355C1124.33 70.2878 1125.95 72.7529 1128.43 73.9592L1327.64 171.176C1331.37 172.995 1335.89 171.453 1337.71 167.729L1435.24 -30.9783C1435.79 -32.0983 1436.05 -33.3524 1435.99 -34.597ZM1125.3 67.4924C1125.25 66.4298 1125.48 65.3576 1125.96 64.3954L1223.48 -134.312C1225.04 -137.495 1228.9 -138.816 1232.1 -137.261L1431.31 -40.0441C1433.43 -39.0102 1434.81 -36.9041 1434.91 -34.5491C1434.96 -33.4865 1434.73 -32.4143 1434.26 -31.4521L1336.74 167.255C1335.18 170.439 1331.31 171.76 1328.12 170.204L1128.91 72.9923C1126.79 71.9536 1125.4 69.8474 1125.3 67.4924Z" fill="#009743"/>
</g>
</g>
</g>
</svg>
