<svg width="40" height="40" viewBox="0 0 40 40" fill="none" xmlns="http://www.w3.org/2000/svg">
<rect width="40" height="40" rx="5" fill="#009743"/>
<g clip-path="url(#clip0_12_2290)">
<path d="M23.6503 9.4585H31.3541C31.5492 9.4579 31.7424 9.49691 31.9228 9.57322C32.1031 9.64952 32.267 9.76165 32.4051 9.90318C32.5431 10.0447 32.6525 10.2128 32.727 10.3979C32.8016 10.5829 32.8398 10.7813 32.8394 10.9816V14.7627C32.8398 14.9629 32.8016 15.1612 32.727 15.3463C32.6525 15.5314 32.5431 15.6995 32.4051 15.8411C32.267 15.9826 32.1031 16.0947 31.9228 16.171C31.7424 16.2473 31.5492 16.2863 31.3541 16.2857H26.5225L24.8663 18.2607L24.7965 16.2857H23.6503C23.4553 16.2863 23.262 16.2473 23.0816 16.171C22.9013 16.0947 22.7374 15.9826 22.5994 15.8411C22.4614 15.6995 22.3519 15.5314 22.2774 15.3463C22.2029 15.1612 22.1647 14.9629 22.165 14.7627V10.9816C22.1647 10.7813 22.2029 10.5829 22.2774 10.3979C22.3519 10.2128 22.4614 10.0447 22.5994 9.90318C22.7374 9.76165 22.9013 9.64952 23.0816 9.57322C23.262 9.49691 23.4553 9.4579 23.6503 9.4585V9.4585Z" stroke="white"/>
<path d="M16.5756 13.0244H11.8647C11.7454 13.0241 11.6273 13.0479 11.517 13.0946C11.4067 13.1412 11.3065 13.2098 11.2221 13.2964C11.1377 13.383 11.0708 13.4858 11.0252 13.5989C10.9797 13.7121 10.9563 13.8334 10.9565 13.9559V16.2681C10.9563 16.3905 10.9797 16.5119 11.0252 16.6251C11.0708 16.7382 11.1377 16.841 11.2221 16.9276C11.3065 17.0142 11.4067 17.0827 11.517 17.1294C11.6273 17.1761 11.7454 17.1999 11.8647 17.1995H14.8174L15.8302 18.4075L15.8732 17.1995H16.5738C16.6931 17.1999 16.8113 17.1761 16.9215 17.1294C17.0318 17.0827 17.1321 17.0142 17.2164 16.9276C17.3008 16.841 17.3677 16.7382 17.4133 16.6251C17.4589 16.5119 17.4822 16.3905 17.482 16.2681V13.9559C17.4822 13.8336 17.4589 13.7124 17.4135 13.5993C17.368 13.4863 17.3013 13.3836 17.2171 13.297C17.1329 13.2105 17.0329 13.1419 16.9228 13.0951C16.8127 13.0483 16.6947 13.0243 16.5756 13.0244Z" fill="#FAFAFA" fill-opacity="0.1" stroke="white"/>
<path d="M20.7705 30.5075V29.9563C20.793 29.6891 20.885 29.433 21.0369 29.2149C21.1888 28.9967 21.395 28.8245 21.6339 28.7162C23.5308 27.6515 25.6737 26.5647 25.6737 26.5647L26.1649 26.3149C26.4726 26.4613 26.8031 26.5506 27.1411 26.5785C27.4868 26.5347 27.8249 26.4419 28.1459 26.3029L28.5995 26.5298C28.7722 26.6465 30.4427 27.4172 32.9185 28.831C33.1337 28.9777 33.3061 29.1815 33.4177 29.4206C33.5292 29.6598 33.5756 29.9255 33.552 30.1896V30.5405" stroke="white" stroke-width="0.999" stroke-linecap="round" stroke-linejoin="round"/>
<path d="M25.6756 26.572L26.1659 26.3231C26.4737 26.4703 26.8046 26.5599 27.143 26.5876C27.4887 26.5438 27.8268 26.451 28.1478 26.3121L28.6014 26.5362M27.1296 19.8422C26.8396 19.8415 26.5524 19.8996 26.2844 20.0131C26.0164 20.1266 25.7729 20.2933 25.5678 20.5037C25.3627 20.7141 25.2001 20.964 25.0893 21.2391C24.9785 21.5142 24.9217 21.809 24.9222 22.1066V24.3233C24.9666 24.9089 25.2135 25.4591 25.6183 25.8743C26.023 26.2895 26.559 26.5425 27.1296 26.5876C27.7001 26.5425 28.2361 26.2895 28.6409 25.8743C29.0456 25.4591 29.2925 24.9089 29.3369 24.3233V22.1066C29.3374 21.809 29.2806 21.5142 29.1698 21.2391C29.059 20.964 28.8964 20.7141 28.6913 20.5037C28.4862 20.2933 28.2427 20.1266 27.9747 20.0131C27.7067 19.8996 27.4195 19.8415 27.1296 19.8422V19.8422Z" stroke="white" stroke-width="0.999" stroke-linecap="round" stroke-linejoin="round"/>
<path d="M7.44723 30.5075V29.9563C7.46972 29.6891 7.56172 29.433 7.71361 29.2149C7.86551 28.9967 8.07172 28.8245 8.31067 28.7162C10.2075 27.6515 12.3505 26.5647 12.3505 26.5647L12.8417 26.3149C13.1493 26.4613 13.4799 26.5506 13.8179 26.5785C14.1636 26.5347 14.5017 26.4419 14.8227 26.3029L15.2763 26.5298C15.449 26.6465 17.1195 27.4172 19.5953 28.831C19.8104 28.9777 19.9829 29.1815 20.0944 29.4206C20.2059 29.6598 20.2524 29.9255 20.2287 30.1896V30.5405" stroke="white" stroke-width="0.999" stroke-linecap="round" stroke-linejoin="round"/>
<path d="M12.3523 26.572L12.8427 26.3231C13.1504 26.4703 13.4813 26.5599 13.8197 26.5876C14.1654 26.5438 14.5036 26.451 14.8245 26.3121L15.2782 26.5362M13.8063 19.8422C13.5164 19.8415 13.2292 19.8996 12.9612 20.0131C12.6932 20.1266 12.4496 20.2933 12.2445 20.5037C12.0395 20.7141 11.8769 20.964 11.7661 21.2391C11.6553 21.5142 11.5985 21.809 11.599 22.1066V24.3233C11.6434 24.9089 11.8902 25.4591 12.295 25.8743C12.6998 26.2895 13.2358 26.5425 13.8063 26.5876C14.3768 26.5425 14.9128 26.2895 15.3176 25.8743C15.7224 25.4591 15.9693 24.9089 16.0137 24.3233V22.1066C16.0141 21.809 15.9574 21.5142 15.8466 21.2391C15.7358 20.964 15.5732 20.7141 15.3681 20.5037C15.163 20.2933 14.9195 20.1266 14.6515 20.0131C14.3834 19.8996 14.0962 19.8415 13.8063 19.8422V19.8422Z" stroke="white" stroke-width="0.999" stroke-linecap="round" stroke-linejoin="round"/>
<path d="M13.068 30.4539V29.7999C13.0947 29.4832 13.2038 29.1797 13.3839 28.9211C13.5639 28.6626 13.8084 28.4584 14.0916 28.3301C16.3428 27.0706 18.8776 25.7827 18.8776 25.7827L19.4592 25.4879C19.8237 25.6618 20.2155 25.7679 20.6161 25.8011C21.026 25.7478 21.4268 25.6365 21.807 25.4704L22.3439 25.7396C22.5479 25.881 24.5262 26.7895 27.4592 28.4724C27.7138 28.6457 27.9179 28.8864 28.0501 29.1691C28.1823 29.4518 28.2375 29.7659 28.2099 30.0782V30.4934" stroke="white" stroke-linecap="round" stroke-linejoin="round"/>
<path d="M18.8776 25.7932L19.4574 25.4983C19.8225 25.6724 20.2148 25.7785 20.6161 25.8115C21.026 25.7585 21.4267 25.6475 21.807 25.4817L22.3438 25.75M20.6 17.8195C20.2565 17.8186 19.9162 17.8873 19.5986 18.0217C19.2811 18.1561 18.9925 18.3536 18.7495 18.6029C18.5065 18.8521 18.3138 19.1482 18.1825 19.4741C18.0513 19.7999 17.984 20.1493 17.9846 20.5019V23.1292C18.0373 23.823 18.3298 24.4748 18.8094 24.9666C19.289 25.4585 19.9241 25.7582 20.6 25.8115C21.2759 25.7582 21.911 25.4585 22.3906 24.9666C22.8702 24.4748 23.1627 23.823 23.2153 23.1292V20.5028C23.216 20.1501 23.1489 19.8007 23.0177 19.4747C22.8864 19.1487 22.6938 18.8525 22.4508 18.6032C22.2078 18.3538 21.9191 18.1563 21.6015 18.0218C21.2839 17.8873 20.9435 17.8186 20.6 17.8195V17.8195Z" stroke="white" stroke-linecap="round" stroke-linejoin="round"/>
</g>
<defs>
<clipPath id="clip0_12_2290">
<rect width="27" height="22" fill="white" transform="translate(7 9)"/>
</clipPath>
</defs>
</svg>
