<svg xmlns="http://www.w3.org/2000/svg" width="23.999" height="24" viewBox="0 0 23.999 24"><g transform="translate(-0.001 0)"><path d="M12.7,29.428a.428.428,0,0,1-.27-.1A12,12,0,0,1,19.982,8a11.88,11.88,0,0,1,5.291,1.226.43.43,0,0,1-.381.771A11.141,11.141,0,0,0,12.978,28.661a.434.434,0,0,1-.278.767ZM19.982,32a11.884,11.884,0,0,1-5.5-1.333.429.429,0,0,1,.394-.763A11.141,11.141,0,0,0,29.5,14.206a11.253,11.253,0,0,0-2.5-2.863.428.428,0,1,1,.54-.664A12,12,0,0,1,19.982,32Z" transform="translate(-7.977 -8)"/><path d="M28.174,32.16a.433.433,0,0,1-.289-.111,13.069,13.069,0,0,1-3.591-5.3A16.673,16.673,0,0,1,23,20.591a15.514,15.514,0,0,1,1.293-6.166,15.292,15.292,0,0,1,3.591-5.292.433.433,0,0,1,.59.047.427.427,0,0,1-.012.588,14.465,14.465,0,0,0-3.4,4.992,14.717,14.717,0,0,0-1.2,5.832,15.769,15.769,0,0,0,1.207,5.836,12.272,12.272,0,0,0,3.393,4.987.427.427,0,0,1,.112.471A.431.431,0,0,1,28.174,32.16Z" transform="translate(-16.576 -8.592)"/><path d="M36.406,32.115a.431.431,0,0,1-.4-.275.427.427,0,0,1,.112-.471,12.273,12.273,0,0,0,3.393-4.987,15.77,15.77,0,0,0,1.207-5.836,14.717,14.717,0,0,0-1.2-5.832,14.466,14.466,0,0,0-3.4-4.992.427.427,0,0,1,.146-.744.433.433,0,0,1,.432.11,15.293,15.293,0,0,1,3.613,5.292,15.514,15.514,0,0,1,1.272,6.166,16.674,16.674,0,0,1-1.293,6.162A13.07,13.07,0,0,1,36.678,32,.432.432,0,0,1,36.406,32.115Z" transform="translate(-23.994 -8.546)"/><path d="M31.562,27.9H8.428a.431.431,0,0,1,0-.862H31.562a.431.431,0,0,1,0,.862Zm-1.714-6.036H10.142a.431.431,0,0,1,0-.862H29.848a.431.431,0,0,1,0,.862Zm0,12.072H10.142a.431.431,0,0,1,0-.862H29.848a.431.431,0,0,1,0,.862Z" transform="translate(-7.99 -14.907)"/><path d="M35.431,32.138A.43.43,0,0,1,35,31.709V9.428a.431.431,0,0,1,.862,0V31.709A.43.43,0,0,1,35.431,32.138Z" transform="translate(-23.426 -8.568)"/></g></svg>