<svg width="19" height="20" viewBox="0 0 19 20" fill="none" xmlns="http://www.w3.org/2000/svg">
<path fill-rule="evenodd" clip-rule="evenodd" d="M2.47356 8.8125H4.78444C4.89012 6.97663 5.23925 5.28563 5.77838 3.92238C4.91032 4.45428 4.16624 5.16591 3.5962 6.00941C3.02615 6.85291 2.64336 7.8087 2.47356 8.8125ZM9.5 0.5C6.98044 0.5 4.56408 1.50089 2.78249 3.28249C1.00089 5.06408 0 7.48044 0 10C0 12.5196 1.00089 14.9359 2.78249 16.7175C4.56408 18.4991 6.98044 19.5 9.5 19.5C12.0196 19.5 14.4359 18.4991 16.2175 16.7175C17.9991 14.9359 19 12.5196 19 10C19 7.48044 17.9991 5.06408 16.2175 3.28249C14.4359 1.50089 12.0196 0.5 9.5 0.5ZM9.5 2.875C9.40975 2.875 9.2245 2.913 8.94781 3.18613C8.66519 3.464 8.35763 3.92594 8.07263 4.58975C7.61069 5.66681 7.27344 7.13338 7.163 8.8125H11.837C11.7266 7.13338 11.3893 5.66681 10.9274 4.58975C10.6424 3.92475 10.3336 3.464 10.0522 3.18613C9.7755 2.913 9.59025 2.875 9.5 2.875ZM14.2156 8.8125C14.1099 6.97663 13.7608 5.28563 13.2216 3.92238C14.0897 4.45428 14.8338 5.16591 15.4038 6.00941C15.9738 6.85291 16.3566 7.8087 16.5264 8.8125H14.2156ZM11.837 11.1875H7.163C7.27344 12.8666 7.61069 14.3332 8.07263 15.4103C8.35763 16.0753 8.66638 16.536 8.94781 16.8139C9.2245 17.087 9.40975 17.125 9.5 17.125C9.59025 17.125 9.7755 17.087 10.0522 16.8139C10.3348 16.536 10.6436 16.0741 10.9274 15.4103C11.3893 14.3332 11.7266 12.8666 11.837 11.1875ZM13.2216 16.0776C13.7608 14.7156 14.1099 13.0234 14.2156 11.1875H16.5264C16.3566 12.1913 15.9738 13.1471 15.4038 13.9906C14.8338 14.8341 14.0897 15.5457 13.2216 16.0776ZM5.77838 16.0776C5.23925 14.7144 4.89013 13.0234 4.78563 11.1875H2.47356C2.64336 12.1913 3.02615 13.1471 3.5962 13.9906C4.16624 14.8341 4.91032 15.5457 5.77838 16.0776Z" fill="#009743"/>
</svg>
