<svg xmlns="http://www.w3.org/2000/svg" width="216.734" height="212.861" viewBox="0 0 216.734 212.861"><g transform="translate(-863.1 -247.002)"><path d="M918.771,443.208a20.41,20.41,0,0,1-.452-3.517c-.1-3.919.9-8.14-1-11.556-1.859-3.366-5.979-4.773-9.8-5.326-11.808-1.708-25.324,1.658-34.77-5.627-11.054-8.542-11-23.314-7.738-35.724a84.705,84.705,0,0,1,6.884-17.988c3.417-6.331,10.049-9.094,13.767-15.023,3.115-4.924,2.663-11.406.6-16.882-2.01-5.477-5.427-10.3-8.14-15.425-3.216-6.08-5.477-12.863-5.276-19.746.251-9.4,4.572-18.34,13.516-22.007,7.888-3.266,17.385-1.105,24.821-5.929,4.874-3.216,7.487-8.843,11.456-13.114a26.911,26.911,0,0,1,26.278-7.436c7.085,1.96,13.014,6.783,19.093,10.9s13.114,7.788,20.45,7.034c6.13-.653,11.456-4.321,16.983-7.085,22.61-11.2,58.687-6.884,68.032,20a39.534,39.534,0,0,1-3.065,31.6c-2.01,3.668-4.572,7.085-6.13,10.953-1.558,3.919-1.909,8.592.352,12.109,1.909,2.964,5.326,4.522,8.14,6.683,6.281,4.773,6.632,15.476,4.02,22.259-2.01,5.225-6.23,9.6-7.135,15.124-1.306,7.688,3.969,14.772,6.18,22.259,6.381,21.455-13.064,38.739-30.75,47.08-10.552,4.924-23.565,6.029-33.614.1-4.723-2.814-8.542-6.934-13.215-9.9-6.381-4.07-14.822-5.627-21.656-2.362-7.487,3.618-11.406,11.908-17.435,17.586-6.532,6.13-16.179,9.145-24.821,6.833C926.861,456.976,920.53,450.7,918.771,443.208Z" transform="translate(0)" fill="#e7fff0"/><path d="M1115.136,488.194a10.745,10.745,0,0,1-1.708,4.17c-3.417,4.924-12.059,10.9-18.139,8.391-3.165-1.306-5.125-5.627-3.165-8.441,1.407-2.06,4.17-2.663,6.23-4.07,3.618-2.512,5.175-7.637,9.346-9.044C1114.382,476.889,1116.241,482.968,1115.136,488.194Z" transform="translate(-113.56 -115.279)" fill="#e0adad"/><path d="M900.988,479.82a2.565,2.565,0,0,1-.151,1.055,6.47,6.47,0,0,1-1.809,2.563c-3.015,3.015-13.918,15.375-16.38,5.627-1.306-5.326,6.03-12.461,10.652-13.365a7.915,7.915,0,0,1,5.376.6A4.419,4.419,0,0,1,900.988,479.82Z" transform="translate(-9.65 -113.687)" fill="#e0adad"/><path d="M1162.755,586.236c-1.457.955-3.065,1.658-4.472,2.613-1.658,1.156-4.421,3.718-6.632,3.266-1.759-.352-2.914-2.663-2.763-4.271a6.653,6.653,0,0,1,2.361-4.17,44.163,44.163,0,0,1,3.969-2.864,28.064,28.064,0,0,1,3.216-2.211,8.572,8.572,0,0,1,4.17-.9,4.529,4.529,0,0,1,3.166,1.206,3.532,3.532,0,0,1,.4,3.768,7.828,7.828,0,0,1-2.613,2.964A4.2,4.2,0,0,1,1162.755,586.236Z" transform="translate(-142.186 -164.533)" fill="#e0adad"/><path d="M997.848,341.263l-.352.352a13.616,13.616,0,0,1-4.572,3.567c-1.809.7-4.17.452-5.376-1.105a4.347,4.347,0,0,1-.754-1.708c-.553-2.663,1.105-5.376,3.165-7.135,2.763-2.412,5.979-4.07,8.893-6.431a11.177,11.177,0,0,1,6.029-2.814c2.261-.151,4.723,1.156,5.276,3.316a5.185,5.185,0,0,1-1.407,4.572,14.533,14.533,0,0,1-4.07,2.864C1002.269,338.148,999.857,339.3,997.848,341.263Z" transform="translate(-61.49 -39.294)" fill="#e0adad"/><path d="M1179.928,272.344a2.345,2.345,0,0,1,3.316-3.316" transform="translate(-157.3 -10.622)" fill="#011108"/><path d="M1267.562,373.523a2.362,2.362,0,1,0-2.362-2.362A2.36,2.36,0,0,0,1267.562,373.523Z" transform="translate(-200.064 -60.6)" fill="none" stroke="#011108" stroke-miterlimit="10" stroke-width="0.5"/><path d="M1078.123,447.945a4.623,4.623,0,1,0-4.623-4.623A4.623,4.623,0,0,0,1078.123,447.945Z" transform="translate(-104.684 -95.379)" fill="none" stroke="#011108" stroke-miterlimit="10" stroke-width="0.5"/><path d="M1063.808,454.317a1.708,1.708,0,1,0-1.708-1.708A1.708,1.708,0,0,0,1063.808,454.317Z" transform="translate(-99.012 -101.449)" fill="#011108"/><path d="M922.608,351.417a1.708,1.708,0,1,0-1.708-1.708A1.708,1.708,0,0,0,922.608,351.417Z" transform="translate(-28.758 -50.251)" fill="#011108"/><path d="M1182.562,265.9,1169.8,278.662" transform="translate(-152.598 -9.403)" fill="none" stroke="#011108" stroke-miterlimit="10" stroke-width="0.5"/><path d="M1192.662,261.6,1179.9,274.362" transform="translate(-157.623 -7.263)" fill="none" stroke="#011108" stroke-miterlimit="10" stroke-width="0.5"/><path d="M1282.059,365.1,1269.9,377.209" transform="translate(-202.403 -58.76)" fill="none" stroke="#011108" stroke-miterlimit="10" stroke-width="0.5"/><path d="M1101.909,508.6,1089.8,520.709" transform="translate(-112.794 -130.158)" fill="none" stroke="#011108" stroke-miterlimit="10" stroke-width="0.5"/><path d="M933.3,364.672l2.311-4.572,3.216,4.572,2.512-4.572,2.563,4.572,2.663-4.572,2.764,4.572,2.462-4.572" transform="translate(-34.928 -56.272)" fill="none" stroke="#011108" stroke-miterlimit="10" stroke-width="0.5"/><path d="M1022,368.621l23.012-4.321-9.647,17.435-6.783-7.537-1.809,3.366-1.256-6.13Z" transform="translate(-79.061 -58.361)" fill="#dbf6dd" stroke="#011108" stroke-miterlimit="10" stroke-width="0.5"/><path d="M1043.337,369.2l-12.963,7.436-.854,6.23L1025.6,380.3l1.708-6.431Z" transform="translate(-80.852 -60.799)" fill="#011108"/><path d="M1043,595.76l8.642-63.309c0-.2.3-.2.352,0l9.4,63.309" transform="translate(-89.509 -141.949)" fill="none" stroke="#e0adad" stroke-miterlimit="10" stroke-width="3"/><path d="M949.6,616.405,960,574.4l14.42,42.256" transform="translate(-43.038 -162.896)" fill="none" stroke="#e0adad" stroke-miterlimit="10" stroke-width="3"/><path d="M1025.873,507.011a25.918,25.918,0,0,1,.854-8.341c.452-1.507,1.306-3.618,2.713-4.472a5.371,5.371,0,0,1,5.276.452,7.355,7.355,0,0,1,2.914,5.778c.352,6.029-2.161,12.36-3.618,18.139a5.728,5.728,0,0,1-1.708,3.316c-1.357,1.055-3.316.7-4.823-.05a2.94,2.94,0,0,1-1-.754,2.874,2.874,0,0,1-.3-1.96c.1-1.457.1-2.864.1-4.321C1026.224,512.186,1025.973,509.573,1025.873,507.011Z" transform="translate(-80.974 -122.74)" fill="#fff" stroke="#011108" stroke-miterlimit="10" stroke-width="0.5"/><path d="M1031.29,536.206c-1.457-.3-2.914-.7-4.371-1.105-.1-.05-.251-.05-.352-.1v.352a41.379,41.379,0,0,1-.1,4.321,2.921,2.921,0,0,0,.3,1.96,2.53,2.53,0,0,0,1.005.754c1.507.754,3.467,1.105,4.823.05a6.034,6.034,0,0,0,1.708-3.316c.2-.754.4-1.507.6-2.311Q1033.1,536.583,1031.29,536.206Z" transform="translate(-81.266 -143.293)" fill="#009743" stroke="#011108" stroke-miterlimit="10" stroke-width="0.5"/><path d="M1032.726,594.758c2.06-.5,1.909-.854,3.919-1.558,0,9.195,2.462,24.972,2.412,27.585-2.562.2-3.919,2.412-6.532,2.362-2.06-3.266-3.768-11.757-4.924-15.275-.251-.8,1.105-7.888-.2-12.511C1030.013,594.908,1030.214,595.36,1032.726,594.758Z" transform="translate(-81.747 -172.25)" fill="#fff" stroke="#011108" stroke-miterlimit="10" stroke-width="0.5"/><path d="M1037.731,632.5c-2.11.352-4.221.754-6.331,1,.9,3.417,2.01,7.085,3.216,8.994,2.613.1,3.969-2.161,6.532-2.361,0-1.055-.352-4.12-.8-8.039C1039.439,632.2,1038.585,632.351,1037.731,632.5Z" transform="translate(-83.738 -191.605)" fill="#009743" stroke="#011108" stroke-miterlimit="10" stroke-width="0.5"/><path d="M921.787,516.833c1.658.6,3.366,1.105,5.075,1.558,3.316.251,6.683.352,10.049.3a90.777,90.777,0,0,0,15.677-1.206,32.824,32.824,0,0,0,7.487-2.211,14.445,14.445,0,0,0,5.678-3.768,11.712,11.712,0,0,0,2.412-5.879c-2.01-6.331-7.738-7.235-12.863-10.15a37.724,37.724,0,0,1-13.616-13.214c-3.065-5.075-4.874-10.753-7.336-16.129-2.311-5.025-5.276-7.587-10.552-9.446-3.919-1.357-8.19-2.311-12.109-1-5.527,1.96-8.793,7.738-9.748,13.415a63.362,63.362,0,0,0,2.311,28.087C906.864,505.277,913.547,513.919,921.787,516.833Z" transform="translate(-18.994 -103.52)" fill="#009743" stroke="#011108" stroke-miterlimit="10" stroke-width="0.5"/><path d="M960,562.063c1.708.1,3.467.251,5.175.5a10.219,10.219,0,0,1,4.371,1.256c.3.2.6.452.553.8a.97.97,0,0,1-.6.653c-2.311,1.306-5.628,2.663-8.391,2.362-2.412-.3-5.225-.151-7.537-.9a5.619,5.619,0,0,1-2.965-2.01c-.5-.754-.9-2.512.2-3.015.754-.3,3.015.251,3.869.251C956.479,561.912,958.237,561.962,960,562.063Z" transform="translate(-43.285 -156.538)" fill="#011108"/><path d="M1014.9,494.094c-.653,2.763-1.306,5.778-2.06,8.491-3.618-.754-7.286-1.708-10.953-2.462-1.859-.4-1.909,2.562-2.663,3.718a12.913,12.913,0,0,1-2.814,2.914c-2.161,1.759-5.477,2.412-8.24,2.362-3.266-.05-6.683-1.558-8.14-4.522-1.156-2.362-.854-5.225-.151-7.788,2.563-9.4,9.5-16.933,16.882-23.264,3.668-3.115,8.24-5.427,13.114-3.718,7.888,2.763,7.587,11.757,6.23,18.54Z" transform="translate(-57.795 -110.577)" fill="#7696ea" stroke="#011108" stroke-miterlimit="10" stroke-width="0.5"/><path d="M1040.626,472.793a4.562,4.562,0,0,0,3.618-2.261,3.514,3.514,0,0,0,.452-1.206,3.1,3.1,0,0,0-.6-2.06c-1.256-2.11-4.723-4.572-6.431-1.558C1036.255,468.271,1037.109,472.743,1040.626,472.793Z" transform="translate(-86.532 -108.118)" fill="#011108"/><path d="M1024.468,550.14c3.015.7,6.08,1,9.094,1.457,1.608.251,4.874,1.156,6.381.05,1.909-1.407-1.206-2.261-2.613-3.015-2.412-1.357-4.924-2.663-7.336-3.969-2.261-1.206-5.175-3.819-7.487-1.306-1.507,1.608-1.658,4.221-1.809,6.281A16.176,16.176,0,0,1,1024.468,550.14Z" transform="translate(-78.414 -146.926)" fill="#011108"/><path d="M931.369,533.316c.7-2.964,3.718-2.914,7.587-2.562,4.17.4,8.341-.1,12.511-.352a191.859,191.859,0,0,1,22.158.352c2.864.151,5.879.352,8.391,1.759a12.8,12.8,0,0,1,5.276,6.733A37.325,37.325,0,0,1,989,547.787l2.713,22.912c.251,1.96.5,3.869.7,5.828.2,2.211.1,2.161-2.11,2.512-3.718.553-7.386,1.055-11.1,1.558a154,154,0,0,1-4.02-19.6c-.1-.9-1.96-11.908-2.261-11.858a83.193,83.193,0,0,1-20,.754c-4.723-.4-9.5-1.206-13.616-3.517-3.618-2.06-7.336-5.879-7.939-10.15A8.008,8.008,0,0,1,931.369,533.316Z" transform="translate(-33.901 -140.906)" fill="#7696ea" stroke="#011108" stroke-miterlimit="10" stroke-width="0.5"/><path d="M1036.76,649.993c.05,0,.1.05.151.05h2.211c4.723-.3,9.446.05,14.169-.3a3.669,3.669,0,0,0,1.909-.553c1.206-.955.151-2.362-.955-2.814-3.919-1.558-8.994-1.306-11.607-5.175a45.3,45.3,0,0,1-7.939,3.618c.3-.1.5,2.311.553,2.562C1035.5,648.284,1035.906,649.591,1036.76,649.993Z" transform="translate(-85.379 -196.132)" fill="#011108"/><path d="M933.187,437.424a16.141,16.141,0,0,0-4.824,1.407,17.23,17.23,0,0,0-5.477,4.221c-2.512,2.864-3.517,6.683-4.371,10.3-1.105,4.623-2.211,9.3-3.266,13.918a19.039,19.039,0,0,0-.553,3.316,23.091,23.091,0,0,0,.9,5.828,2.273,2.273,0,0,0,.955,1.608,10.8,10.8,0,0,1,4.17,5.175c.251.7.5,1.407.754,2.161.3.8.452,1.357.653,1.759h3.618c4.12,0,7.788.05,11.707-1.105,3.969-1.156,8.24-.955,12.26-2.01a1.243,1.243,0,0,0,.8-.5,11.843,11.843,0,0,0,.1-1.909c.05-1,.1-2.06.151-3.065.05-2.01,0-3.969,0-5.979-.05-3.869-.2-7.788.05-11.657.251-2.764.352-5.577.4-8.341,4.07-.2,8.19-.955,12.21-1.457,3.517-.452,6.984-.7,9.446-3.567a5.511,5.511,0,0,0,.7-1.055c1.759-3.417-.8-7.235-4.371-7.838a10.425,10.425,0,0,0-2.161-.151c-5.828,0-11.607-.2-17.435-.452a49.908,49.908,0,0,1-8.692-.7C938.211,436.872,935.8,437.424,933.187,437.424Z" transform="translate(-25.67 -94.606)" fill="#ffcb0a" stroke="#011108" stroke-miterlimit="10" stroke-width="0.5"/><path d="M1015.682,413.056a43.9,43.9,0,0,1,1.357-6.884c.754-3.216,1.608-6.381,2.261-9.6a38.017,38.017,0,0,0,.8-8.592,8.6,8.6,0,0,1,2.01-6.18,3.282,3.282,0,0,1,.8-.653,2.931,2.931,0,0,1,1.156-.151,9.029,9.029,0,0,1,2.814.553c-.352.251-.7.452-1.055.7-.3.2-.352.251-.1.5.251.3.653.553.8.9.352.553-.05,1.658-.251,2.261a8.028,8.028,0,0,1-1.156,2.261,2.548,2.548,0,0,0-.452.8,2.059,2.059,0,0,0-.05.553,44.039,44.039,0,0,0,.5,7.286c.352,2.563.6,5.175.754,7.788,0,.452.05.9.05,1.357.151,4.371.151,8.843-2.211,12.612a7.429,7.429,0,0,1-1.256,1.558c-2.864,2.512-6.029-1.457-6.582-4.12A11.631,11.631,0,0,1,1015.682,413.056Z" transform="translate(-75.908 -66.671)" fill="#fff" stroke="#011108" stroke-miterlimit="10" stroke-width="0.5"/><path d="M945.227,464.8a9.086,9.086,0,0,0-1.658,2.512,9.4,9.4,0,0,0-.4,1.708c-1.055,5.778-2.01,11.657-3.568,17.335" transform="translate(-38.063 -108.365)" fill="none" stroke="#131834" stroke-miterlimit="10" stroke-width="0.5"/><path d="M1023.523,486.4c-1.407,5.979-4.572,15.023-4.623,21.153" transform="translate(-77.518 -119.112)" fill="none" stroke="#131834" stroke-miterlimit="10" stroke-width="0.5"/><path d="M904.4,523.9c10-2.261,21.3-4.12,30.348.1A19.38,19.38,0,0,1,945.7,537.366c1.105,5.477.2,8.089-3.165,12.913" transform="translate(-20.549 -136.564)" fill="none" stroke="#011108" stroke-miterlimit="10" stroke-width="3"/><path d="M907.768,517.865a13.378,13.378,0,0,0,9.547,8.441h.05a82.746,82.746,0,0,0,19.6,1.759c3.266,0,6.582-.1,9.848-.4-.7-.3-1.407-.6-2.11-.955a80.738,80.738,0,0,1-17.234-10.8A63.471,63.471,0,0,1,914.9,501.786a68.631,68.631,0,0,1-4.321-8.039c-1.256-2.613-2.512-5.225-3.618-7.888a42.789,42.789,0,0,1-3.618-11.958,23.8,23.8,0,0,0-1.306,4.572,63.363,63.363,0,0,0,2.311,28.087C905.457,510.077,906.361,514.146,907.768,517.865Z" transform="translate(-19.043 -112.893)" fill="#009743" stroke="#011108" stroke-miterlimit="10" stroke-width="0.5"/><path d="M1000.492,532.03c-6.431-1-10.6-.1-18.892-.1" transform="translate(-58.96 -141.579)" fill="none" stroke="#131834" stroke-miterlimit="10" stroke-width="0.5"/><path d="M952.384,511.2a37.747,37.747,0,0,0-6.632-2.563c-1.055-.3-2.11-.553-3.165-.955a23.386,23.386,0,0,1-3.316-1.759c-2.11-1.306-4.221-2.562-6.281-3.869-1.708-1.055-3.417-2.06-5.175-2.964A27.859,27.859,0,0,0,925,497.889c-2.613-.9-7.185-2.06-9.4.151a4.18,4.18,0,0,0-1,1.507c1.156,2.462,2.311,4.974,3.567,7.386a13.666,13.666,0,0,0,2.362.955,52.7,52.7,0,0,0,10.1,1.909c3.366.4,6.833.653,9.8,2.412,3.266,1.96,7.788,1.96,11.456,1.156.653-.151,1.457-.553,1.407-1.206C953.289,511.707,952.837,511.405,952.384,511.2Z" transform="translate(-25.624 -124.271)" fill="#fff" stroke="#011108" stroke-miterlimit="10" stroke-width="0.5"/><path d="M887,595.76l9.044-63.309c0-.2.3-.2.352,0l9.848,63.309" transform="translate(-11.892 -141.949)" fill="none" stroke="#e0adad" stroke-miterlimit="10" stroke-width="3"/><path d="M983.437,528.7H893.9v2.763h89.537Z" transform="translate(-15.325 -140.158)" fill="#e0adad"/><path d="M983.494,528.7H892.6" transform="translate(-14.678 -140.158)" fill="none" stroke="#131834" stroke-miterlimit="10" stroke-width="0.5"/><path d="M903,534.1h3.316" transform="translate(-19.852 -142.845)" fill="none" stroke="#131834" stroke-miterlimit="10" stroke-width="0.5"/><path d="M1057.3,534.1h3.316" transform="translate(-96.624 -142.845)" fill="none" stroke="#131834" stroke-miterlimit="10" stroke-width="0.5"/><path d="M1024.753,525.5h-40.8a.687.687,0,0,0-.754.6v.553a.687.687,0,0,0,.754.6h40.8Z" transform="translate(-59.756 -138.566)" fill="#011108"/><path d="M1030.474,506.556H994.8l3.115-20.5a1.454,1.454,0,0,1,1.407-1.256h32.86a1.366,1.366,0,0,1,1.357,1.608Z" transform="translate(-65.527 -118.316)" fill="#fff" stroke="#011108" stroke-miterlimit="10" stroke-width="0.5"/><path d="M1039.5,505.2l1.558,1.306" transform="translate(-87.768 -128.466)" fill="none" stroke="#131834" stroke-miterlimit="10" stroke-width="0.5"/><path d="M1035.5,505.2l1.557,1.306" transform="translate(-85.777 -128.466)" fill="none" stroke="#131834" stroke-miterlimit="10" stroke-width="0.5"/><path d="M1031.4,505.2l1.557,1.306" transform="translate(-83.738 -128.466)" fill="none" stroke="#131834" stroke-miterlimit="10" stroke-width="0.5"/><path d="M964.369,404.079c-.7-1.507-2.11.2-3.768,0a7.219,7.219,0,0,0-3.869.1,5.5,5.5,0,0,0-2.914,2.512,7.733,7.733,0,0,0-.4.955,19.3,19.3,0,0,0-.553,2.964,13.351,13.351,0,0,0,.05,2.462c.05.352.1.7.151,1a11.644,11.644,0,0,1-.6,4.874,6.828,6.828,0,0,1-1.306,2.06,2.5,2.5,0,0,1-.854.754.605.605,0,0,1,.251.251c1.608,2.06,4.773,2.311,7.185,2.11a11.767,11.767,0,0,0,3.768-.9c-.955-1.407-.553-2.964-.151-4.773.05-.151.251-.7.4-1.306a4.337,4.337,0,0,0,1.708-1.608,9.751,9.751,0,0,0,1.206-3.316C965.022,410.41,965.122,405.687,964.369,404.079Z" transform="translate(-43.386 -77.841)" fill="#fff" stroke="#011108" stroke-miterlimit="10" stroke-width="0.5"/><path d="M952.824,407.318a11.35,11.35,0,0,1,.5-2.261c.352-.754,1.105-.9,1.507-1.558.8-1.357.754-3.015,2.462-3.768,1.759-.8,3.919.352,5.678-.352a3.048,3.048,0,0,0,1.96-2.814,4.814,4.814,0,0,0-.452-1.859,4.062,4.062,0,0,0-1.306-1.859,3.943,3.943,0,0,0-3.015-.452,16.894,16.894,0,0,1-3.115.553c-1.357,0-2.663-.5-3.969-.251a3.518,3.518,0,0,0-2.713,2.362,9.887,9.887,0,0,1-1.105,3.165,6.077,6.077,0,0,0-1.457,3.216c0,1.105.8,2.11,1.206,3.115.352.854.553,1.809.955,2.663a2.708,2.708,0,0,0,2.11,1.708.541.541,0,0,0,.4-.1c.251-.151.251-.5.2-.8C952.674,408.072,952.724,407.77,952.824,407.318Z" transform="translate(-42.143 -72.287)" fill="#011108"/><path d="M966,430.2c.05,0,.151.05.2.05a7.594,7.594,0,0,0,3.969-.151c.352.05.3.352.251.854-.1.7-.151,1.457-.2,2.161-1.457-1-2.864-1.96-4.321-2.964A.156.156,0,0,0,966,430.2Z" transform="translate(-51.148 -91.1)" fill="#011108"/><path d="M968.6,422.7a1.773,1.773,0,0,0,1.558,1,1.9,1.9,0,0,0,1.558-.9Z" transform="translate(-52.491 -87.418)" fill="none" stroke="#011108" stroke-miterlimit="10" stroke-width="0.5"/><path d="M957.451,415.63a2.518,2.518,0,0,0-3.316-2.01,2.882,2.882,0,0,0-.955,4.17,2.288,2.288,0,0,0,2.211.7" transform="translate(-44.558 -82.81)" fill="#fff"/><path d="M957.451,415.63a2.518,2.518,0,0,0-3.316-2.01,2.882,2.882,0,0,0-.955,4.17,2.288,2.288,0,0,0,2.211.7" transform="translate(-44.558 -82.81)" fill="none" stroke="#011108" stroke-miterlimit="10" stroke-width="0.5"/><path d="M956.8,416.592a1.5,1.5,0,0,1,1.256.5,1.385,1.385,0,0,1,.251,1.306" transform="translate(-46.62 -84.376)" fill="none" stroke="#011108" stroke-miterlimit="10" stroke-width="0.5"/><path d="M1030.792,388.715a2.236,2.236,0,0,0,1.407-.1,2.719,2.719,0,0,0,1.105-.754,1.889,1.889,0,0,0,0-2.161,14.353,14.353,0,0,1-2.06,1.809,1.46,1.46,0,0,0-.553.553C1030.49,388.363,1030.591,388.614,1030.792,388.715Z" transform="translate(-83.33 -69.009)" fill="#fff"/><path d="M1030.411,383.415c-.05,0-.151.05-.2.05-.2-.553-.2-1.105-.352-1.658-.1-.452-.2-.9-.3-1.407l-.3-1.357c-.05-.3-.3-.9,0-1.105a.715.715,0,0,1,.3-.1,7.956,7.956,0,0,1,1.909-.151,3.142,3.142,0,0,1,1.759.653,1.173,1.173,0,0,1,.5,1,1.554,1.554,0,0,1-.754.955,3.8,3.8,0,0,0-.7.553c-.05.05.251.4.251.5,0,.2-.452.6-.6.754A3.755,3.755,0,0,1,1030.411,383.415Z" transform="translate(-82.598 -65.015)" fill="#011108"/><path d="M1033.512,384.9a6.113,6.113,0,0,1-2.412,2.261" transform="translate(-83.588 -68.611)" fill="none" stroke="#011108" stroke-miterlimit="10" stroke-width="0.5"/><path d="M987.2,465.614c.151-.955.251-1.96.4-2.914Z" transform="translate(-61.746 -107.32)" fill="#ffcb0a"/><path d="M987.2,465.614c.151-.955.251-1.96.4-2.914" transform="translate(-61.746 -107.32)" fill="none" stroke="#011108" stroke-miterlimit="10" stroke-width="0.5"/><path d="M960.864,438.1a11.73,11.73,0,0,1-1.256-.352,2.821,2.821,0,0,1-1.357,2.512,5.631,5.631,0,0,1-3.266.5c-1.96-.2-4.522-1.357-5.426-3.266a12.763,12.763,0,0,1-1.859.5,7.918,7.918,0,0,0,2.01,2.613,12.033,12.033,0,0,0,1.708,1.055,10.1,10.1,0,0,0,4.02,1,6.907,6.907,0,0,0,4.12-1,4.358,4.358,0,0,0,1.658-3.467A3.213,3.213,0,0,1,960.864,438.1Z" transform="translate(-42.093 -94.782)" fill="#011108"/><path d="M1029.54,537.18a3.931,3.931,0,0,0,2.512,3.115,3.619,3.619,0,0,0,3.718-5.879C1033.711,532.055,1028.887,533.763,1029.54,537.18Z" transform="translate(-82.782 -142.458)" fill="#011108"/><path d="M1012.609,562.826c-.3-1.759-.6-3.567-.8-5.326-.352,1.909-.754,3.768-1.105,5.678C1011.353,563.077,1011.956,562.927,1012.609,562.826Z" transform="translate(-73.438 -154.488)" fill="#011108"/><path d="M1019.55,421.7a.049.049,0,0,1-.05.05Z" transform="translate(-77.817 -86.921)" fill="#011108"/><path d="M1268.758,463.743c-.05-.251-.1-.5-.151-.7a4.057,4.057,0,0,0-2.864-2.613,6.034,6.034,0,0,0-3.969.4,27,27,0,0,0-4.422,3.115c-2.412,1.708-5.025,2.663-6.733,5.175a22.688,22.688,0,0,0-3.819,8.743c-.05.251-.05.452-.1.7.1-.854,1.558-2.161,2.11-2.663a13.864,13.864,0,0,1,2.713-2.161,15.5,15.5,0,0,1,6.934-2.11c4.321-.4,7.738-.7,9.8-4.974A6.073,6.073,0,0,0,1268.758,463.743Z" transform="translate(-190.859 -106.102)" fill="#dbf6dd" stroke="#011108" stroke-miterlimit="10" stroke-width="0.5"/><path d="M1255.824,473.8c-3.869,1.658-7.788,3.819-10.2,7.386-2.663,3.919-3.618,8.09-4.02,12.762-.352,3.517-.653,7.085-1,10.6" transform="translate(-187.824 -112.843)" fill="none" stroke="#011108" stroke-miterlimit="10" stroke-width="0.5"/><path d="M1244.86,425.441a6.388,6.388,0,0,0-5.879-.1,10.2,10.2,0,0,0-4.874,6.331,39.74,39.74,0,0,0-1.156,8.14c-.452,5.376-1.306,10.8-.8,16.179a73.363,73.363,0,0,0,1.357,7.386c.151.854.6,4.472,1.708,4.522a.9.9,0,0,0,.8-.5c.05-.151.251-.151.4-.1a.841.841,0,0,0,.6-.05,1.864,1.864,0,0,0,.653-.854,97.1,97.1,0,0,0,5.477-14.822,29.515,29.515,0,0,0,1.407-6.833,30.893,30.893,0,0,1,1-7.085c.5-1.809,1.306-3.567,1.658-5.426a7.153,7.153,0,0,0-.8-5.477A4.811,4.811,0,0,0,1244.86,425.441Z" transform="translate(-183.543 -88.4)" fill="#dbf6dd" stroke="#011108" stroke-miterlimit="10" stroke-width="0.5"/><path d="M1241.771,455.6l-4.371,39.242" transform="translate(-186.232 -103.788)" fill="none" stroke="#1c0c03" stroke-miterlimit="10" stroke-width="0.5"/><path d="M1207.809,479.078c-1.457-4.221-4.623-7.436-8.743-7.738a43.483,43.483,0,0,1-4.422-.251c-1.407-.251-2.814-.8-4.221-.553-3.065.6-4.422,4.824-2.562,7.235a6.445,6.445,0,0,0,4.12,2.211,37.528,37.528,0,0,0,4.773.2,13.941,13.941,0,0,1,5.879,1.306c2.964,1.507,4.623,5.326,5.678,8.341a7.657,7.657,0,0,1,.7,3.065,16.816,16.816,0,0,1,.1-3.165c0-1.156,0-2.311-.05-3.417a27.637,27.637,0,0,0-.954-6.431A2.216,2.216,0,0,1,1207.809,479.078Z" transform="translate(-161.163 -111.187)" fill="#ffcb0a" stroke="#011108" stroke-miterlimit="10" stroke-width="0.5"/><path d="M1221.548,506.856c-.251-2.713-.352-11.255-1-13.868a18.38,18.38,0,0,0-2.965-6.884c-1.507-1.96-3.718-3.366-5.979-3.216" transform="translate(-173.396 -117.36)" fill="none" stroke="#1c0c03" stroke-miterlimit="10" stroke-width="0.5"/><path d="M1221.8,520.6h16.179l-.955,7.235c-.5,3.919-3.517,6.833-7.084,6.833-3.517,0-6.532-2.864-7.085-6.783Z" transform="translate(-178.47 -136.128)" fill="#e0adad"/><path d="M1189,604.171V548.7h44.065v55.471" transform="translate(-162.151 -150.109)" fill="none" stroke="#011108" stroke-miterlimit="10" stroke-width="0.5"/><path d="M1183,577.3h50.647" transform="translate(-159.166 -164.339)" fill="none" stroke="#011108" stroke-miterlimit="10" stroke-width="0.5"/><path d="M1183,605.8h50.647" transform="translate(-159.166 -178.519)" fill="none" stroke="#011108" stroke-miterlimit="10" stroke-width="0.5"/><path d="M1183,634.4h50.647" transform="translate(-159.166 -192.749)" fill="none" stroke="#011108" stroke-miterlimit="10" stroke-width="0.5"/><path d="M1230.461,559.821a2.161,2.161,0,1,0-2.161-2.16A2.162,2.162,0,0,0,1230.461,559.821Z" transform="translate(-181.705 -153.493)" fill="none" stroke="#011108" stroke-miterlimit="10" stroke-width="0.5"/><path d="M1230.461,589.321a2.161,2.161,0,1,0-2.161-2.161A2.162,2.162,0,0,0,1230.461,589.321Z" transform="translate(-181.705 -168.17)" fill="none" stroke="#011108" stroke-miterlimit="10" stroke-width="0.5"/><path d="M1230.461,618.921a2.161,2.161,0,1,0-2.161-2.161A2.162,2.162,0,0,0,1230.461,618.921Z" transform="translate(-181.705 -182.898)" fill="none" stroke="#011108" stroke-miterlimit="10" stroke-width="0.5"/><path d="M1230.461,648.421a2.161,2.161,0,1,0-2.161-2.161A2.162,2.162,0,0,0,1230.461,648.421Z" transform="translate(-181.705 -197.575)" fill="none" stroke="#011108" stroke-miterlimit="10" stroke-width="0.5"/><path d="M1232.721,559.8a2.161,2.161,0,1,1-4.321,0" transform="translate(-181.755 -155.632)" fill="#161111"/><path d="M1232.721,589.3a2.161,2.161,0,1,1-4.321,0" transform="translate(-181.755 -170.31)" fill="#161111"/><path d="M1232.721,618.9a2.161,2.161,0,1,1-4.321,0" transform="translate(-181.755 -185.037)" fill="#161111"/><path d="M1232.721,648.4a2.161,2.161,0,1,1-4.321,0" transform="translate(-181.755 -199.715)" fill="#161111"/><path d="M959.762,275.6c12.662,0,22.962,4.773,22.962,10.652,0,3.467-3.366,5.879-6.18,7.235a28.84,28.84,0,0,1-6.733,2.311,47.337,47.337,0,0,1-9.647,1.156,16.56,16.56,0,0,1-3.919,9.346,5.451,5.451,0,0,1-3.216,2.06,20.109,20.109,0,0,0,2.914-11.506,37.206,37.206,0,0,1-11.958-2.864c-3.115-1.357-7.185-3.869-7.185-7.738C936.8,280.373,947.1,275.6,959.762,275.6Z" transform="translate(-36.669 -14.229)" fill="#7696ea" stroke="#011108" stroke-miterlimit="10" stroke-width="0.5"/><path d="M982.655,292.88a3.724,3.724,0,0,1-7.436-.1,1.912,1.912,0,0,1,.754-1.859,1.316,1.316,0,0,1,1.658.854,2.824,2.824,0,0,1-.151,2.11,5.017,5.017,0,0,1-5.075,3.065,5.233,5.233,0,0,1-4.321-4.17,2.031,2.031,0,0,1,.553-2.06,1.456,1.456,0,0,1,2.06,1,2.968,2.968,0,0,1-.653,2.563,5.816,5.816,0,0,1-7.386,1.558c-1-.7-2.01-3.015-1.206-4.221a.784.784,0,0,1,.653-.4.7.7,0,0,1,.5.251,2.057,2.057,0,0,1,.553,1.306A4.812,4.812,0,0,1,962,295.694a4.185,4.185,0,0,1-4.874,1.055,5.28,5.28,0,0,1-2.964-4.321c-.05-.7.2-1.608.9-1.608.5.05.8.6.9,1.105a4.723,4.723,0,0,1-1.156,4.12,4.227,4.227,0,0,1-3.919,1.206" transform="translate(-43.685 -21.661)" fill="none" stroke="#011108" stroke-miterlimit="10" stroke-width="0.5"/><path d="M1255.5,280.8h-20.6v32.157h20.6Z" transform="translate(-184.988 -16.816)" fill="#dbf6dd" stroke="#011108" stroke-miterlimit="10" stroke-width="0.5"/><path d="M1255.5,314.344h-20.6V274.6h20.6Z" transform="translate(-184.988 -13.731)" fill="none" stroke="#3a434b" stroke-miterlimit="10" stroke-width="0.5"/><path d="M1254.156,349.013a1.361,1.361,0,1,0-1.256-1.357A1.31,1.31,0,0,0,1254.156,349.013Z" transform="translate(-193.944 -49.406)" fill="#011108"/><path d="M1246.931,292.9a8.923,8.923,0,0,0-7.436,10.2" transform="translate(-187.221 -22.837)" fill="none" stroke="#3a434b" stroke-miterlimit="10" stroke-width="0.5"/><path d="M1249.946,298.1a6.293,6.293,0,0,0-5.225,7.185" transform="translate(-189.835 -25.424)" fill="none" stroke="#3a434b" stroke-miterlimit="10" stroke-width="0.5"/><path d="M1252.219,302a4.3,4.3,0,0,0-3.567,4.874" transform="translate(-191.807 -27.364)" fill="none" stroke="#3a434b" stroke-miterlimit="10" stroke-width="0.5"/><path d="M1254.826,306.5a1.971,1.971,0,0,0-1.658,2.311" transform="translate(-194.061 -29.603)" fill="none" stroke="#3a434b" stroke-miterlimit="10" stroke-width="0.5"/><path d="M1249.078,314.836a17.039,17.039,0,0,0,2.11-1.658c.8-.7,1.608-1.457,2.311-2.161a17.03,17.03,0,0,0,1.759-2.11c.653-.8,1.206-1.708,1.809-2.613.452-.754.9-1.558,1.306-2.362a1,1,0,0,0,0-1.055,4.327,4.327,0,0,0-2.713-2.01.486.486,0,0,0-.6.251,28.528,28.528,0,0,1-1.407,2.763c-.2.352-.352.653-.553,1a.534.534,0,0,0,.1.6,4.742,4.742,0,0,0,1.658,1,.441.441,0,0,1,.251.5,10.2,10.2,0,0,1-.653.9,2.191,2.191,0,0,1-.3.352.691.691,0,0,0-.151.2c-.151.2-.3.352-.452.553,0,.05-.05.05-.05.1-.151.2-.3.352-.452.553l-.05.05a18.577,18.577,0,0,1-1.407,1.407.4.4,0,0,1-.553-.151,4.969,4.969,0,0,0-1.256-1.457.457.457,0,0,0-.6,0,11.018,11.018,0,0,0-.9.7c-.8.6-1.658,1.206-2.512,1.809a.55.55,0,0,0-.2.653,4.351,4.351,0,0,0,2.362,2.362A1.3,1.3,0,0,0,1249.078,314.836Z" transform="translate(-190.273 -26.785)" fill="#009743" stroke="#011108" stroke-miterlimit="10" stroke-width="0.5"/><path d="M886.558,408.317A11.958,11.958,0,1,0,874.6,396.358,11.959,11.959,0,0,0,886.558,408.317Z" transform="translate(-5.722 -68.362)" fill="#dbf6dd" stroke="#011108" stroke-miterlimit="10" stroke-width="0.5"/><path d="M889.394,408.317c5.023,0,9.094-5.354,9.094-11.958s-4.071-11.958-9.094-11.958-9.094,5.354-9.094,11.958S884.372,408.317,889.394,408.317Z" transform="translate(-8.558 -68.362)" fill="none" stroke="#011108" stroke-miterlimit="10" stroke-width="0.5"/><path d="M895.066,408.317c1.86,0,3.366-5.354,3.366-11.958s-1.507-11.958-3.366-11.958-3.366,5.354-3.366,11.958S893.207,408.317,895.066,408.317Z" transform="translate(-14.23 -68.362)" fill="none" stroke="#011108" stroke-miterlimit="10" stroke-width="0.5"/><path d="M886.558,435.581c6.6,0,11.958-3.734,11.958-8.341s-5.354-8.341-11.958-8.341-11.958,3.734-11.958,8.341S879.954,435.581,886.558,435.581Z" transform="translate(-5.722 -85.528)" fill="none" stroke="#011108" stroke-miterlimit="10" stroke-width="0.5"/><path d="M886.558,381.481c6.6,0,11.958-3.734,11.958-8.341s-5.354-8.341-11.958-8.341-11.958,3.734-11.958,8.341S879.954,381.481,886.558,381.481Z" transform="translate(-5.722 -58.61)" fill="none" stroke="#011108" stroke-miterlimit="10" stroke-width="0.5"/><path d="M871,409.5h26.931" transform="translate(-3.931 -80.851)" fill="none" stroke="#011108" stroke-miterlimit="10" stroke-width="0.5"/><path d="M1177.168,332.5a1.565,1.565,0,0,0-.955.553,1.174,1.174,0,0,0-.251,1.055" transform="translate(-155.645 -42.539)" fill="#fff"/><path d="M1177.168,332.5a1.565,1.565,0,0,0-.955.553,1.174,1.174,0,0,0-.251,1.055" transform="translate(-155.645 -42.539)" fill="none" stroke="#011108" stroke-miterlimit="10" stroke-width="0.5"/><path d="M1194.359,425.7a2.448,2.448,0,0,1-.552-.2c-.5-.251-.8-.6-1.407-.6-.352,0-.754.3-.7.653a.62.62,0,0,0,.2.4c.452.452,1.055.754,1.507,1.206.251.251.4.553.653.8,1.156,1.055,2.764.1,3.768-.7.1-.1.251-.2.251-.4a.715.715,0,0,0-.1-.3,1.632,1.632,0,0,0-1.105-.6,5.517,5.517,0,0,0-1.306-.1A2.728,2.728,0,0,1,1194.359,425.7Z" transform="translate(-163.49 -88.513)" fill="#fff" stroke="#011108" stroke-miterlimit="10" stroke-width="0.5"/><path d="M1095.64,310.957c-.151-2.663-.2-5.276-.3-7.989.1-2.613,1.357-5.025,1.859-7.587a.986.986,0,0,0-.05-.754.472.472,0,0,0-.7-.2c-.352.7-.7,1.809-1.658,2.01-.553-1.96,1.557-4.221.251-5.879-1-1.256-3.165-.8-4.07.4s-.9,2.814-1.005,4.321a99.774,99.774,0,0,1-2.562,15.677Z" transform="translate(-111.6 -21.298)" fill="#fff" stroke="#011108" stroke-miterlimit="10" stroke-width="0.5"/><path d="M1097.652,263.4H1066.5V283h31.152Z" transform="translate(-101.201 -8.159)" fill="#ffcb0a" stroke="#011108" stroke-miterlimit="10" stroke-width="0.5"/><path d="M1097.652,263.4s-14.42,8.893-15.576,9.8l-15.576-9.8" transform="translate(-101.201 -8.159)" fill="none" stroke="#011108" stroke-miterlimit="10" stroke-width="0.5"/><path d="M1102.7,307.412a14.734,14.734,0,0,1,.9-4.17c.2-.7.452-1.357.653-2.06a5.5,5.5,0,0,0,.251-.854,2.684,2.684,0,0,1,.251-.9c.05-.1.1-.151.151-.251a.321.321,0,0,0,0-.3.384.384,0,0,0-.452-.1,1.773,1.773,0,0,0-.653.4c-.5.6-.653,1.507-1.608,1.708" transform="translate(-118.964 -25.742)" fill="#fff"/><path d="M1102.7,307.412a14.734,14.734,0,0,1,.9-4.17c.2-.7.452-1.357.653-2.06a5.5,5.5,0,0,0,.251-.854,2.684,2.684,0,0,1,.251-.9c.05-.1.1-.151.151-.251a.321.321,0,0,0,0-.3.384.384,0,0,0-.452-.1,1.773,1.773,0,0,0-.653.4c-.5.6-.653,1.507-1.608,1.708" transform="translate(-118.964 -25.742)" fill="none" stroke="#011108" stroke-miterlimit="10" stroke-width="0.5"/><path d="M1117.735,626.324a1.2,1.2,0,0,1-.3.553,1.557,1.557,0,0,1-.653.3c-2.06.452-4.17.854-6.281,1.105.6-4.673.4-9.5,1.357-14.119a8.784,8.784,0,0,1,2.563-5.125,5.126,5.126,0,0,1,5.577-.452c3.065,1.759,1.306,4.924.653,7.436C1119.8,619.541,1118.79,622.958,1117.735,626.324Z" transform="translate(-123.094 -179.599)" fill="#fff" stroke="#011108" stroke-miterlimit="10" stroke-width="0.5"/><path d="M1105.723,643.5a13.172,13.172,0,0,1-3.115.2,11.433,11.433,0,0,1-4.623-1,13.8,13.8,0,0,1-1.658,1.156c-2.01.854-4.02,1.759-6.029,2.613a20.207,20.207,0,0,0-4.371,2.311,1.889,1.889,0,0,0-.754.9c-.4,1.658,3.668,1.156,4.522,1.156,2.211,0,4.371-.251,6.582-.251,1.859,0,3.718.05,5.577-.05,1.105-.05,2.864.452,3.668-.4a3.379,3.379,0,0,0,.4-2.864A15.967,15.967,0,0,1,1105.723,643.5Z" transform="translate(-110.478 -196.879)" fill="#161111"/><path d="M1176.448,629.084a.756.756,0,0,0,.2.553,1.29,1.29,0,0,0,.6.251,61.356,61.356,0,0,0,6.08,1,156.654,156.654,0,0,0,.5-15.827,3.5,3.5,0,0,0-.9-2.06,4.128,4.128,0,0,0-3.718-1.156c-1.156.151-3.467.955-4.02,2.06-.553,1.206.151,3.819.251,5.025C1175.695,622.3,1176.047,625.718,1176.448,629.084Z" transform="translate(-155.177 -181.504)" fill="#fff" stroke="#011108" stroke-miterlimit="10" stroke-width="0.5"/><path d="M1167.65,341.219c-.05.2-.05.352-.1.553-.452,2.864.653,5.828.05,8.743-.4,2.06-2.161,6.23-4.723,6.482-.653.05-1.306-.8-1.658-1.256a9.71,9.71,0,0,1-2.361-5.025,16.314,16.314,0,0,1,.05-2.713c.1-1.306.2-2.613.352-3.919a11.19,11.19,0,0,1,.251-1.809,6.58,6.58,0,0,1,1.457-2.964c1.507-1.708,3.718-1.859,5.879-1.909a1.122,1.122,0,0,1,.7.151c.4.251.4.8.352,1.306C1167.851,339.661,1167.751,340.415,1167.65,341.219Z" transform="translate(-147.132 -44.977)" fill="#fff" stroke="#011108" stroke-miterlimit="10" stroke-width="0.5"/><path d="M1163.564,345.209c1.357.4,4.874.955,4.874.955a23.627,23.627,0,0,1-.1-2.663c0-.1.1-.7.151-1.206a7.3,7.3,0,0,1,.151-.854,3.056,3.056,0,0,1-.9-.452c-.151-.151-.251-.3-.4-.452a3.406,3.406,0,0,0-3.618-.6,4.268,4.268,0,0,0-1.759,1.357,5.476,5.476,0,0,0-.7,1.156,5.579,5.579,0,0,0-.5,1.457,1.6,1.6,0,0,1-.05.352Z" transform="translate(-148.07 -46.104)" fill="#161111"/><path d="M1157.462,322.47a20.118,20.118,0,0,1,2.412.4c.7.2,1.307.553,2.01.7,1.206.251,3.065.553,3.919,1.457.955.955.9,2.412.754,3.668a21.169,21.169,0,0,1-.6,3.567,5.88,5.88,0,0,1-3.367,4.221,6.681,6.681,0,0,1-4.07.4c-2.01-.5-3.115-2.161-3.417-4.522-.05-.4-.1-1.809-.1-2.211a33.633,33.633,0,0,1,.4-3.869,10.928,10.928,0,0,1,.754-3.366.64.64,0,0,1,.251-.352.769.769,0,0,1,.653-.1Z" transform="translate(-145.234 -37.534)" fill="#fff" stroke="#011108" stroke-miterlimit="10" stroke-width="0.5"/><path d="M1156.41,315.675a4.97,4.97,0,0,1,2.11-.2c1.256.1,2.512.151,3.819.251a8.323,8.323,0,0,1,3.115.553,5.155,5.155,0,0,1,2.663,2.964,7.347,7.347,0,0,1,.151,2.964,24.416,24.416,0,0,1-.452,2.763c-.2.854-.6,1.859-1.557,2.01-1.306.251-1.608-1.357-1.558-2.261.05-.5.05-1,.1-1.507a3.059,3.059,0,0,0-.05-.955,1.775,1.775,0,0,0-1.105-1.055,5.323,5.323,0,0,0-1.558-.251,32.067,32.067,0,0,1-4.924-.5,5.263,5.263,0,0,1-1.457-.6c-1.055-.754-.8-2.864,0-3.768A3.208,3.208,0,0,1,1156.41,315.675Z" transform="translate(-145.237 -34.055)" fill="#161111"/><path d="M1154.5,328.038a.384.384,0,0,0,.1.251c.553-.7.452-2.211.6-3.065a5.01,5.01,0,0,1,1.256-2.763,3.731,3.731,0,0,0,.6-.653.761.761,0,0,0,.05-.854.852.852,0,0,0-.9-.2c-2.11.5-1.959,3.165-1.859,4.874A18.275,18.275,0,0,0,1154.5,328.038Z" transform="translate(-144.887 -36.67)" fill="#161111"/><path d="M1174.4,336.961a2.213,2.213,0,0,0,1.507.1,1.973,1.973,0,0,0,.9-2.914,1.764,1.764,0,0,0-1.507-.653,1.9,1.9,0,0,0-1.407.9" transform="translate(-154.638 -43.031)" fill="#fff"/><path d="M1174.4,336.961a2.213,2.213,0,0,0,1.507.1,1.973,1.973,0,0,0,.9-2.914,1.764,1.764,0,0,0-1.507-.653,1.9,1.9,0,0,0-1.407.9" transform="translate(-154.638 -43.031)" fill="none" stroke="#011108" stroke-miterlimit="10" stroke-width="0.5"/><path d="M1154.679,470.006c.251-8.29.4-16.33-.9-24.57-.553-3.517-3.467-15.727-7.939-16.38a1.332,1.332,0,0,0-.653.05,10.4,10.4,0,0,0-1.357-3.467,14.731,14.731,0,0,0-9.044-6.23c-3.969-.955-8.843-.4-10.6,4.17-.9,2.362-.7,4.723-1.759,7.034-3.015,6.431-3.417,12.813-4.321,19.847q-1.583,12.511-3.316,25.022c-2.161,15.827-4.522,31.7-6.984,47.482a43.136,43.136,0,0,0,4.974.9,36.774,36.774,0,0,0,8.793-.1c2.864-14.37,5.879-28.69,9.145-43.01,1.608-7.135,2.964-14.119,4.673-20.9q1.734,16.656,2.814,33.313c.352,5.678.6,11.355.8,17.033.151,4.723,1,9.848.854,14.42,3.366.6,7.336.05,10.8-.2.4-.05,3.316-.4,3.367-.8.9-9.949.854-17.988,1.055-28.439C1155.231,487.391,1154.427,477.694,1154.679,470.006Z" transform="translate(-121.75 -85.584)" fill="#7696ea" stroke="#011108" stroke-miterlimit="10" stroke-width="0.5"/><path d="M1188.672,532.992v-9.6c0-6.381-.1-12.813-.151-19.194-.1-6.381-.251-12.813-.452-19.194-.2-6.18-.352-12.411-.7-18.641-.352-6.281-1.005-13.064-4.221-18.641-.05-.151-.3-.05-.251.1a72.215,72.215,0,0,1,3.065,16.983c.352,6.13.5,12.31.7,18.44.352,12.662.553,25.273.6,37.935v10.6c0,1.809,0,3.618-.05,5.427a37.705,37.705,0,0,0,.1,5.326c.05.5.955.5,1.055,0a31,31,0,0,0,.2-4.824C1188.672,536.108,1188.672,534.55,1188.672,532.992Z" transform="translate(-159.109 -99.833)" fill="#011108"/><path d="M1159.6,341.5a2.135,2.135,0,0,0,1.96,2.11,2.093,2.093,0,0,0,2.11-1.96Z" transform="translate(-147.523 -47.017)" fill="#fff" stroke="#011108" stroke-miterlimit="10" stroke-width="0.5"/><path d="M1107.565,373.029c-.6,4.572-1.206,9.195-1.909,13.767,1.206,0,2.412.653,3.618.9a43.774,43.774,0,0,0,4.472.8,83.766,83.766,0,0,0,9.346.8c1.507.05,18.34-.553,18.289-.854-.3-1.96-.653-3.969-.754-5.929-.151-4.472-.352-8.944-.5-13.415-.3-7.838,1.809-15.475,1.507-23.314-.05-.854-2.462-1.96-2.462-2.814a6.48,6.48,0,0,0-2.613-4.974,3.365,3.365,0,0,0-.7-.452,3.746,3.746,0,0,0-1.307-.2c-1.105-.05-2.311-.151-3.366-.2a1.5,1.5,0,0,1-.9-.3,5.2,5.2,0,0,1-1.909,4.12c-1.759,1.306-4.17.5-5.527-.955a5.721,5.721,0,0,1-.9-1.256,3.974,3.974,0,0,1-.553-1.457c-5.175,1.407-11.406,1.507-16.732,1.256-2.562-.151-6.13-.452-7.788-2.412-3.467-4.07-2.311-15.023-1.809-19.9a63.039,63.039,0,0,1-9.747-.452c-1.206,7.185-2.462,16.882-1.658,24.118,1.156,11.054,17.586,13.817,26.278,12.612a26.585,26.585,0,0,1-.3,5.276c-.2,1.708-.553,3.417-.754,5.175C1108.419,366.3,1108.018,369.663,1107.565,373.029Z" transform="translate(-109.607 -34.23)" fill="#009743" stroke="#011108" stroke-miterlimit="10" stroke-width="0.5"/><path d="M1175.53,649.58v.05c.05.2.05.352.2.452a.932.932,0,0,0,.352.1c4.924.2,9.747.4,14.621.553,1.105.05,5.778.05,6.08-1.558a1.29,1.29,0,0,0-.4-1,3.928,3.928,0,0,0-1-.553c-2.211-.854-4.723-1.357-6.833-2.412-.8-.4-1.507-.955-2.311-1.357-.4-.2-2.161-1.558-2.562-1.457a19.6,19.6,0,0,1-7.637.5A15.126,15.126,0,0,0,1175.53,649.58Z" transform="translate(-155.364 -196.724)" fill="#161111"/><path d="M1190.378,424.8c-2.01.854-4.271.8-6.431,1a1.117,1.117,0,0,0-.653.4.664.664,0,0,0-.1.6c0,.05.2.452.3.352a.945.945,0,0,0-.4.854c0,.3.3.653.6.6a.393.393,0,0,0-.05.4c.05.151.2.2.3.3a2.111,2.111,0,0,0,1.055.3c-.553,0-.05.754.151.9a4.939,4.939,0,0,0,1.708.352,12.246,12.246,0,0,0,3.819-.251c1.909-.452,3.718-1.457,5.577-1.96a26.886,26.886,0,0,1,2.763-.553,9.205,9.205,0,0,0,2.311-.352c1.407-.553,2.864-.8,3.919-1.96a3.061,3.061,0,0,0,.3-3.919,3.24,3.24,0,0,0-3.015-.854,2.179,2.179,0,0,0-.251.05,13.2,13.2,0,0,0-3.216,1.457,17.146,17.146,0,0,1-7.436,1.507" transform="translate(-159.208 -86.557)" fill="#fff"/><path d="M1190.378,424.8c-2.01.854-4.271.8-6.431,1a1.117,1.117,0,0,0-.653.4.664.664,0,0,0-.1.6c0,.05.2.452.3.352a.945.945,0,0,0-.4.854c0,.3.3.653.6.6a.393.393,0,0,0-.05.4c.05.151.2.2.3.3a2.111,2.111,0,0,0,1.055.3c-.553,0-.05.754.151.9a4.939,4.939,0,0,0,1.708.352,12.246,12.246,0,0,0,3.819-.251c1.909-.452,3.718-1.457,5.577-1.96a26.886,26.886,0,0,1,2.763-.553,9.205,9.205,0,0,0,2.311-.352c1.407-.553,2.864-.8,3.919-1.96a3.061,3.061,0,0,0,.3-3.919,3.24,3.24,0,0,0-3.015-.854,2.179,2.179,0,0,0-.251.05,13.2,13.2,0,0,0-3.216,1.457,17.146,17.146,0,0,1-7.436,1.507" transform="translate(-159.208 -86.557)" fill="none" stroke="#011108" stroke-miterlimit="10" stroke-width="0.5"/><path d="M1183.725,371.364c3.015.352,11.707,2.261,15.174,4.974,2.311,1.809,3.919,4.773,3.216,7.637a7.662,7.662,0,0,1-3.568,4.371,20.734,20.734,0,0,1-5.427,2.01,26.266,26.266,0,0,1,1.809,9.195c0,.3,7.939-1.859,8.642-2.161a22.614,22.614,0,0,0,6.632-4.12,14.128,14.128,0,0,0,4.874-13.315c-1.658-9.8-11.255-16.43-20.349-19.344A60.549,60.549,0,0,0,1178.6,358.2" transform="translate(-156.976 -55.326)" fill="#009743"/><path d="M1183.725,371.364c3.015.352,11.707,2.261,15.174,4.974,2.311,1.809,3.919,4.773,3.216,7.637a7.662,7.662,0,0,1-3.568,4.371,20.734,20.734,0,0,1-5.427,2.01,26.266,26.266,0,0,1,1.809,9.195c0,.3,7.939-1.859,8.642-2.161a22.614,22.614,0,0,0,6.632-4.12,14.128,14.128,0,0,0,4.874-13.315c-1.658-9.8-11.255-16.43-20.349-19.344A60.549,60.549,0,0,0,1178.6,358.2" transform="translate(-156.976 -55.326)" fill="none" stroke="#011108" stroke-miterlimit="10" stroke-width="0.5"/><path d="M1186.5,437.652a14.48,14.48,0,0,0,5.125-.452Z" transform="translate(-160.907 -94.633)" fill="#fff"/><path d="M1186.5,437.652a14.48,14.48,0,0,0,5.125-.452" transform="translate(-160.907 -94.633)" fill="none" stroke="#011108" stroke-miterlimit="10" stroke-width="0.5"/><path d="M1184.3,435.354a23.22,23.22,0,0,0,5.979-.854Z" transform="translate(-159.813 -93.289)" fill="#fff"/><path d="M1184.3,435.354a23.22,23.22,0,0,0,5.979-.854" transform="translate(-159.813 -93.289)" fill="none" stroke="#011108" stroke-miterlimit="10" stroke-width="0.5"/><path d="M1183.9,432.355a24.768,24.768,0,0,0,6.331-.955Z" transform="translate(-159.614 -91.747)" fill="#fff"/><path d="M1183.9,432.355a24.768,24.768,0,0,0,6.331-.955" transform="translate(-159.614 -91.747)" fill="none" stroke="#011108" stroke-miterlimit="10" stroke-width="0.5"/><path d="M1161.854,483.831c-.1-5.376-.251-10.8-.854-16.631" transform="translate(-148.22 -109.559)" fill="none" stroke="#131834" stroke-miterlimit="10" stroke-width="0.5"/><path d="M1244.483,404.505a2.98,2.98,0,0,0,2.06,2.563,4.018,4.018,0,0,0,3.417-1.105,4.53,4.53,0,0,0,1.256-1.809C1252.623,399.782,1244.031,399.129,1244.483,404.505Z" transform="translate(-189.748 -76.459)" fill="#161111"/><path d="M1085.344,364.669a3.446,3.446,0,0,1,2.814,2.562,3.069,3.069,0,0,1-1.608,3.366,4.819,4.819,0,0,1-1.407.352,3.778,3.778,0,0,1-2.814-.854C1079.867,367.835,1082.48,364.267,1085.344,364.669Z" transform="translate(-108.589 -58.53)" fill="#161111"/><path d="M1172.179,392.857a25.37,25.37,0,0,0,.05,2.763c.05,2.261,1.457,5.075,4.221,4.572a2.821,2.821,0,0,0,1.809-1.306,6.513,6.513,0,0,0,.754-2.161c.251-1.256.2-2.562.352-3.819C1178.661,392.857,1172.179,392.757,1172.179,392.857Z" transform="translate(-153.772 -72.549)" fill="#161111"/><path d="M1160.406,488.21c-.251,1.457-.452,2.914-.653,4.371-.2,1.507-.251,3.065-.452,4.572-.1.653-.151,1.256-.2,1.909v1.357c.4.05.6-1.859.7-2.261.251-.7.3-1.507.5-2.211.151-.553.4-2.161.6-2.713-.151-2.06-.05-4.773-.151-7.135C1160.658,486.8,1160.507,487.507,1160.406,488.21Z" transform="translate(-147.274 -118.963)" fill="#161111"/><path d="M1136.4,387.315q.075-1.507.151-3.015Z" transform="translate(-135.98 -68.312)" fill="#009743"/><path d="M1136.4,387.315q.075-1.507.151-3.015" transform="translate(-135.98 -68.312)" fill="none" stroke="#011108" stroke-miterlimit="10" stroke-width="0.5"/><path d="M869.3,658.5h207.111" transform="translate(-3.085 -204.74)" fill="none" stroke="#011108" stroke-miterlimit="10" stroke-width="0.5"/></g></svg>