<svg width="34" height="34" viewBox="0 0 34 34" fill="none" xmlns="http://www.w3.org/2000/svg">
<circle opacity="0.1" cx="17" cy="17" r="17" fill="#009743"/>
<path d="M19.75 11H13.25C11.4551 11 10 12.4551 10 14.25V20.75C10 22.5449 11.4551 24 13.25 24H19.75C21.5449 24 23 22.5449 23 20.75V14.25C23 12.4551 21.5449 11 19.75 11Z" stroke="#009743" stroke-width="1.5" stroke-linecap="round" stroke-linejoin="round"/>
<path d="M19.1001 17.0905C19.1803 17.6314 19.0879 18.1839 18.836 18.6693C18.5842 19.1547 18.1856 19.5484 17.6972 19.7942C17.2087 20.0401 16.6551 20.1257 16.1152 20.0388C15.5752 19.9519 15.0764 19.697 14.6897 19.3103C14.303 18.9236 14.0481 18.4248 13.9612 17.8849C13.8744 17.345 13.9599 16.7914 14.2058 16.3029C14.4517 15.8144 14.8453 15.4159 15.3307 15.164C15.8162 14.9121 16.3686 14.8197 16.9096 14.9C17.4614 14.9818 17.9723 15.2389 18.3667 15.6334C18.7612 16.0278 19.0183 16.5387 19.1001 17.0905Z" stroke="#009743" stroke-width="1.5" stroke-linecap="round" stroke-linejoin="round"/>
<path d="M20.075 13.925H20.0805" stroke="#009743" stroke-width="1.5" stroke-linecap="round" stroke-linejoin="round"/>
</svg>
