<svg xmlns="http://www.w3.org/2000/svg" width="31.5" height="31.5" viewBox="0 0 31.5 31.5"><g transform="translate(0.25 1.125)"><path d="M515,160c-4.074,0-4.584.017-6.184.09a11.018,11.018,0,0,0-3.641.7,7.673,7.673,0,0,0-4.387,4.387,11.005,11.005,0,0,0-.7,3.641c-.072,1.6-.09,2.111-.09,6.184s.017,4.584.09,6.184a11.019,11.019,0,0,0,.7,3.641,7.676,7.676,0,0,0,4.387,4.388,11.038,11.038,0,0,0,3.641.7c1.6.073,2.111.09,6.184.09s4.584-.018,6.184-.09a11.019,11.019,0,0,0,3.641-.7,7.677,7.677,0,0,0,4.387-4.387,11.038,11.038,0,0,0,.7-3.641c.073-1.6.09-2.111.09-6.184s-.018-4.584-.09-6.184a11.015,11.015,0,0,0-.7-3.641,7.673,7.673,0,0,0-4.387-4.387,11.007,11.007,0,0,0-3.641-.7C519.584,160.018,519.074,160,515,160Zm10.081,6.4a1.8,1.8,0,1,1-1.8-1.8A1.8,1.8,0,0,1,525.081,166.4Z" transform="translate(-499.5 -160.375)" fill="none" stroke="#131313" stroke-linejoin="bevel" stroke-width="1.5" fill-rule="evenodd"/><g transform="translate(8 7.125)" fill="none" stroke="#131313" stroke-width="1.5"><circle cx="7.5" cy="7.5" r="7.5" stroke="none"/><circle cx="7.5" cy="7.5" r="6.75" fill="none"/></g></g></svg>