<svg width="34" height="34" viewBox="0 0 34 34" fill="none" xmlns="http://www.w3.org/2000/svg">
<circle opacity="0.1" cx="17" cy="17" r="17" fill="#009743"/>
<path d="M19.4 14.5999C20.3548 14.5999 21.2705 14.9791 21.9456 15.6543C22.6207 16.3294 23 17.2451 23 18.1998V22.3998H20.6V18.1998C20.6 17.8816 20.4736 17.5763 20.2485 17.3513C20.0235 17.1263 19.7183 16.9998 19.4 16.9998C19.0818 16.9998 18.7765 17.1263 18.5515 17.3513C18.3265 17.5763 18.2 17.8816 18.2 18.1998V22.3998H15.8V18.1998C15.8 17.2451 16.1793 16.3294 16.8545 15.6543C17.5296 14.9791 18.4452 14.5999 19.4 14.5999V14.5999Z" stroke="#009743" stroke-linecap="round" stroke-linejoin="round"/>
<path d="M13.4 15.1997H11V22.3996H13.4V15.1997Z" stroke="#009743" stroke-linecap="round" stroke-linejoin="round"/>
<path d="M12.2 13.4C12.8627 13.4 13.4 12.8627 13.4 12.2C13.4 11.5373 12.8627 11 12.2 11C11.5373 11 11 11.5373 11 12.2C11 12.8627 11.5373 13.4 12.2 13.4Z" stroke="#009743" stroke-linecap="round" stroke-linejoin="round"/>
</svg>
