<svg xmlns="http://www.w3.org/2000/svg" width="30" height="30.125" viewBox="0 0 30 30.125"><g transform="translate(-0.5 -0.5)" fill="none" stroke-linecap="round"><path d="M25.648,30.625H5.477A4.975,4.975,0,0,1,.5,25.648V5.477A4.975,4.975,0,0,1,5.477.5h20.04a4.975,4.975,0,0,1,4.977,4.977v20.04a4.82,4.82,0,0,1-4.846,5.108ZM5.477,1.81A3.661,3.661,0,0,0,1.81,5.477v20.04a3.661,3.661,0,0,0,3.667,3.667h20.04a3.661,3.661,0,0,0,3.667-3.667V5.477A3.661,3.661,0,0,0,25.517,1.81Z" stroke="none"/><path d="M 25.64823150634766 30.62548065185547 L 5.477251052856445 30.62548065185547 C 2.72667121887207 30.62548065185547 0.5000012516975403 28.3988208770752 0.5000012516975403 25.64823150634766 L 0.5000012516975403 5.477251052856445 C 0.5000012516975403 2.72667121887207 2.72667121887207 0.5000012516975403 5.477251052856445 0.5000012516975403 L 25.51725196838379 0.5000012516975403 C 28.26783180236816 0.5000012516975403 30.4945011138916 2.72667121887207 30.4945011138916 5.477251052856445 L 30.4945011138916 25.51725196838379 C 30.62548065185547 28.3988208770752 28.3988208770752 30.62548065185547 25.64823150634766 30.62548065185547 Z M 5.477251052856445 1.80980122089386 C 3.381571292877197 1.80980122089386 1.80980122089386 3.512551307678223 1.80980122089386 5.477251052856445 L 1.80980122089386 25.51725196838379 C 1.80980122089386 27.61294174194336 3.512551307678223 29.18470191955566 5.477251052856445 29.18470191955566 L 25.51725196838379 29.18470191955566 C 27.61294174194336 29.18470191955566 29.18470191955566 27.4819507598877 29.18470191955566 25.51725196838379 L 29.18470191955566 5.477251052856445 C 29.18470191955566 3.381571292877197 27.4819507598877 1.80980122089386 25.51725196838379 1.80980122089386 L 5.477251052856445 1.80980122089386 Z" stroke="none" fill="#131313"/></g><g transform="translate(3.255 2.969)"><g transform="translate(-4.282 -1.408)" fill="none" stroke-linecap="round"><path d="M10.465,25.595H5.673a.73.73,0,0,1-.773-.773V9.673A.73.73,0,0,1,5.673,8.9h4.792a.73.73,0,0,1,.773.773V24.822A.73.73,0,0,1,10.465,25.595ZM6.446,24.049H9.692v-13.6H6.446Z" stroke="none"/><path d="M 10.4649772644043 25.59494018554688 L 5.672916889190674 25.59494018554688 C 5.209167003631592 25.59494018554688 4.899996757507324 25.28577041625977 4.899996757507324 24.82203102111816 L 4.899996757507324 9.672910690307617 C 4.899996757507324 9.209160804748535 5.209167003631592 8.90000057220459 5.672916889190674 8.90000057220459 L 10.4649772644043 8.90000057220459 C 10.92872714996338 8.90000057220459 11.23789691925049 9.209160804748535 11.23789691925049 9.672910690307617 L 11.23789691925049 24.82203102111816 C 11.23789691925049 25.28577041625977 10.92872714996338 25.59494018554688 10.4649772644043 25.59494018554688 Z M 6.445827007293701 10.44583129882812 L 6.445827007293701 24.04911041259766 L 9.69206714630127 24.04911041259766 L 9.69206714630127 10.44583129882812 L 6.445827007293701 10.44583129882812 Z" stroke="none" fill="#131313"/></g><g transform="translate(-2.21 -1.462)" fill="none" stroke-linecap="round"><path d="M25,25.65h-5.41a.73.73,0,0,1-.773-.773V18.384c0-1.7-.618-2.628-2.01-2.628a2.04,2.04,0,0,0-1.855,1.391v7.729a.73.73,0,0,1-.773.773H8.773c-.155,0-.464-.155-.618-.155S8,25.031,8,24.877V9.882a.929.929,0,0,1,.155-.618,1.172,1.172,0,0,1,.618-.309h5.41a.73.73,0,0,1,.773.773v.309A7.289,7.289,0,0,1,18.975,8.8c3.246,0,6.8,2.01,6.8,7.575v8.347A.869.869,0,0,1,25,25.65ZM20.367,24.1h3.865V16.529c0-3.865-1.855-6.029-5.256-6.029-2.473,0-3.865,1.237-4.019,2.01a.751.751,0,0,1-.927.464.707.707,0,0,1-.618-.773V10.655H9.546v13.6H13.41V18.075a4.28,4.28,0,0,1,.155-1.391,3.421,3.421,0,0,1,3.246-2.319c2.164,0,3.555,1.546,3.555,4.174V24.1Z" stroke="none"/><path d="M 25.00409698486328 25.64952087402344 L 19.59370803833008 25.64952087402344 C 19.12995719909668 25.64952087402344 18.82079696655273 25.34036064147949 18.82079696655273 24.87660980224609 L 18.82079696655273 18.38413047790527 C 18.82079696655273 16.68371963500977 18.20246696472168 15.7562198638916 16.81121826171875 15.7562198638916 C 15.7291374206543 15.7562198638916 15.26538753509521 16.52914047241211 14.95621776580811 17.14747047424316 L 14.95621776580811 24.87660980224609 C 14.95621776580811 25.34036064147949 14.64705753326416 25.64952087402344 14.18330764770508 25.64952087402344 L 8.772917747497559 25.64952087402344 C 8.618328094482422 25.64952087402344 8.309167861938477 25.49493980407715 8.154587745666504 25.49493980407715 C 7.999997615814209 25.49493980407715 7.999997615814209 25.03119087219238 7.999997615814209 24.87660980224609 L 7.999997615814209 9.882080078125 C 7.999997615814209 9.727499961853027 7.999997615814209 9.418330192565918 8.154587745666504 9.263750076293945 C 8.309167861938477 9.109169960021973 8.618328094482422 8.954580307006836 8.772917747497559 8.954580307006836 L 14.18330764770508 8.954580307006836 C 14.64705753326416 8.954580307006836 14.95621776580811 9.263750076293945 14.95621776580811 9.727499961853027 L 14.95621776580811 10.03666019439697 C 15.88371753692627 9.418330192565918 17.27496719360352 8.800000190734863 18.97537803649902 8.800000190734863 C 22.22161865234375 8.800000190734863 25.77701759338379 10.80957984924316 25.77701759338379 16.37455940246582 L 25.77701759338379 24.72201919555664 C 25.77701759338379 25.34036064147949 25.31326866149902 25.64952087402344 25.00409698486328 25.64952087402344 Z M 9.545827865600586 10.65499973297119 L 9.545827865600586 24.25827980041504 L 13.41039752960205 24.25827980041504 L 13.41039752960205 18.07497024536133 C 13.41039752960205 17.61121940612793 13.41039752960205 17.14747047424316 13.56497764587402 16.68372917175293 C 14.18330764770508 15.13790035247803 15.41997814178467 14.364990234375 16.81121826171875 14.364990234375 C 18.97537803649902 14.364990234375 20.36661720275879 15.91081047058105 20.36661720275879 18.53871917724609 L 20.36661720275879 24.10370063781738 L 20.36661720275879 24.10368919372559 L 20.36661720275879 24.10370063781738 L 24.23118782043457 24.10368919372559 L 24.23118782043457 16.52914047241211 C 24.23118782043457 12.66456985473633 22.37619781494141 10.50041007995605 18.97537803649902 10.50041007995605 C 16.50204849243164 10.50041007995605 15.11080741882324 11.73707962036133 14.95621776580811 12.50998973846436 C 14.80163764953613 12.81915092468262 14.49247169494629 13.12832164764404 14.02872753143311 12.97373962402344 C 13.719557762146 12.97373962402344 13.41039752960205 12.66456985473633 13.41039752960205 12.20081996917725 L 13.41039752960205 10.65499973297119 L 9.545827865600586 10.65499973297119 Z" stroke="none" fill="#131313"/></g><g transform="translate(-4.5 -4.3)" fill="none" stroke-linecap="round"><path d="M8.21,11.1a3.414,3.414,0,1,1,0-6.8,3.505,3.505,0,0,1,3.71,3.4A3.418,3.418,0,0,1,8.21,11.1Zm0-5.256A1.966,1.966,0,0,0,6.046,7.7a1.83,1.83,0,0,0,2.01,1.855A1.966,1.966,0,0,0,10.22,7.7c.155-1.082-.773-1.855-2.01-1.855Z" stroke="none"/><path d="M 8.209986686706543 11.10164070129395 C 6.04582691192627 11.10164070129395 4.499996662139893 9.710400581359863 4.499996662139893 7.700820446014404 C 4.499996662139893 5.691240310668945 6.04582691192627 4.300000667572021 8.209986686706543 4.300000667572021 C 10.37414646148682 4.300000667572021 11.7653865814209 5.691240310668945 11.91997623443604 7.700820446014404 C 11.91997623443604 9.710400581359863 10.37414646148682 11.10164070129395 8.209986686706543 11.10164070129395 Z M 8.209986686706543 5.84583044052124 C 6.973326683044434 5.84583044052124 6.04582691192627 6.618740558624268 6.04582691192627 7.700820446014404 C 6.04582691192627 8.782900810241699 6.818746566772461 9.55580997467041 8.05540657043457 9.55580997467041 C 9.29206657409668 9.55580997467041 10.21956634521484 8.782900810241699 10.21956634521484 7.700820446014404 C 10.37414646148682 6.618740558624268 9.446646690368652 5.84583044052124 8.209986686706543 5.84583044052124 Z" stroke="none" fill="#131313"/></g></g></svg>