<svg width="432" height="424" viewBox="0 0 432 424" fill="none" xmlns="http://www.w3.org/2000/svg">
<g clip-path="url(#clip0_12_5231)">
<path d="M110.9 390.5C110.4 388.2 110.1 385.9 110 383.5C109.8 375.7 111.8 367.3 108 360.5C104.3 353.8 96.1001 351 88.5001 349.9C65.0001 346.5 38.1001 353.2 19.3001 338.7C-2.69994 321.7 -2.59994 292.3 3.90006 267.6C7.10006 255.5 11.7001 242.8 17.6001 231.8C24.4001 219.2 37.6001 213.7 45.0001 201.9C51.2001 192.1 50.3001 179.2 46.2001 168.3C42.2001 157.4 35.4001 147.8 30.0001 137.6C23.6001 125.5 19.1001 112 19.5001 98.3C20.0001 79.6 28.6001 61.8 46.4001 54.5C62.1001 48 81.0001 52.3 95.8001 42.7C105.5 36.3 110.7 25.1 118.6 16.6C131.6 2.7 152.5 -3.3 170.9 1.8C185 5.7 196.8 15.3 208.9 23.5C221 31.7 235 39 249.6 37.5C261.8 36.2 272.4 28.9 283.4 23.4C328.4 1.1 400.2 9.7 418.8 63.2C425.9 83.7 423.2 107.1 412.7 126.1C408.7 133.4 403.6 140.2 400.5 147.9C397.4 155.7 396.7 165 401.2 172C405 177.9 411.8 181 417.4 185.3C429.9 194.8 430.6 216.1 425.4 229.6C421.4 240 413 248.7 411.2 259.7C408.6 275 419.1 289.1 423.5 304C436.2 346.7 397.5 381.1 362.3 397.7C341.3 407.5 315.4 409.7 295.4 397.9C286 392.3 278.4 384.1 269.1 378.2C256.4 370.1 239.6 367 226 373.5C211.1 380.7 203.3 397.2 191.3 408.5C178.3 420.7 159.1 426.7 141.9 422.1C127 417.9 114.4 405.4 110.9 390.5Z" fill="#E7FFF0"/>
<path d="M275.7 250.6C275.1 253.7 273.9 256.7 272.3 258.9C265.5 268.7 248.3 280.6 236.2 275.6C229.9 273 226 264.4 229.9 258.8C232.7 254.7 238.2 253.5 242.3 250.7C249.5 245.7 252.6 235.5 260.9 232.7C274.2 228.1 277.9 240.2 275.7 250.6Z" fill="#E0ADAD"/>
<path d="M56.3 237.1C56.3 237.8 56.3 238.5 56 239.2C55.4 241.2 53.9 242.8 52.4 244.3C46.4 250.3 24.7 274.9 19.8 255.5C17.2 244.9 31.8 230.7 41 228.9C44.6 228.2 48.5 228.3 51.7 230.1C54.3 231.5 56.1 234.2 56.3 237.1Z" fill="#E0ADAD"/>
<path d="M313.5 347.7C310.6 349.6 307.4 351 304.6 352.9C301.3 355.2 295.8 360.3 291.4 359.4C287.9 358.7 285.6 354.1 285.9 350.9C286.2 347.6 288.2 344.8 290.6 342.6C293 340.4 295.9 338.8 298.5 336.9C300.6 335.4 302.6 333.7 304.9 332.5C307.5 331.2 310.3 330.6 313.2 330.7C315.5 330.8 317.9 331.4 319.5 333.1C321.3 335.1 321.4 338.2 320.3 340.6C319.2 343 317.2 345 315.1 346.5C314.6 347 314 347.4 313.5 347.7Z" fill="#E0ADAD"/>
<path d="M145.9 109.4C145.7 109.6 145.4 109.9 145.2 110.1C142.5 112.9 139.7 115.8 136.1 117.2C132.5 118.6 127.8 118.1 125.4 115C124.6 114 124.2 112.8 123.9 111.6C122.8 106.3 126.1 100.9 130.2 97.4C135.7 92.6 142.1 89.3 147.9 84.6C151.4 81.8 155.4 79.3 159.9 79C164.4 78.7 169.3 81.3 170.4 85.6C171.2 88.8 169.8 92.3 167.6 94.7C165.4 97.2 162.4 98.8 159.5 100.4C154.7 103.2 149.9 105.5 145.9 109.4Z" fill="#E0ADAD"/>
<path d="M317.6 29.3C315.8 27.5 315.8 24.5 317.6 22.7C319.4 20.9 322.4 20.9 324.2 22.7" fill="#011108"/>
<path d="M406.9 131.2C409.496 131.2 411.6 129.096 411.6 126.5C411.6 123.904 409.496 121.8 406.9 121.8C404.304 121.8 402.2 123.904 402.2 126.5C402.2 129.096 404.304 131.2 406.9 131.2Z" stroke="#011108" stroke-width="0.5" stroke-miterlimit="10"/>
<path d="M219.7 210.1C224.781 210.1 228.9 205.981 228.9 200.9C228.9 195.819 224.781 191.7 219.7 191.7C214.619 191.7 210.5 195.819 210.5 200.9C210.5 205.981 214.619 210.1 219.7 210.1Z" stroke="#011108" stroke-width="0.5" stroke-miterlimit="10"/>
<path d="M202.5 210.7C204.378 210.7 205.9 209.178 205.9 207.3C205.9 205.422 204.378 203.9 202.5 203.9C200.622 203.9 199.1 205.422 199.1 207.3C199.1 209.178 200.622 210.7 202.5 210.7Z" fill="#011108"/>
<path d="M61.2999 107.8C63.1777 107.8 64.6999 106.278 64.6999 104.4C64.6999 102.522 63.1777 101 61.2999 101C59.4221 101 57.8999 102.522 57.8999 104.4C57.8999 106.278 59.4221 107.8 61.2999 107.8Z" fill="#011108"/>
<path d="M332.2 18.9L306.8 44.3" stroke="#011108" stroke-width="0.5" stroke-miterlimit="10"/>
<path d="M342.3 14.6L316.9 40" stroke="#011108" stroke-width="0.5" stroke-miterlimit="10"/>
<path d="M431.1 118.1L406.9 142.2" stroke="#011108" stroke-width="0.5" stroke-miterlimit="10"/>
<path d="M250.9 261.6L226.8 285.7" stroke="#011108" stroke-width="0.5" stroke-miterlimit="10"/>
<path d="M70.3003 122.2L74.9003 113.1L81.3003 122.2L86.3003 113.1L91.4003 122.2L96.7003 113.1L102.2 122.2L107.1 113.1" stroke="#011108" stroke-width="0.5" stroke-miterlimit="10"/>
<path d="M159 125.9L204.8 117.3L185.6 152L172.1 137L168.5 143.7L166 131.5L159 125.9Z" fill="#DBF6DD" stroke="#011108" stroke-width="0.5" stroke-miterlimit="10"/>
<path d="M197.9 122.2L172.1 137L170.4 149.4L162.6 144.3L166 131.5L197.9 122.2Z" fill="#011108"/>
<path d="M180 411.6L197.2 285.6C197.2 285.2 197.8 285.2 197.9 285.6L216.6 411.6" stroke="#E0ADAD" stroke-width="3" stroke-miterlimit="10"/>
<path d="M86.6001 411L107.3 327.4L136 411.5" stroke="#E0ADAD" stroke-width="3" stroke-miterlimit="10"/>
<path d="M162.9 273.2C162.7 267.6 163 262 164.6 256.6C165.5 253.6 167.2 249.4 170 247.7C173 245.9 177.7 246.7 180.5 248.6C184.2 251.1 186.1 255.7 186.3 260.1C187 272.1 182 284.7 179.1 296.2C178.5 298.6 177.7 301.3 175.7 302.8C173 304.9 169.1 304.2 166.1 302.7C165.4 302.3 164.6 301.9 164.1 301.2C163.3 300.1 163.4 298.7 163.5 297.3C163.7 294.4 163.7 291.6 163.7 288.7C163.6 283.5 163.1 278.3 162.9 273.2Z" fill="white" stroke="#011108" stroke-width="0.5" stroke-miterlimit="10"/>
<path d="M173.1 290.4C170.2 289.8 167.3 289 164.4 288.2C164.2 288.1 163.9 288.1 163.7 288C163.7 288.2 163.7 288.4 163.7 288.7C163.8 291.6 163.7 294.4 163.5 297.3C163.4 298.6 163.3 300.1 164.1 301.2C164.6 301.9 165.3 302.3 166.1 302.7C169.1 304.2 173 304.9 175.7 302.8C177.7 301.3 178.4 298.6 179.1 296.2C179.5 294.7 179.9 293.2 180.3 291.6C177.9 291.3 175.5 290.9 173.1 290.4Z" fill="#009743" stroke="#011108" stroke-width="0.5" stroke-miterlimit="10"/>
<path d="M175 349.3C179.1 348.3 178.8 347.6 182.8 346.2C182.8 364.5 187.7 395.9 187.6 401.1C182.5 401.5 179.8 405.9 174.6 405.8C170.5 399.3 167.1 382.4 164.8 375.4C164.3 373.8 167 359.7 164.4 350.5C169.6 349.6 170 350.5 175 349.3Z" fill="white" stroke="#011108" stroke-width="0.5" stroke-miterlimit="10"/>
<path d="M181 385.9C176.8 386.6 172.6 387.4 168.4 387.9C170.2 394.7 172.4 402 174.8 405.8C180 406 182.7 401.5 187.8 401.1C187.8 399 187.1 392.9 186.2 385.1C184.4 385.3 182.7 385.6 181 385.9Z" fill="#009743" stroke="#011108" stroke-width="0.5" stroke-miterlimit="10"/>
<path d="M79.1 331C82.4 332.2 85.8 333.2 89.2 334.1C95.8 334.6 102.5 334.8 109.2 334.7C119.6 334.6 130.2 334.2 140.4 332.3C145.5 331.4 150.5 330 155.3 327.9C159.3 326.2 163.8 323.9 166.6 320.4C168.9 317.6 171 313 171.4 308.7C167.4 296.1 156 294.3 145.8 288.5C134.7 282.2 125.3 273.1 118.7 262.2C112.6 252.1 109 240.8 104.1 230.1C99.5 220.1 93.6 215 83.1 211.3C75.3 208.6 66.8 206.7 59 209.3C48 213.2 41.5 224.7 39.6 236C36.7 253.5 38.7 275 44.2 291.9C49.4 308 62.7 325.2 79.1 331Z" fill="#009743" stroke="#011108" stroke-width="0.5" stroke-miterlimit="10"/>
<path d="M106.8 315.5C110.2 315.7 113.7 316 117.1 316.5C120.1 316.9 123.2 317.3 125.8 319C126.4 319.4 127 319.9 126.9 320.6C126.8 321.2 126.3 321.6 125.7 321.9C121.1 324.5 114.5 327.2 109 326.6C104.2 326 98.5998 326.3 93.9998 324.8C91.6998 324 89.3998 322.8 88.0998 320.8C87.0998 319.3 86.2998 315.8 88.4998 314.8C89.9998 314.2 94.4998 315.3 96.1998 315.3C99.7998 315.2 103.3 315.3 106.8 315.5Z" fill="#011108"/>
<path d="M187.2 271.7C185.9 277.2 184.6 283.2 183.1 288.6C175.9 287.1 168.6 285.2 161.3 283.7C157.6 282.9 157.5 288.8 156 291.1C154.5 293.4 152.5 295.2 150.4 296.9C146.1 300.4 139.5 301.7 134 301.6C127.5 301.5 120.7 298.5 117.8 292.6C115.5 287.9 116.1 282.2 117.5 277.1C122.6 258.4 136.4 243.4 151.1 230.8C158.4 224.6 167.5 220 177.2 223.4C192.9 228.9 192.3 246.8 189.6 260.3C188.8 264.1 188 267.9 187.2 271.7Z" fill="#7696EA" stroke="#011108" stroke-width="0.5" stroke-miterlimit="10"/>
<path d="M181.2 234.2C184.1 234.2 186.8 232.2 188.4 229.7C188.8 229 189.2 228.1 189.3 227.3C189.5 225.9 188.9 224.4 188.1 223.2C185.6 219 178.7 214.1 175.3 220.1C172.5 225.2 174.2 234.1 181.2 234.2Z" fill="#011108"/>
<path d="M165.2 310.9C171.2 312.3 177.3 312.9 183.3 313.8C186.5 314.3 193 316.1 196 313.9C199.8 311.1 193.6 309.4 190.8 307.9C186 305.2 181 302.6 176.2 300C171.7 297.6 165.9 292.4 161.3 297.4C158.3 300.6 158 305.8 157.7 309.9C160.2 309.9 162.7 310.3 165.2 310.9Z" fill="#011108"/>
<path d="M68.5002 289.4C69.9002 283.5 75.9002 283.6 83.6002 284.3C91.9002 285.1 100.2 284.1 108.5 283.6C123.2 282.7 137.9 283.5 152.6 284.3C158.3 284.6 164.3 285 169.3 287.8C174.3 290.7 177.8 295.8 179.8 301.2C181.8 306.6 182.5 312.4 183.2 318.2C185 333.4 186.8 348.6 188.6 363.8C189.1 367.7 189.6 371.5 190 375.4C190.4 379.8 190.2 379.7 185.8 380.4C178.4 381.5 171.1 382.5 163.7 383.5C160.5 370.6 157.2 357.7 155.7 344.5C155.5 342.7 151.8 320.8 151.2 320.9C138.1 323 124.7 323.5 111.4 322.4C102 321.6 92.5002 320 84.3002 315.4C77.1002 311.3 69.7002 303.7 68.5002 295.2C68.1002 292.8 68.2002 290.9 68.5002 289.4Z" fill="#7696EA" stroke="#011108" stroke-width="0.5" stroke-miterlimit="10"/>
<path d="M175.8 411.7C175.9 411.7 176 411.8 176.1 411.8H180.5C189.9 411.2 199.3 411.9 208.7 411.2C210 411.1 211.4 410.9 212.5 410.1C214.9 408.2 212.8 405.4 210.6 404.5C202.8 401.4 192.7 401.9 187.5 394.2C182.5 397.1 177.2 399.5 171.7 401.4C172.3 401.2 172.7 406 172.8 406.5C173.3 408.3 174.1 410.9 175.8 411.7Z" fill="#011108"/>
<path d="M88.4998 190.7C85.1998 191.2 81.8998 192 78.8998 193.5C74.6998 195.5 71.0998 198.4 67.9998 201.9C62.9998 207.6 60.9998 215.2 59.2998 222.4C57.0998 231.6 54.8998 240.9 52.7998 250.1C52.2998 252.3 51.7998 254.5 51.6998 256.7C51.5998 260.3 52.5998 264.8 53.4998 268.3C53.8998 270 54.4998 271 55.3998 271.5C59.0998 274.1 62.1998 277.5 63.6998 281.8C64.1998 283.2 64.6998 284.6 65.1998 286.1C65.7998 287.7 66.0998 288.8 66.4998 289.6C68.8998 289.6 71.2998 289.6 73.6998 289.6C81.8998 289.6 89.1998 289.7 96.9998 287.4C104.9 285.1 113.4 285.5 121.4 283.4C122 283.2 122.7 283 123 282.4C123.3 281.6 123.1 279.5 123.2 278.6C123.3 276.6 123.4 274.5 123.5 272.5C123.6 268.5 123.5 264.6 123.5 260.6C123.4 252.9 123.1 245.1 123.6 237.4C124.1 231.9 124.3 226.3 124.4 220.8C132.5 220.4 140.7 218.9 148.7 217.9C155.7 217 162.6 216.5 167.5 210.8C168 210.2 168.5 209.5 168.9 208.7C172.4 201.9 167.3 194.3 160.2 193.1C158.8 192.8 157.3 192.8 155.9 192.8C144.3 192.8 132.8 192.4 121.2 191.9C114.7 191.6 110.2 191.8 103.9 190.5C98.4998 189.6 93.6998 190.7 88.4998 190.7Z" fill="#FFCB0A" stroke="#011108" stroke-width="0.5" stroke-miterlimit="10"/>
<path d="M152.7 197.8C153 193.2 154.4 188.4 155.4 184.1C156.9 177.7 158.6 171.4 159.9 165C161 159.4 161.7 153.6 161.5 147.9C161.3 143.5 162.5 138.9 165.5 135.6C166 135.1 166.5 134.6 167.1 134.3C167.8 134 168.6 134 169.4 134C171.4 134.1 173.1 134.4 175 135.1C174.3 135.6 173.6 136 172.9 136.5C172.3 136.9 172.2 137 172.7 137.5C173.2 138.1 174 138.6 174.3 139.3C175 140.4 174.2 142.6 173.8 143.8C173.3 145.4 172.5 146.9 171.5 148.3C171.1 148.8 170.8 149.3 170.6 149.9C170.5 150.3 170.5 150.6 170.5 151C170.4 155.8 170.8 160.8 171.5 165.5C172.2 170.6 172.7 175.8 173 181C173 181.9 173.1 182.8 173.1 183.7C173.4 192.4 173.4 201.3 168.7 208.8C168 209.9 167.2 211 166.2 211.9C160.5 216.9 154.2 209 153.1 203.7C152.7 201.8 152.6 199.8 152.7 197.8Z" fill="white" stroke="#011108" stroke-width="0.5" stroke-miterlimit="10"/>
<path d="M87.8001 217.8C86.5001 219.4 85.2001 220.9 84.5001 222.8C84.1001 223.9 83.9001 225 83.7001 226.2C81.6001 237.7 79.7001 249.4 76.6001 260.7" stroke="#131834" stroke-width="0.5" stroke-miterlimit="10"/>
<path d="M165.1 239.4C162.3 251.3 156 269.3 155.9 281.5" stroke="#131834" stroke-width="0.5" stroke-miterlimit="10"/>
<path d="M41.3999 279.3C61.2999 274.8 83.7999 271.1 101.8 279.5C113.5 285 121.4 295.2 123.6 306.1C125.8 317 124 322.2 117.3 331.8" stroke="#011108" stroke-width="3" stroke-miterlimit="10"/>
<path d="M51.1001 314.4C54.2001 322.8 61.3001 329.2 70.1001 331.2H70.2001C83.0001 334.2 96.1001 334.8 109.2 334.7C115.7 334.7 122.3 334.5 128.8 333.9C127.4 333.3 126 332.7 124.6 332C112.5 326.1 100.6 319.3 90.3001 310.5C80.7001 302.4 72.1001 293 65.3001 282.4C62.0001 277.3 59.3001 271.9 56.7001 266.4C54.2001 261.2 51.7001 256 49.5001 250.7C46.3001 243.3 43.2001 235.1 42.3001 226.9C41.1001 229.8 40.3001 232.9 39.7001 236C36.8001 253.5 38.8001 275 44.3001 291.9C46.5001 298.9 48.3001 307 51.1001 314.4Z" fill="#009743" stroke="#011108" stroke-width="0.5" stroke-miterlimit="10"/>
<path d="M156.2 285.5C143.4 283.5 135.1 285.3 118.6 285.3" stroke="#131834" stroke-width="0.5" stroke-miterlimit="10"/>
<path d="M126.8 278.5C122.6 276.4 118.2 274.7 113.6 273.4C111.5 272.8 109.4 272.3 107.3 271.5C105 270.6 102.9 269.3 100.7 268C96.5001 265.4 92.3001 262.9 88.2001 260.3C84.8001 258.2 81.4001 256.2 77.9001 254.4C76.1001 253.5 74.2001 252.7 72.3001 252C67.1001 250.2 58.0001 247.9 53.6001 252.3C52.7001 253.2 52.0001 254.2 51.6001 255.3C53.9001 260.2 56.2001 265.2 58.7001 270C60.2001 270.8 61.8001 271.4 63.4001 271.9C69.9001 274 76.7001 274.9 83.5001 275.7C90.2001 276.5 97.1001 277 103 280.5C109.5 284.4 118.5 284.4 125.8 282.8C127.1 282.5 128.7 281.7 128.6 280.4C128.6 279.5 127.7 278.9 126.8 278.5Z" fill="white" stroke="#011108" stroke-width="0.5" stroke-miterlimit="10"/>
<path d="M24 411.6L42 285.6C42 285.2 42.6 285.2 42.7 285.6L62.3 411.6" stroke="#E0ADAD" stroke-width="3" stroke-miterlimit="10"/>
<path d="M209.1 281.7H30.8999V287.2H209.1V281.7Z" fill="#E0ADAD"/>
<path d="M210.5 281.7H29.6001" stroke="#131834" stroke-width="0.5" stroke-miterlimit="10"/>
<path d="M40 287.1H46.6" stroke="#131834" stroke-width="0.5" stroke-miterlimit="10"/>
<path d="M194.3 287.1H200.9" stroke="#131834" stroke-width="0.5" stroke-miterlimit="10"/>
<path d="M202.9 278.5H121.7C120.9 278.5 120.2 279 120.2 279.7V280.8C120.2 281.5 120.9 282 121.7 282H202.9V278.5Z" fill="#011108"/>
<path d="M202.8 281.1H131.8L138 240.3C138.2 238.9 139.4 237.8 140.8 237.8H206.2C207.9 237.8 209.2 239.3 208.9 241L202.8 281.1Z" fill="white" stroke="#011108" stroke-width="0.5" stroke-miterlimit="10"/>
<path d="M176.5 258.2L179.6 260.8" stroke="#131834" stroke-width="0.5" stroke-miterlimit="10"/>
<path d="M172.5 258.2L175.6 260.8" stroke="#131834" stroke-width="0.5" stroke-miterlimit="10"/>
<path d="M168.4 258.2L171.5 260.8" stroke="#131834" stroke-width="0.5" stroke-miterlimit="10"/>
<path d="M115.3 157.7C113.9 154.7 111.1 158.1 107.8 157.7C105 157.3 102.8 156.9 100.1 157.9C97.6998 158.8 95.4998 160.6 94.2998 162.9C93.9998 163.5 93.6998 164.2 93.4998 164.8C92.9998 166.7 92.5998 168.7 92.3998 170.7C92.1998 172.4 92.3998 174 92.4998 175.6C92.5998 176.3 92.6998 177 92.7998 177.6C92.7998 180.9 92.9998 184 91.5998 187.3C90.9998 188.8 90.0998 190.2 88.9998 191.4C88.5998 192 87.9998 192.5 87.2998 192.9C87.4998 193 87.6998 193.2 87.7998 193.4C90.9998 197.5 97.2998 198 102.1 197.6C104.4 197.4 107.2 196.9 109.6 195.8C107.7 193 108.5 189.9 109.3 186.3C109.4 186 109.8 184.9 110.1 183.7C111.4 183 112.6 182 113.5 180.5C114.8 178.5 115.4 176.2 115.9 173.9C116.6 170.3 116.8 160.9 115.3 157.7Z" fill="white" stroke="#011108" stroke-width="0.5" stroke-miterlimit="10"/>
<path d="M94.7998 175.2C95.0998 173.7 95.1998 172.1 95.7998 170.7C96.4998 169.2 97.9998 168.9 98.7998 167.6C100.4 164.9 100.3 161.6 103.7 160.1C107.2 158.5 111.5 160.8 115 159.4C117.3 158.6 118.9 156.2 118.9 153.8C118.9 152.5 118.5 151.3 118 150.1C117.4 148.7 116.7 147.3 115.4 146.4C113.7 145.2 111.4 145.1 109.4 145.5C107.3 145.9 105.3 146.6 103.2 146.6C100.5 146.6 97.8998 145.6 95.2998 146.1C92.7998 146.5 90.6998 148.4 89.8998 150.8C89.1998 153 89.0998 155.2 87.6998 157.1C86.2998 159.2 84.8998 160.9 84.7998 163.5C84.7998 165.7 86.3998 167.7 87.1998 169.7C87.8998 171.4 88.2998 173.3 89.0998 175C89.8998 176.7 91.3998 178.3 93.2998 178.4C93.5998 178.4 93.8998 178.4 94.0998 178.2C94.5998 177.9 94.5998 177.2 94.4998 176.6C94.4998 176.7 94.5998 176.1 94.7998 175.2Z" fill="#011108"/>
<path d="M103.1 183.3C103.2 183.3 103.4 183.4 103.5 183.4C106.1 183.9 108.9 184 111.4 183.1C112.1 183.2 112 183.8 111.9 184.8C111.7 186.2 111.6 187.7 111.5 189.1C108.6 187.1 105.8 185.2 102.9 183.2C103 183.3 103.1 183.3 103.1 183.3Z" fill="#011108"/>
<path d="M105.6 175.7C106.2 176.9 107.4 177.7 108.7 177.7C109.9 177.7 111.1 177 111.8 175.9L105.6 175.7Z" stroke="#011108" stroke-width="0.5" stroke-miterlimit="10"/>
<path d="M99.1998 170.8C98.5998 167.9 95.5998 165.5 92.5998 166.8C89.6998 168 88.6998 172.7 90.6998 175.1C91.7998 176.3 93.4998 176.9 95.0998 176.5" fill="white"/>
<path d="M99.1998 170.8C98.5998 167.9 95.5998 165.5 92.5998 166.8C89.6998 168 88.6998 172.7 90.6998 175.1C91.7998 176.3 93.4998 176.9 95.0998 176.5" stroke="#011108" stroke-width="0.5" stroke-miterlimit="10"/>
<path d="M93.7998 169.6C94.6998 169.5 95.6998 169.9 96.2998 170.6C96.8998 171.3 97.0998 172.4 96.7998 173.2" stroke="#011108" stroke-width="0.5" stroke-miterlimit="10"/>
<path d="M168 144.7C168.7 145.1 170.2 144.7 170.8 144.5C171.6 144.2 172.4 143.7 173 143C174.1 141.7 173.7 140.1 173 138.7C171.8 140 170.4 141.2 168.9 142.3C168.5 142.6 168 142.9 167.8 143.4C167.4 144 167.6 144.5 168 144.7Z" fill="white"/>
<path d="M168.7 142.1C168.6 142.1 168.4 142.2 168.3 142.2C167.9 141.1 167.9 140 167.6 138.9C167.4 138 167.2 137.1 167 136.1C166.8 135.2 166.6 134.3 166.4 133.4C166.3 132.8 165.8 131.6 166.4 131.2C166.6 131.1 166.8 131 167 131C168.2 130.8 169.5 130.6 170.8 130.7C172.1 130.8 173.3 131.2 174.3 132C174.9 132.5 175.4 133.2 175.3 134C175.2 134.8 174.5 135.4 173.8 135.9C173.3 136.2 172.8 136.6 172.4 137C172.3 137.1 172.9 137.8 172.9 138C172.9 138.4 172 139.2 171.7 139.5C170.9 140.5 169.9 141.7 168.7 142.1Z" fill="#011108"/>
<path d="M172.9 137.9C171.8 139.8 169.9 141.5 168.1 142.4" stroke="#011108" stroke-width="0.5" stroke-miterlimit="10"/>
<path d="M124.2 221.5C124.5 219.6 124.7 217.6 125 215.7Z" fill="#FFCB0A"/>
<path d="M124.2 221.5C124.5 219.6 124.7 217.6 125 215.7" stroke="#011108" stroke-width="0.5" stroke-miterlimit="10"/>
<path d="M110.9 191.7C110.1 191.5 109.2 191.3 108.4 191C108.4 193.1 107.5 194.9 105.7 196C103.8 197.1 101.3 197.2 99.2002 197C95.3002 196.6 90.2002 194.3 88.4002 190.5C87.2002 190.9 85.9002 191.3 84.7002 191.5C85.8002 193.5 86.9002 195.3 88.7002 196.7C89.8002 197.5 90.9002 198.2 92.1002 198.8C94.6002 200 97.3002 200.7 100.1 200.8C102.9 200.9 106 200.4 108.3 198.8C110.4 197.3 111.6 194.5 111.6 191.9C111.3 191.8 111.1 191.8 110.9 191.7Z" fill="#011108"/>
<path d="M166.6 294C167.1 296.7 168.9 299.4 171.6 300.2C178.6 302.4 183.7 293.8 179 288.5C174.9 283.8 165.3 287.2 166.6 294Z" fill="#011108"/>
<path d="M151.5 321.1C150.9 317.6 150.3 314 149.9 310.5C149.2 314.3 148.4 318 147.7 321.8C149 321.6 150.2 321.3 151.5 321.1Z" fill="#011108"/>
<path d="M156.6 174.7C156.6 174.7 156.6 174.8 156.5 174.8Z" fill="#011108"/>
<path d="M427.6 220.2C427.5 219.7 427.4 219.2 427.3 218.8C426.5 216.2 424.2 214.3 421.6 213.6C419 212.9 416.2 213.3 413.7 214.4C410.4 215.9 407.8 218.5 404.9 220.6C400.1 224 394.9 225.9 391.5 230.9C387.9 236.3 385 241.9 383.9 248.3C383.8 248.8 383.8 249.2 383.7 249.7C383.9 248 386.8 245.4 387.9 244.4C389.5 242.7 391.4 241.3 393.3 240.1C397.6 237.5 402.2 236.3 407.1 235.9C415.7 235.1 422.5 234.5 426.6 226C427.4 224 427.8 222.1 427.6 220.2Z" fill="#DBF6DD" stroke="#011108" stroke-width="0.5" stroke-miterlimit="10"/>
<path d="M407.9 226.8C400.2 230.1 392.4 234.4 387.6 241.5C382.3 249.3 380.4 257.6 379.6 266.9C378.9 273.9 378.3 281 377.6 288" stroke="#011108" stroke-width="0.5" stroke-miterlimit="10"/>
<path d="M394.6 179.2C391.2 177.2 386.5 177.2 382.9 179C378 181.4 374.8 186.4 373.2 191.6C371.6 196.8 371.4 202.3 370.9 207.8C370 218.5 368.3 229.3 369.3 240C369.7 245 371.1 249.8 372 254.7C372.3 256.4 373.2 263.6 375.4 263.7C376.1 263.7 376.7 263.3 377 262.7C377.1 262.4 377.5 262.4 377.8 262.5C378.2 262.6 378.6 262.6 379 262.4C379.6 262 380 261.4 380.3 260.7C384.7 251.2 388.4 241.3 391.2 231.2C392.5 226.7 393.8 222.2 394 217.6C394.2 212.9 394.7 208.1 396 203.5C397 199.9 398.6 196.4 399.3 192.7C400 189 399.9 184.9 397.7 181.8C396.8 180.7 395.8 179.8 394.6 179.2Z" fill="#DBF6DD" stroke="#011108" stroke-width="0.5" stroke-miterlimit="10"/>
<path d="M383.1 208.6L374.4 286.7" stroke="#1C0C03" stroke-width="0.5" stroke-miterlimit="10"/>
<path d="M365.4 240.6C362.5 232.2 356.2 225.8 348 225.2C345.1 225 342.1 225.2 339.2 224.7C336.4 224.2 333.6 223.1 330.8 223.6C324.7 224.8 322 233.2 325.7 238C327.6 240.5 330.8 241.9 333.9 242.4C337 242.9 340.2 242.7 343.4 242.8C347.4 242.9 351.5 243.6 355.1 245.4C361 248.4 364.3 256 366.4 262C367.1 263.8 367.7 265.1 367.8 268.1C367.4 266.5 368 263.5 368 261.8C368 259.5 368 257.2 367.9 255C367.7 250.7 367.2 246.3 366 242.2C365.7 241.7 365.5 241.2 365.4 240.6Z" fill="#FFCB0A" stroke="#011108" stroke-width="0.5" stroke-miterlimit="10"/>
<path d="M368.4 283.6C367.9 278.2 367.7 261.2 366.4 256C365.2 251.1 363.5 246.2 360.5 242.3C357.5 238.4 353.1 235.6 348.6 235.9" stroke="#1C0C03" stroke-width="0.5" stroke-miterlimit="10"/>
<path d="M358.8 273.6H391L389.1 288C388.1 295.8 382.1 301.6 375 301.6C368 301.6 362 295.9 360.9 288.1L358.8 273.6Z" fill="#E0ADAD"/>
<path d="M326 412.1V301.7H413.7V412.1" stroke="#011108" stroke-width="0.5" stroke-miterlimit="10"/>
<path d="M320 330.3H420.8" stroke="#011108" stroke-width="0.5" stroke-miterlimit="10"/>
<path d="M320 358.8H420.8" stroke="#011108" stroke-width="0.5" stroke-miterlimit="10"/>
<path d="M320 387.4H420.8" stroke="#011108" stroke-width="0.5" stroke-miterlimit="10"/>
<path d="M369.6 317.1C371.975 317.1 373.9 315.175 373.9 312.8C373.9 310.425 371.975 308.5 369.6 308.5C367.225 308.5 365.3 310.425 365.3 312.8C365.3 315.175 367.225 317.1 369.6 317.1Z" stroke="#011108" stroke-width="0.5" stroke-miterlimit="10"/>
<path d="M369.6 346.6C371.975 346.6 373.9 344.675 373.9 342.3C373.9 339.925 371.975 338 369.6 338C367.225 338 365.3 339.925 365.3 342.3C365.3 344.675 367.225 346.6 369.6 346.6Z" stroke="#011108" stroke-width="0.5" stroke-miterlimit="10"/>
<path d="M369.6 376.2C371.975 376.2 373.9 374.275 373.9 371.9C373.9 369.525 371.975 367.6 369.6 367.6C367.225 367.6 365.3 369.525 365.3 371.9C365.3 374.275 367.225 376.2 369.6 376.2Z" stroke="#011108" stroke-width="0.5" stroke-miterlimit="10"/>
<path d="M369.6 405.7C371.975 405.7 373.9 403.775 373.9 401.4C373.9 399.025 371.975 397.1 369.6 397.1C367.225 397.1 365.3 399.025 365.3 401.4C365.3 403.775 367.225 405.7 369.6 405.7Z" stroke="#011108" stroke-width="0.5" stroke-miterlimit="10"/>
<path d="M374 312.8C374 315.2 372.1 317.1 369.7 317.1C367.3 317.1 365.4 315.2 365.4 312.8" fill="#161111"/>
<path d="M374 342.3C374 344.7 372.1 346.6 369.7 346.6C367.3 346.6 365.4 344.7 365.4 342.3" fill="#161111"/>
<path d="M374 371.9C374 374.3 372.1 376.2 369.7 376.2C367.3 376.2 365.4 374.3 365.4 371.9" fill="#161111"/>
<path d="M374 401.4C374 403.8 372.1 405.7 369.7 405.7C367.3 405.7 365.4 403.8 365.4 401.4" fill="#161111"/>
<path d="M119.5 28.6C144.7 28.6 165.2 38.1 165.2 49.8C165.2 56.7 158.5 61.5 152.9 64.2C148.7 66.3 144.1 67.8 139.5 68.8C133.3 70.2 126.8 71 120.3 71.1C119.7 77.9 117 84.5 112.5 89.7C110.8 91.6 108.7 93.5 106.1 93.8C110.3 87 112.3 78.9 111.9 70.9C103.7 70.3 95.5003 68.4 88.1003 65.2C81.9003 62.5 73.8003 57.5 73.8003 49.8C73.8003 38.1 94.3003 28.6 119.5 28.6Z" fill="#7696EA" stroke="#011108" stroke-width="0.5" stroke-miterlimit="10"/>
<path d="M151.1 48.2C150.7 52 147.3 55.1 143.6 55.1C140 55.1 136.6 51.8 136.3 48C136.2 46.6 136.6 44.9 137.8 44.3C139.1 43.7 140.6 44.7 141.1 46C141.6 47.3 141.4 48.8 140.8 50.2C139.1 54.2 134.9 56.8 130.7 56.3C126.6 55.8 122.9 52.3 122.1 48C121.8 46.5 122 44.8 123.2 43.9C124.7 42.9 126.8 44.1 127.3 45.9C127.8 47.7 127.1 49.6 126 51C123.8 54.1 120 55.6 116.4 55.5C114.8 55.4 112.7 55 111.3 54.1C109.3 52.7 107.3 48.1 108.9 45.7C109.2 45.2 109.7 44.9 110.2 44.9C110.6 44.9 110.9 45.1 111.2 45.4C111.9 46 112.2 47.1 112.3 48C112.4 50 111.2 52.3 110 53.8C107.6 56.6 103.5 57.4 100.3 55.9C97.0004 54.5 94.8004 51 94.4004 47.3C94.3004 45.9 94.8004 44.1 96.2004 44.1C97.2004 44.2 97.8004 45.3 98.0004 46.3C98.6004 49.2 97.7004 52.4 95.7004 54.5C93.7004 56.6 90.7004 57.5 87.9004 56.9" stroke="#011108" stroke-width="0.5" stroke-miterlimit="10"/>
<path d="M412.9 33.7999H371.9V97.7999H412.9V33.7999Z" fill="#DBF6DD" stroke="#011108" stroke-width="0.5" stroke-miterlimit="10"/>
<path d="M412.9 106.7H371.9V27.6H412.9V106.7Z" stroke="#3A434B" stroke-width="0.5" stroke-miterlimit="10"/>
<path d="M392.4 104.7C393.781 104.7 394.9 103.491 394.9 102C394.9 100.509 393.781 99.2999 392.4 99.2999C391.019 99.2999 389.9 100.509 389.9 102C389.9 103.491 391.019 104.7 392.4 104.7Z" fill="#011108"/>
<path d="M391.4 45.9C381.7 47.4 375.1 56.5 376.6 66.2" stroke="#3A434B" stroke-width="0.5" stroke-miterlimit="10"/>
<path d="M392.2 51.1C385.4 52.2 380.7 58.6 381.8 65.4" stroke="#3A434B" stroke-width="0.5" stroke-miterlimit="10"/>
<path d="M392.8 55C388.2 55.7 385 60.1 385.7 64.7" stroke="#3A434B" stroke-width="0.5" stroke-miterlimit="10"/>
<path d="M393.5 59.5C391.3 59.8 389.8 61.9 390.2 64.1" stroke="#3A434B" stroke-width="0.5" stroke-miterlimit="10"/>
<path d="M389.6 81.7001C391.1 80.7001 392.5 79.6001 393.8 78.4001C395.4 77.0001 397 75.5001 398.4 74.1001C399.7 72.7001 400.9 71.4001 401.9 69.9001C403.2 68.3001 404.3 66.5001 405.5 64.7001C406.4 63.2001 407.3 61.6001 408.1 60.0001C408.5 59.2001 408.5 58.8001 408.1 57.9001C407.2 55.9001 404.9 54.6001 402.7 53.9001C402.2 53.7001 401.7 54.0001 401.5 54.4001C400.7 56.3001 399.7 58.1001 398.7 59.9001C398.3 60.6001 398 61.2001 397.6 61.9001C397.4 62.3001 397.5 62.8001 397.8 63.1001C398.8 64.0001 399.9 64.7001 401.1 65.1001C401.5 65.3001 401.7 65.7001 401.6 66.1001C401.2 66.7001 400.8 67.3001 400.3 67.9001C400.1 68.2001 399.9 68.4001 399.7 68.6001C399.6 68.7001 399.5 68.8001 399.4 69.0001C399.1 69.4001 398.8 69.7001 398.5 70.1001C398.5 70.2001 398.4 70.2001 398.4 70.3001C398.1 70.7001 397.8 71.0001 397.5 71.4001L397.4 71.5001C396.5 72.5001 395.6 73.4001 394.6 74.3001C394.2 74.5001 393.7 74.4001 393.5 74.0001C392.9 72.9001 392 71.9001 391 71.1001C390.7 70.8001 390.2 70.8001 389.8 71.1001C389.2 71.5001 388.6 72.0001 388 72.5001C386.4 73.7001 384.7 74.9001 383 76.1001C382.6 76.4001 382.4 76.9001 382.6 77.4001C383.6 79.4001 385.2 81.5001 387.3 82.1001C388.4 82.3001 388.8 82.2001 389.6 81.7001Z" fill="#009743" stroke="#011108" stroke-width="0.5" stroke-miterlimit="10"/>
<path d="M35.4001 185C48.5445 185 59.2001 174.344 59.2001 161.2C59.2001 148.056 48.5445 137.4 35.4001 137.4C22.2557 137.4 11.6001 148.056 11.6001 161.2C11.6001 174.344 22.2557 185 35.4001 185Z" fill="#DBF6DD" stroke="#011108" stroke-width="0.5" stroke-miterlimit="10"/>
<path d="M35.4003 185C45.3966 185 53.5003 174.344 53.5003 161.2C53.5003 148.056 45.3966 137.4 35.4003 137.4C25.4039 137.4 17.3003 148.056 17.3003 161.2C17.3003 174.344 25.4039 185 35.4003 185Z" stroke="#011108" stroke-width="0.5" stroke-miterlimit="10"/>
<path d="M35.4002 185C39.1005 185 42.1002 174.344 42.1002 161.2C42.1002 148.056 39.1005 137.4 35.4002 137.4C31.6999 137.4 28.7002 148.056 28.7002 161.2C28.7002 174.344 31.6999 185 35.4002 185Z" stroke="#011108" stroke-width="0.5" stroke-miterlimit="10"/>
<path d="M35.4001 205.1C48.5445 205.1 59.2001 197.668 59.2001 188.5C59.2001 179.332 48.5445 171.9 35.4001 171.9C22.2557 171.9 11.6001 179.332 11.6001 188.5C11.6001 197.668 22.2557 205.1 35.4001 205.1Z" stroke="#011108" stroke-width="0.5" stroke-miterlimit="10"/>
<path d="M35.4001 151C48.5445 151 59.2001 143.568 59.2001 134.4C59.2001 125.232 48.5445 117.8 35.4001 117.8C22.2557 117.8 11.6001 125.232 11.6001 134.4C11.6001 143.568 22.2557 151 35.4001 151Z" stroke="#011108" stroke-width="0.5" stroke-miterlimit="10"/>
<path d="M8 162.5H61.6" stroke="#011108" stroke-width="0.5" stroke-miterlimit="10"/>
<path d="M315.4 85.5C314.7 85.6 314 86 313.5 86.6C313 87.2 312.8 88 313 88.7" fill="white"/>
<path d="M315.4 85.5C314.7 85.6 314 86 313.5 86.6C313 87.2 312.8 88 313 88.7" stroke="#011108" stroke-width="0.5" stroke-miterlimit="10"/>
<path d="M334 179.5C333.6 179.4 333.3 179.3 332.9 179.1C331.9 178.6 331.3 177.9 330.1 177.9C329.4 177.9 328.6 178.5 328.7 179.2C328.7 179.5 328.9 179.8 329.1 180C330 180.9 331.2 181.5 332.1 182.4C332.6 182.9 332.9 183.5 333.4 184C335.7 186.1 338.9 184.2 340.9 182.6C341.1 182.4 341.4 182.2 341.4 181.8C341.4 181.6 341.3 181.4 341.2 181.2C340.7 180.5 339.8 180.1 339 180C338.2 179.8 337.3 179.8 336.4 179.8C335.8 179.9 334.9 179.8 334 179.5Z" fill="white" stroke="#011108" stroke-width="0.5" stroke-miterlimit="10"/>
<path d="M240.8 84.9001C240.5 79.6001 240.4 74.4001 240.2 69.0001C240.4 63.8001 242.9 59.0001 243.9 53.9001C244 53.4001 244.1 52.9001 243.8 52.4001C243.6 51.9001 242.8 51.6001 242.4 52.0001C241.7 53.4001 241 55.6001 239.1 56.0001C238 52.1001 242.2 47.6001 239.6 44.3001C237.6 41.8001 233.3 42.7001 231.5 45.1001C229.7 47.5001 229.7 50.7001 229.5 53.7001C228.9 63.6001 226.8 74.4001 224.4 84.9001H240.8V84.9001Z" fill="white" stroke="#011108" stroke-width="0.5" stroke-miterlimit="10"/>
<path d="M265.5 16.4H203.5V55.4H265.5V16.4Z" fill="#FFCB0A" stroke="#011108" stroke-width="0.5" stroke-miterlimit="10"/>
<path d="M265.5 16.4C265.5 16.4 236.8 34.1 234.5 35.9L203.5 16.4" stroke="#011108" stroke-width="0.5" stroke-miterlimit="10"/>
<path d="M240.2 69C240.3 66.1 241.1 63.4 242 60.7C242.4 59.3 242.9 58 243.3 56.6C243.5 56 243.7 55.5 243.8 54.9C243.9 54.3 244 53.6 244.3 53.1C244.4 52.9 244.5 52.8 244.6 52.6C244.7 52.4 244.7 52.2 244.6 52C244.4 51.7 244 51.7 243.7 51.8C243.2 51.9 242.8 52.3 242.4 52.6C241.4 53.8 241.1 55.6 239.2 56" fill="white"/>
<path d="M240.2 69C240.3 66.1 241.1 63.4 242 60.7C242.4 59.3 242.9 58 243.3 56.6C243.5 56 243.7 55.5 243.8 54.9C243.9 54.3 244 53.6 244.3 53.1C244.4 52.9 244.5 52.8 244.6 52.6C244.7 52.4 244.7 52.2 244.6 52C244.4 51.7 244 51.7 243.7 51.8C243.2 51.9 242.8 52.3 242.4 52.6C241.4 53.8 241.1 55.6 239.2 56" stroke="#011108" stroke-width="0.5" stroke-miterlimit="10"/>
<path d="M261.9 397.5C261.8 397.9 261.6 398.3 261.3 398.6C261 398.9 260.4 399.1 260 399.2C255.9 400.1 251.7 400.9 247.5 401.4C248.7 392.1 248.3 382.5 250.2 373.3C251 369.5 252.3 365.6 255.3 363.1C258.4 360.6 263 360.3 266.4 362.2C272.5 365.7 269 372 267.7 377C266 384 264 390.8 261.9 397.5Z" fill="white" stroke="#011108" stroke-width="0.5" stroke-miterlimit="10"/>
<path d="M263.1 397.3C261 397.7 258.9 397.8 256.9 397.7C253.8 397.6 250.6 397.1 247.7 395.7C246.7 396.3 245.6 397.5 244.4 398C240.4 399.7 236.4 401.5 232.4 403.2C229.4 404.5 226.3 405.8 223.7 407.8C223.1 408.3 222.4 408.8 222.2 409.6C221.4 412.9 229.5 411.9 231.2 411.9C235.6 411.9 239.9 411.4 244.3 411.4C248 411.4 251.7 411.5 255.4 411.3C257.6 411.2 261.1 412.2 262.7 410.5C264 409.2 263.9 406.4 263.5 404.8C263 402.3 263 399.7 263.1 397.3Z" fill="#161111"/>
<path d="M314.9 399.2C314.9 399.6 315 400 315.3 400.3C315.6 400.6 316.1 400.7 316.5 400.8C320.5 401.7 324.5 402.3 328.6 402.8C329.3 392.2 330 380.7 329.6 371.3C329.5 369.8 328.8 368.3 327.8 367.2C326.2 365.3 323.3 364.5 320.4 364.9C318.1 365.2 313.5 366.8 312.4 369C311.3 371.4 312.7 376.6 312.9 379C313.4 385.7 314.1 392.5 314.9 399.2Z" fill="white" stroke="#011108" stroke-width="0.5" stroke-miterlimit="10"/>
<path d="M313.4 98C313.3 98.4 313.3 98.7 313.2 99.1C312.3 104.8 314.5 110.7 313.3 116.5C312.5 120.6 309 128.9 303.9 129.4C302.6 129.5 301.3 127.8 300.6 126.9C298.2 124 296.3 120.6 295.9 116.9C295.7 115.1 295.9 113.3 296 111.5C296.2 108.9 296.4 106.3 296.7 103.7C296.8 102.5 296.9 101.3 297.2 100.1C297.7 97.9 298.6 95.9 300.1 94.2C303.1 90.8 307.5 90.5 311.8 90.4C312.3 90.4 312.8 90.4 313.2 90.7C314 91.2 314 92.3 313.9 93.3C313.8 94.9 313.6 96.4 313.4 98Z" fill="white" stroke="#011108" stroke-width="0.5" stroke-miterlimit="10"/>
<path d="M303.4 103.7C306.1 104.5 313.1 105.6 313.1 105.6C313 104.2 312.8 101.7 312.9 100.3C312.9 100.1 313.1 98.9 313.2 97.9C313.3 97 313.5 96.2 313.5 96.2C312.9 96 312.2 95.7 311.7 95.3C311.4 95 311.2 94.7 310.9 94.4C309 92.6 306.1 92.2 303.7 93.2C302.3 93.8 301.1 94.7 300.2 95.9C299.6 96.6 299.2 97.4 298.8 98.2C298.4 99.1 297.9 100.2 297.8 101.1C297.8 101.1 297.8 101.4 297.7 101.8C299.8 102.5 301.6 103.1 303.4 103.7Z" fill="#161111"/>
<path d="M296.9 75.5C298.5 75.7 300.1 75.9 301.7 76.3C303.1 76.7 304.3 77.4 305.7 77.7C308.1 78.2 311.8 78.8 313.5 80.6C315.4 82.5 315.3 85.4 315 87.9C314.8 90.3 314.4 92.7 313.8 95C312.9 98.8 310.7 101.8 307.1 103.4C304.6 104.5 301.6 104.8 299 104.2C295 103.2 292.8 99.9 292.2 95.2C292.1 94.4 292 91.6 292 90.8C292 88.3 292.5 85.6 292.8 83.1C293.1 80.8 293.3 78.5 294.3 76.4C294.4 76.1 294.6 75.8 294.8 75.7C295.2 75.4 295.7 75.4 296.1 75.5C296.4 75.5 296.6 75.5 296.9 75.5Z" fill="white" stroke="#011108" stroke-width="0.5" stroke-miterlimit="10"/>
<path d="M294.8 68.9C296.1 68.4 297.6 68.4 299 68.5C301.5 68.7 304 68.8 306.6 69C308.7 69.1 310.8 69.2 312.8 70.1C315.2 71.3 317.3 73.4 318.1 76C318.7 77.9 318.6 79.9 318.4 81.9C318.2 83.8 317.9 85.6 317.5 87.4C317.1 89.1 316.3 91.1 314.4 91.4C311.8 91.9 311.2 88.7 311.3 86.9C311.4 85.9 311.4 84.9 311.5 83.9C311.5 83.3 311.6 82.6 311.4 82C311.1 81 310.2 80.3 309.2 79.9C308.2 79.5 307.2 79.5 306.1 79.4C302.8 79.2 299.5 79.1 296.3 78.4C295.3 78.1 294.3 77.8 293.4 77.2C291.3 75.7 291.8 71.5 293.4 69.7C293.8 69.4 294.3 69.1 294.8 68.9Z" fill="#161111"/>
<path d="M291.7 88.3001C291.7 88.5001 291.8 88.7001 291.9 88.8001C293 87.4001 292.8 84.4001 293.1 82.7001C293.5 80.7001 294.1 78.6001 295.6 77.2001C296 76.8001 296.5 76.4001 296.8 75.9001C297.1 75.4001 297.3 74.7001 296.9 74.2001C296.5 73.7001 295.7 73.6001 295.1 73.8001C290.9 74.8001 291.2 80.1001 291.4 83.5001C291.5 85.1001 291.4 86.9001 291.7 88.3001Z" fill="#161111"/>
<path d="M311.9 93.4C312.8 93.8 313.9 93.9 314.9 93.6C317.1 92.8 318.2 89.6 316.7 87.8C316 86.9 314.8 86.4 313.7 86.5C312.6 86.6 311.5 87.3 310.9 88.3" fill="white"/>
<path d="M311.9 93.4C312.8 93.8 313.9 93.9 314.9 93.6C317.1 92.8 318.2 89.6 316.7 87.8C316 86.9 314.8 86.4 313.7 86.5C312.6 86.6 311.5 87.3 310.9 88.3" stroke="#011108" stroke-width="0.5" stroke-miterlimit="10"/>
<path d="M338.1 273.5C338.6 257 338.9 241 336.3 224.6C335.2 217.6 329.4 193.3 320.5 192C320 191.9 319.5 192 319.2 192.1C318.7 189.6 317.8 187.3 316.5 185.2C312.7 179 305.7 174.5 298.5 172.8C290.6 170.9 280.9 172 277.4 181.1C275.6 185.8 276 190.5 273.9 195.1C267.9 207.9 267.1 220.6 265.3 234.6C263.2 251.2 261 267.8 258.7 284.4C254.4 315.9 249.7 347.5 244.8 378.9C248.1 379.7 251.4 380.3 254.7 380.7C260.5 381.4 266.4 381.2 272.2 380.5C277.9 351.9 283.9 323.4 290.4 294.9C293.6 280.7 296.3 266.8 299.7 253.3C302 275.4 303.9 297.5 305.3 319.6C306 330.9 306.5 342.2 306.9 353.5C307.2 362.9 308.9 373.1 308.6 382.2C315.3 383.4 323.2 382.3 330.1 381.8C330.9 381.7 336.7 381 336.8 380.2C338.6 360.4 338.5 344.4 338.9 323.6C339.2 308.1 337.6 288.8 338.1 273.5Z" fill="#7696EA" stroke="#011108" stroke-width="0.5" stroke-miterlimit="10"/>
<path d="M331.4 370.5C331.4 364.1 331.4 357.8 331.4 351.4C331.4 338.7 331.2 325.9 331.1 313.2C330.9 300.5 330.6 287.7 330.2 275C329.8 262.7 329.5 250.3 328.8 237.9C328.1 225.4 326.8 211.9 320.4 200.8C320.3 200.5 319.8 200.7 319.9 201C323.3 212 325.3 223.3 326 234.8C326.7 247 327 259.3 327.4 271.5C328.1 296.7 328.5 321.8 328.6 347C328.6 354 328.6 361.1 328.6 368.1C328.6 371.7 328.6 375.3 328.5 378.9C328.5 382.4 328.2 386 328.7 389.5C328.8 390.5 330.6 390.5 330.8 389.5C331.3 386.3 331.2 383.1 331.2 379.9C331.4 376.7 331.4 373.6 331.4 370.5Z" fill="#011108"/>
<path d="M296.6 94.5C296.7 96.8 298.4 98.6 300.5 98.7C302.7 98.8 304.5 97 304.7 94.8L296.6 94.5Z" fill="white" stroke="#011108" stroke-width="0.5" stroke-miterlimit="10"/>
<path d="M268.5 182.7C267.3 191.8 266.1 201 264.7 210.1C267.1 210.1 269.5 211.4 271.9 211.9C274.8 212.6 277.8 213.1 280.8 213.5C287 214.4 293.2 214.9 299.4 215.1C302.4 215.2 335.9 214 335.8 213.4C335.2 209.5 334.5 205.5 334.3 201.6C334 192.7 333.6 183.8 333.3 174.9C332.7 159.3 336.9 144.1 336.3 128.5C336.2 126.8 331.4 124.6 331.4 122.9C331.2 118.7 329.4 115.6 326.2 113C325.8 112.7 325.3 112.3 324.8 112.1C324 111.8 323.1 111.7 322.2 111.7C320 111.6 317.6 111.4 315.5 111.3C314.7 111.3 314.4 111.1 313.7 110.7C313.8 113.7 312.3 117.1 309.9 118.9C306.4 121.5 301.6 119.9 298.9 117C298.2 116.3 297.6 115.4 297.1 114.5C296.6 113.6 296.1 112.6 296 111.6C285.7 114.4 273.3 114.6 262.7 114.1C257.6 113.8 250.5 113.2 247.2 109.3C240.3 101.2 242.6 79.4 243.6 69.7C236.6 69.9 231.1 69.6 224.2 68.8C221.8 83.1 219.3 102.4 220.9 116.8C223.2 138.8 255.9 144.3 273.2 141.9C273.5 145.3 273 149 272.6 152.4C272.2 155.8 271.5 159.2 271.1 162.7C270.2 169.3 269.4 176 268.5 182.7Z" fill="#009743" stroke="#011108" stroke-width="0.5" stroke-miterlimit="10"/>
<path d="M312.7 409.7V409.8C312.8 410.2 312.8 410.5 313.1 410.7C313.3 410.8 313.6 410.9 313.8 410.9C323.6 411.3 333.2 411.7 342.9 412C345.1 412.1 354.4 412.1 355 408.9C355.1 408.2 354.7 407.4 354.2 406.9C353.6 406.4 352.9 406.1 352.2 405.8C347.8 404.1 342.8 403.1 338.6 401C337 400.2 335.6 399.1 334 398.3C333.2 397.9 329.7 395.2 328.9 395.4C324.1 396.5 318.6 397.3 313.7 396.4C312.4 400.8 312 405.3 312.7 409.7Z" fill="#161111"/>
<path d="M334.6 181.6C330.6 183.3 326.1 183.2 321.8 183.6C321.3 183.7 320.8 184 320.5 184.4C320.2 184.8 320.2 185.2 320.3 185.6C320.3 185.7 320.7 186.5 320.9 186.3C320.4 186.7 320 187.3 320.1 188C320.1 188.6 320.7 189.3 321.3 189.2C321.1 189.4 321.1 189.8 321.2 190C321.3 190.3 321.6 190.4 321.8 190.6C322.5 191 323.2 191.2 323.9 191.2C322.8 191.2 323.8 192.7 324.2 193C325.1 193.5 326.6 193.6 327.6 193.7C330.1 193.9 332.7 193.8 335.2 193.2C339 192.3 342.6 190.3 346.3 189.3C348.1 188.8 350 188.5 351.8 188.2C353.3 188 354.9 188.1 356.4 187.5C359.2 186.4 362.1 185.9 364.2 183.6C366.1 181.5 366.7 177.9 364.8 175.8C363.4 174.2 361 173.7 358.8 174.1C358.6 174.1 358.4 174.2 358.3 174.2C356 174.7 354 176 351.9 177.1C347.4 179.3 342.1 180.1 337.1 180.1" fill="white"/>
<path d="M334.6 181.6C330.6 183.3 326.1 183.2 321.8 183.6C321.3 183.7 320.8 184 320.5 184.4C320.2 184.8 320.2 185.2 320.3 185.6C320.3 185.7 320.7 186.5 320.9 186.3C320.4 186.7 320 187.3 320.1 188C320.1 188.6 320.7 189.3 321.3 189.2C321.1 189.4 321.1 189.8 321.2 190C321.3 190.3 321.6 190.4 321.8 190.6C322.5 191 323.2 191.2 323.9 191.2C322.8 191.2 323.8 192.7 324.2 193C325.1 193.5 326.6 193.6 327.6 193.7C330.1 193.9 332.7 193.8 335.2 193.2C339 192.3 342.6 190.3 346.3 189.3C348.1 188.8 350 188.5 351.8 188.2C353.3 188 354.9 188.1 356.4 187.5C359.2 186.4 362.1 185.9 364.2 183.6C366.1 181.5 366.7 177.9 364.8 175.8C363.4 174.2 361 173.7 358.8 174.1C358.6 174.1 358.4 174.2 358.3 174.2C356 174.7 354 176 351.9 177.1C347.4 179.3 342.1 180.1 337.1 180.1" stroke="#011108" stroke-width="0.5" stroke-miterlimit="10"/>
<path d="M325.8 137.4C331.8 138.1 349.1 141.9 356 147.3C360.6 150.9 363.8 156.8 362.4 162.5C361.4 166.2 358.6 169.2 355.3 171.2C352 173.2 348.2 174.2 344.5 175.2C346.8 181 348 187.3 348.1 193.5C348.1 194.1 363.9 189.8 365.3 189.2C370.4 187.2 374.4 184.5 378.5 181C386.3 174.5 389.9 164.5 388.2 154.5C384.9 135 365.8 121.8 347.7 116C337.3 112.7 326.4 111.6 315.6 111.2" fill="#009743"/>
<path d="M325.8 137.4C331.8 138.1 349.1 141.9 356 147.3C360.6 150.9 363.8 156.8 362.4 162.5C361.4 166.2 358.6 169.2 355.3 171.2C352 173.2 348.2 174.2 344.5 175.2C346.8 181 348 187.3 348.1 193.5C348.1 194.1 363.9 189.8 365.3 189.2C370.4 187.2 374.4 184.5 378.5 181C386.3 174.5 389.9 164.5 388.2 154.5C384.9 135 365.8 121.8 347.7 116C337.3 112.7 326.4 111.6 315.6 111.2" stroke="#011108" stroke-width="0.5" stroke-miterlimit="10"/>
<path d="M323.5 191.1C326.7 191.4 329.6 191.2 333.7 190.2Z" fill="white"/>
<path d="M323.5 191.1C326.7 191.4 329.6 191.2 333.7 190.2" stroke="#011108" stroke-width="0.5" stroke-miterlimit="10"/>
<path d="M321.3 189.2C325.6 189.1 329.3 188.6 333.2 187.5Z" fill="white"/>
<path d="M321.3 189.2C325.6 189.1 329.3 188.6 333.2 187.5" stroke="#011108" stroke-width="0.5" stroke-miterlimit="10"/>
<path d="M320.9 186.3C325.1 186.3 329.4 185.5 333.5 184.4Z" fill="white"/>
<path d="M320.9 186.3C325.1 186.3 329.4 185.5 333.5 184.4" stroke="#011108" stroke-width="0.5" stroke-miterlimit="10"/>
<path d="M299.7 253.3C299.5 242.6 299.2 231.8 298 220.2" stroke="#131834" stroke-width="0.5" stroke-miterlimit="10"/>
<path d="M381.5 161.3C381.7 163.6 383.4 165.8 385.6 166.4C388 167 390.5 165.8 392.4 164.2C393.5 163.2 394.4 162 394.9 160.6C397.7 151.9 380.6 150.6 381.5 161.3Z" fill="#161111"/>
<path d="M226.3 117.7C229 118.1 231.3 120.2 231.9 122.8C232.5 125.4 231.1 128.4 228.7 129.5C227.8 129.9 226.8 130.1 225.9 130.2C223.9 130.3 221.8 129.9 220.3 128.5C215.4 124 220.6 116.9 226.3 117.7Z" fill="#161111"/>
<path d="M309.2 145.9C309.1 147.6 309.2 149.7 309.3 151.4C309.4 155.9 312.2 161.5 317.7 160.5C319.2 160.2 320.5 159.2 321.3 157.9C322.1 156.6 322.5 155.1 322.8 153.6C323.3 151.1 323.2 148.5 323.5 146C322.1 145.9 309.2 145.7 309.2 145.9Z" fill="#161111"/>
<path d="M298.7 243.3C298.2 246.2 297.8 249.1 297.4 252C297 255 296.9 258.1 296.5 261.1C296.3 262.4 296.2 263.6 296.1 264.9C296.1 265.8 296.1 266.7 296.1 267.6C296.9 267.7 297.3 263.9 297.5 263.1C298 261.7 298.1 260.1 298.5 258.7C298.8 257.6 299.3 254.4 299.7 253.3C299.4 249.2 299.6 243.8 299.4 239.1C299.2 240.5 298.9 241.9 298.7 243.3Z" fill="#161111"/>
<path d="M273.4 143.3C273.5 141.3 273.6 139.3 273.7 137.3Z" fill="#009743"/>
<path d="M273.4 143.3C273.5 141.3 273.6 139.3 273.7 137.3" stroke="#011108" stroke-width="0.5" stroke-miterlimit="10"/>
<path d="M6.30029 411.5H418.5" stroke="#011108" stroke-width="0.5" stroke-miterlimit="10"/>
</g>
<defs>
<clipPath id="clip0_12_5231">
<rect width="431.2" height="423.5" fill="white"/>
</clipPath>
</defs>
</svg>
