<svg width="40" height="40" viewBox="0 0 40 40" fill="none" xmlns="http://www.w3.org/2000/svg">
<rect width="40" height="40" rx="5" fill="#009743"/>
<g clip-path="url(#clip0_12_2308)">
<path d="M20.0034 12.1996C20.5176 12.1996 21.0202 12.0472 21.4478 11.7615C21.8753 11.4758 22.2085 11.0698 22.4053 10.5947C22.6021 10.1197 22.6536 9.59694 22.5532 9.09262C22.4529 8.58831 22.2053 8.12506 21.8417 7.76147C21.4781 7.39788 21.0149 7.15027 20.5106 7.04996C20.0063 6.94964 19.4835 7.00113 19.0085 7.1979C18.5334 7.39467 18.1274 7.7279 17.8417 8.15544C17.556 8.58298 17.4036 9.08563 17.4036 9.59982C17.4045 10.289 17.6787 10.9498 18.1661 11.4371C18.6534 11.9245 19.3142 12.1987 20.0034 12.1996ZM20.0034 7.74637C20.3707 7.74637 20.7297 7.85528 21.0351 8.05933C21.3405 8.26338 21.5785 8.55341 21.719 8.89274C21.8596 9.23206 21.8964 9.60545 21.8247 9.96567C21.7531 10.3259 21.5762 10.6568 21.3165 10.9165C21.0568 11.1762 20.7259 11.3531 20.3657 11.4247C20.0054 11.4964 19.6321 11.4596 19.2927 11.319C18.9534 11.1785 18.6634 10.9405 18.4593 10.6351C18.2553 10.3297 18.1464 9.97067 18.1464 9.60339C18.1461 9.11047 18.3416 8.63763 18.6898 8.28876C19.038 7.93988 19.5105 7.74352 20.0034 7.74281V7.74637ZM7.37122 33H14.8002C14.8987 33 14.9931 32.9609 15.0628 32.8912C15.1324 32.8216 15.1716 32.7271 15.1716 32.6286V31.143C15.1964 30.4808 14.9582 29.8357 14.509 29.3485C14.0597 28.8614 13.436 28.5719 12.7739 28.5432C12.6839 28.5421 12.5965 28.5737 12.5281 28.6322C12.1341 28.9927 11.6193 29.1927 11.0853 29.1927C10.5512 29.1927 10.0364 28.9927 9.64239 28.6322C9.57395 28.5737 9.4866 28.5421 9.39657 28.5432C8.73469 28.5721 8.11115 28.8617 7.66209 29.3489C7.21304 29.836 6.97495 30.4809 6.99982 31.143V32.6286C6.99982 32.7271 7.03895 32.8216 7.1086 32.8912C7.17825 32.9609 7.27272 33 7.37122 33ZM7.74262 31.143C7.72183 30.6999 7.86659 30.2649 8.14875 29.9227C8.43091 29.5804 8.83029 29.3554 9.2692 29.2913C9.78364 29.7064 10.4247 29.9327 11.0857 29.9327C11.7467 29.9327 12.3878 29.7064 12.9022 29.2913C13.3411 29.3554 13.7405 29.5804 14.0226 29.9227C14.3048 30.2649 14.4496 30.6999 14.4288 31.143V32.2572H7.74262V31.143ZM23.7138 33C23.8124 33 23.9068 32.9609 23.9765 32.8912C24.0461 32.8216 24.0853 32.7271 24.0853 32.6286V31.143C24.1101 30.4808 23.8719 29.8357 23.4227 29.3485C22.9734 28.8614 22.3496 28.5719 21.6876 28.5432C21.5976 28.5421 21.5102 28.5737 21.4418 28.6322C21.0477 28.9927 20.533 29.1927 19.9989 29.1927C19.4648 29.1927 18.9501 28.9927 18.5561 28.6322C18.4876 28.5737 18.4003 28.5421 18.3102 28.5432C17.6482 28.5719 17.0244 28.8614 16.5752 29.3485C16.126 29.8357 15.8877 30.4808 15.9126 31.143V32.6286C15.9126 32.7271 15.9517 32.8216 16.0214 32.8912C16.091 32.9609 16.1855 33 16.284 33H23.7138ZM16.6563 31.143C16.6355 30.6999 16.7803 30.2649 17.0624 29.9227C17.3446 29.5804 17.744 29.3554 18.1829 29.2913C18.6973 29.7064 19.3384 29.9327 19.9994 29.9327C20.6604 29.9327 21.3014 29.7064 21.8159 29.2913C22.2548 29.3554 22.6542 29.5804 22.9363 29.9227C23.2185 30.2649 23.3632 30.6999 23.3424 31.143V32.2572H16.6572L16.6563 31.143ZM30.6022 28.5432C30.5121 28.5421 30.4248 28.5737 30.3564 28.6322C29.9623 28.9927 29.4476 29.1927 28.9135 29.1927C28.3794 29.1927 27.8647 28.9927 27.4706 28.6322C27.4022 28.5737 27.3148 28.5421 27.2248 28.5432C26.5628 28.5719 25.939 28.8614 25.4898 29.3485C25.0405 29.8357 24.8023 30.4808 24.8272 31.143V32.6286C24.8272 32.7271 24.8663 32.8216 24.9359 32.8912C25.0056 32.9609 25.1001 33 25.1986 33H32.6275C32.726 33 32.8205 32.9609 32.8901 32.8912C32.9598 32.8216 32.9989 32.7271 32.9989 32.6286V31.143C33.0238 30.4809 32.7857 29.836 32.3366 29.3489C31.8876 28.8617 31.2641 28.5721 30.6022 28.5432ZM32.257 32.2572H25.5718V31.143C25.551 30.6999 25.6957 30.2649 25.9779 29.9227C26.26 29.5804 26.6594 29.3554 27.0983 29.2913C27.6128 29.7064 28.2538 29.9327 28.9148 29.9327C29.5758 29.9327 30.2169 29.7064 30.7313 29.2913C31.1702 29.3554 31.5696 29.5804 31.8518 29.9227C32.1339 30.2649 32.2787 30.6999 32.2579 31.143L32.257 32.2572ZM28.9144 20.3714H20.3864V17.4002H24.0853C24.134 17.4002 24.1823 17.3906 24.2274 17.3719C24.2724 17.3532 24.3134 17.3259 24.3479 17.2914C24.3824 17.2569 24.4097 17.216 24.4284 17.1709C24.447 17.1258 24.4567 17.0775 24.4567 17.0288V14.8021C24.4557 14.1129 24.1815 13.4522 23.6941 12.9648C23.2068 12.4775 22.5461 12.2033 21.8568 12.2023C21.7727 12.2023 21.691 12.2308 21.6253 12.2834L20.0034 13.5819L18.3779 12.2816C18.3122 12.2291 18.2305 12.2005 18.1464 12.2005C17.4571 12.2015 16.7964 12.4757 16.3091 12.963C15.8217 13.4504 15.5475 14.1111 15.5465 14.8004V17.027C15.5465 17.1255 15.5857 17.22 15.6553 17.2896C15.725 17.3593 15.8194 17.3984 15.9179 17.3984H19.6471V20.3696H11.0853C10.9867 20.3696 10.8923 20.4088 10.8226 20.4784C10.753 20.5481 10.7138 20.6425 10.7138 20.741V23.3711C10.0633 23.465 9.47247 23.8018 9.06025 24.3138C8.64803 24.8258 8.44503 25.4749 8.4921 26.1305C8.53917 26.7861 8.83282 27.3995 9.31395 27.8473C9.79507 28.2951 10.428 28.5441 11.0853 28.5441C11.7425 28.5441 12.3754 28.2951 12.8566 27.8473C13.3377 27.3995 13.6313 26.7861 13.6784 26.1305C13.7255 25.4749 13.5225 24.8258 13.1102 24.3138C12.698 23.8018 12.1072 23.465 11.4567 23.3711V21.1142H19.6471V23.3702C18.9958 23.4602 18.4027 23.7936 17.9873 24.3033C17.5718 24.8129 17.3648 25.461 17.408 26.1171C17.4511 26.7732 17.7412 27.3886 18.2198 27.8395C18.6984 28.2903 19.33 28.5432 19.9875 28.5471C20.645 28.5511 21.2796 28.3058 21.7636 27.8607C22.2475 27.4156 22.545 26.8037 22.596 26.1482C22.647 25.4927 22.4478 24.8421 22.0385 24.3275C21.6292 23.8129 21.0401 23.4725 20.3899 23.3747V21.1142H28.5465V23.372C27.896 23.4659 27.3052 23.8027 26.8929 24.3147C26.4807 24.8267 26.2777 25.4758 26.3248 26.1314C26.3719 26.787 26.6655 27.4004 27.1466 27.8482C27.6278 28.296 28.2607 28.545 28.9179 28.545C29.5752 28.545 30.2081 28.296 30.6893 27.8482C31.1704 27.4004 31.464 26.787 31.5111 26.1314C31.5582 25.4758 31.3552 24.8267 30.9429 24.3147C30.5307 23.8027 29.9399 23.4659 29.2893 23.372V20.7428C29.2894 20.6937 29.2796 20.6451 29.2607 20.5998C29.2419 20.5546 29.2142 20.5135 29.1793 20.4789C29.1444 20.4444 29.1031 20.4171 29.0576 20.3986C29.0121 20.3802 28.9635 20.3709 28.9144 20.3714ZM16.2858 14.8004C16.2865 14.3297 16.4656 13.8767 16.7871 13.5329C17.1086 13.1891 17.5485 12.98 18.0181 12.9478L19.7682 14.3479C19.8341 14.4006 19.9159 14.4293 20.0003 14.4293C20.0846 14.4293 20.1664 14.4006 20.2323 14.3479L21.9824 12.9478C22.452 12.98 22.8919 13.1891 23.2134 13.5329C23.5349 13.8767 23.714 14.3297 23.7147 14.8004V16.6574H16.2858V14.8004ZM12.9432 25.9433C12.9432 26.3106 12.8342 26.6697 12.6302 26.975C12.4261 27.2804 12.1361 27.5184 11.7968 27.659C11.4575 27.7996 11.0841 27.8363 10.7239 27.7647C10.3636 27.693 10.0327 27.5162 9.77303 27.2564C9.51332 26.9967 9.33646 26.6659 9.26481 26.3056C9.19315 25.9454 9.22993 25.572 9.37048 25.2327C9.51104 24.8934 9.74905 24.6033 10.0544 24.3993C10.3598 24.1952 10.7189 24.0863 11.0861 24.0863C11.5784 24.087 12.0504 24.2829 12.3985 24.631C12.7466 24.9791 12.9425 25.451 12.9432 25.9433ZM21.8577 25.9433C21.8577 26.3107 21.7487 26.6699 21.5446 26.9753C21.3404 27.2808 21.0502 27.5188 20.7107 27.6593C20.3713 27.7997 19.9977 27.8363 19.6374 27.7645C19.2771 27.6926 18.9463 27.5155 18.6867 27.2555C18.4271 26.9955 18.2504 26.6644 18.179 26.304C18.1077 25.9436 18.1449 25.5701 18.2858 25.2308C18.4268 24.8916 18.6652 24.6017 18.971 24.398C19.2767 24.1943 19.636 24.0858 20.0034 24.0863C20.4951 24.088 20.9661 24.2843 21.3134 24.6323C21.6607 24.9803 21.8561 25.4517 21.8568 25.9433H21.8577ZM30.7723 25.9433C30.7723 26.3106 30.6634 26.6697 30.4593 26.975C30.2553 27.2804 29.9652 27.5184 29.6259 27.659C29.2866 27.7996 28.9132 27.8363 28.553 27.7647C28.1928 27.693 27.8619 27.5162 27.6022 27.2564C27.3425 26.9967 27.1656 26.6659 27.0939 26.3056C27.0223 25.9454 27.0591 25.572 27.1996 25.2327C27.3402 24.8934 27.5782 24.6033 27.8836 24.3993C28.189 24.1952 28.548 24.0863 28.9153 24.0863C29.4074 24.0873 29.8791 24.2832 30.227 24.6313C30.5749 24.9794 30.7707 25.4512 30.7714 25.9433H30.7723Z" fill="white"/>
<path d="M20.0034 12.1996C20.5176 12.1996 21.0202 12.0472 21.4478 11.7615C21.8753 11.4758 22.2085 11.0698 22.4053 10.5947C22.6021 10.1197 22.6536 9.59694 22.5532 9.09262C22.4529 8.58831 22.2053 8.12506 21.8417 7.76147C21.4781 7.39788 21.0149 7.15027 20.5106 7.04996C20.0063 6.94964 19.4835 7.00113 19.0085 7.1979C18.5334 7.39468 18.1274 7.7279 17.8417 8.15544C17.556 8.58298 17.4036 9.08563 17.4036 9.59982C17.4045 10.289 17.6787 10.9498 18.1661 11.4371C18.6534 11.9245 19.3142 12.1987 20.0034 12.1996ZM20.0034 7.74637C20.3707 7.74637 20.7297 7.85528 21.0351 8.05933C21.3405 8.26339 21.5785 8.55341 21.719 8.89274C21.8596 9.23206 21.8964 9.60545 21.8247 9.96567C21.7531 10.3259 21.5762 10.6568 21.3165 10.9165C21.0568 11.1762 20.7259 11.3531 20.3657 11.4247C20.0054 11.4964 19.6321 11.4596 19.2927 11.319C18.9534 11.1785 18.6634 10.9405 18.4593 10.6351C18.2553 10.3297 18.1464 9.97067 18.1464 9.60339C18.1461 9.11047 18.3416 8.63763 18.6898 8.28876C19.038 7.93988 19.5105 7.74352 20.0034 7.74281V7.74637ZM7.37122 33H14.8002C14.8987 33 14.9931 32.9609 15.0628 32.8912C15.1324 32.8216 15.1716 32.7271 15.1716 32.6286V31.143C15.1964 30.4808 14.9582 29.8357 14.509 29.3485C14.0597 28.8614 13.436 28.5719 12.7739 28.5432C12.6839 28.5421 12.5965 28.5737 12.5281 28.6322C12.1341 28.9927 11.6193 29.1927 11.0853 29.1927C10.5512 29.1927 10.0364 28.9927 9.64239 28.6322C9.57395 28.5737 9.4866 28.5421 9.39657 28.5432C8.73469 28.5721 8.11115 28.8617 7.66209 29.3489C7.21304 29.836 6.97495 30.4809 6.99982 31.143V32.6286C6.99982 32.7271 7.03895 32.8216 7.1086 32.8912C7.17825 32.9609 7.27272 33 7.37122 33ZM7.74262 31.143C7.72183 30.6999 7.86659 30.2649 8.14875 29.9227C8.43091 29.5804 8.83029 29.3554 9.2692 29.2913C9.78364 29.7064 10.4247 29.9327 11.0857 29.9327C11.7467 29.9327 12.3878 29.7064 12.9022 29.2913C13.3411 29.3554 13.7405 29.5804 14.0226 29.9227C14.3048 30.2649 14.4496 30.6999 14.4288 31.143V32.2572H7.74262V31.143ZM23.7138 33C23.8124 33 23.9068 32.9609 23.9765 32.8912C24.0461 32.8216 24.0853 32.7271 24.0853 32.6286V31.143C24.1101 30.4808 23.8719 29.8357 23.4227 29.3485C22.9734 28.8614 22.3496 28.5719 21.6876 28.5432C21.5976 28.5421 21.5102 28.5737 21.4418 28.6322C21.0477 28.9927 20.533 29.1927 19.9989 29.1927C19.4648 29.1927 18.9501 28.9927 18.5561 28.6322C18.4876 28.5737 18.4003 28.5421 18.3102 28.5432C17.6482 28.5719 17.0244 28.8614 16.5752 29.3485C16.126 29.8357 15.8877 30.4808 15.9126 31.143V32.6286C15.9126 32.7271 15.9517 32.8216 16.0214 32.8912C16.091 32.9609 16.1855 33 16.284 33H23.7138ZM16.6563 31.143C16.6355 30.6999 16.7803 30.2649 17.0624 29.9227C17.3446 29.5804 17.744 29.3554 18.1829 29.2913C18.6973 29.7064 19.3384 29.9327 19.9994 29.9327C20.6604 29.9327 21.3014 29.7064 21.8159 29.2913C22.2548 29.3554 22.6542 29.5804 22.9363 29.9227C23.2185 30.2649 23.3632 30.6999 23.3424 31.143V32.2572H16.6572L16.6563 31.143ZM30.6022 28.5432C30.5121 28.5421 30.4248 28.5737 30.3564 28.6322C29.9623 28.9927 29.4476 29.1927 28.9135 29.1927C28.3794 29.1927 27.8647 28.9927 27.4706 28.6322C27.4022 28.5737 27.3148 28.5421 27.2248 28.5432C26.5628 28.5719 25.939 28.8614 25.4898 29.3485C25.0405 29.8357 24.8023 30.4808 24.8272 31.143V32.6286C24.8272 32.7271 24.8663 32.8216 24.9359 32.8912C25.0056 32.9609 25.1001 33 25.1986 33H32.6275C32.726 33 32.8205 32.9609 32.8901 32.8912C32.9598 32.8216 32.9989 32.7271 32.9989 32.6286V31.143C33.0238 30.4809 32.7857 29.836 32.3367 29.3489C31.8876 28.8617 31.2641 28.5721 30.6022 28.5432ZM32.257 32.2572H25.5718V31.143C25.551 30.6999 25.6957 30.2649 25.9779 29.9227C26.26 29.5804 26.6594 29.3554 27.0983 29.2913C27.6128 29.7064 28.2538 29.9327 28.9148 29.9327C29.5758 29.9327 30.2169 29.7064 30.7313 29.2913C31.1702 29.3554 31.5696 29.5804 31.8518 29.9227C32.1339 30.2649 32.2787 30.6999 32.2579 31.143L32.257 32.2572ZM28.9144 20.3714H20.3864V17.4002H24.0853C24.134 17.4002 24.1823 17.3906 24.2274 17.3719C24.2724 17.3532 24.3134 17.3259 24.3479 17.2914C24.3824 17.2569 24.4097 17.216 24.4284 17.1709C24.447 17.1258 24.4567 17.0775 24.4567 17.0288V14.8021C24.4557 14.1129 24.1815 13.4522 23.6941 12.9648C23.2068 12.4775 22.5461 12.2033 21.8568 12.2023C21.7727 12.2023 21.691 12.2308 21.6253 12.2834L20.0034 13.5819L18.3779 12.2816C18.3122 12.2291 18.2305 12.2005 18.1464 12.2005C17.4571 12.2015 16.7964 12.4757 16.3091 12.963C15.8217 13.4504 15.5475 14.1111 15.5465 14.8004V17.027C15.5465 17.1255 15.5857 17.22 15.6553 17.2896C15.725 17.3593 15.8194 17.3984 15.9179 17.3984H19.6471V20.3696H11.0853C10.9867 20.3696 10.8923 20.4088 10.8226 20.4784C10.753 20.5481 10.7138 20.6425 10.7138 20.741V23.3711C10.0633 23.465 9.47247 23.8019 9.06025 24.3138C8.64803 24.8258 8.44503 25.4749 8.4921 26.1305C8.53917 26.7861 8.83282 27.3995 9.31395 27.8473C9.79507 28.2951 10.428 28.5441 11.0853 28.5441C11.7425 28.5441 12.3754 28.2951 12.8566 27.8473C13.3377 27.3995 13.6313 26.7861 13.6784 26.1305C13.7255 25.4749 13.5225 24.8258 13.1102 24.3138C12.698 23.8019 12.1072 23.465 11.4567 23.3711V21.1142H19.6471V23.3702C18.9958 23.4602 18.4027 23.7936 17.9873 24.3033C17.5718 24.8129 17.3648 25.461 17.408 26.1171C17.4511 26.7732 17.7412 27.3886 18.2198 27.8395C18.6984 28.2904 19.33 28.5432 19.9875 28.5471C20.645 28.5511 21.2796 28.3058 21.7636 27.8607C22.2475 27.4156 22.545 26.8038 22.596 26.1482C22.647 25.4927 22.4478 24.8421 22.0385 24.3275C21.6292 23.813 21.0401 23.4725 20.3899 23.3747V21.1142H28.5465V23.372C27.896 23.4659 27.3052 23.8027 26.8929 24.3147C26.4807 24.8267 26.2777 25.4758 26.3248 26.1314C26.3719 26.787 26.6655 27.4004 27.1466 27.8482C27.6278 28.296 28.2607 28.545 28.9179 28.545C29.5752 28.545 30.2081 28.296 30.6893 27.8482C31.1704 27.4004 31.464 26.787 31.5111 26.1314C31.5582 25.4758 31.3552 24.8267 30.9429 24.3147C30.5307 23.8027 29.9399 23.4659 29.2893 23.372V20.7428C29.2894 20.6937 29.2796 20.6451 29.2607 20.5998C29.2419 20.5546 29.2142 20.5135 29.1793 20.4789C29.1444 20.4444 29.1031 20.4171 29.0576 20.3986C29.0121 20.3802 28.9635 20.3709 28.9144 20.3714ZM16.2858 14.8004C16.2865 14.3297 16.4656 13.8767 16.7871 13.5329C17.1086 13.1891 17.5485 12.98 18.0181 12.9478L19.7682 14.3479C19.8341 14.4006 19.9159 14.4293 20.0003 14.4293C20.0846 14.4293 20.1664 14.4006 20.2323 14.3479L21.9824 12.9478C22.452 12.98 22.8919 13.1891 23.2134 13.5329C23.5349 13.8767 23.714 14.3297 23.7147 14.8004V16.6574H16.2858V14.8004ZM12.9432 25.9433C12.9432 26.3106 12.8342 26.6697 12.6302 26.975C12.4261 27.2804 12.1361 27.5184 11.7968 27.659C11.4575 27.7996 11.0841 27.8363 10.7239 27.7647C10.3636 27.693 10.0327 27.5162 9.77303 27.2565C9.51332 26.9967 9.33646 26.6659 9.26481 26.3056C9.19315 25.9454 9.22993 25.572 9.37048 25.2327C9.51104 24.8934 9.74905 24.6033 10.0544 24.3993C10.3598 24.1952 10.7189 24.0863 11.0861 24.0863C11.5784 24.087 12.0504 24.2829 12.3985 24.631C12.7466 24.9791 12.9425 25.451 12.9432 25.9433ZM21.8577 25.9433C21.8577 26.3107 21.7487 26.6699 21.5446 26.9753C21.3404 27.2808 21.0502 27.5188 20.7107 27.6593C20.3713 27.7997 19.9977 27.8363 19.6374 27.7645C19.2771 27.6926 18.9463 27.5155 18.6867 27.2555C18.4271 26.9955 18.2504 26.6644 18.179 26.304C18.1077 25.9436 18.1449 25.5701 18.2858 25.2308C18.4268 24.8916 18.6652 24.6017 18.971 24.398C19.2767 24.1943 19.636 24.0858 20.0034 24.0863C20.4951 24.088 20.9661 24.2843 21.3134 24.6323C21.6607 24.9803 21.857 25.4517 21.8577 25.9433ZM30.7723 25.9433C30.7723 26.3106 30.6634 26.6697 30.4593 26.975C30.2553 27.2804 29.9652 27.5184 29.6259 27.659C29.2866 27.7996 28.9132 27.8363 28.553 27.7647C28.1928 27.693 27.8619 27.5162 27.6022 27.2565C27.3425 26.9967 27.1656 26.6659 27.0939 26.3056C27.0223 25.9454 27.0591 25.572 27.1996 25.2327C27.3402 24.8934 27.5782 24.6033 27.8836 24.3993C28.189 24.1952 28.548 24.0863 28.9153 24.0863C29.4074 24.0873 29.8791 24.2833 30.227 24.6313C30.5749 24.9794 30.7716 25.4512 30.7723 25.9433Z" fill="white"/>
</g>
<defs>
<clipPath id="clip0_12_2308">
<rect width="26" height="26" fill="white" transform="translate(7 7)"/>
</clipPath>
</defs>
</svg>
