<svg width="370" height="167" viewBox="0 0 370 167" fill="none" xmlns="http://www.w3.org/2000/svg">
<path opacity="0.05" d="M188.298 54.1572V13H112V102.247H130.888C129.18 113.122 122.885 121.581 112 127.623V160.997C127.58 157.442 141.737 150.902 154.472 141.378C166.494 131.852 175.175 120.337 180.51 106.83C185.703 92.8994 188.3 75.3418 188.3 54.1603L188.298 54.1572ZM289.998 54.1603V13.0032H213.7V102.25H232.482C231.13 113.125 224.869 121.585 213.7 127.626V161C229.209 157.445 243.331 150.905 256.064 141.381C268.656 131.855 277.372 120.34 282.21 106.834C287.403 92.9026 290 75.345 290 54.1635L289.998 54.1603Z" fill="#009743"/>
</svg>
