<svg width="26" height="26" viewBox="0 0 26 26" fill="none" xmlns="http://www.w3.org/2000/svg">
<rect width="26" height="26" rx="5" fill="#E7FFF0"/>
<path fill-rule="evenodd" clip-rule="evenodd" d="M6 13C6 9.13401 9.13401 6 13 6C14.8565 6 16.637 6.7375 17.9497 8.05025C19.2625 9.36301 20 11.1435 20 13C20 16.866 16.866 20 13 20C9.13401 20 6 16.866 6 13ZM15 16C15.3551 16.0175 15.679 15.8091 15.7923 15.4901C15.8585 15.2962 15.8385 15.0851 15.7369 14.9055C15.6353 14.7258 15.4608 14.5931 15.2535 14.5378L12.5846 13.9593V10.7499C12.5846 10.3357 12.2299 10 11.7923 10C11.3547 10 11 10.3357 11 10.7499V14.4992C10.9991 14.8216 11.2161 15.1084 11.5388 15.2116L14.7465 15.9625C14.8289 15.9854 14.9141 15.998 15 16Z" fill="#009743"/>
</svg>
