<svg xmlns="http://www.w3.org/2000/svg" width="25.511" height="18.178" viewBox="0 0 25.511 18.178"><g transform="translate(2.703 -2.462)"><g transform="translate(-4.783 -8.218)"><path d="M23.967,28.858H5.7A3.628,3.628,0,0,1,2.08,25.234V14.3A3.628,3.628,0,0,1,5.7,10.68H23.967A3.628,3.628,0,0,1,27.591,14.3V25.234a3.628,3.628,0,0,1-3.624,3.624ZM5.7,11.959A2.345,2.345,0,0,0,3.359,14.3V25.234A2.345,2.345,0,0,0,5.7,27.579H23.967a2.345,2.345,0,0,0,2.345-2.345V14.3a2.345,2.345,0,0,0-2.345-2.345Z" fill="#131313"/><path d="M15.3,25.4a3.628,3.628,0,0,1-2.187-.729L3.154,17.145a.639.639,0,1,1,.772-1.019l9.955,7.537a2.366,2.366,0,0,0,2.831,0l9.955-7.537a.639.639,0,1,1,.772,1.019l-9.955,7.529A3.628,3.628,0,0,1,15.3,25.4Z" transform="translate(-0.46 -3.042)" fill="#131313"/><path d="M3.308,38a.639.639,0,0,1-.426-1.117l7.844-7a.64.64,0,0,1,.853.955l-7.844,7A.622.622,0,0,1,3.308,38Zm23.729,0a.622.622,0,0,1-.426-.162l-7.844-7a.64.64,0,1,1,.853-.955l7.84,7A.639.639,0,0,1,27.033,38Z" transform="translate(-0.337 -10.928)" fill="#131313"/></g></g></svg>