<svg width="313" height="345" viewBox="0 0 313 345" fill="none" xmlns="http://www.w3.org/2000/svg">
<path d="M34.6249 171.516L24.7794 171.726L19.7816 171.809C18.1081 171.846 16.4347 171.839 14.7613 171.854H14.4311V171.516L14.3936 163.119V162.744H14.7688L24.7043 162.789C28.0137 162.796 31.3305 162.871 34.6399 162.909H34.85V163.111C34.835 164.537 34.7825 165.955 34.7524 167.351L34.6249 171.516ZM34.6249 171.516L34.5198 167.276C34.4823 165.88 34.4373 164.5 34.4223 163.119L34.6249 163.321C31.3155 163.359 27.9987 163.441 24.6893 163.441L14.7538 163.486L15.129 163.111L15.0914 171.508L14.7538 171.171C16.3897 171.186 18.0256 171.178 19.669 171.208L24.6068 171.291L34.6249 171.516Z" fill="#EBEBEB"/>
<path d="M23.5409 182.104L13.6954 182.314L8.69758 182.397C7.02415 182.434 5.35071 182.427 3.67727 182.434H3.34709V182.097L3.30957 173.7V173.324H3.68478L13.6203 173.369C16.9297 173.377 20.2465 173.452 23.5559 173.489H23.766V173.692C23.751 175.118 23.6985 176.536 23.6685 177.932L23.5409 182.104ZM23.5409 182.104L23.4358 177.864C23.3983 176.469 23.3533 175.088 23.3383 173.707L23.5409 173.91C20.2315 173.947 16.9147 174.03 13.6053 174.03L3.66977 174.075L4.04498 173.7L4.00746 182.097L3.66977 181.759C5.30569 181.774 6.9416 181.767 8.58502 181.797L13.5228 181.879L23.5409 182.104Z" fill="#EBEBEB"/>
<path d="M298.247 33.1684L288.401 33.3785L283.404 33.4611C281.73 33.4986 280.057 33.4911 278.383 33.5061H278.053V33.1684L278.016 24.7712V24.396H278.391L288.326 24.441C291.636 24.4485 294.953 24.5236 298.262 24.5611H298.472V24.7637C298.457 26.1895 298.405 27.6078 298.375 29.0036L298.247 33.1684ZM298.247 33.1684L298.142 28.9285C298.104 27.5328 298.059 26.152 298.044 24.7712L298.247 24.9738C294.938 25.0113 291.621 25.0939 288.311 25.0939L278.376 25.1389L278.751 24.7637L278.714 33.1609L278.376 32.8232C280.012 32.8382 281.648 32.8307 283.291 32.8607L288.229 32.9433L298.247 33.1684Z" fill="#EBEBEB"/>
<path d="M309.331 43.757L299.485 43.9671L294.488 44.0497C292.814 44.0872 291.141 44.0797 289.467 44.0947H289.137V43.757L289.1 35.3598V34.9846H289.475L299.41 35.0296C302.72 35.0296 306.037 35.1122 309.346 35.1497H309.556V35.3523C309.541 36.7781 309.488 38.1964 309.458 39.5922L309.331 43.757ZM309.331 43.757L309.226 39.5172C309.188 38.1214 309.143 36.7406 309.128 35.3598L309.331 35.5624C306.022 35.6 302.705 35.6825 299.395 35.6825L289.46 35.7275L289.835 35.3523L289.797 43.7495L289.46 43.4118C291.096 43.4268 292.732 43.4193 294.375 43.4569L299.313 43.5394L309.331 43.757Z" fill="#EBEBEB"/>
<path d="M34.6249 33.1684L24.7794 33.3785L19.7816 33.4611C18.1081 33.4986 16.4347 33.4911 14.7613 33.5061H14.4311V33.1684L14.3936 24.7712V24.396H14.7688L24.7043 24.441C28.0137 24.4485 31.3305 24.5236 34.6399 24.5611H34.85V24.7637C34.835 26.1895 34.7825 27.6078 34.7524 29.0036L34.6249 33.1684ZM34.6249 33.1684L34.5198 28.9285C34.4823 27.5328 34.4373 26.152 34.4223 24.7712L34.6249 24.9738C31.3155 25.0113 27.9987 25.0939 24.6893 25.0939L14.7538 25.1389L15.129 24.7637L15.0914 33.1684L14.7538 32.8307C16.3897 32.8457 18.0256 32.8382 19.669 32.8682L24.6068 32.9508L34.6249 33.1684Z" fill="#EBEBEB"/>
<path d="M282.301 0H281.551V70.9072H282.301V0Z" fill="#C7C7C7"/>
<path d="M250.858 100.857L253.357 106.35H310.502L312.993 100.857L288.665 84.0171H275.187L250.858 100.857Z" fill="#EBEBEB"/>
<path d="M273.498 67.793L275.186 84.017H288.664L290.352 67.793H273.498Z" fill="#DBDBDB"/>
<path d="M250.865 100.857L253.364 106.35H310.509L313 100.857H250.865Z" fill="#DBDBDB"/>
<path d="M215.596 0H214.846V53.1897H215.596V0Z" fill="#C7C7C7"/>
<path d="M184.153 83.1314L186.652 88.6245H243.797L246.288 83.1314L221.959 66.292H208.482L184.153 83.1314Z" fill="#EBEBEB"/>
<path d="M206.794 50.0681L208.482 66.2922H221.96L223.648 50.0681H206.794Z" fill="#DBDBDB"/>
<path d="M184.16 83.1392L186.659 88.6322H243.804L246.295 83.1392H184.16Z" fill="#DBDBDB"/>
<path d="M0 276.38L39.1269 276.199L78.2538 276.132L156.5 276.012L234.746 276.132L273.873 276.199L313 276.38L273.873 276.567L234.746 276.635L156.5 276.755L78.2538 276.635L39.1269 276.567L0 276.38Z" fill="#263238"/>
<path d="M156.501 344.735C237.595 344.735 303.335 335.493 303.335 324.091C303.335 312.69 237.595 303.447 156.501 303.447C75.4061 303.447 9.66602 312.69 9.66602 324.091C9.66602 335.493 75.4061 344.735 156.501 344.735Z" fill="#E7FFF0"/>
<path d="M252.358 98.3579H183.004V136.614H252.358V98.3579Z" fill="#455A64"/>
<path d="M169.632 136.622H183.004V124.698L169.632 136.622Z" fill="#455A64"/>
<path d="M222.882 105.427H191.439V106.29H222.882V105.427Z" fill="white"/>
<path d="M244.254 110.079H191.439V110.942H244.254V110.079Z" fill="white"/>
<path d="M244.254 114.732H191.439V115.595H244.254V114.732Z" fill="white"/>
<path d="M234.131 119.385H191.439V120.248H234.131V119.385Z" fill="white"/>
<path d="M244.254 124.037H191.439V124.9H244.254V124.037Z" fill="white"/>
<path d="M210.868 128.69H191.439V129.553H210.868V128.69Z" fill="white"/>
<path d="M281.407 143.323H212.519V171.696H281.407V143.323Z" fill="#FFCB0A"/>
<path d="M212.541 160.32V171.696H198.711L212.541 160.32Z" fill="#FFCB0A"/>
<path d="M273.13 150.384H220.9V151.247H273.13V150.384Z" fill="white"/>
<path d="M250.7 155.037H220.9V155.9H250.7V155.037Z" fill="white"/>
<path d="M261.183 159.69H220.9V160.553H261.183V159.69Z" fill="white"/>
<path d="M234.933 164.342H220.9V165.205H234.933V164.342Z" fill="white"/>
<path d="M169.302 161.258L168.882 160.882C169.212 160.507 169.55 160.139 169.902 159.764L170.315 160.147C169.962 160.522 169.625 160.89 169.302 161.258Z" fill="#263238"/>
<path d="M185.947 207.551L185.939 206.988C186.9 206.973 187.883 206.906 188.873 206.801L188.933 207.363C187.928 207.461 186.922 207.528 185.947 207.551ZM182.217 207.378C181.227 207.266 180.229 207.101 179.268 206.891L179.388 206.343C180.334 206.553 181.309 206.718 182.277 206.823L182.217 207.378ZM192.611 206.733L192.49 206.185C193.428 205.975 194.382 205.72 195.335 205.427L195.5 205.968C194.539 206.26 193.564 206.523 192.611 206.733ZM175.681 205.81C174.751 205.457 173.828 205.037 172.95 204.579L173.212 204.084C174.068 204.534 174.968 204.939 175.884 205.285L175.681 205.81ZM199.012 204.707L198.801 204.189C199.694 203.821 200.602 203.416 201.488 202.988L201.736 203.491C200.835 203.926 199.92 204.332 199.012 204.707ZM169.775 202.583C168.972 201.99 168.199 201.337 167.479 200.655L167.869 200.249C168.575 200.917 169.325 201.555 170.105 202.133L169.775 202.583ZM205.007 201.72L204.715 201.24C205.548 200.737 206.373 200.197 207.169 199.634L207.491 200.092C206.688 200.662 205.848 201.21 205.007 201.72ZM164.988 197.871C164.387 197.083 163.824 196.242 163.314 195.379L163.802 195.094C164.297 195.934 164.845 196.752 165.438 197.525L164.988 197.871ZM210.44 197.803L210.073 197.375C210.808 196.752 211.536 196.085 212.249 195.402L212.639 195.807C211.919 196.497 211.183 197.173 210.44 197.803ZM215.221 193.12L214.8 192.745C215.438 192.032 216.084 191.282 216.714 190.509L217.149 190.862C216.519 191.65 215.866 192.407 215.221 193.12ZM161.678 192.017C161.311 191.094 160.995 190.134 160.748 189.173L161.288 189.031C161.536 189.976 161.843 190.907 162.196 191.815L161.678 192.017ZM219.438 187.927L218.988 187.59C219.573 186.802 220.143 185.999 220.706 185.181L221.171 185.504C220.594 186.329 220.023 187.132 219.438 187.927ZM160.065 185.489C159.96 184.528 159.907 183.553 159.907 182.584V182.502H160.47V182.592C160.47 183.53 160.523 184.491 160.628 185.429L160.065 185.489ZM223.228 182.419L222.755 182.112C223.288 181.286 223.82 180.453 224.346 179.613L224.819 179.913C224.293 180.761 223.76 181.594 223.228 182.419ZM160.725 178.847L160.17 178.772C160.305 177.797 160.5 176.806 160.74 175.838L161.288 175.973C161.048 176.919 160.86 177.887 160.725 178.847ZM226.77 176.754L226.289 176.461C226.8 175.621 227.31 174.773 227.82 173.925L228.3 174.217C227.79 175.065 227.28 175.913 226.77 176.754ZM162.384 172.461L161.858 172.259C162.211 171.336 162.609 170.42 163.044 169.52L163.547 169.767C163.119 170.653 162.721 171.561 162.384 172.461ZM230.214 171.043L229.734 170.75C230.244 169.91 230.754 169.062 231.272 168.214L231.752 168.507C231.235 169.355 230.724 170.203 230.214 171.043ZM165.333 166.556L164.853 166.255C165.37 165.422 165.941 164.589 166.533 163.786L166.984 164.124C166.406 164.912 165.843 165.73 165.333 166.556ZM233.711 165.362L233.238 165.062C233.764 164.229 234.304 163.396 234.844 162.563L235.317 162.871C234.769 163.704 234.229 164.537 233.711 165.362ZM237.373 159.809L236.908 159.487C237.471 158.676 238.041 157.866 238.626 157.063L239.084 157.393C238.506 158.196 237.936 158.999 237.373 159.809ZM241.32 154.459L240.878 154.114C241.5 153.326 242.131 152.553 242.754 151.81L243.181 152.17C242.566 152.905 241.936 153.671 241.32 154.459ZM245.628 149.401L245.215 149.018C245.89 148.29 246.588 147.57 247.279 146.88L247.676 147.277C246.986 147.968 246.303 148.681 245.628 149.401ZM250.355 144.748L249.98 144.328C250.716 143.668 251.481 143.015 252.239 142.392L252.592 142.827C251.841 143.443 251.083 144.088 250.355 144.748ZM255.511 140.576L255.181 140.118C255.976 139.54 256.801 138.97 257.627 138.43L257.935 138.903C257.117 139.435 256.299 140.006 255.511 140.576ZM261.064 136.966L260.779 136.479C261.627 135.991 262.505 135.503 263.383 135.053L263.645 135.556C262.775 135.998 261.904 136.479 261.064 136.966ZM266.962 133.942L266.729 133.432C267.622 133.027 268.545 132.637 269.469 132.269L269.679 132.794C268.763 133.154 267.855 133.545 266.962 133.942ZM273.131 131.518L272.95 130.986C273.881 130.67 274.826 130.363 275.78 130.078L275.937 130.618C274.999 130.896 274.054 131.203 273.131 131.518Z" fill="#263238"/>
<path d="M279.637 129.605L279.502 129.057C279.982 128.937 280.477 128.817 280.965 128.704L281.093 129.252C280.605 129.372 280.117 129.485 279.637 129.605Z" fill="#263238"/>
<path d="M280.162 123.347L274.437 130.873L282.496 127.827L310.081 126.558L280.162 123.347Z" fill="#FFCB0A"/>
<path opacity="0.1" d="M280.162 123.347L274.437 130.873L282.496 127.827L310.081 126.558L280.162 123.347Z" fill="#011108"/>
<path d="M282.714 130.063L274.437 130.873L282.496 127.827L282.714 130.063Z" fill="#263238"/>
<path d="M282.496 127.827L310.082 126.558L283.569 140.066L282.496 127.827Z" fill="#FFCB0A"/>
<path d="M280.162 123.347L271.938 113.494L310.081 126.558L280.162 123.347Z" fill="#FFCB0A"/>
<path d="M59.8833 323.491L198.703 324.091C232.442 297.594 235.932 258.347 211.858 234.551C197.293 220.158 178.787 223.062 161.175 220.773C161.16 220.773 161.145 220.766 161.122 220.766C154.984 219.963 148.973 218.537 143.255 215.52C125.117 205.953 114.889 183.38 99.6331 164.394C97.7345 162.016 95.7459 159.697 93.6597 157.468C81.1127 144.073 56.1387 143.63 43.0739 162.473C9.87536 210.328 25.0789 281.572 59.8833 323.491Z" fill="#FFCB0A"/>
<path d="M59.8833 323.491L198.703 324.091C232.442 297.594 235.932 258.347 211.858 234.551C197.293 220.158 178.787 223.062 161.175 220.773C161.16 220.773 161.145 220.766 161.122 220.766C154.984 219.963 148.973 218.537 143.255 215.52C125.117 205.953 114.889 183.38 99.6331 164.394C97.7345 162.016 95.7459 159.697 93.6597 157.468C81.1127 144.073 56.1387 143.63 43.0739 162.473C9.87536 210.328 25.0789 281.572 59.8833 323.491Z" fill="#009743"/>
<path opacity="0.1" d="M56.7991 213.982C60.4386 270.931 126.205 292.191 167.283 275.134C203.003 260.298 191.312 226.439 161.167 220.773C161.152 220.773 161.137 220.766 161.115 220.766C154.976 219.963 148.966 218.537 143.247 215.521C125.11 205.953 114.882 183.38 99.6256 164.394C76.8953 152.583 54.1351 172.281 56.7991 213.982Z" fill="#011108"/>
<path d="M179.276 328.001C177.272 327.266 132.044 291.118 131.189 288.649C130.858 287.711 135.744 280.822 141.875 272.658C143.195 270.894 144.576 269.086 145.987 267.247C155.127 255.338 165.108 242.911 165.108 242.911L195.432 267.007L175.478 290.675L171.103 295.876C171.103 295.876 182.232 317.458 182.878 320.272C183.508 323.071 181.279 328.736 179.276 328.001Z" fill="white"/>
<path d="M179.276 328.001C177.273 327.266 132.045 291.118 131.189 288.649C130.792 287.508 138.078 277.565 145.988 267.247L175.479 290.675L171.104 295.876C171.104 295.876 182.233 317.458 182.878 320.272C183.509 323.071 181.28 328.736 179.276 328.001Z" fill="white"/>
<path d="M179.276 328.001C177.272 327.266 132.044 291.118 131.189 288.649C130.858 287.711 135.744 280.822 141.875 272.658L171.103 295.876C171.103 295.876 182.232 317.458 182.878 320.272C183.508 323.071 181.279 328.737 179.276 328.001Z" fill="#011108"/>
<path d="M180.072 325.675C172.635 319.432 142.071 294.938 134.244 289.332C134.184 289.287 134.146 289.325 134.206 289.377C141.44 295.726 172.207 319.972 179.967 325.795C180.139 325.923 180.229 325.803 180.072 325.675Z" fill="#263238"/>
<path d="M181.265 316.325C179.524 314.816 177.085 314.261 175.246 314.554C173.483 314.831 171.517 315.634 170.316 317.248C170.279 317.293 170.361 317.36 170.406 317.323C173.213 314.704 177.993 314.254 181.182 316.422C181.257 316.46 181.325 316.37 181.265 316.325Z" fill="#263238"/>
<path d="M173.438 298.982C170.436 296.514 166.061 294.773 162.197 295.748C162.047 295.786 162.099 295.996 162.227 296.026C166.099 296.806 169.551 297.834 173.19 299.395C173.453 299.508 173.656 299.163 173.438 298.982Z" fill="#263238"/>
<path d="M175.051 301.767C172.05 299.298 167.675 297.557 163.81 298.532C163.66 298.57 163.713 298.78 163.84 298.81C167.712 299.59 171.164 300.618 174.804 302.179C175.066 302.292 175.269 301.947 175.051 301.767Z" fill="#263238"/>
<path d="M176.665 304.558C173.663 302.089 169.288 300.348 165.423 301.324C165.273 301.361 165.326 301.571 165.453 301.601C169.326 302.382 172.778 303.41 176.417 304.971C176.68 305.083 176.882 304.731 176.665 304.558Z" fill="#263238"/>
<path d="M178.278 307.342C175.276 304.873 170.901 303.132 167.037 304.108C166.887 304.145 166.939 304.356 167.067 304.386C170.939 305.166 174.391 306.194 178.03 307.755C178.293 307.868 178.496 307.515 178.278 307.342Z" fill="#263238"/>
<path d="M141.936 283.674C138.522 280.965 134.304 286.263 137.719 288.979C141.133 291.688 145.351 286.39 141.936 283.674Z" fill="white"/>
<path d="M183.194 293.505C182.676 291.006 179.749 290.698 177.738 291.268C174.489 292.184 171.037 294.345 168.778 296.821C168.725 296.881 168.748 296.949 168.8 296.986C168.688 297.257 168.8 297.647 169.153 297.669C172.508 297.902 176.065 298.562 179.389 297.759C181.34 297.294 183.681 295.876 183.194 293.505ZM174.316 296.979C172.665 296.904 171.022 296.746 169.371 296.739C171.119 295.658 172.815 294.51 174.676 293.61C175.562 293.182 176.485 292.754 177.423 292.446C178.886 291.974 183.891 291.816 181.55 295.358C180.259 297.317 176.282 297.069 174.316 296.979Z" fill="#263238"/>
<path d="M160.343 291.929C162.662 294.442 165.986 295.868 168.905 297.542C169.206 297.714 169.513 297.452 169.573 297.166C169.641 297.166 169.693 297.129 169.686 297.046C169.183 293.73 167.517 290.015 165.326 287.449C163.975 285.865 161.371 284.484 159.548 286.278C157.829 287.974 158.985 290.458 160.343 291.929ZM159.893 288.732C159.923 284.484 163.998 287.403 164.943 288.604C165.551 289.377 166.084 290.248 166.579 291.096C167.622 292.882 168.395 294.773 169.251 296.649C167.87 295.741 166.422 294.96 165.003 294.097C163.315 293.077 159.878 291.073 159.893 288.732Z" fill="#263238"/>
<path d="M226.057 220.684C223.978 236.442 185.152 281.918 180.664 287.141C180.004 287.906 179.644 288.326 179.644 288.326L147.526 263.645L147.893 263.165L176.177 226.132L91.8145 225.636L123.842 200.73C123.842 200.73 126.439 202.231 131.842 201.443C150.46 198.719 192.438 192.685 202.336 193.083C215.108 193.608 227.963 206.23 226.057 220.684Z" fill="#7696EA"/>
<path d="M186.337 212.369C185.242 213.479 184.364 214.868 183.418 216.106C182.42 217.419 181.4 218.717 180.402 220.031C180.394 220.046 180.379 220.053 180.372 220.068C180.552 219.685 180.724 219.295 180.904 218.92C181.535 217.614 182.037 216.264 182.78 215.018C182.825 214.943 182.713 214.868 182.66 214.943C181.895 216.181 181.009 217.359 180.349 218.665C180.041 219.28 179.749 219.896 179.479 220.533C179.328 220.879 179.178 221.224 179.043 221.576C178.983 221.734 178.908 221.907 178.863 222.079C178.413 222.687 177.978 223.302 177.542 223.918C176.589 225.299 175.749 226.754 174.788 228.128C174.736 228.203 174.856 228.27 174.908 228.203C175.884 226.92 176.98 225.719 177.97 224.436C178.976 223.137 179.936 221.802 180.882 220.451C181.805 219.138 182.705 217.809 183.628 216.496C184.559 215.175 185.654 213.862 186.412 212.436C186.442 212.384 186.382 212.324 186.337 212.369Z" fill="#263238"/>
<path d="M107.011 177.758L107.011 177.758C106.322 175.992 105.801 174.251 105.611 172.787C105.417 171.288 105.589 170.232 106.09 169.675C106.547 169.166 107.462 168.894 109.276 169.455C111.073 170.01 113.591 171.338 117.019 173.741L117.019 173.741C120.399 176.108 124.033 178.76 127.517 181.302C129.738 182.923 131.899 184.5 133.895 185.931C136.451 187.763 138.736 189.355 140.516 190.481C141.404 191.043 142.178 191.495 142.801 191.803C143.112 191.957 143.396 192.08 143.645 192.163C143.883 192.242 144.136 192.301 144.366 192.283L144.368 192.283C144.502 192.273 144.664 192.225 144.811 192.176C144.974 192.121 145.173 192.046 145.401 191.953C145.859 191.768 146.456 191.504 147.156 191.18C148.559 190.53 150.394 189.627 152.397 188.588C156.399 186.513 161.095 183.885 164.362 181.646L164.363 181.646C164.575 181.501 165.027 181.435 165.815 181.607C166.571 181.771 167.513 182.127 168.578 182.638C170.705 183.658 173.245 185.257 175.632 187.021C178.02 188.786 180.23 190.698 181.707 192.338C182.449 193.161 182.983 193.891 183.27 194.481C183.574 195.106 183.52 195.4 183.432 195.523C179.091 201.559 171.269 207.113 163.397 211.063C159.467 213.034 155.543 214.597 152.06 215.617C148.564 216.64 145.556 217.104 143.443 216.914L143.443 216.913C142.587 216.837 141.477 216.468 140.152 215.809C138.835 215.153 137.34 214.227 135.722 213.071C132.487 210.759 128.794 207.546 125.112 203.789C117.741 196.269 110.47 186.626 107.011 177.758Z" fill="white" stroke="#011108"/>
<path d="M163.554 175.116C163.59 175.143 163.627 175.172 163.668 175.202C163.935 175.402 164.311 175.672 164.751 175.948L165.153 176.2L163.554 175.116ZM163.554 175.116C165.13 171.858 167.555 168.141 168.499 166.772L168.499 166.771C168.969 166.087 169.768 165.565 170.77 165.178C171.765 164.793 172.912 164.561 174.012 164.424C175.109 164.288 176.142 164.25 176.902 164.245C177.282 164.243 177.592 164.25 177.806 164.257C177.913 164.26 177.996 164.264 178.052 164.266L178.115 164.269L178.13 164.27L178.134 164.27L178.134 164.271L178.134 164.271L178.134 164.271L178.941 164.32L178.626 163.576C178.033 162.179 176.975 161.03 175.803 159.781C175.752 159.727 175.7 159.672 175.649 159.617C174.501 158.396 173.217 157.03 171.987 155.16L171.987 155.159C171.07 153.767 170.854 152.92 170.922 152.466C170.951 152.267 171.035 152.145 171.154 152.057C171.287 151.959 171.497 151.881 171.803 151.852C172.42 151.792 173.273 151.945 174.188 152.275C175.093 152.601 176.009 153.081 176.74 153.628L176.74 153.629C189.617 163.24 190.176 177.443 189.592 182.8C189.175 186.605 186.998 190.572 184.882 193.623C183.83 195.141 182.803 196.417 182.04 197.313C181.659 197.76 181.343 198.113 181.124 198.352C181.116 198.362 181.107 198.371 181.099 198.38L164.388 184.679C163.836 182.13 163.971 180.112 164.243 178.734C164.382 178.029 164.557 177.49 164.694 177.132C164.763 176.953 164.822 176.819 164.863 176.732C164.884 176.688 164.9 176.657 164.91 176.637L164.921 176.616L164.922 176.614L164.922 176.614L164.922 176.613L164.923 176.613L163.554 175.116Z" fill="white" stroke="#011108"/>
<path d="M161.836 147.63L152.869 176.116C152.508 176.949 152.899 177.662 153.732 177.707L168.65 178.577C169.483 178.622 170.451 177.992 170.811 177.159L179.779 148.673C180.139 147.84 179.749 147.127 178.916 147.082L163.997 146.212C163.164 146.167 162.196 146.805 161.836 147.63Z" fill="#A6A6A6"/>
<path d="M163.607 147.72L154.639 176.206C154.279 177.039 154.669 177.752 155.502 177.797L170.42 178.667C171.253 178.712 172.221 178.082 172.582 177.249L181.549 148.763C181.909 147.93 181.519 147.217 180.686 147.172L165.768 146.302C164.935 146.257 163.967 146.887 163.607 147.72Z" fill="#C7C7C7"/>
<path d="M166.354 150.444C167.055 150.444 167.622 149.876 167.622 149.176C167.622 148.475 167.055 147.907 166.354 147.907C165.654 147.907 165.086 148.475 165.086 149.176C165.086 149.876 165.654 150.444 166.354 150.444Z" fill="#263238"/>
<path d="M189.294 175.125C187.65 172.777 184.093 167.854 179.778 164.837C174.991 161.49 164.852 156.327 162.421 159.892C160.635 162.503 164.327 164.815 164.327 164.815C164.327 164.815 159.689 163.561 158.594 166.278C157.596 168.747 160.56 170.368 160.56 170.368C160.56 170.368 157.618 170.09 157.116 172.657C156.508 175.741 162.774 175.816 164.867 179.47C165.325 180.288 189.294 175.125 189.294 175.125Z" fill="white"/>
<path d="M177.084 170.488C175.178 168.529 169.707 165.19 164.439 164.755C164.319 164.747 164.252 164.83 164.357 164.86C170.06 166.571 175.02 169.265 177.054 170.525C177.076 170.555 177.106 170.51 177.084 170.488Z" fill="#263238"/>
<path d="M173.565 175.231C171.749 173.707 165.955 170.525 160.597 170.263C160.477 170.255 160.41 170.345 160.522 170.375C166.556 171.921 171.426 174.135 173.535 175.276C173.565 175.291 173.587 175.246 173.565 175.231Z" fill="#263238"/>
<path d="M163.847 178.202C163.869 179.935 163.892 181.624 164.049 183.297C164.124 184.138 164.252 184.956 164.41 185.781C164.582 186.607 164.815 187.41 165.093 188.235C163.982 186.869 163.479 185.091 163.307 183.365C163.239 182.494 163.231 181.616 163.322 180.753C163.397 179.883 163.554 179.02 163.847 178.202Z" fill="#263238"/>
<path d="M116.015 196.475L129.786 181.091C129.786 181.091 118.837 171.704 110.898 168.154C102.958 164.605 101.847 169.722 105.329 177.444C108.826 185.159 116.015 196.475 116.015 196.475Z" fill="#C7C7C7"/>
<path d="M126.131 185.166L116.015 196.475C116.015 196.475 108.819 185.159 105.329 177.437C102.71 171.629 102.688 167.299 106.215 167.013L126.131 185.166Z" fill="#A6A6A6"/>
<path d="M125.853 178.75C123.519 180.941 117.374 187.08 113.929 191.62C113.907 191.65 114.004 191.74 114.034 191.717C117.494 188.4 123.88 181.286 125.996 178.892C126.041 178.847 125.898 178.712 125.853 178.75Z" fill="#263238"/>
<path d="M74.0074 234.867C74.15 235.017 129.058 222.987 129.569 222.35C130.281 221.449 120.466 180.168 110.118 167.847C107.529 164.762 99.2891 164.98 95.597 168.087C77.3093 183.493 73.4822 234.334 74.0074 234.867Z" fill="#EBEBEB"/>
<path fill-rule="evenodd" clip-rule="evenodd" d="M107.363 166.173L94.4936 169.085C94.8313 168.747 95.1765 168.44 95.5217 168.147L105.84 165.821C106.373 165.903 106.883 166.023 107.363 166.173ZM109.262 167.081L92.8427 170.788C92.58 171.073 92.3324 171.359 92.0922 171.659L109.915 167.637C109.727 167.434 109.502 167.254 109.262 167.081ZM110.83 168.762L90.8315 173.28C90.6214 173.55 90.4263 173.828 90.2312 174.113L111.273 169.363C111.13 169.16 110.988 168.957 110.83 168.762ZM112.068 170.518L89.1881 175.681C89.0155 175.951 88.8429 176.221 88.6778 176.499L112.459 171.126C112.331 170.923 112.196 170.721 112.068 170.518ZM113.164 172.304L87.7773 178.037C87.6272 178.308 87.4847 178.57 87.3421 178.84L113.524 172.927C113.404 172.717 113.284 172.507 113.164 172.304ZM114.177 174.113L86.5466 180.349C86.4191 180.611 86.284 180.874 86.1564 181.137L114.507 174.736C114.395 174.525 114.282 174.315 114.177 174.113ZM115.108 175.929L85.451 182.63C85.331 182.885 85.2184 183.148 85.0983 183.41L115.415 176.559C115.318 176.349 115.213 176.139 115.108 175.929ZM115.986 177.76L84.453 184.881C84.3479 185.136 84.2428 185.391 84.1378 185.654L116.278 178.398C116.188 178.18 116.091 177.97 115.986 177.76ZM116.826 179.606L83.5525 187.125C83.4474 187.38 83.3498 187.635 83.2523 187.89L117.111 180.244C117.014 180.026 116.924 179.816 116.826 179.606ZM117.629 181.459L82.7195 189.346C82.6219 189.601 82.5319 189.856 82.4493 190.112L117.899 182.105C117.809 181.887 117.719 181.669 117.629 181.459ZM118.394 183.32L81.9466 191.552C81.8565 191.808 81.774 192.055 81.6914 192.31L118.65 183.966C118.567 183.748 118.477 183.53 118.394 183.32ZM119.13 185.189L81.2262 193.751C81.1511 194.006 81.0686 194.254 80.9935 194.509L119.377 185.834C119.295 185.617 119.212 185.407 119.13 185.189ZM119.843 187.065L80.5658 195.935C80.4907 196.19 80.4157 196.438 80.3407 196.693L120.083 187.71C120 187.493 119.925 187.283 119.843 187.065ZM120.526 188.941L79.9429 198.111C79.8679 198.359 79.8004 198.614 79.7328 198.862L120.758 189.586C120.683 189.369 120.608 189.151 120.526 188.941ZM121.194 190.825L79.3576 200.272C79.2976 200.52 79.23 200.768 79.17 201.015L121.419 191.47C121.344 191.252 121.269 191.042 121.194 190.825ZM121.839 192.708L78.8173 202.426C78.7498 202.674 78.6897 202.921 78.6372 203.169L122.056 193.361C121.989 193.143 121.914 192.926 121.839 192.708ZM122.477 194.607L78.2995 204.58C78.2395 204.827 78.187 205.075 78.1269 205.323L122.687 195.26C122.619 195.042 122.544 194.824 122.477 194.607ZM123.085 196.498L77.8192 206.726C77.7667 206.974 77.7142 207.214 77.6617 207.461L123.295 197.158C123.227 196.94 123.16 196.715 123.085 196.498ZM123.685 198.396L77.369 208.857C77.3165 209.105 77.2639 209.352 77.2189 209.593L123.888 199.057C123.82 198.839 123.752 198.614 123.685 198.396ZM124.27 200.302L76.9413 210.988C76.8962 211.236 76.8437 211.484 76.8062 211.724L124.458 200.955C124.398 200.738 124.33 200.52 124.27 200.302ZM124.833 202.201L76.5435 213.112C76.4985 213.352 76.4535 213.6 76.416 213.84L125.021 202.861C124.961 202.644 124.893 202.426 124.833 202.201ZM125.381 204.114L76.1758 215.228C76.1308 215.476 76.0858 215.716 76.0483 215.956L125.568 204.775C125.508 204.557 125.448 204.34 125.381 204.114ZM125.921 206.028L75.8231 217.337C75.7856 217.584 75.7481 217.825 75.7106 218.065L126.109 206.688C126.041 206.471 125.981 206.253 125.921 206.028ZM126.439 207.942L75.5005 219.446C75.4629 219.693 75.4254 219.933 75.3879 220.173L126.619 208.602C126.567 208.384 126.506 208.167 126.439 207.942ZM126.957 209.863L75.1928 221.554C75.1628 221.802 75.1252 222.035 75.0952 222.275L127.129 210.523C127.069 210.305 127.017 210.088 126.957 209.863ZM127.444 211.784L74.9151 223.648C74.8851 223.888 74.8551 224.136 74.8251 224.376L127.617 212.452C127.565 212.234 127.505 212.009 127.444 211.784ZM127.925 213.705L74.66 225.742C74.63 225.989 74.6075 226.229 74.5774 226.462L128.082 214.373C128.03 214.155 127.977 213.93 127.925 213.705ZM128.383 215.633L74.4274 227.82C74.4048 228.068 74.3823 228.308 74.3598 228.541L128.533 216.301C128.488 216.084 128.435 215.859 128.383 215.633ZM128.818 217.569L74.2322 229.899C74.2097 230.147 74.1872 230.387 74.1722 230.619L128.96 218.245C128.915 218.027 128.87 217.802 128.818 217.569ZM129.215 219.521L74.0671 231.978C74.0521 232.225 74.0371 232.465 74.0221 232.683L129.343 220.188C129.306 219.978 129.261 219.761 129.215 219.521ZM129.546 221.479L73.9696 234.034C73.9546 234.364 73.9621 234.597 73.9696 234.732L129.598 222.17C129.598 222.019 129.583 221.787 129.546 221.479Z" fill="#FFCB0A"/>
<path d="M107.647 177.384C105.148 177.67 99.6179 173.355 97.3066 169.55C97.149 169.287 97.4341 166.451 97.6142 162.991C97.7193 160.89 97.7793 158.549 97.6893 156.403L111.264 159.067C111.264 159.067 110.146 163.614 110.334 167.351C110.356 167.667 110.394 167.952 110.469 168.229C110.476 168.267 110.491 168.319 110.491 168.372C110.844 170.023 111.557 176.934 107.647 177.384Z" fill="white"/>
<path d="M110.469 168.222C110.476 168.259 110.491 168.304 110.499 168.364C110.079 168.439 109.628 168.484 109.118 168.499C101.471 168.665 99.19 159.442 98.6797 156.59L111.279 159.059C111.279 159.059 110.161 163.607 110.341 167.344C110.364 167.659 110.401 167.944 110.469 168.222Z" fill="#263238"/>
<path d="M93.5627 139.901C92.7522 144.824 97.0822 158.136 100.857 160.725C106.32 164.485 114.357 163.832 117.313 157.468C120.188 151.3 114.237 134.048 110.109 131.789C104.031 128.465 94.7559 132.637 93.5627 139.901Z" fill="white"/>
<path d="M104.279 143.961C104.647 143.743 104.955 143.48 105.292 143.233C105.682 142.948 106.013 142.76 106.185 142.295C106.275 142.04 106.103 141.687 105.87 141.574C105.322 141.312 104.759 141.544 104.279 141.867C103.761 142.22 103.446 142.618 103.266 143.218C103.086 143.796 103.791 144.246 104.279 143.961Z" fill="#263238"/>
<path d="M113.194 141.349C112.766 141.402 112.368 141.379 111.948 141.387C111.468 141.394 111.085 141.454 110.665 141.184C110.44 141.042 110.357 140.651 110.485 140.419C110.763 139.879 111.348 139.721 111.926 139.683C112.549 139.646 113.044 139.781 113.554 140.141C114.042 140.501 113.757 141.282 113.194 141.349Z" fill="#263238"/>
<path d="M107.979 154.294C108.257 154.444 108.557 154.669 108.895 154.602C109.217 154.534 109.547 154.286 109.803 154.091C109.825 154.069 109.863 154.091 109.855 154.129C109.72 154.542 109.292 154.909 108.849 154.954C108.422 154.999 108.114 154.707 107.904 154.362C107.874 154.317 107.941 154.279 107.979 154.294Z" fill="#263238"/>
<path d="M108.144 151.307C108.879 151.945 109.749 152.155 110.597 152.08C110.98 152.05 111.363 151.953 111.723 151.81C111.798 151.788 111.866 151.758 111.926 151.728C111.986 151.698 112.046 151.675 112.113 151.638C112.211 151.593 112.248 151.488 112.233 151.382V151.375C112.226 151.345 112.218 151.315 112.196 151.285C112.196 151.285 112.196 151.285 112.196 151.277L112.173 151.195C111.993 150.489 111.61 149.454 111.61 149.454C111.903 149.506 113.374 149.717 113.246 149.356C112.188 146.392 111.018 143.098 109.337 140.374C109.284 140.284 109.142 140.351 109.179 140.449C110.08 143.338 111.49 146.047 112.443 148.936C111.986 148.899 111.22 148.801 110.86 148.921C110.77 148.981 111.626 150.917 111.678 151.24C111.678 151.24 111.686 151.255 111.686 151.277C110.56 151.765 109.569 151.668 108.204 151.217C108.121 151.172 108.069 151.255 108.144 151.307Z" fill="#263238"/>
<path d="M111.213 151.578C111.213 151.578 110.838 152.591 110.08 153.138C109.802 153.341 109.479 153.484 109.097 153.491C108.316 153.514 108.106 152.853 108.076 152.245C108.046 151.75 108.144 151.285 108.144 151.285C108.144 151.285 109.487 151.968 111.213 151.578Z" fill="#263238"/>
<path d="M110.072 153.139C109.794 153.341 109.472 153.484 109.089 153.491C108.308 153.514 108.098 152.853 108.068 152.246C108.871 152.103 109.787 152.403 110.072 153.139Z" fill="#FF9BBC"/>
<path d="M105.045 146.182C105.03 145.949 105.075 145.694 105.195 145.447C105.322 145.199 105.585 145.026 105.848 144.959C106.125 144.891 106.448 144.989 106.643 145.169C106.838 145.349 106.973 145.559 107.056 145.784C107.108 145.927 107.146 146.069 107.183 146.212C107.251 146.52 107.259 146.835 107.183 147.135C107.146 146.91 107.086 146.692 107.003 146.49C106.928 146.294 106.846 146.114 106.741 145.942C106.531 145.582 106.238 145.311 105.93 145.401C105.608 145.469 105.428 145.784 105.382 146.197C105.337 146.602 105.375 147.037 105.412 147.488C105.21 147.09 105.067 146.655 105.045 146.182Z" fill="#263238"/>
<path d="M113.832 143.383C113.719 143.173 113.547 142.985 113.314 142.843C113.081 142.7 112.759 142.693 112.503 142.775C112.233 142.865 112.008 143.12 111.941 143.375C111.873 143.631 111.873 143.886 111.918 144.118C111.948 144.268 111.993 144.411 112.038 144.546C112.143 144.839 112.301 145.116 112.526 145.327C112.436 145.116 112.376 144.899 112.331 144.681C112.293 144.479 112.271 144.276 112.256 144.081C112.241 143.668 112.346 143.278 112.654 143.195C112.961 143.075 113.284 143.248 113.539 143.578C113.794 143.901 113.997 144.283 114.199 144.689C114.177 144.238 114.064 143.796 113.832 143.383Z" fill="#263238"/>
<path d="M113.629 135.706C109.547 140.104 101.81 136.599 101.81 136.599C101.105 140.719 97.2325 141.124 97.2325 141.124C97.2325 141.124 98.1255 149.506 95.9718 149.972C92.685 150.692 89.1505 139.788 89.6908 137.372C90.2311 134.948 92.8876 133.762 92.8876 133.762C92.8876 133.762 92.7075 132.021 94.3884 130.01C96.242 127.789 104.504 128.352 104.504 128.352C104.504 128.352 104.714 126.791 105.885 125.23C106.628 124.247 107.888 124.127 108.872 124.84C108.616 125.463 108.489 126.206 108.541 127.031C108.691 129.508 110.65 129.065 110.14 126.904C109.915 125.943 109.434 125.253 108.872 124.84C109.517 123.204 110.988 122.386 112.113 122.934C114.162 123.909 117.029 132.051 113.629 135.706Z" fill="#263238"/>
<path d="M106.785 150.692C105.081 151.03 103.295 150.189 102.515 148.553C101.592 146.617 102.417 144.291 104.353 143.368C106.289 142.445 108.616 143.27 109.539 145.206C110.462 147.142 109.636 149.469 107.7 150.392C107.408 150.534 107.1 150.632 106.785 150.692ZM105.374 143.57C105.104 143.623 104.841 143.713 104.578 143.833C102.905 144.636 102.185 146.647 102.988 148.328C103.791 150.002 105.802 150.722 107.483 149.919C109.156 149.116 109.876 147.105 109.074 145.424C108.398 144.006 106.852 143.278 105.374 143.57Z" fill="#009743"/>
<path d="M115.085 147.945C113.615 148.163 112.054 146.857 111.521 144.899C111.251 143.908 111.281 142.903 111.603 142.062C111.934 141.192 112.534 140.599 113.299 140.389C114.065 140.179 114.883 140.389 115.611 140.974C116.316 141.537 116.849 142.4 117.112 143.383C117.674 145.454 116.871 147.48 115.333 147.893C115.251 147.915 115.168 147.93 115.085 147.945ZM113.63 140.846C113.562 140.854 113.502 140.869 113.435 140.884C112.834 141.049 112.361 141.529 112.091 142.235C111.806 142.978 111.784 143.871 112.024 144.756C112.511 146.55 113.93 147.735 115.198 147.39C116.466 147.045 117.097 145.311 116.609 143.518C116.369 142.632 115.896 141.875 115.281 141.379C114.755 140.944 114.177 140.764 113.63 140.846Z" fill="#009743"/>
<path d="M109.554 145.672L109.111 145.394C109.517 144.741 110.612 143.69 111.828 144.366L111.573 144.824C110.492 144.208 109.592 145.611 109.554 145.672Z" fill="#009743"/>
<path d="M93.3755 151.96L92.8652 151.878C92.9028 151.637 93.2855 149.521 94.3286 148.988C95.3116 148.493 102.14 146.962 102.433 146.902L102.546 147.413C100.587 147.848 95.3191 149.063 94.5687 149.454C93.8708 149.799 93.4731 151.375 93.3755 151.96Z" fill="#009743"/>
<path d="M97.975 150.632C97.975 150.632 94.2155 146.707 92.3919 148.118C90.5684 149.521 93.8703 155.547 96.3466 156.057C98.823 156.568 99.3408 154.279 99.3408 154.279L97.975 150.632Z" fill="white"/>
<path d="M93.3826 149.821C93.3451 149.821 93.3451 149.874 93.3826 149.889C95.1311 150.302 96.2342 151.69 97.0822 153.176C96.4969 152.643 95.784 152.41 95.0561 153.123C95.0185 153.161 95.0711 153.221 95.1161 153.206C95.769 152.958 96.2718 152.996 96.8121 153.469C97.1948 153.799 97.4874 154.249 97.7876 154.654C97.8851 154.789 98.1403 154.669 98.0577 154.512C98.0502 154.497 98.0427 154.489 98.0352 154.474C97.7426 152.358 95.6639 149.679 93.3826 149.821Z" fill="#263238"/>
<path d="M91.0333 183.335C94.8454 206.673 104.353 221.832 108.796 222.56C118.733 224.198 134.376 210.981 142.853 203.818C144.587 202.353 146.02 201.142 147.045 200.362C149.483 198.509 129.575 181.842 127.219 184.123C124.044 187.195 120.248 191.268 117.507 194.21C115.453 196.413 113.991 197.982 113.824 198.021M91.0333 183.335L91.5268 183.255C93.4253 194.878 96.7407 204.453 100.125 211.202C101.818 214.578 103.522 217.235 105.066 219.085C105.838 220.011 106.563 220.725 107.217 221.225C107.877 221.73 108.435 221.994 108.877 222.066L108.877 222.066C111.727 222.536 115.128 221.728 118.77 220.113C122.402 218.502 126.213 216.118 129.855 213.516C133.496 210.916 136.955 208.11 139.886 205.662C140.818 204.883 141.699 204.139 142.516 203.448C144.257 201.977 145.707 200.752 146.742 199.964L146.742 199.964C146.746 199.961 146.744 199.963 146.744 199.963C146.745 199.959 146.754 199.934 146.751 199.877C146.744 199.753 146.688 199.552 146.543 199.263C146.256 198.692 145.703 197.936 144.93 197.051C143.394 195.291 141.083 193.124 138.611 191.077C136.139 189.03 133.529 187.121 131.4 185.868C130.332 185.24 129.409 184.791 128.697 184.567C128.34 184.454 128.063 184.407 127.861 184.409C127.66 184.411 127.589 184.461 127.566 184.482L127.566 184.483C124.8 187.159 121.557 190.602 118.95 193.394C118.578 193.794 118.218 194.18 117.874 194.549C117.019 195.467 116.264 196.276 115.663 196.911C115.243 197.355 114.893 197.718 114.635 197.973C114.507 198.101 114.396 198.207 114.307 198.285C114.264 198.323 114.219 198.361 114.175 198.392C114.154 198.408 114.126 198.427 114.095 198.445C114.071 198.459 114.013 198.49 113.936 198.508M91.0333 183.335C89.4799 173.797 92.9318 165.753 100.661 177.887M91.0333 183.335L91.5267 183.255C91.1444 180.907 91.0725 178.664 91.2919 176.813C91.514 174.939 92.0244 173.555 92.7252 172.832C93.0631 172.484 93.4362 172.297 93.8505 172.262C94.2728 172.226 94.7942 172.344 95.4269 172.711C96.7069 173.452 98.3191 175.141 100.239 178.156L100.661 177.887M113.936 198.508L113.824 198.021M113.936 198.508C113.936 198.508 113.937 198.508 113.937 198.508L113.824 198.021M113.936 198.508C113.734 198.555 113.555 198.499 113.43 198.437C113.305 198.375 113.191 198.285 113.089 198.19C112.883 198 112.65 197.719 112.383 197.359C111.847 196.635 111.112 195.504 110.114 193.916C109.489 192.921 108.758 191.744 107.904 190.367C106.018 187.329 103.529 183.319 100.239 178.156L100.661 177.887M113.824 198.021C113.317 198.139 111.925 195.898 108.331 190.108C106.445 187.069 103.952 183.053 100.661 177.887" fill="white" stroke="#011108"/>
<path d="M157.718 161.908L157.717 161.907C157.246 161.188 156.179 160.857 154.518 160.963C152.897 161.067 150.902 161.578 148.858 162.288C144.767 163.71 140.625 165.876 139.147 166.926L139.146 166.926C137.835 167.854 136.416 169.478 135.013 171.436C133.617 173.385 132.263 175.626 131.077 177.754C129.891 179.882 128.877 181.888 128.159 183.363C127.8 184.1 127.515 184.704 127.321 185.124C127.263 185.248 127.213 185.355 127.172 185.446L144.926 201.485C147.212 200.524 151.563 197.925 155.324 194.786C157.282 193.152 159.057 191.391 160.292 189.66C161.536 187.916 162.176 186.28 162.007 184.873C161.885 183.864 161.432 183.02 160.995 182.42C160.779 182.122 160.57 181.889 160.417 181.732C160.34 181.654 160.278 181.595 160.236 181.557C160.215 181.537 160.2 181.523 160.19 181.515L160.18 181.506L160.179 181.505L160.179 181.505L160.178 181.505L160.178 181.505L160.178 181.505L159.914 181.284L157.718 161.908ZM157.718 161.908C157.991 162.324 157.964 162.805 157.631 163.402C157.293 164.01 156.684 164.643 155.982 165.231C155.289 165.813 154.54 166.322 153.961 166.687C153.672 166.869 153.428 167.014 153.256 167.114C153.171 167.163 153.103 167.201 153.058 167.227L153.006 167.255L152.993 167.262L152.991 167.264L152.99 167.264L152.99 167.264L152.99 167.264C152.99 167.264 152.99 167.264 152.99 167.265L153.24 168.203C153.24 168.204 153.24 168.204 153.24 168.204L153.24 168.204L153.241 168.204L153.253 168.204C153.265 168.204 153.284 168.204 153.31 168.204C153.361 168.205 153.439 168.208 153.538 168.216C153.737 168.231 154.018 168.264 154.342 168.336C154.994 168.483 155.789 168.782 156.437 169.384C157.071 169.972 157.116 170.946 156.907 171.938C156.807 172.414 156.657 172.849 156.53 173.167C156.467 173.326 156.411 173.453 156.371 173.54C156.351 173.583 156.335 173.616 156.324 173.638L156.313 173.661L156.31 173.666L156.31 173.667L156.31 173.667L156.31 173.667L156.31 173.667L156.002 174.267L156.665 174.387L156.665 174.387L156.665 174.387L156.666 174.387L156.666 174.387L156.667 174.387L156.68 174.39C156.693 174.392 156.712 174.396 156.739 174.402C156.792 174.414 156.873 174.434 156.974 174.462C157.178 174.518 157.466 174.609 157.796 174.747C158.46 175.025 159.268 175.483 159.907 176.207C160.481 176.858 160.566 177.97 160.44 179.061C160.379 179.584 160.275 180.062 160.186 180.41C160.141 180.583 160.101 180.722 160.072 180.818C160.057 180.865 160.045 180.902 160.038 180.926L160.029 180.952L160.027 180.958L160.027 180.959L160.027 180.959L160.027 180.959L157.718 161.908Z" fill="white" stroke="#011108"/>
<path d="M153.13 167.667C149.198 168.852 145.566 170.976 142.076 173.062C142.001 173.107 142.069 173.227 142.151 173.182C145.596 171.066 149.686 169.82 153.213 167.847C153.31 167.794 153.235 167.637 153.13 167.667Z" fill="#263238"/>
<path d="M156.5 173.693C155.622 173.985 154.841 174.571 154.076 175.081C153.25 175.629 152.44 176.199 151.63 176.777C150.016 177.932 148.433 179.126 146.879 180.364C146.812 180.416 146.879 180.536 146.954 180.484C148.56 179.336 150.189 178.21 151.847 177.129C152.673 176.589 153.513 176.056 154.346 175.524C155.126 175.028 155.989 174.578 156.642 173.925C156.732 173.828 156.627 173.647 156.5 173.693Z" fill="#263238"/>
<path d="M160.424 181.167C159.651 181.392 158.946 182.06 158.308 182.532C157.588 183.073 156.86 183.613 156.124 184.146C154.668 185.211 153.205 186.284 151.712 187.297C151.637 187.35 151.712 187.47 151.787 187.418C153.31 186.389 154.849 185.391 156.364 184.348C157.107 183.838 157.85 183.328 158.586 182.802C159.216 182.36 160.049 181.879 160.477 181.227C160.507 181.197 160.462 181.152 160.424 181.167Z" fill="#263238"/>
<path d="M161.782 182.728C162.465 183.673 162.758 184.904 162.638 186.097C162.54 187.298 161.97 188.423 161.317 189.391C159.996 191.35 158.368 193.061 156.642 194.652C154.908 196.235 153.047 197.668 151.089 198.959C149.13 200.25 147.059 201.36 144.898 202.268L144.95 202.231C143.585 203.364 142.196 204.475 140.793 205.57C142.069 204.332 143.359 203.109 144.673 201.908L144.695 201.893L144.733 201.878C146.819 200.873 148.8 199.672 150.706 198.374C152.612 197.076 154.436 195.65 156.162 194.111C157.873 192.566 159.516 190.93 160.904 189.099C161.602 188.183 162.135 187.178 162.338 186.059C162.533 184.941 162.345 183.748 161.782 182.728Z" fill="#263238"/>
<path d="M93.3823 202.306L111.753 192.873C111.753 192.873 104.886 180.183 98.7478 174.03C92.6094 167.869 89.7353 172.252 90.223 180.709C90.7183 189.158 93.3823 202.306 93.3823 202.306Z" fill="#FFCB0A"/>
<path d="M108.473 189.301C105.509 190.517 97.5769 194.044 92.7367 197.053C92.7067 197.068 92.7667 197.196 92.7967 197.181C97.2092 195.327 105.719 190.967 108.563 189.489C108.608 189.459 108.526 189.279 108.473 189.301Z" fill="#263238"/>
<path d="M296.529 287.036C295.786 289.039 259.496 334.147 257.027 334.995C256.089 335.318 249.215 330.417 241.073 324.256C239.317 322.928 237.509 321.54 235.678 320.129C223.799 310.951 211.409 300.933 211.409 300.933L235.603 270.684L259.211 290.713L264.396 295.103C264.396 295.103 286.016 284.049 288.83 283.411C291.614 282.781 297.265 285.032 296.529 287.036Z" fill="white"/>
<path d="M296.529 287.036C295.786 289.039 259.496 334.147 257.027 334.995C255.887 335.385 245.966 328.068 235.678 320.129L259.203 290.713L264.389 295.103C264.389 295.103 286.008 284.049 288.822 283.411C291.614 282.781 297.265 285.032 296.529 287.036Z" fill="white"/>
<path d="M296.529 287.036C295.786 289.039 259.496 334.147 257.027 334.995C256.089 335.318 249.215 330.417 241.073 324.256L264.389 295.103C264.389 295.103 286.008 284.049 288.822 283.411C291.614 282.781 297.265 285.032 296.529 287.036Z" fill="#011108"/>
<path d="M294.203 286.225C287.937 293.64 263.346 324.129 257.711 331.934C257.665 331.994 257.703 332.031 257.756 331.971C264.127 324.76 288.47 294.067 294.324 286.323C294.451 286.165 294.339 286.075 294.203 286.225Z" fill="#263238"/>
<path d="M284.853 285.002C283.337 286.736 282.781 289.174 283.059 291.013C283.329 292.777 284.125 294.743 285.738 295.951C285.783 295.988 285.851 295.906 285.813 295.861C283.202 293.047 282.766 288.267 284.95 285.077C284.995 285.017 284.905 284.942 284.853 285.002Z" fill="#263238"/>
<path d="M267.496 292.776C265.019 295.771 263.263 300.138 264.224 304.01C264.262 304.16 264.472 304.108 264.502 303.98C265.29 300.108 266.333 296.664 267.909 293.024C268.021 292.769 267.668 292.559 267.496 292.776Z" fill="#263238"/>
<path d="M270.28 291.171C267.804 294.165 266.048 298.532 267.008 302.404C267.046 302.554 267.256 302.502 267.286 302.374C268.074 298.502 269.117 295.058 270.693 291.418C270.805 291.163 270.46 290.953 270.28 291.171Z" fill="#263238"/>
<path d="M273.071 289.565C270.595 292.559 268.839 296.926 269.799 300.799C269.837 300.949 270.047 300.896 270.077 300.769C270.865 296.896 271.908 293.452 273.484 289.812C273.596 289.557 273.251 289.355 273.071 289.565Z" fill="#263238"/>
<path d="M275.863 287.966C273.387 290.961 271.631 295.328 272.591 299.2C272.629 299.35 272.839 299.298 272.869 299.17C273.657 295.298 274.7 291.854 276.276 288.214C276.388 287.951 276.043 287.749 275.863 287.966Z" fill="#263238"/>
<path d="M252.082 324.234C249.358 327.641 254.648 331.873 257.372 328.466C260.089 325.059 254.806 320.82 252.082 324.234Z" fill="white"/>
<path d="M262.047 283.006C259.541 283.516 259.233 286.443 259.796 288.454C260.704 291.703 262.85 295.163 265.327 297.429C265.387 297.482 265.454 297.459 265.492 297.407C265.762 297.519 266.152 297.407 266.175 297.061C266.415 293.707 267.09 290.15 266.302 286.826C265.829 284.875 264.411 282.526 262.047 283.006ZM265.492 291.891C265.409 293.542 265.252 295.185 265.237 296.836C264.163 295.08 263.023 293.384 262.122 291.523C261.695 290.638 261.274 289.715 260.967 288.777C260.494 287.313 260.359 282.308 263.893 284.657C265.844 285.955 265.589 289.925 265.492 291.891Z" fill="#263238"/>
<path d="M260.389 305.849C262.91 303.537 264.351 300.221 266.032 297.301C266.204 297.001 265.949 296.694 265.664 296.634C265.664 296.574 265.627 296.506 265.544 296.521C262.227 297.009 258.505 298.667 255.931 300.851C254.34 302.194 252.959 304.798 254.738 306.622C256.426 308.348 258.918 307.2 260.389 305.849ZM257.199 306.291C252.952 306.254 255.879 302.187 257.094 301.241C257.875 300.633 258.738 300.108 259.593 299.613C261.379 298.577 263.278 297.812 265.154 296.964C264.238 298.345 263.45 299.793 262.587 301.204C261.552 302.885 259.541 306.314 257.199 306.291Z" fill="#263238"/>
<path d="M257.935 286.143L232.758 320.107L147.811 261.161L139.616 255.473C139.616 255.473 137.297 257.034 133.808 258.963C128.96 261.642 121.854 265.041 115.565 265.964C105.022 267.525 87.4094 267.36 78.5245 255.473C71.0353 245.462 75.1026 232.405 75.1026 232.405L86.6815 227.43C86.6815 227.43 114.079 204.602 131.834 203.912C139.376 203.612 150.347 209.322 160.515 215.296C170.676 221.269 257.935 286.143 257.935 286.143Z" fill="#7696EA"/>
<path d="M139.623 255.481C139.623 255.481 137.305 257.041 133.815 258.97C127.647 251.578 114.574 238.161 114.177 237.688L139.623 255.481Z" fill="#263238"/>
<path d="M96.7223 219.798C95.0864 220.939 93.503 222.147 91.8821 223.31C90.2912 224.458 88.6553 225.539 87.1395 226.792C85.6011 228.068 84.1453 229.426 82.697 230.799C81.9991 231.46 81.3087 232.127 80.6333 232.818C79.9654 233.501 79.215 234.184 78.6597 234.957C78.6072 235.032 78.7122 235.114 78.7798 235.069C79.5602 234.566 80.2656 233.876 80.9785 233.283C81.7439 232.638 82.5019 231.985 83.2673 231.332C84.7381 230.079 86.239 228.863 87.7098 227.61C89.1731 226.364 90.5239 224.999 91.9647 223.738C93.5105 222.387 95.1464 221.126 96.7523 219.851C96.7899 219.828 96.7598 219.776 96.7223 219.798Z" fill="#263238"/>
<path d="M252.021 284.927C250.385 286.691 248.877 288.589 247.354 290.45C245.823 292.319 244.307 294.195 242.799 296.078C239.782 299.853 236.735 303.605 233.771 307.417C232.143 309.511 230.529 311.62 229.014 313.803C228.946 313.901 229.104 314.013 229.179 313.923C232.428 310.351 235.392 306.539 238.409 302.772C241.425 298.997 244.435 295.215 247.399 291.388C249.02 289.295 250.686 287.216 252.179 285.032C252.231 284.95 252.089 284.852 252.021 284.927Z" fill="#263238"/>
<path d="M182.307 285.272C178.082 281.94 173.7 278.796 169.317 275.674C164.957 272.568 160.597 269.446 156.177 266.437C154.909 265.574 153.626 264.726 152.343 263.87C151.067 263.022 149.739 262.234 148.486 261.356C148.411 261.304 148.351 261.424 148.418 261.476C149.566 262.302 150.654 263.225 151.78 264.08C152.861 264.898 153.926 265.724 155.014 266.527C157.138 268.095 159.277 269.641 161.423 271.187C165.76 274.324 170.135 277.423 174.548 280.455C177.054 282.173 179.553 283.899 182.112 285.535C182.269 285.632 182.45 285.385 182.307 285.272Z" fill="#263238"/>
<path d="M209.473 250.228C205.57 246.993 201.383 244.082 197.286 241.088C193.143 238.063 189.024 235.002 184.866 232C180.739 229.021 176.619 226.034 172.492 223.055C168.492 220.166 164.515 217.232 160.29 214.673C157.979 213.269 155.607 211.971 153.176 210.808C150.812 209.675 148.351 208.519 145.822 207.806C145.747 207.784 145.702 207.896 145.769 207.934C147.848 209.097 150.039 210.073 152.14 211.198C154.219 212.309 156.275 213.472 158.294 214.695C162.489 217.239 166.443 220.121 170.421 222.98C178.675 228.916 186.922 234.882 195.237 240.735C199.89 244.014 204.452 247.474 209.285 250.483C209.435 250.58 209.615 250.348 209.473 250.228Z" fill="#263238"/>
<path d="M302.892 209.284C293.722 221.704 284.162 236.119 281.828 251.698C281.798 251.931 282.181 252.013 282.233 251.773C283.299 247.503 284.642 243.353 286.285 239.301C292.311 237.643 298.232 236.277 301.399 230.296C304.626 224.143 304.22 216.121 303.605 209.419C303.567 209.059 303.08 209.044 302.892 209.284Z" fill="#FFCB0A"/>
<path d="M286.382 239.181C290.502 229.936 295.793 220.653 302.516 213.052C302.561 212.999 302.629 213.074 302.591 213.127C298.186 218.545 294.847 224.435 291.575 230.439C294.614 227.355 297.939 224.593 300.813 221.329C300.865 221.269 300.955 221.359 300.903 221.419C298.044 224.848 294.93 228.57 291.208 231.107C290.209 232.945 289.204 234.791 288.183 236.637C288.431 236.495 288.694 236.375 288.949 236.247C288.994 236.225 289.031 236.292 288.986 236.315C288.701 236.457 288.423 236.607 288.131 236.735C287.651 237.605 287.17 238.483 286.675 239.354C286.562 239.549 286.292 239.376 286.382 239.181Z" fill="#263238"/>
<path d="M289.444 235.954C291.906 234.544 294.27 233.028 296.483 231.257C296.543 231.212 296.633 231.294 296.566 231.339C294.397 233.178 292.078 234.821 289.542 236.127C289.429 236.187 289.332 236.022 289.444 235.954Z" fill="#263238"/>
<path d="M280.769 249.379C280.784 249.567 281.107 249.567 281.107 249.364C281.152 244.231 281.115 239.084 281.19 233.928C282.503 231.279 285.324 229.808 287.283 227.685C288.694 226.154 289.909 224.42 290.945 222.589C293.369 218.252 294.682 213.367 295.192 208.436C295.733 202.951 293.654 184.843 291.335 185.474C290.135 185.796 286.255 194.764 285.227 197.735C283.538 202.613 282.353 207.663 281.58 212.766C279.696 224.833 279.854 237.23 280.769 249.379Z" fill="#FFCB0A"/>
<path d="M280.732 227.249C280.74 227.242 280.747 227.234 280.755 227.227C281.032 220.736 282.496 214.185 283.869 207.889C285.34 201.105 287.066 194.719 290.555 188.67C290.623 188.558 290.788 188.655 290.728 188.768C288.356 193.451 286.653 198.418 285.355 203.514C285.587 203.146 285.872 202.801 286.113 202.456C286.21 202.321 286.435 202.448 286.338 202.591C285.992 203.101 285.685 203.701 285.25 204.129C285.235 204.144 285.22 204.144 285.205 204.152C284.004 208.999 283.141 213.96 282.405 218.905C282.458 218.845 282.511 218.777 282.571 218.717C282.608 218.68 282.676 218.732 282.646 218.777C282.556 218.942 282.45 219.107 282.353 219.265C281.978 221.779 281.64 224.278 281.287 226.762C285.76 222.942 289.572 218.44 291.726 212.886C291.733 212.864 291.778 212.871 291.771 212.901C289.662 218.657 286.338 223.775 281.22 227.264C281.13 227.932 281.032 228.6 280.935 229.268C280.912 229.403 280.694 229.373 280.694 229.238C280.694 228.645 280.725 228.052 280.747 227.46C280.687 227.407 280.657 227.317 280.732 227.249Z" fill="#263238"/>
<path d="M282.84 217.847C286.255 212.751 289.444 207.799 291.943 202.163C291.973 202.103 292.078 202.148 292.056 202.208C289.947 207.806 286.998 213.479 283.013 217.974C282.93 218.072 282.765 217.952 282.84 217.847Z" fill="#263238"/>
<path d="M287.381 200.902C288.799 198.396 290.285 195.964 291.621 193.405C291.658 193.338 291.756 193.398 291.726 193.465C290.607 196.077 289.272 198.726 287.598 201.022C287.501 201.157 287.298 201.045 287.381 200.902Z" fill="#263238"/>
<path d="M286.825 201.99C286.855 201.99 286.855 202.036 286.825 202.036C286.795 202.036 286.795 201.99 286.825 201.99Z" fill="#263238"/>
<path d="M277.295 234.544C277.205 237.943 276.837 241.342 276.094 244.652C276.147 245.019 276.199 245.38 276.252 245.755C277.325 242.07 277.88 238.296 278.06 234.491C278.12 234.386 278.143 234.273 278.075 234.146C278.075 234.146 278.075 234.146 278.075 234.138C278.27 229.051 277.797 223.91 276.942 218.875C275.351 209.45 271.884 200.4 265.311 193.338C265.1 193.12 264.688 193.233 264.583 193.488C261.926 200.234 262.857 208.286 265.115 215.01C266.346 218.635 268.102 222.117 270.331 225.231C272.59 228.398 275.464 231.077 277.295 234.544Z" fill="#FFCB0A"/>
<path d="M266.09 196.482C272.319 206.598 276.656 218.582 277.189 230.529C277.197 230.739 276.844 230.799 276.814 230.581C276.664 229.508 276.499 228.443 276.334 227.384C276.334 227.384 276.326 227.384 276.326 227.377C273.745 224.908 271.103 222.304 269.257 219.22C269.227 219.167 269.302 219.1 269.347 219.152C271.591 221.719 273.685 224.338 276.214 226.627C275.771 223.985 275.238 221.389 274.615 218.822C274.45 218.635 274.285 218.432 274.12 218.244C274.015 218.117 274.195 217.929 274.308 218.057C274.36 218.109 274.405 218.169 274.458 218.222C273.572 214.702 272.499 211.265 271.201 207.881C269.617 205.99 267.839 204.354 266.683 202.073C266.653 202.02 266.728 201.975 266.766 202.028C267.696 203.334 268.597 204.639 269.647 205.855C270.068 206.335 270.525 206.785 270.961 207.258C269.542 203.649 267.861 200.107 265.858 196.625C265.76 196.467 266 196.332 266.09 196.482Z" fill="#263238"/>
<path d="M267.351 208.962C269.362 211.671 271.659 214.26 273.535 217.059C273.587 217.141 273.475 217.224 273.407 217.156C270.998 214.898 268.965 211.821 267.224 209.037C267.164 208.954 267.291 208.879 267.351 208.962Z" fill="#263238"/>
<path d="M273.812 217.689L273.895 217.772C273.955 217.832 273.865 217.923 273.805 217.862L273.722 217.78C273.662 217.719 273.752 217.629 273.812 217.689Z" fill="#263238"/>
<path d="M256.328 215.926C256.831 221.126 259.563 227.34 262.902 231.354C264.38 233.125 266.174 234.484 268.237 235.512C270.549 236.652 272.965 237.973 275.351 238.911C276.469 241.763 277.325 244.749 277.873 247.864C277.948 247.601 278.023 247.331 278.105 247.068C276.575 233.898 268.05 222.634 257.146 215.408C256.748 215.145 256.283 215.483 256.328 215.926Z" fill="#FFCB0A"/>
<path d="M260.095 219.82C260.02 219.753 260.125 219.618 260.208 219.678C265.986 223.955 271.194 230.199 274.098 236.802C274.18 236.982 273.933 237.14 273.828 236.96C273.317 236.074 272.807 235.211 272.282 234.363H272.274C269.783 233.898 267.427 232.142 265.581 230.484C265.528 230.439 265.603 230.364 265.656 230.409C266.624 231.257 267.652 232.037 268.807 232.622C269.82 233.14 270.916 233.463 271.967 233.876C271.044 232.412 270.083 231.009 269.078 229.643C266.399 228.728 263.847 227.084 261.596 225.441C261.528 225.388 261.588 225.276 261.663 225.321C263.96 226.702 266.218 227.917 268.612 229.035C267.104 227.039 265.468 225.141 263.705 223.31C262.857 222.867 262.001 222.417 261.183 221.936C261.116 221.899 261.161 221.786 261.236 221.809C261.889 222.027 262.556 222.372 263.172 222.762C262.196 221.756 261.183 220.773 260.095 219.82Z" fill="#263238"/>
<path d="M260.328 224.368C260.478 224.465 260.613 224.548 260.748 224.668C260.786 224.706 260.741 224.758 260.696 224.736C260.538 224.668 260.403 224.578 260.26 224.488C260.185 224.435 260.253 224.315 260.328 224.368Z" fill="#263238"/>
<path d="M295.118 276.379H265.244L267.653 249.177L268.186 243.173H292.177L292.71 249.177L295.118 276.379Z" fill="#455A64"/>
<path d="M292.709 249.177H267.652L268.185 243.173H292.176L292.709 249.177Z" fill="#263238"/>
<path d="M293.602 238.979H266.752V244.914H293.602V238.979Z" fill="#455A64"/>
</svg>
