<svg width="352" height="285" viewBox="0 0 352 285" fill="none" xmlns="http://www.w3.org/2000/svg">
<path d="M351.418 253.26H0V253.436H351.418V253.26Z" fill="#EBEBEB"/>
<path d="M316.207 264.569H292.929V264.745H316.207V264.569Z" fill="#EBEBEB"/>
<path d="M192.029 262.369H182.97V262.544H192.029V262.369Z" fill="#EBEBEB"/>
<path d="M245.762 263.114H226.687V263.29H245.762V263.114Z" fill="#EBEBEB"/>
<path d="M292.225 258.046H252.789V258.222H292.225V258.046Z" fill="#EBEBEB"/>
<path d="M55.5174 266.178H36.8711V266.354H55.5174V266.178Z" fill="#EBEBEB"/>
<path d="M77.9377 266.178H61.7725V266.354H77.9377V266.178Z" fill="#EBEBEB"/>
<path d="M134.811 262.284H92.0713V262.46H134.811V262.284Z" fill="#EBEBEB"/>
<path d="M166.579 221.913H30.8687C28.6547 221.913 26.8555 220.114 26.8555 217.9V27.1292C26.8555 24.9152 28.6547 23.116 30.8687 23.116H166.586C168.8 23.116 170.6 24.9152 170.6 27.1292V217.9C170.593 220.114 168.793 221.913 166.579 221.913ZM30.8687 23.2917C28.7531 23.2917 27.0312 25.0136 27.0312 27.1292V217.9C27.0312 220.016 28.7531 221.738 30.8687 221.738H166.586C168.702 221.738 170.424 220.016 170.424 217.9V27.1292C170.424 25.0136 168.702 23.2917 166.586 23.2917H30.8687Z" fill="#EBEBEB"/>
<path d="M318.603 221.913H182.885C180.671 221.913 178.872 220.114 178.872 217.9V27.1292C178.872 24.9152 180.671 23.116 182.885 23.116H318.603C320.817 23.116 322.616 24.9152 322.616 27.1292V217.9C322.616 220.114 320.817 221.913 318.603 221.913ZM182.885 23.2917C180.77 23.2917 179.048 25.0136 179.048 27.1292V217.9C179.048 220.016 180.77 221.738 182.885 221.738H318.603C320.719 221.738 322.441 220.016 322.441 217.9V27.1292C322.441 25.0136 320.719 23.2917 318.603 23.2917H182.885Z" fill="#EBEBEB"/>
<path d="M328.267 120.965C330.551 113.037 330.136 104.968 327.571 97.7432C329.574 94.8756 331.155 91.6355 332.181 88.0862C336.89 71.7663 328.309 54.7717 312.825 48.65C309.838 27.2697 294.664 8.58831 272.588 2.22061C255.129 -2.8117 237.228 0.969561 223.621 10.9288C220.213 7.36538 215.855 4.61728 210.78 3.15538C195.473 -1.25843 179.483 7.5692 175.069 22.877C174.331 25.4353 173.973 28.0147 173.945 30.559C158.539 33.6655 145.346 45.0164 140.694 61.1605C136.512 75.66 140.216 90.5672 149.261 101.3C148.094 103.415 147.131 105.685 146.436 108.103C141.424 125.484 151.447 143.631 168.828 148.643C174.556 150.294 180.369 150.301 185.766 148.966C192.155 157.772 201.412 164.604 212.671 167.851C227.171 172.033 242.007 169.433 253.815 161.94C259.1 174.233 263.444 192.675 254.096 210.759C288.071 207.428 312.614 174.837 307.61 144.974C317.302 140.511 325.076 132.028 328.267 120.965Z" fill="#EBEBEB"/>
<path d="M263.086 204.012C262.903 204.012 262.72 203.942 262.587 203.808C262.404 203.626 262.334 203.366 262.404 203.113C267.19 186.441 262.826 170.459 258.328 159.986L256.043 154.68L251.166 157.773C243.807 162.446 235.338 164.913 226.686 164.913C222.42 164.913 218.161 164.309 214.021 163.114C204.16 160.268 195.761 154.371 189.731 146.063L187.784 143.378L184.565 144.18C179.842 145.353 174.873 145.262 170.171 143.906C163.03 141.846 157.119 137.13 153.521 130.622C149.929 124.114 149.086 116.6 151.145 109.452C151.721 107.456 152.53 105.51 153.549 103.668L155.186 100.702L153.001 98.1157C144.665 88.2268 141.818 74.9151 145.396 62.51C149.402 48.629 160.704 38.227 174.894 35.3664L178.795 34.5792L178.837 30.5942C178.858 28.4294 179.174 26.2858 179.772 24.2194C182.709 14.0283 192.163 6.91558 202.747 6.91558C204.982 6.91558 207.217 7.23186 209.389 7.85738C213.445 9.03112 217.127 11.2591 220.037 14.3024L223.017 17.423L226.496 14.8787C235.296 8.44074 246.098 4.89844 256.915 4.89844C261.722 4.89844 266.523 5.58019 271.19 6.92964C290.693 12.5523 305.109 29.1885 307.92 49.3107L308.313 52.1502L310.984 53.2044C324.338 58.4827 331.409 72.8839 327.424 86.7016C326.573 89.6395 325.259 92.3946 323.509 94.9037L322.061 96.9771L322.904 99.3668C325.231 105.91 325.435 112.903 323.509 119.58C320.838 128.83 314.281 136.448 305.516 140.483L302.1 142.057L302.719 145.768C304.856 158.51 301.018 172.427 292.19 183.953C284.839 193.554 274.563 200.66 263.248 203.963C263.219 204.005 263.149 204.012 263.086 204.012ZM256.374 152.951C256.444 152.951 256.514 152.958 256.585 152.979C256.781 153.042 256.943 153.183 257.02 153.373L259.628 159.438C264.112 169.861 268.449 185.647 264.105 202.262C274.655 198.896 284.206 192.134 291.115 183.117C299.704 171.9 303.443 158.377 301.376 146.021L300.667 141.783C300.617 141.467 300.779 141.164 301.067 141.031L304.975 139.232C313.374 135.366 319.65 128.071 322.209 119.215C324.05 112.819 323.853 106.128 321.625 99.8587L320.655 97.1317C320.578 96.9209 320.613 96.6819 320.74 96.4922L322.398 94.1166C324.064 91.7339 325.315 89.1124 326.116 86.3291C329.898 73.2142 323.193 59.544 310.513 54.5328L307.463 53.3309C307.231 53.2396 307.062 53.0287 307.027 52.7757L306.57 49.5286C303.836 29.9546 289.815 13.7682 270.845 8.30017C266.305 6.99289 261.631 6.3252 256.957 6.3252C246.429 6.3252 235.921 9.77613 227.368 16.0314L223.39 18.9411C223.102 19.152 222.708 19.1168 222.469 18.8568L219.06 15.2934C216.319 12.4258 212.854 10.3314 209.038 9.22791C206.993 8.63753 204.891 8.33531 202.783 8.33531C192.816 8.33531 183.918 15.0333 181.156 24.6271C180.594 26.5739 180.299 28.5911 180.278 30.6223L180.228 35.1696C180.221 35.5 179.99 35.7881 179.666 35.8514L175.203 36.751C161.526 39.5061 150.639 49.5286 146.78 62.9036C143.337 74.8588 146.071 87.6786 154.111 97.209L156.606 100.168C156.796 100.393 156.824 100.709 156.683 100.962L154.807 104.35C153.837 106.1 153.071 107.948 152.523 109.846C150.569 116.628 151.37 123.762 154.779 129.94C158.195 136.118 163.803 140.595 170.586 142.556C175.049 143.842 179.765 143.927 184.249 142.816L187.932 141.902C188.206 141.832 188.501 141.938 188.67 142.17L190.898 145.241C196.738 153.295 204.877 159.01 214.436 161.765C218.449 162.924 222.581 163.508 226.714 163.508C235.099 163.508 243.301 161.111 250.442 156.585L256.015 153.049C256.107 152.986 256.24 152.951 256.374 152.951Z" fill="white"/>
<path d="M213.796 87.2427L194.96 84.3119L195.255 82.4283C195.754 79.2233 196.52 76.6791 197.561 74.7884C198.601 72.9048 199.964 71.2461 201.658 69.8124C203.352 68.3856 207.035 65.9819 212.707 62.5942C215.722 60.8301 217.374 59.0379 217.655 57.2245C217.936 55.4042 217.62 53.9071 216.706 52.7334C215.785 51.5597 214.239 50.8006 212.06 50.4633C209.713 50.0978 207.653 50.5757 205.875 51.883C204.097 53.1973 202.691 55.7556 201.658 59.558L182.794 54.1813C184.558 47.2091 188.009 41.9168 193.161 38.3042C198.313 34.6846 205.51 33.6022 214.766 35.043C221.97 36.1675 227.551 38.5783 231.515 42.2682C236.898 47.2724 239.063 53.1621 238.009 59.9305C237.573 62.7418 236.371 65.3283 234.41 67.6968C232.449 70.0654 228.781 72.7643 223.404 75.7794C219.651 77.902 217.219 79.7013 216.094 81.1632C214.963 82.6391 214.197 84.6633 213.796 87.2427ZM193.533 89.2177L213.712 92.3594L210.943 110.155L190.764 107.014L193.533 89.2177Z" fill="white"/>
<path d="M261.87 114.815L251.412 106.346L252.262 105.299C253.703 103.521 255.073 102.234 256.381 101.454C257.681 100.674 259.108 100.147 260.647 99.8729C262.186 99.5988 265.293 99.4371 269.953 99.3879C272.419 99.3809 274.064 98.8749 274.879 97.8628C275.695 96.8507 276.032 95.8246 275.891 94.7844C275.751 93.7442 275.069 92.7321 273.86 91.7481C272.56 90.6938 271.133 90.2511 269.58 90.4197C268.027 90.5884 266.263 91.6497 264.288 93.6106L254.68 83.6374C258.229 80.0107 262.214 78.0006 266.642 77.6211C271.07 77.2415 275.849 79.1322 280.987 83.293C284.986 86.5331 287.537 89.984 288.648 93.6458C290.159 98.6078 289.393 102.972 286.343 106.733C285.078 108.293 283.426 109.446 281.395 110.198C279.356 110.95 276.159 111.294 271.808 111.231C268.765 111.196 266.642 111.428 265.433 111.927C264.217 112.426 263.03 113.388 261.87 114.815ZM248.804 108.834L260.007 117.908L252.002 127.79L240.799 118.716L248.804 108.834Z" fill="white"/>
<path d="M264.793 53.9353L260.267 47.7503L260.885 47.3005C261.94 46.5274 262.881 46.0213 263.711 45.7824C264.54 45.5434 265.398 45.4591 266.29 45.5294C267.176 45.6067 268.912 45.9651 271.484 46.6117C272.841 46.9631 273.817 46.928 274.415 46.4852C275.012 46.0495 275.343 45.5294 275.42 44.939C275.49 44.3416 275.265 43.6879 274.745 42.971C274.183 42.1979 273.459 41.7481 272.58 41.6216C271.702 41.488 270.577 41.8184 269.207 42.6056L265.362 35.7248C267.843 34.2418 270.324 33.7147 272.819 34.1504C275.315 34.5862 277.669 36.3152 279.89 39.3514C281.619 41.713 282.526 43.9831 282.603 46.1619C282.715 49.1138 281.661 51.4051 279.433 53.0286C278.512 53.7034 277.437 54.0969 276.207 54.2164C274.977 54.3359 273.171 54.0618 270.781 53.3941C269.108 52.9373 267.907 52.7545 267.169 52.8529C266.431 52.9583 265.643 53.3168 264.793 53.9353ZM258.468 48.7483L263.317 55.3691L257.477 59.6494L252.627 53.0286L258.468 48.7483Z" fill="white"/>
<path d="M90.202 141.628C84.3895 141.628 78.5419 140.04 73.362 136.947C66.2282 132.695 61.1889 126.109 59.481 118.821C53.6896 118.406 48.3551 115.56 44.7987 110.977C42.2193 107.66 40.7504 103.71 40.5325 99.5211C39.0073 98.4809 37.6579 97.2158 36.5193 95.7609C30.9739 88.6271 31.6697 78.6117 38.1007 72.3284C35.4229 60.9002 39.6469 48.9169 48.9173 41.7128C56.1917 36.062 65.4551 34.0729 74.4092 36.2306C75.4494 33.8551 77.073 31.7747 79.1253 30.1792C82.4216 27.6139 86.5261 26.4893 90.6729 27.0094C94.8196 27.5295 98.5165 29.631 101.075 32.9343C101.848 33.9253 102.495 35.0147 103.015 36.1674C111.47 34.7828 119.939 38.0861 125.203 44.8685C129.912 50.927 131.332 58.869 129.027 66.1856C129.947 66.9727 130.784 67.8443 131.515 68.7861C137.496 76.4821 136.104 87.6151 128.401 93.5962C126.054 95.4236 123.27 96.6254 120.333 97.0963C118.8 102.831 115.518 107.786 110.816 111.434C104.884 116.045 97.2866 117.971 89.8787 116.762C89.8014 123.586 91.3898 132.843 99.0296 139.463C99.1842 139.597 99.2475 139.801 99.2053 139.997C99.1632 140.194 99.0156 140.356 98.8188 140.412C96.0215 141.227 93.1117 141.628 90.202 141.628ZM67.2825 36.4907C60.9359 36.4907 54.7439 38.5852 49.585 42.5913C40.5747 49.5986 36.5123 61.2938 39.2393 72.3846C39.2885 72.5743 39.2252 72.7782 39.0847 72.9187C32.8575 78.7945 32.1266 88.3249 37.3838 95.0932C38.5013 96.5341 39.8437 97.771 41.3618 98.7691C41.5094 98.8675 41.6008 99.0291 41.6078 99.2119C41.7625 103.267 43.1681 107.105 45.6562 110.317C49.1071 114.759 54.3151 117.472 59.9449 117.76C60.1908 117.774 60.4017 117.949 60.4579 118.195C62.0112 125.343 66.917 131.838 73.9243 136.012C81.1494 140.321 89.703 141.614 97.5607 139.625C90.0192 132.569 88.6136 122.996 88.7963 116.101C88.8033 115.939 88.8736 115.785 89.0001 115.686C89.1266 115.588 89.2883 115.546 89.4499 115.574C96.7524 116.944 104.294 115.124 110.148 110.577C114.745 106.999 117.936 102.129 119.363 96.4778C119.419 96.2599 119.602 96.0983 119.82 96.0702C122.694 95.6766 125.428 94.5239 127.726 92.7387C134.945 87.1301 136.252 76.693 130.643 69.4748C129.884 68.4979 129.006 67.5983 128.036 66.8041C127.86 66.6565 127.79 66.4175 127.86 66.2066C130.207 59.1431 128.886 51.426 124.325 45.5573C119.222 38.9928 110.964 35.8441 102.769 37.3411C102.509 37.3903 102.256 37.2498 102.157 37.0108C101.658 35.7949 100.998 34.6563 100.196 33.6231C97.8137 30.5588 94.3768 28.5978 90.5253 28.1199C86.6737 27.635 82.8573 28.6822 79.793 31.0648C77.7688 32.6392 76.1874 34.7266 75.2316 37.1022C75.1261 37.3622 74.845 37.4958 74.5849 37.4325C72.1602 36.7999 69.7073 36.4907 67.2825 36.4907Z" fill="#E6E6E6"/>
<path d="M70.698 82.8642L60.9919 85.1484L60.7599 84.1785C60.3734 82.5268 60.2398 81.1423 60.3734 80.0247C60.5069 78.9072 60.8443 77.8319 61.3855 76.8058C61.9266 75.7796 63.2409 73.889 65.3213 71.1339C66.4389 69.686 66.8816 68.4912 66.6638 67.5564C66.4459 66.6216 65.9961 65.954 65.3213 65.5674C64.6466 65.1808 63.747 65.1176 62.6224 65.3776C61.4136 65.6658 60.5069 66.2983 59.9025 67.2823C59.298 68.2663 59.1223 69.7844 59.3683 71.8297L49.1701 72.9402C48.6501 69.2151 49.2826 65.968 51.0678 63.2059C52.853 60.4367 56.1282 58.4969 60.9005 57.3723C64.6115 56.5008 67.7953 56.5711 70.438 57.5832C74.0295 58.9467 76.2364 61.3785 77.0587 64.8646C77.4031 66.3124 77.3258 67.8024 76.8479 69.3346C76.3629 70.8668 75.1189 72.898 73.1018 75.4212C71.7031 77.1923 70.8738 78.5418 70.6207 79.4695C70.3607 80.4043 70.3888 81.5359 70.698 82.8642ZM61.266 87.8052L71.6609 85.3593L73.8186 94.5313L63.4237 96.9772L61.266 87.8052Z" fill="#EBEBEB"/>
<path d="M95.4101 62.3625L88.6699 60.3172L88.8737 59.6425C89.2251 58.4969 89.6328 57.6043 90.1107 56.9717C90.5887 56.3321 91.172 55.798 91.8678 55.3622C92.5636 54.9265 94.0326 54.2377 96.2816 53.2959C97.4765 52.8039 98.1723 52.2346 98.3691 51.588C98.5659 50.9414 98.5307 50.3721 98.2566 49.8941C97.9825 49.4162 97.4554 49.0578 96.6752 48.8188C95.8388 48.5658 95.0587 48.629 94.3418 49.0156C93.6249 49.4022 92.9783 50.2666 92.402 51.602L85.7812 48.6571C86.7863 46.1972 88.3255 44.4401 90.3919 43.3859C92.4652 42.3316 95.1501 42.3035 98.4604 43.3086C101.04 44.0887 102.952 45.2624 104.21 46.8227C105.918 48.9313 106.402 51.1944 105.672 53.6192C105.369 54.6242 104.793 55.5098 103.957 56.2759C103.12 57.042 101.637 57.8362 99.5147 58.6655C98.0317 59.2489 97.0477 59.776 96.5628 60.254C96.0778 60.7389 95.6912 61.4417 95.4101 62.3625ZM87.9038 62.0321L95.1219 64.225L93.1891 70.5927L85.971 68.3998L87.9038 62.0321Z" fill="#EBEBEB"/>
<path d="M175.71 285C250.971 285 311.983 281.438 311.983 277.044C311.983 272.65 250.971 269.088 175.71 269.088C100.448 269.088 39.4365 272.65 39.4365 277.044C39.4365 281.438 100.448 285 175.71 285Z" fill="#E7FFF0"/>
<path d="M110.775 158.405L110.128 158.131C110.711 156.76 111.042 155.615 111.147 154.645L111.843 154.722C111.738 155.762 111.386 156.964 110.775 158.405ZM110.501 150.35C109.137 147.356 106.6 145.466 103.17 144.889L103.289 144.193C106.965 144.812 109.678 146.843 111.14 150.062L110.501 150.35Z" fill="#009743"/>
<path d="M106.817 165.475L99.9014 168.624L99.5852 167.935C99.051 166.762 98.7488 165.742 98.6785 164.885C98.6082 164.027 98.7066 163.177 98.9526 162.334C99.2056 161.49 99.9014 159.881 101.054 157.512C101.673 156.261 101.827 155.305 101.525 154.638C101.223 153.97 100.787 153.541 100.225 153.351C99.6625 153.162 98.9807 153.246 98.1795 153.611C97.315 154.005 96.7387 154.616 96.4294 155.439C96.1272 156.268 96.2186 157.428 96.7035 158.918L89.2605 161.251C88.3187 158.545 88.3117 156.029 89.2394 153.696C90.1601 151.362 92.3249 149.423 95.7196 147.876C98.3622 146.674 100.752 146.253 102.881 146.618C105.77 147.103 107.78 148.593 108.912 151.081C109.383 152.114 109.551 153.239 109.418 154.455C109.284 155.671 108.652 157.372 107.52 159.557C106.74 161.083 106.318 162.214 106.262 162.952C106.199 163.683 106.389 164.526 106.817 165.475ZM100.506 170.564L107.914 167.19L110.887 173.72L103.479 177.093L100.506 170.564Z" fill="#009743"/>
<path d="M89.7099 181.1L86.1887 185.872L85.7108 185.52C84.8955 184.923 84.3051 184.347 83.9326 183.784C83.5601 183.229 83.3 182.611 83.1524 181.936C83.0048 181.261 82.8713 179.898 82.7518 177.853C82.6956 176.763 82.4426 176.053 81.9787 175.716C81.5148 175.379 81.058 175.252 80.6011 175.329C80.1443 175.414 79.7156 175.73 79.3079 176.285C78.8722 176.883 78.7035 177.515 78.8089 178.197C78.9143 178.879 79.4204 179.631 80.32 180.46L76.1241 184.895C74.4513 183.405 73.4884 181.69 73.2354 179.75C72.9754 177.81 73.7133 175.667 75.4423 173.319C76.7847 171.492 78.2537 170.297 79.8421 169.735C81.9928 168.969 83.9326 169.222 85.6475 170.487C86.3574 171.014 86.8986 171.717 87.2711 172.595C87.6436 173.474 87.8614 174.88 87.9177 176.791C87.9669 178.134 88.1074 179.061 88.3534 179.582C88.6065 180.116 89.0563 180.622 89.7099 181.1ZM87.3413 186.975L91.1086 181.859L95.6208 185.183L91.8536 190.3L87.3413 186.975Z" fill="#009743"/>
<path d="M164.527 274.514C163.388 274.514 162.285 273.895 161.722 272.813C158.897 267.359 155.348 260.956 148.966 254.026C148.221 253.218 147.947 252.072 148.256 251.018C150.625 242.788 154.35 231.535 154.385 231.423C154.933 229.771 156.718 228.871 158.37 229.42C160.021 229.968 160.921 231.753 160.373 233.405C160.338 233.51 157.133 243.202 154.806 251.088C160.675 257.744 164.295 264.063 167.331 269.917C168.132 271.463 167.528 273.368 165.982 274.162C165.511 274.394 165.012 274.514 164.527 274.514Z" fill="#009743"/>
<path d="M169.777 277.044H145.325L158.286 269.692L169.144 270.114L169.777 277.044Z" fill="#263238"/>
<path d="M183.032 228.682C183.116 238.472 173.86 247.328 162.369 248.453C150.87 249.577 141.48 242.556 141.396 232.758C141.312 222.968 150.568 214.112 162.059 212.987C173.558 211.863 182.948 218.891 183.032 228.682Z" fill="#263238"/>
<path d="M106.585 219.229C105.348 219.229 104.174 218.498 103.668 217.282C103 215.672 103.766 213.831 105.376 213.163C107.21 212.404 107.463 210.534 107.463 210.513C107.597 209.108 108.651 207.955 110.043 207.702C110.795 207.569 111.519 207.351 112.362 207.112C116.635 205.861 121.921 204.314 138.585 208.981C155.017 199.788 155.207 182.555 155.207 181.81C155.207 180.074 156.613 178.654 158.349 178.654C158.349 178.654 158.356 178.654 158.363 178.654C160.092 178.654 161.504 180.045 161.511 181.781C161.519 182.695 161.413 204.328 140.398 215.166C139.681 215.539 138.852 215.616 138.079 215.391C122.202 210.802 117.725 212.109 114.133 213.163C113.817 213.254 113.494 213.353 113.163 213.444C112.383 215.447 110.767 217.76 107.794 218.99C107.4 219.151 106.992 219.229 106.585 219.229Z" fill="#263238"/>
<path d="M143.434 196.675C137.453 172.898 121.52 111.589 172.581 107.843C218.392 104.483 230.965 165.455 234.016 186.582C235.794 198.896 236.398 210.057 236.497 218.786C236.63 230.038 228.723 239.744 217.689 241.986C192.731 247.054 169.109 247.778 153.203 241.494C148.902 239.794 146.302 235.415 146.716 230.811C147.335 223.98 147.349 212.235 143.434 196.675Z" fill="#009743"/>
<path opacity="0.1" d="M234.016 186.575C231.135 166.67 219.805 111.343 180.137 107.885C175.519 107.485 170.965 109.755 168.842 113.873C167.071 117.303 167.127 121.457 169.777 125.569C178.52 139.119 199.373 185.977 196.225 211.511C194.791 223.129 187.503 232.407 193.842 245.465C201.496 244.833 209.522 243.645 217.696 241.979C228.731 239.744 236.638 230.038 236.504 218.779C236.399 210.057 235.802 198.888 234.016 186.575Z" fill="black"/>
<path d="M227.185 219.095C227.009 219.095 226.868 218.954 226.868 218.786C226.742 207.927 225.906 197.103 224.387 186.624C216.797 134.157 196.358 107.618 165.279 109.909C165.11 109.93 164.956 109.79 164.941 109.621C164.927 109.445 165.061 109.298 165.23 109.284C196.682 106.964 217.359 133.686 225.006 186.54C226.524 197.047 227.36 207.899 227.494 218.786C227.501 218.947 227.36 219.095 227.185 219.095Z" fill="#263238"/>
<path d="M242.296 230.368C242.38 240.159 233.124 249.015 221.632 250.139C210.134 251.264 200.744 244.242 200.66 234.445C200.575 224.654 209.832 215.799 221.323 214.674C232.829 213.543 242.218 220.571 242.296 230.368Z" fill="#263238"/>
<path d="M228.632 274.514C227.494 274.514 226.39 273.895 225.828 272.813C223.002 267.359 219.453 260.956 213.071 254.026C212.326 253.218 212.052 252.072 212.361 251.018C214.73 242.788 218.455 231.535 218.49 231.423C219.038 229.771 220.817 228.871 222.475 229.42C224.127 229.968 225.027 231.753 224.478 233.405C224.443 233.51 221.238 243.202 218.912 251.088C224.781 257.744 228.4 264.063 231.436 269.917C232.238 271.463 231.633 273.368 230.087 274.162C229.609 274.394 229.117 274.514 228.632 274.514Z" fill="#009743"/>
<path d="M222.012 178.415C220.88 178.415 219.784 177.803 219.215 176.728C218.406 175.189 218.997 173.284 220.536 172.476C221.14 172.152 234.867 164.653 238.725 146.632C229.575 142.802 213.128 134.164 209.53 129.821C209.178 129.399 208.946 128.893 208.855 128.359C208.771 127.888 208.18 124.156 209.558 120.627L207.899 117.423C207.098 115.876 207.702 113.972 209.248 113.17C210.795 112.369 212.699 112.974 213.501 114.52L215.89 119.13C216.403 120.114 216.354 121.295 215.771 122.244C215.019 123.46 214.92 125.238 214.984 126.398C219.032 130.06 235.394 138.726 243.399 141.699C244.805 142.219 245.648 143.659 245.416 145.135C241.853 168.167 224.233 177.656 223.481 178.049C223.003 178.295 222.504 178.415 222.012 178.415Z" fill="#263238"/>
<path d="M211.954 129.385C211.659 129.385 211.356 129.301 211.089 129.125C210.358 128.647 210.154 127.67 210.632 126.946C210.738 126.778 213.345 122.849 217.309 121.787C218.146 121.563 219.017 122.062 219.242 122.905C219.467 123.748 218.968 124.613 218.125 124.838C215.355 125.583 213.289 128.647 213.268 128.675C212.973 129.132 212.467 129.385 211.954 129.385Z" fill="#263238"/>
<path d="M233.882 277.044H209.431L222.391 269.692L233.25 270.114L233.882 277.044Z" fill="#263238"/>
<path d="M182.677 182.875C191.926 182.056 198.826 174.644 198.089 166.319C197.352 157.995 189.257 151.91 180.008 152.729C170.759 153.548 163.859 160.96 164.596 169.285C165.333 177.609 173.429 183.694 182.677 182.875Z" fill="white"/>
<path d="M179.535 177.371C181.987 176.672 182.944 172.486 181.672 168.022C180.4 163.557 177.381 160.504 174.928 161.203C172.476 161.902 171.518 166.087 172.791 170.552C174.063 175.017 177.082 178.07 179.535 177.371Z" fill="#263238"/>
<path d="M162.214 170.649C172.827 169.285 193.849 163.29 197.314 160.872C194.58 152.888 181.879 146.056 170.515 149.901C160.267 153.373 162.214 170.649 162.214 170.649Z" fill="#263238"/>
<path d="M164.273 175.779C177.445 173.277 194.573 169.074 199.472 166.375C199.169 174.971 196.674 183.679 183.222 186.617C172.237 189.028 164.273 175.779 164.273 175.779Z" fill="#263238"/>
<path d="M157.428 174.971C157.822 181.697 153.12 186.315 146.914 185.288C140.715 184.262 135.366 177.979 134.965 171.253C134.572 164.527 139.274 159.909 145.48 160.935C151.686 161.954 157.034 168.245 157.428 174.971Z" fill="white"/>
<path d="M146.427 173.333C147.229 177.1 146.54 180.242 144.888 180.347C143.237 180.46 141.248 177.494 140.453 173.727C139.652 169.96 140.341 166.818 141.993 166.712C143.637 166.607 145.626 169.566 146.427 173.333Z" fill="#263238"/>
<path d="M133.363 171.892C140.482 172.736 154.623 171.794 156.971 170.508C155.235 163.69 146.815 155.98 139.161 156.964C132.259 157.857 133.363 171.892 133.363 171.892Z" fill="#263238"/>
<path d="M134.685 176.327C143.533 176.728 155.046 176.503 158.356 175.259C158.054 182.013 156.283 188.451 147.244 188.346C139.857 188.261 134.685 176.327 134.685 176.327Z" fill="#263238"/>
<path d="M185.612 145.656C172.336 145.656 163.515 139.098 163.079 138.768C161.695 137.713 161.421 135.738 162.475 134.347C163.522 132.962 165.497 132.688 166.882 133.735C167.036 133.848 177.516 141.495 192.071 138.733C193.786 138.409 195.431 139.534 195.754 141.242C196.077 142.95 194.953 144.601 193.245 144.925C190.567 145.438 188.016 145.656 185.612 145.656Z" fill="#263238"/>
<path d="M129.237 140.223C128.886 140.223 128.521 140.159 128.169 140.04C126.532 139.45 125.681 137.643 126.271 136.006C127.944 131.353 130.713 128.331 134.509 127.03C141.389 124.662 148.797 129.265 149.107 129.462C150.576 130.39 151.018 132.337 150.091 133.813C149.163 135.282 147.223 135.725 145.747 134.797C144.313 133.904 139.864 131.838 136.54 132.998C134.628 133.665 133.208 135.345 132.203 138.135C131.74 139.421 130.531 140.223 129.237 140.223Z" fill="#263238"/>
<path d="M154.083 193.413C153.999 193.413 153.907 193.399 153.823 193.378C153.324 193.231 153.036 192.725 153.176 192.226C153.197 192.141 153.795 190.096 156.381 188.761C160.001 186.898 165.511 187.285 172.764 189.906C173.256 190.082 173.509 190.63 173.334 191.115C173.158 191.607 172.617 191.86 172.125 191.684C163.81 188.669 159.488 189.323 157.33 190.398C155.446 191.34 155.018 192.682 154.997 192.739C154.87 193.146 154.491 193.413 154.083 193.413Z" fill="#263238"/>
<path d="M124.317 189.948C105.973 191.593 92.8369 199.191 92.8369 199.191C98.2698 198.165 117.689 222.195 122.679 240.721C131.887 237.306 142.626 234.979 154.082 233.166C147.145 214.07 134.459 192.429 124.317 189.948Z" fill="#009743"/>
<path opacity="0.6" d="M124.317 189.948C105.973 191.593 92.8369 199.191 92.8369 199.191C98.2698 198.165 117.689 222.195 122.679 240.721C131.887 237.306 142.626 234.979 154.082 233.166C147.145 214.07 134.459 192.429 124.317 189.948Z" fill="white"/>
<path d="M124.316 189.948C112.312 188.592 92.8222 198.642 92.8222 198.642C89.3713 200.842 90.3061 204.975 92.1897 206.718C93.996 204.125 114.139 197.377 121.716 196.471C117.949 192.985 121.449 190.454 124.316 189.948Z" fill="#009743"/>
<path opacity="0.2" d="M124.316 189.948C112.312 188.592 92.8222 198.642 92.8222 198.642C89.3713 200.842 90.3061 204.975 92.1897 206.718C93.996 204.125 114.139 197.377 121.716 196.471C117.949 192.985 121.449 190.454 124.316 189.948Z" fill="white"/>
<path d="M106.592 219.229C105.558 219.229 104.553 218.722 103.949 217.795C101.665 214.295 103.091 208.946 103.401 207.913C103.9 206.247 105.657 205.298 107.323 205.797C108.988 206.296 109.937 208.046 109.445 209.712C108.932 211.476 108.827 213.732 109.234 214.351C110.183 215.806 109.775 217.76 108.314 218.715C107.779 219.067 107.182 219.229 106.592 219.229Z" fill="#263238"/>
<path d="M95.8185 81.4445H85.1846V76.6442L95.8185 64.0001H100.907V76.9183H103.543V81.4516H100.907V85.3804H95.8185V81.4445ZM95.8185 76.9183V70.3046L90.1958 76.9183H95.8185Z" fill="#009743"/>
<path d="M105.363 74.7816C105.363 70.7895 106.08 67.9922 107.521 66.3968C108.962 64.8014 111.148 64.0001 114.093 64.0001C115.505 64.0001 116.665 64.1758 117.579 64.5202C118.485 64.8716 119.23 65.3215 119.8 65.8837C120.376 66.446 120.826 67.0293 121.156 67.6478C121.486 68.2663 121.753 68.9832 121.95 69.8056C122.344 71.3729 122.541 73.0035 122.541 74.7114C122.541 78.5207 121.894 81.318 120.608 83.0821C119.315 84.8533 117.094 85.7318 113.945 85.7318C112.174 85.7318 110.747 85.4507 109.658 84.8884C108.568 84.3262 107.676 83.4968 106.98 82.4074C106.474 81.6343 106.08 80.573 105.799 79.2306C105.504 77.8882 105.363 76.4052 105.363 74.7816ZM111.155 74.7957C111.155 77.4735 111.394 79.3009 111.865 80.2778C112.335 81.2548 113.024 81.7467 113.924 81.7467C114.514 81.7467 115.027 81.5359 115.463 81.1212C115.899 80.7066 116.215 80.0459 116.426 79.1533C116.63 78.2536 116.735 76.855 116.735 74.9503C116.735 72.1601 116.496 70.2835 116.025 69.3206C115.554 68.3577 114.845 67.8798 113.896 67.8798C112.933 67.8798 112.23 68.3718 111.801 69.3487C111.373 70.3327 111.155 72.146 111.155 74.7957Z" fill="#009743"/>
<path d="M124.944 74.7816C124.944 70.7895 125.661 67.9922 127.102 66.3968C128.543 64.8014 130.729 64.0001 133.674 64.0001C135.086 64.0001 136.246 64.1758 137.16 64.5202C138.066 64.8716 138.811 65.3215 139.381 65.8837C139.957 66.446 140.407 67.0293 140.737 67.6478C141.067 68.2663 141.334 68.9832 141.531 69.8056C141.925 71.3729 142.122 73.0035 142.122 74.7114C142.122 78.5207 141.475 81.318 140.189 83.0821C138.896 84.8533 136.675 85.7318 133.526 85.7318C131.755 85.7318 130.328 85.4507 129.239 84.8884C128.149 84.3262 127.257 83.4968 126.561 82.4074C126.055 81.6343 125.661 80.573 125.38 79.2306C125.085 77.8882 124.944 76.4052 124.944 74.7816ZM130.736 74.7957C130.736 77.4735 130.975 79.3009 131.446 80.2778C131.916 81.2548 132.605 81.7467 133.505 81.7467C134.095 81.7467 134.608 81.5359 135.044 81.1212C135.48 80.7066 135.796 80.0459 136.007 79.1533C136.211 78.2536 136.316 76.855 136.316 74.9503C136.316 72.1601 136.077 70.2835 135.606 69.3206C135.135 68.3577 134.426 67.8798 133.477 67.8798C132.514 67.8798 131.811 68.3718 131.382 69.3487C130.954 70.3327 130.736 72.146 130.736 74.7957Z" fill="#009743"/>
<path d="M155.25 64.3585H172.652V68.8426H161.758V72.1811H171.865V76.4684H161.758V80.6081H172.969V85.3663H155.25V64.3585Z" fill="#263238"/>
<path d="M176.553 85.3733V64.3585H187.376C189.387 64.3585 190.919 64.5272 191.98 64.8716C193.041 65.216 193.899 65.8556 194.545 66.7833C195.192 67.7181 195.522 68.8496 195.522 70.185C195.522 71.3517 195.276 72.3568 194.777 73.2002C194.278 74.0436 193.597 74.7324 192.725 75.2595C192.17 75.5969 191.411 75.871 190.448 76.0889C191.221 76.3489 191.783 76.609 192.135 76.862C192.374 77.0377 192.718 77.4032 193.175 77.9655C193.632 78.5277 193.934 78.9635 194.082 79.2727L197.223 85.3593H189.886L186.414 78.9354C185.971 78.106 185.584 77.5648 185.24 77.3188C184.769 76.9955 184.242 76.8339 183.651 76.8339H183.075V85.3663H176.553V85.3733ZM183.075 72.8769H185.816C186.111 72.8769 186.688 72.7785 187.538 72.5887C187.967 72.5044 188.318 72.2865 188.592 71.9281C188.866 71.5767 189 71.169 189 70.7122C189 70.0374 188.782 69.5103 188.353 69.1519C187.925 68.7864 187.116 68.6037 185.929 68.6037H183.075V72.8769Z" fill="#263238"/>
<path d="M199.389 85.3733V64.3585H210.212C212.222 64.3585 213.755 64.5272 214.816 64.8716C215.877 65.216 216.735 65.8556 217.381 66.7833C218.028 67.7181 218.358 68.8496 218.358 70.185C218.358 71.3517 218.112 72.3568 217.613 73.2002C217.114 74.0436 216.432 74.7324 215.561 75.2595C215.006 75.5969 214.247 75.871 213.284 76.0889C214.057 76.3489 214.619 76.609 214.971 76.862C215.21 77.0377 215.554 77.4032 216.011 77.9655C216.468 78.5277 216.77 78.9635 216.917 79.2727L220.059 85.3593H212.721L209.249 78.9354C208.807 78.106 208.42 77.5648 208.076 77.3188C207.605 76.9955 207.078 76.8339 206.487 76.8339H205.911V85.3663H199.389V85.3733ZM205.911 72.8769H208.652C208.947 72.8769 209.524 72.7785 210.374 72.5887C210.803 72.5044 211.154 72.2865 211.428 71.9281C211.702 71.5767 211.836 71.169 211.836 70.7122C211.836 70.0374 211.618 69.5103 211.189 69.1519C210.761 68.7864 209.952 68.6037 208.765 68.6037H205.911V72.8769Z" fill="#263238"/>
<path d="M220.817 74.88C220.817 71.4502 221.773 68.7794 223.685 66.8677C225.597 64.956 228.26 64.0001 231.669 64.0001C235.169 64.0001 237.861 64.9419 239.752 66.8185C241.642 68.6951 242.591 71.3307 242.591 74.7114C242.591 77.1643 242.177 79.1814 241.354 80.7558C240.525 82.3301 239.33 83.553 237.77 84.4246C236.21 85.2961 234.263 85.7389 231.929 85.7389C229.561 85.7389 227.6 85.3593 226.046 84.6073C224.493 83.8553 223.235 82.6604 222.272 81.0228C221.302 79.3852 220.817 77.34 220.817 74.88ZM227.312 74.9081C227.312 77.0307 227.705 78.5559 228.492 79.4836C229.28 80.4114 230.355 80.8752 231.711 80.8752C233.11 80.8752 234.185 80.4184 234.951 79.5117C235.718 78.6051 236.097 76.9745 236.097 74.62C236.097 72.645 235.696 71.1972 234.902 70.2835C234.101 69.3698 233.019 68.913 231.655 68.913C230.348 68.913 229.294 69.3768 228.499 70.3046C227.712 71.2323 227.312 72.7715 227.312 74.9081Z" fill="#263238"/>
<path d="M246.184 85.3733V64.3585H257.007C259.017 64.3585 260.55 64.5272 261.611 64.8716C262.672 65.216 263.53 65.8556 264.176 66.7833C264.823 67.7181 265.153 68.8496 265.153 70.185C265.153 71.3517 264.907 72.3568 264.408 73.2002C263.909 74.0436 263.227 74.7324 262.356 75.2595C261.801 75.5969 261.042 75.871 260.079 76.0889C260.852 76.3489 261.414 76.609 261.765 76.862C262.004 77.0377 262.349 77.4032 262.806 77.9655C263.263 78.5277 263.565 78.9635 263.712 79.2727L266.854 85.3593H259.516L256.044 78.9354C255.602 78.106 255.215 77.5648 254.871 77.3188C254.4 76.9955 253.873 76.8339 253.282 76.8339H252.706V85.3663H246.184V85.3733ZM252.706 72.8769H255.447C255.742 72.8769 256.319 72.7785 257.169 72.5887C257.598 72.5044 257.949 72.2865 258.223 71.9281C258.497 71.5767 258.631 71.169 258.631 70.7122C258.631 70.0374 258.413 69.5103 257.984 69.1519C257.556 68.7864 256.747 68.6037 255.559 68.6037H252.706V72.8769Z" fill="#263238"/>
</svg>
