<svg width="184" height="40" viewBox="0 0 184 40" fill="none" xmlns="http://www.w3.org/2000/svg">
<path d="M37.7749 35.2L42.3999 31.575C43.6999 33.825 45.7749 35.125 48.1499 35.125C50.7249 35.125 52.0999 33.45 52.0999 31.625C52.0999 29.45 49.4499 28.75 46.6249 27.875C43.0749 26.775 39.0999 25.4 39.0999 20.325C39.0999 16.075 42.7999 12.7 47.9249 12.7C52.2499 12.7 54.7249 14.325 56.8749 16.55L52.6999 19.7C51.5999 18.075 50.0499 17.2 47.9749 17.2C45.6249 17.2 44.3499 18.475 44.3499 20.15C44.3499 22.175 46.8999 22.875 49.7249 23.825C53.3249 25 57.3999 26.575 57.3999 31.675C57.3999 35.9 54.0499 39.95 48.1999 39.95C43.3749 39.975 40.1749 37.925 37.7749 35.2ZM78.4249 21.425H83.3749V23.45C84.5499 21.95 86.3249 21.05 88.3999 21.05C92.6749 21.05 95.2749 23.8 95.2749 28.5V39.575H90.1999V29.15C90.1999 26.725 89.0749 25.3 86.8499 25.3C84.9499 25.3 83.3999 26.6 83.3999 29.65V39.575H78.4249V21.425ZM96.4249 30.525C96.4249 24.1 101.15 21.075 105.25 21.075C107.6 21.075 109.475 21.95 110.675 23.225V13.075H115.65V39.6H110.675V37.575C109.475 39 107.55 39.975 105.2 39.975C101.325 39.975 96.4249 36.9 96.4249 30.525ZM110.8 30.475C110.8 27.775 108.85 25.6 106.15 25.6C103.4 25.6 101.275 27.675 101.275 30.475C101.275 33.275 103.375 35.375 106.15 35.375C108.85 35.375 110.8 33.175 110.8 30.475ZM116.8 26.35C116.8 18.8 122.5 12.725 130.35 12.725C134.275 12.725 137.575 14.15 139.975 16.4C140.95 17.325 141.775 18.375 142.425 19.525L138 22.225C136.375 19.2 133.85 17.65 130.4 17.65C125.575 17.65 121.825 21.6 121.825 26.375C121.825 31.25 125.5 35.1 130.575 35.1C134.425 35.1 137.15 32.925 138.1 29.55H129.775V24.725H143.55V26.75C143.55 33.875 138.475 40 130.575 40C122.275 39.975 116.8 33.675 116.8 26.35ZM144.8 21.425H149.75V24.4C150.65 22.5 152.3 21.425 154.775 21.425H156.775L154.975 26.25H153.625C150.975 26.25 149.8 27.625 149.8 31V39.575H144.825V21.425H144.8ZM158.05 21.425H163.025V39.6H158.05V26.275H156.25L158.05 21.425ZM160.55 18.675C162.2 18.675 163.525 17.35 163.525 15.7C163.525 14.05 162.2 12.725 160.55 12.725C158.9 12.725 157.575 14.05 157.575 15.7C157.575 17.325 158.9 18.675 160.55 18.675ZM164.2 30.525C164.2 24.1 168.925 21.075 173.025 21.075C175.375 21.075 177.25 21.95 178.45 23.225V13.075H183.425V39.6H178.45V37.575C177.25 39 175.325 39.975 172.975 39.975C169.1 39.975 164.2 36.9 164.2 30.525ZM178.6 30.475C178.6 27.775 176.65 25.6 173.95 25.6C171.2 25.6 169.075 27.675 169.075 30.475C169.075 33.275 171.175 35.375 173.95 35.375C176.625 35.375 178.6 33.175 178.6 30.475ZM77.2499 30.475C77.2499 25.25 73.4249 21.075 67.8749 21.075C62.6499 21.075 58.4249 25.3 58.4249 30.525C58.4249 35.75 62.3499 39.975 68.0249 39.975C71.9499 39.975 74.7749 38.075 76.3499 35.375L72.3999 33.025C71.5749 34.625 69.9499 35.625 68.0499 35.625C65.4249 35.625 63.7999 34.325 63.2249 32.325H77.2499V30.475ZM63.4499 28.3C64.2249 26.6 65.7999 25.425 67.9249 25.425C70.0249 25.425 71.5999 26.4 72.2499 28.3H63.4499Z" fill="#243746"/>
<path d="M21.2 29H10.6V39.6H21.2V29Z" fill="#99E1F4"/>
<path d="M10.6 18.375H0V29H10.6V18.375Z" fill="#99E1F4"/>
<path d="M10.6 29H0V39.6H10.6V29Z" fill="#1A82E2"/>
<path d="M31.825 18.375H21.225V29H31.825V18.375Z" fill="#00B2E3"/>
<path d="M21.2 7.77515H10.6V18.3752H21.2V7.77515Z" fill="#00B2E3"/>
<path d="M10.6 18.375V29H21.225V18.375H10.6Z" fill="#009DD9"/>
<path d="M31.825 7.77515H21.225V18.3752H31.825V7.77515Z" fill="#1A82E2"/>
<path d="M42.8001 1.375V7.55H41.3751V1.375H39.175V0.125H45.0251V1.35H42.8001V1.375Z" fill="#243746"/>
<path d="M55.4251 7.54986H54.0751L52.4251 2.14985L50.7751 7.54986H49.4251L47.3501 0.0998535L48.8501 0.124853L50.2251 5.37486L51.7751 0.124853H53.2001L54.7501 5.37486L56.1001 0.124853H57.5251L55.4251 7.54986Z" fill="#243746"/>
<path d="M60.3751 7.55V0.125H61.8001V7.55H60.3751Z" fill="#243746"/>
<path d="M65.1251 7.55V0.125H66.5501V6.3H69.0251L69.0501 7.55H65.1251Z" fill="#243746"/>
<path d="M72.0001 7.55V0.125H73.4251V7.55H72.0001Z" fill="#243746"/>
<path d="M79.9501 7.7C77.8501 7.7 76.4751 6.15 76.4751 3.85C76.4751 1.55 77.8501 0 79.9751 0C82.1001 0 83.4501 1.55 83.4501 3.85C83.4251 6.125 82.0751 7.7 79.9501 7.7ZM79.9501 1.175C78.6751 1.175 77.9251 2.225 77.9251 3.85C77.9251 5.475 78.7001 6.525 79.9501 6.525C81.2251 6.525 82.0001 5.475 82.0001 3.85C82.0001 2.225 81.2251 1.175 79.9501 1.175Z" fill="#243746"/>
</svg>
