<svg width="95" height="109" viewBox="0 0 95 109" fill="none" xmlns="http://www.w3.org/2000/svg">
<path d="M41.147 12.0671C41.3448 10.8802 41.5427 9.8911 41.5427 8.70417C41.5427 7.51724 41.3448 6.33031 41.147 5.14337C42.1361 6.13248 42.9274 7.31941 43.1252 8.70417C42.5318 9.8911 41.9383 11.078 41.147 12.0671ZM53.412 26.1125C51.4338 25.3212 49.4555 24.9256 47.2795 24.9256C46.4882 24.9256 45.4991 24.9256 44.7078 25.1234C44.1143 23.9365 43.9165 22.7495 43.9165 21.5626C44.1143 18.7931 45.3013 16.2214 47.0817 14.2432C47.6751 13.4519 48.0708 12.8584 48.6643 12.0671L49.2577 11.2759C49.6534 10.6824 50.2468 10.0889 50.6425 9.49546C51.0381 8.90199 51.0381 8.70417 51.4338 8.50635C51.8294 8.30853 52.0272 7.71506 52.2251 7.12159C52.6207 6.52813 52.8185 5.93466 53.0163 5.34119C53.2142 6.52812 53.412 7.71506 53.412 8.70417C53.412 9.09981 53.412 9.49546 53.412 9.89111C53.412 10.4846 53.2142 11.078 53.0163 11.6715C52.8185 12.0671 52.8185 12.4628 52.6207 13.0563C52.4229 13.6497 52.0272 14.2432 51.8294 14.6388L51.2359 16.0236L50.4447 17.2105C49.6534 18.3975 49.0599 19.7822 48.8621 21.167C48.8621 21.3648 48.8621 21.5626 48.8621 21.7604C49.0599 22.3539 49.2577 23.343 50.2468 23.343C50.8403 23.343 51.2359 22.9474 51.6316 22.5517C51.8294 22.1561 51.8294 21.7604 51.8294 21.3648C51.8294 20.7713 51.6316 20.1779 51.4338 19.5844C51.8294 18.9909 52.4229 18.0018 52.8185 17.2105C53.0163 16.8149 53.412 16.2214 53.8076 15.6279C54.7967 17.4083 55.3902 19.3866 55.588 21.3648C55.3902 22.9474 54.7967 24.7278 53.412 26.1125ZM40.9492 26.3103C39.7623 24.7278 38.971 22.7495 38.971 20.7713C38.971 20.3757 38.971 19.98 38.971 19.5844C39.3666 17.4083 40.5535 15.4301 41.9383 14.0454L42.1361 13.6497C43.5209 12.0671 44.51 10.2867 44.9056 8.1107C44.9056 7.91288 44.9056 7.71506 44.9056 7.51724C44.9056 6.72595 44.7078 6.13248 44.7078 5.34119C44.7078 3.36297 45.3013 1.58258 46.4882 0C46.4882 0.197822 46.4882 0.395638 46.4882 0.395638C46.686 3.16515 47.6751 5.93466 49.2577 8.1107C48.6643 8.90199 47.873 9.8911 47.2795 10.6824C46.4882 11.6715 46.0926 12.0672 45.6969 12.8584C43.7187 15.2323 42.3339 18.1996 42.1361 21.3648C42.1361 22.7495 42.3339 24.1343 42.9274 25.3212C42.1361 25.9147 41.5427 26.1125 40.9492 26.3103ZM69.4356 29.8711L69.2378 29.2777C68.8421 28.6842 68.4465 28.0907 67.853 27.6951L75.7659 7.12159H76.3594C77.7441 7.12159 78.931 7.71506 79.7223 8.70417C80.5136 9.49546 80.9093 10.6824 80.9093 11.8693L69.4356 29.8711ZM13.8476 11.8693C13.8476 10.6824 14.441 9.69328 15.0345 8.70417C15.8258 7.71506 17.2105 7.12159 18.5953 7.12159C18.7931 7.12159 18.9909 7.12159 19.1888 7.12159L27.1016 27.6951C26.5082 28.0907 26.1125 28.6842 25.7169 29.2777C25.5191 29.4755 25.5191 29.6733 25.5191 29.8711L13.8476 11.8693ZM71.0182 33.8276C70.6225 33.4319 70.0291 33.2341 69.6334 33.0363L82.294 13.2541C83.6788 13.4519 84.8657 14.2432 85.657 15.4301C86.4483 16.6171 86.6461 18.0018 86.2505 19.3866L71.0182 33.8276ZM8.70418 19.3866C8.30853 18.0018 8.50636 16.6171 9.29764 15.4301C9.89111 14.2432 11.078 13.4519 12.4628 13.2541L25.1234 33.0363C24.53 33.2341 24.1343 33.4319 23.7387 33.8276L8.70418 19.3866ZM4.35209 27.6951C3.75862 26.3103 3.75862 24.9256 4.35209 23.5408C4.94556 22.3539 5.93467 21.3648 7.31942 20.9691L22.3539 35.2123L22.1561 35.4102C21.7604 36.0036 21.5626 36.7949 21.5626 37.5862L4.35209 27.6951ZM72.9964 37.5862C72.9964 36.7949 72.7986 36.0036 72.4029 35.4102L72.2051 35.2123L87.2396 20.9691C88.6243 21.3648 89.6134 22.3539 90.2069 23.5408C90.8004 24.9256 90.8004 26.3103 90.2069 27.6951L72.9964 37.5862ZM73.1942 41.9383C72.9964 41.3448 72.6007 40.7514 72.2051 40.3557L91.3938 29.2777C92.5808 29.8711 93.3721 30.8602 93.5699 32.0472C93.9655 33.4319 93.7677 35.0145 92.9764 36.2014L73.1942 41.9383ZM1.7804 36.2014C0.98911 35.0145 0.791289 33.4319 1.18693 32.0472C1.58258 30.8602 2.37387 29.8711 3.36298 29.2777L22.5517 40.3557C22.1561 40.7514 21.7604 41.3448 21.5626 41.9383L1.7804 36.2014ZM72.9964 46.0925C73.392 45.4991 73.5899 44.7078 73.5899 43.9165L93.3721 38.1797C94.3612 38.971 94.9546 40.3557 94.9546 41.7405C94.9546 42.9274 94.559 44.3122 93.5699 45.3013L72.9964 46.0925ZM1.38476 45.1034C0.593468 44.1143 0 42.9274 0 41.5426C0 40.1579 0.593465 38.971 1.58258 37.9818L21.3648 43.7187C21.3648 44.51 21.5626 45.3013 21.9583 45.8947L1.38476 45.1034ZM73.1942 50.2468C73.1942 49.4555 72.9964 48.6642 72.6007 47.873L93.5699 46.8838C94.3612 47.873 94.559 49.0599 94.3612 50.2468C94.1634 51.6316 93.3721 53.0163 92.1851 53.8076L73.1942 50.2468ZM2.57169 53.8076C1.38475 53.0163 0.593468 51.6316 0.395646 50.2468C0.197824 49.0599 0.593467 47.873 1.18693 46.8838L22.1561 47.873C21.7604 48.6642 21.5626 49.4555 21.5626 50.2468L2.57169 53.8076ZM5.14338 61.3249C3.95644 60.7314 3.16515 59.7423 2.76951 58.5554C2.57169 57.5662 2.57169 56.5771 3.16516 55.7858L22.1561 52.225C22.3539 52.8185 22.7495 53.412 23.343 54.0054L5.14338 61.3249ZM71.6116 54.0054C72.2051 53.6098 72.6007 53.0163 72.7986 52.225L91.7895 55.7858C92.1851 56.5771 92.383 57.5662 92.1851 58.5554C91.9873 59.7423 90.9982 60.9292 89.8113 61.5227L71.6116 54.0054ZM71.4138 58.7532C71.6116 58.1597 71.8094 57.3684 71.8094 56.7749C71.8094 56.5771 71.8094 56.3793 71.8094 55.9837L88.6243 62.9074C89.02 63.8965 88.8222 64.8857 88.4265 65.8748C87.833 66.8639 87.0418 67.6552 85.8548 68.2486L71.4138 58.7532ZM8.902 68.2486C7.91289 67.853 6.92377 67.0617 6.52813 66.0726C6.13249 65.0835 5.93467 64.0944 6.33031 63.1053L23.1452 56.1815C23.1452 56.3793 23.1452 56.5771 23.1452 56.9728C23.1452 57.5662 23.343 58.3575 23.5408 58.951L8.902 68.2486ZM13.6497 73.7876C12.4628 73.5898 11.2759 72.7985 10.6824 71.8094C10.2868 71.216 10.0889 70.6225 9.89111 69.8312L24.53 60.3358C25.1234 60.9292 25.7169 61.3249 26.5082 61.5227L13.6497 73.7876ZM68.2487 61.5227C69.0399 61.127 69.6334 60.7314 70.2269 60.3358L84.8657 69.8312C84.8657 70.6225 84.6679 71.216 84.0744 72.0073C83.481 72.9964 82.294 73.7877 81.1071 73.9855L68.2487 61.5227ZM19.1888 78.1397C18.0018 78.1397 17.0127 77.5463 16.2214 76.755C15.8258 76.3593 15.4301 75.7659 15.2323 75.1724L26.9038 64.0944C27.1016 64.6878 27.2995 65.0835 27.6951 65.6769L27.8929 65.8748L19.1888 78.1397ZM67.0617 65.8748L67.2595 65.6769C67.6552 65.2813 67.853 64.6878 68.0508 64.0944L79.7223 75.1724C79.5245 75.7659 79.1289 76.3593 78.7332 76.755C77.9419 77.5463 76.755 78.1397 75.7659 78.1397L67.0617 65.8748ZM69.8312 81.7005H69.2378L62.9075 67.4573H63.3031C64.0944 67.4573 64.6878 67.2595 65.4791 67.0617L73.9855 79.3267C73.5899 79.9201 73.1942 80.5136 72.6007 80.9093C71.8095 81.5027 70.8203 81.7005 69.8312 81.7005ZM24.9256 81.7005C23.9365 81.7005 22.9474 81.3049 22.1561 80.7114C21.5626 80.3158 21.167 79.7223 20.7713 79.1289L29.2777 66.8639C29.8711 67.2595 30.6624 67.2595 31.4537 67.2595H31.8494L25.5191 81.5027L24.9256 81.7005ZM30.4646 84.47C29.8712 84.47 29.2777 84.2722 28.882 84.0744C28.2886 83.8766 27.6951 83.2831 27.2995 82.6896L33.0363 69.8312C33.2341 70.029 33.2341 70.029 33.432 70.2269C33.8276 70.6225 34.2232 71.0181 34.8167 71.216L32.0472 84.0744C31.4537 84.2722 31.0581 84.47 30.4646 84.47ZM64.2922 84.47C63.6987 84.47 63.3031 84.4701 62.9075 84.0744L60.3358 71.216C60.9292 71.0181 61.3249 70.6225 61.7205 70.2269L62.1162 69.8312L67.853 82.6896C67.4574 83.2831 66.8639 83.6788 66.2704 84.0744C65.4791 84.2722 64.8857 84.47 64.2922 84.47ZM36.7949 85.2613H36.3993C35.608 85.2613 34.6189 84.8657 34.0254 84.2722L36.7949 71.6116H36.9927C37.784 71.6116 38.5753 71.4138 39.3666 71.0182L38.7731 84.8657C38.1797 85.2613 37.3884 85.2613 36.7949 85.2613ZM58.1597 85.2613C57.5663 85.2613 56.775 85.0635 56.1815 84.8657L55.588 71.0182C56.3793 71.4138 57.1706 71.6116 57.9619 71.6116H58.1597L60.7314 84.2722C60.1379 84.8657 59.3467 85.2613 58.5554 85.2613H58.1597ZM46.2904 109V104.45C46.2904 104.054 46.0926 103.857 45.8947 103.659C44.3122 102.868 43.7187 100.889 44.51 99.3067C44.9056 98.7132 45.3013 98.3176 45.8947 97.922C46.0926 97.7241 46.2904 97.3285 46.2904 97.1307C46.0926 89.6134 45.8947 83.4809 45.6969 78.7332C45.6969 76.5572 45.3013 74.5789 45.1035 72.4029C45.1035 71.216 44.7078 69.8312 43.9165 68.8421C43.3231 68.0508 42.5318 67.6552 41.5427 67.6552C40.7514 67.6552 39.9601 68.0508 39.3666 68.6443C38.7731 69.2377 37.9819 69.6334 36.9927 69.6334C36.2015 69.6334 35.4102 69.2377 34.8167 68.8421C34.2232 68.2486 33.8276 67.4573 33.8276 66.6661C33.8276 66.4682 33.8276 66.4682 33.8276 66.2704C33.8276 65.8748 33.6298 65.6769 33.432 65.4791C33.2341 65.2813 33.0363 65.2813 32.8385 65.2813H32.4428C32.245 65.4791 32.0472 65.4791 31.6515 65.4791C30.6624 65.4791 29.8711 65.0835 29.2777 64.2922C28.882 63.6987 28.6842 63.1053 28.6842 62.314C28.6842 61.7205 28.882 61.3249 29.0799 60.9292C29.2777 60.5336 29.2777 60.3357 29.0799 59.9401C28.882 59.7423 28.6842 59.5445 28.2886 59.5445C27.1016 59.5445 26.1125 58.951 25.7169 57.9619C25.5191 57.5662 25.3212 57.1706 25.3212 56.5771C25.3212 55.7858 25.7169 55.1924 26.1125 54.5989C26.3104 54.4011 26.5082 54.0054 26.3103 53.8076C26.3103 53.412 26.1125 53.2142 25.7169 53.2142C24.5299 52.8185 23.7387 51.6316 23.7387 50.4446C23.7387 49.4555 24.3321 48.4664 25.1234 48.0708C25.3212 47.8729 25.5191 47.4773 25.5191 47.2795C25.5191 46.8839 25.3212 46.686 24.9256 46.4882C23.9365 45.8947 23.343 44.9056 23.343 43.9165C23.343 42.9274 23.7387 42.1361 24.53 41.5426C24.7278 41.3448 24.9256 41.147 24.9256 40.7514C24.9256 40.5535 24.9256 40.1579 24.53 39.9601C23.9365 39.3666 23.5408 38.5753 23.5408 37.784C23.5408 37.3884 23.7387 36.9927 23.9365 36.3993C24.5299 35.4102 25.7169 34.8167 26.706 34.8167C27.1016 34.8167 27.2995 34.6189 27.4973 34.2232C27.6951 33.8276 27.6951 33.4319 27.4973 33.2341C27.1016 32.6406 26.9038 32.0472 26.9038 31.4537C26.9038 31.0581 27.1016 30.6624 27.2995 30.069C27.6951 29.2777 28.6842 28.6842 29.6733 28.4864C29.8711 28.4864 30.069 28.2886 30.2668 28.0907C30.4646 27.8929 30.4646 27.6951 30.4646 27.2995C30.4646 26.9038 30.069 26.5082 29.4755 26.5082H29.2777L28.6842 26.706L20.7713 6.13248C21.3648 3.75862 23.5408 1.97822 25.9147 1.78039C26.706 1.78039 27.4973 1.97822 28.0908 2.37386L28.2886 3.5608C29.6733 11.4737 32.6407 30.2668 33.2341 33.0363C33.2341 33.4319 33.432 33.8276 33.432 34.2232C33.432 35.0145 33.0363 35.8058 32.4428 36.3993L32.0472 36.5971C30.8603 38.5753 29.8711 40.5535 29.2777 42.7296C28.6842 44.51 28.4864 46.2904 28.4864 48.2686C28.4864 54.7967 31.2559 61.127 35.2123 63.6987C36.3993 64.6878 37.9819 65.2813 39.5644 65.2813C40.9492 65.2813 42.3339 64.49 43.1252 63.3031C43.9165 61.9183 44.3122 60.3357 44.1143 58.7532V58.1597C44.1143 56.9728 44.1143 55.1924 44.1143 53.2142C44.1143 51.2359 44.1143 48.8621 44.1143 46.686C44.1143 43.5209 43.9165 40.3557 43.1252 37.1906V36.9927L42.9274 36.5971C41.9383 35.0145 40.3557 33.8276 38.5753 33.4319C38.5753 33.0363 38.5753 32.6406 38.5753 32.245C38.5753 31.4537 38.5753 30.4646 38.7731 29.6733C40.9492 27.6951 43.9165 26.5082 47.0817 26.706C49.0599 26.706 51.2359 27.1016 53.0163 27.8929C53.0163 27.8929 53.2142 27.8929 53.2142 28.0907C54.0055 28.4864 54.7967 29.0799 55.3902 29.6733C55.588 30.4646 55.588 31.4537 55.588 32.245C55.588 32.6406 55.588 33.0363 55.588 33.4319C53.8076 33.8276 52.2251 35.0145 51.2359 36.5971L51.4338 37.1906C51.4338 37.1906 51.4338 37.1906 51.4338 37.3884C50.6425 40.5535 50.4447 43.7187 50.4447 46.8838C50.4447 49.0599 50.4447 51.4338 50.4447 53.412C50.4447 55.3902 50.4447 57.1706 50.4447 58.3575V58.951C50.4447 60.5336 50.8403 62.1161 51.4338 63.5009C52.2251 64.6878 53.6098 65.4791 54.9946 65.4791C56.5771 65.4791 57.9619 64.8857 59.3467 63.8965C63.3031 61.127 66.0726 54.9946 66.0726 48.4664C66.0726 46.686 65.8748 44.7078 65.2813 42.9274C64.6879 40.7514 63.6987 38.7731 62.314 36.9927L62.1162 36.5971C61.7205 35.8058 61.3249 35.2123 61.3249 34.4211C61.3249 34.0254 61.3249 33.6298 61.5227 33.2341C62.1162 30.2668 65.4791 9.49546 66.6661 2.57169V2.37386C67.2595 1.97822 68.0508 1.78039 68.8421 1.78039C69.8312 1.78039 70.6225 1.97822 71.4138 2.57169C72.7986 3.36297 73.7877 4.54991 73.9855 6.13248L66.0726 26.706L65.4791 26.5082H65.2813C64.8857 26.5082 64.2922 26.9038 64.2922 27.2995C64.2922 27.4973 64.2922 27.8929 64.49 28.0907C64.6878 28.2886 64.8857 28.4864 65.0835 28.4864C66.0726 28.6842 66.8639 29.2777 67.4574 30.069C67.6552 30.4646 67.853 30.8602 67.853 31.4537C67.853 32.0472 67.6552 32.6406 67.2595 33.2341C67.2595 33.4319 67.0617 33.6298 67.2595 33.6298V33.8276C67.4574 34.2232 67.6552 34.4211 68.0508 34.4211H68.2487C69.4356 34.4211 70.4247 35.0145 70.8203 36.0036C71.0182 36.3993 71.216 36.7949 71.216 37.3884C71.216 38.1797 70.8203 39.1688 70.2269 39.7622C70.0291 39.9601 69.8312 40.1579 69.8312 40.5535C69.8312 40.7514 70.0291 41.147 70.2269 41.3448C71.0182 41.9383 71.4138 42.7296 71.6116 43.7187C71.6116 44.7078 71.0182 45.6969 70.0291 46.2904C69.6334 46.4882 69.4356 46.686 69.4356 47.0817C69.4356 47.4773 69.6334 47.6751 69.8312 47.873C70.6225 48.4664 71.216 49.2577 71.216 50.2468C71.216 51.4338 70.4247 52.6207 69.2378 53.0163C68.8421 53.2141 68.4465 53.8076 68.6443 54.2033C68.6443 54.4011 68.8421 54.4011 68.8421 54.5989C69.4356 55.1924 69.6334 55.7858 69.6334 56.5771C69.6334 56.9728 69.4356 57.5662 69.2378 57.9619C68.6443 58.951 67.6552 59.5445 66.6661 59.5445C66.0726 59.5445 65.677 59.9401 65.677 60.5336C65.677 60.7314 65.677 60.9292 65.8748 60.9292C66.0726 61.3249 66.2704 61.9183 66.2704 62.314C66.2704 62.9074 66.0726 63.6987 65.677 64.0944C65.0835 64.8857 64.2922 65.4791 63.3031 65.4791C62.9075 65.4791 62.5118 65.4791 62.314 65.2813C62.1162 65.2813 62.1162 65.2813 61.9183 65.2813C61.7205 65.2813 61.5227 65.2813 61.3249 65.4791C61.1271 65.6769 60.9292 66.0726 60.9292 66.2704C60.9292 66.4682 60.9292 66.4682 60.9292 66.6661C60.9292 67.4573 60.7314 68.2486 60.1379 68.8421C59.5445 69.4356 58.7532 69.6334 57.9619 69.6334C57.1706 69.6334 56.3793 69.2377 55.7859 68.6443C55.1924 68.0508 54.4011 67.6552 53.412 67.4573C52.6207 67.4573 51.6316 67.853 51.2359 68.6443C50.6425 69.6334 50.2468 71.0181 50.049 72.2051C49.2577 80.3158 48.8621 88.6243 48.8621 96.735C48.8621 97.1307 49.0599 97.3285 49.2577 97.5263C50.2468 98.1198 51.0381 99.1089 51.0381 100.296C51.0381 101.483 50.2468 102.67 49.2577 103.263C48.8621 103.461 48.6643 103.659 48.6643 104.054V108.604L46.2904 109Z" fill="black"/>
</svg>
