<svg xmlns="http://www.w3.org/2000/svg" width="30.494" height="30.5" viewBox="0 0 30.494 30.5"><g transform="translate(0.25 0.25)"><path d="M52.589,26H27.329A1.329,1.329,0,0,0,26,27.329V52.584a1.329,1.329,0,0,0,1.329,1.329H52.583a1.329,1.329,0,0,0,1.329-1.329V27.329A1.32,1.32,0,0,0,52.589,26Zm-1.712,5.286a8.6,8.6,0,0,1-1.262,3.769c.018.079.042.158.061.231a12.814,12.814,0,0,1-5.438,13.608h0a12.6,12.6,0,0,1-6.907,2.058c-.316,0-.637-.012-.959-.036A12.85,12.85,0,0,1,29.01,47.88a.6.6,0,0,1-.182-.637.616.616,0,0,1,.516-.425,11.259,11.259,0,0,0,3.745-1.074,5.3,5.3,0,0,1-2.367-1.287,5.168,5.168,0,0,1-1.2-1.669.61.61,0,0,1,.17-.692.6.6,0,0,1,.71-.055,1.59,1.59,0,0,0,1.523.134,4.041,4.041,0,0,1-2.677-4.3.6.6,0,0,1,.971-.376,3.073,3.073,0,0,0,1.566.747A6.788,6.788,0,0,1,30.1,34.1a7.078,7.078,0,0,1,.3-2.537.61.61,0,0,1,1.111-.091A14.476,14.476,0,0,0,38.3,37.684a5.782,5.782,0,0,1,.747-6.786c.024-.024.042-.049.067-.073a2.776,2.776,0,0,1,.492-.455,5.864,5.864,0,0,1,8.163,1.165c.146.03.753.055,2.185-.825a.608.608,0,0,1,.923.577Z" transform="translate(-24.959 -24.959)" fill="none"/><path d="M118.37,101.1c0-.006-.006-.006-.006-.013a5,5,0,0,0-7.063-1.072,1.611,1.611,0,0,0-.285.278c-.026.026-.052.058-.078.084a4.844,4.844,0,0,0-.1,6.449,3.842,3.842,0,0,0,.356.368.635.635,0,0,1,.181.639c-.032.123-.065.232-.1.342a.675.675,0,0,1-.318.387.641.641,0,0,1-.5.039,17.384,17.384,0,0,1-8.735-6.372c-.006.207-.006.42.006.652a5.909,5.909,0,0,0,2.132,4.229.627.627,0,0,1,.22.471.651.651,0,0,1-.194.484,2.266,2.266,0,0,1-1.536.542,3.368,3.368,0,0,1-1.458-.355,3.309,3.309,0,0,0,.13.381,3.59,3.59,0,0,0,2.864,1.975.647.647,0,0,1,.376,1.039,3.566,3.566,0,0,1-2.359,1.291,4.554,4.554,0,0,0,3.616,1.24.883.883,0,0,0,.13-.013.645.645,0,0,1,.447,1.169c-.143.1-.279.194-.415.278a13.428,13.428,0,0,1-4.419,1.859,12.4,12.4,0,0,0,13.543.1h0a12.365,12.365,0,0,0,5.255-13.086c-.039-.168-.091-.349-.143-.523a.65.65,0,0,1,.175-.665,4.819,4.819,0,0,0,1-2.24C119.252,101.876,118.558,101.321,118.37,101.1Z" transform="translate(-95.961 -94.17)" fill="none"/><path d="M33.486,6H8.514A2.517,2.517,0,0,0,6,8.514V33.48A2.518,2.518,0,0,0,8.514,36H33.48a2.517,2.517,0,0,0,2.514-2.514V8.514A2.508,2.508,0,0,0,33.486,6ZM34.8,33.486A1.314,1.314,0,0,1,33.486,34.8H8.514A1.314,1.314,0,0,1,7.2,33.486V8.514A1.314,1.314,0,0,1,8.514,7.2H33.48a1.314,1.314,0,0,1,1.314,1.314V33.486Z" transform="translate(-6 -6)" fill="#231f20" stroke="#131313" stroke-width="0.5"/><path d="M94.665,80.382A.649.649,0,0,0,94,80.376c-1.486.916-2.116.89-2.267.859a6.079,6.079,0,0,0-8.47-1.206,2.667,2.667,0,0,0-.51.474c-.025.025-.044.051-.069.076a6.029,6.029,0,0,0-.775,7.06,15.034,15.034,0,0,1-7.041-6.46.632.632,0,0,0-1.152.095,7.485,7.485,0,0,0-.315,2.64,7.035,7.035,0,0,0,1.744,4.307,3.131,3.131,0,0,1-1.625-.777.624.624,0,0,0-1.008.392,4.21,4.21,0,0,0,2.771,4.477,1.663,1.663,0,0,1-1.581-.139.631.631,0,0,0-.913.777,5.377,5.377,0,0,0,1.247,1.737,5.463,5.463,0,0,0,2.456,1.339A11.853,11.853,0,0,1,72.6,97.142a.632.632,0,0,0-.346,1.105A13.255,13.255,0,0,0,79.9,101.4c.334.025.661.038,1,.038A13.053,13.053,0,0,0,88.059,99.3h0A13.349,13.349,0,0,0,93.7,85.143c-.019-.082-.038-.158-.063-.24a8.877,8.877,0,0,0,1.31-3.921A.62.62,0,0,0,94.665,80.382Zm-2.154,3.9a.626.626,0,0,0-.17.65,5.132,5.132,0,0,1,.139.511,12.127,12.127,0,0,1-5.107,12.8h0a11.976,11.976,0,0,1-13.162-.095,13.139,13.139,0,0,0,4.295-1.819c.132-.088.265-.177.4-.272a.631.631,0,0,0-.435-1.143c-.038.006-.082.006-.126.013a4.4,4.4,0,0,1-3.514-1.212,3.42,3.42,0,0,0,2.292-1.263.634.634,0,0,0-.365-1.017A3.506,3.506,0,0,1,73.977,89.5a3.247,3.247,0,0,1-.126-.373,3.276,3.276,0,0,0,1.417.347,2.177,2.177,0,0,0,1.493-.53.639.639,0,0,0,.189-.474.649.649,0,0,0-.214-.461,5.756,5.756,0,0,1-2.072-4.13c-.013-.221-.013-.436-.006-.638a16.9,16.9,0,0,0,8.489,6.233.645.645,0,0,0,.485-.038.6.6,0,0,0,.309-.379c.031-.107.063-.215.094-.335a.624.624,0,0,0-.176-.625c-.12-.114-.233-.234-.346-.36a4.761,4.761,0,0,1,.094-6.308c.025-.025.05-.057.076-.082a1.843,1.843,0,0,1,.277-.272,4.835,4.835,0,0,1,6.864,1.048c0,.006.006.006.006.013.183.215.856.758,2.651-.051A4.661,4.661,0,0,1,92.511,84.278Z" transform="translate(-68.603 -75.028)" fill="#231f20" stroke="#131313" stroke-width="0.5"/></g></svg>