<svg width="34" height="34" viewBox="0 0 34 34" fill="none" xmlns="http://www.w3.org/2000/svg">
<circle opacity="0.1" cx="17" cy="17" r="17" fill="#009743"/>
<path d="M24 12.0059C23.4341 12.4051 22.8076 12.7104 22.1445 12.91C21.7887 12.5008 21.3157 12.2108 20.7896 12.0792C20.2635 11.9475 19.7097 11.9806 19.203 12.174C18.6964 12.3674 18.2614 12.7117 17.9568 13.1604C17.6522 13.6091 17.4927 14.1405 17.5 14.6828V15.2737C16.4616 15.3006 15.4326 15.0703 14.5047 14.6033C13.5768 14.1362 12.7788 13.447 12.1818 12.5969C12.1818 12.5969 9.81818 17.915 15.1364 20.2787C13.9194 21.1047 12.4697 21.5189 11 21.4605C16.3182 24.415 22.8182 21.4605 22.8182 14.665C22.8176 14.5004 22.8018 14.3362 22.7709 14.1746C23.374 13.5798 23.7996 12.8289 24 12.0059V12.0059Z" stroke="#009743" stroke-width="1.5" stroke-linecap="round" stroke-linejoin="round"/>
</svg>
