<svg width="41" height="41" viewBox="0 0 41 41" fill="none" xmlns="http://www.w3.org/2000/svg">
<g filter="url(#filter0_d_12_2017)">
<rect x="8" y="6" width="24" height="24" rx="5" fill="#009743"/>
</g>
<path d="M18.6538 16.9387H14.7912C14.6018 16.9387 14.3674 16.9741 14.2743 16.7718C14.2133 16.637 14.2486 16.4186 14.2486 16.2742V13.9176V12.8742C14.2486 12.7169 14.2101 12.4697 14.3192 12.3444C14.4348 12.2096 14.6595 12.2449 14.8265 12.2449H15.8313H18.2168C18.3709 12.2449 18.5443 12.2257 18.6952 12.248C18.9552 12.2866 18.9424 12.5369 18.9424 12.7424V14.9609C18.9424 15.5196 18.9713 16.0879 18.9424 16.6497C18.936 16.8103 18.8238 16.9324 18.6536 16.9387C18.2426 16.9547 18.2394 17.5969 18.6536 17.5808C19.2154 17.5616 19.5879 17.1217 19.5879 16.5759V15.7572V13.1727C19.5879 12.9641 19.5942 12.7522 19.5879 12.5436C19.575 12.0074 19.1608 11.6093 18.6279 11.6029C17.9569 11.5966 17.286 11.6029 16.6149 11.6029C15.9375 11.6029 15.2568 11.5966 14.5794 11.6029C14.04 11.606 13.6226 12.0009 13.6066 12.5402C13.6002 12.7426 13.6066 12.9448 13.6066 13.147V15.7283V16.5664C13.6066 17.0833 13.934 17.5295 14.4735 17.5777C14.6596 17.5937 14.8523 17.5809 15.0386 17.5809H16.2297H18.5157H18.6504C19.0645 17.5809 19.0678 16.9387 18.6536 16.9387L18.6538 16.9387Z" fill="white"/>
<path d="M18.6469 23.6357H14.7844C14.5949 23.6357 14.3606 23.6711 14.2675 23.4688C14.2064 23.334 14.2418 23.1156 14.2418 22.9712V20.6146V19.5712C14.2418 19.4139 14.2033 19.1667 14.3124 19.0414C14.428 18.9067 14.6526 18.9419 14.8196 18.9419H15.8245H18.21C18.3641 18.9419 18.5374 18.9227 18.6883 18.9451C18.9484 18.9836 18.9355 19.234 18.9355 19.4395V21.658C18.9355 22.2166 18.9644 22.7849 18.9355 23.3467C18.9293 23.5073 18.8169 23.6294 18.6468 23.6357C18.2358 23.6518 18.2326 24.2939 18.6468 24.2778C19.2086 24.2586 19.581 23.8187 19.581 23.2729V22.4542V19.8698C19.581 19.6611 19.5874 19.4492 19.581 19.2406C19.5682 18.7045 19.154 18.3063 18.6211 18.2999C17.95 18.2936 17.2791 18.2999 16.6081 18.2999C15.9307 18.2999 15.25 18.2936 14.5725 18.2999C14.0364 18.3031 13.6191 18.6981 13.6029 19.2374C13.5966 19.4397 13.6029 19.6419 13.6029 19.8442V22.4255V23.2635C13.6029 23.7804 13.9304 24.2267 14.4698 24.2749C14.656 24.2909 14.8486 24.278 15.0349 24.278H16.2261H18.512H18.6468C19.061 24.2779 19.061 23.6357 18.6468 23.6357L18.6469 23.6357Z" fill="white"/>
<path d="M25.4632 16.9387H21.6007C21.4112 16.9387 21.1768 16.9741 21.0838 16.7718C21.0227 16.637 21.0581 16.4186 21.0581 16.2742V13.9176V12.8742C21.0581 12.7169 21.0195 12.4697 21.1286 12.3444C21.2442 12.2096 21.4689 12.2449 21.6359 12.2449H22.6408H25.0262C25.1804 12.2449 25.3537 12.2257 25.5046 12.248C25.7647 12.2866 25.7518 12.5369 25.7518 12.7424V14.9609C25.7518 15.5196 25.7807 16.0879 25.7518 16.6497C25.7456 16.8103 25.6332 16.9324 25.463 16.9387C25.0521 16.9547 25.0489 17.5969 25.463 17.5808C26.0249 17.5616 26.3973 17.1217 26.3973 16.5759V15.7572V13.1727C26.3973 12.9641 26.4037 12.7522 26.3973 12.5436C26.3845 12.0074 25.9703 11.6093 25.4374 11.6029C24.7663 11.5966 24.0954 11.6029 23.4243 11.6029C22.747 11.6029 22.0662 11.5966 21.3888 11.6029C20.8495 11.606 20.4322 12.0009 20.4162 12.5402C20.4098 12.7426 20.4162 12.9448 20.4162 13.147V15.7283V16.5664C20.4162 17.0833 20.7436 17.5295 21.283 17.5777C21.4692 17.5937 21.6619 17.5809 21.8481 17.5809H23.0393H25.3252H25.46C25.8741 17.5809 25.8741 16.9387 25.4631 16.9387L25.4632 16.9387Z" fill="white"/>
<path d="M25.4567 23.6357H21.5942C21.4047 23.6357 21.1704 23.6711 21.0773 23.4688C21.0162 23.334 21.0516 23.1156 21.0516 22.9712V20.6146V19.5712C21.0516 19.4139 21.0131 19.1667 21.1222 19.0414C21.2378 18.9067 21.4625 18.9419 21.6294 18.9419H22.6343H25.0198C25.1739 18.9419 25.3472 18.9227 25.4982 18.9451C25.7582 18.9836 25.7454 19.234 25.7454 19.4395V21.658C25.7454 22.2166 25.7742 22.7849 25.7454 23.3467C25.7391 23.5073 25.6267 23.6294 25.4566 23.6357C25.0456 23.6518 25.0424 24.2939 25.4566 24.2778C26.0184 24.2586 26.3908 23.8187 26.3908 23.2729V22.4542V19.8698C26.3908 19.6611 26.3972 19.4492 26.3908 19.2406C26.378 18.7045 25.9638 18.3063 25.4309 18.2999C24.7598 18.2936 24.0889 18.2999 23.4179 18.2999C22.7405 18.2999 22.0598 18.2936 21.3823 18.2999C20.8462 18.3031 20.4289 18.6981 20.4127 19.2374C20.4064 19.4397 20.4127 19.6419 20.4127 19.8442V22.4255V23.2635C20.4127 23.7804 20.7402 24.2267 21.2796 24.2749C21.4658 24.2909 21.6584 24.278 21.8447 24.278H23.0359H25.3218H25.4566C25.8708 24.2779 25.8708 23.6357 25.4566 23.6357L25.4567 23.6357Z" fill="white"/>
<defs>
<filter id="filter0_d_12_2017" x="0.2" y="2.38419e-07" width="40.8" height="40.8" filterUnits="userSpaceOnUse" color-interpolation-filters="sRGB">
<feFlood flood-opacity="0" result="BackgroundImageFix"/>
<feColorMatrix in="SourceAlpha" type="matrix" values="0 0 0 0 0 0 0 0 0 0 0 0 0 0 0 0 0 0 127 0" result="hardAlpha"/>
<feMorphology radius="1.8" operator="dilate" in="SourceAlpha" result="effect1_dropShadow_12_2017"/>
<feOffset dx="0.6" dy="2.4"/>
<feGaussianBlur stdDeviation="3.3"/>
<feComposite in2="hardAlpha" operator="out"/>
<feColorMatrix type="matrix" values="0 0 0 0 0 0 0 0 0 0 0 0 0 0 0 0 0 0 0.05 0"/>
<feBlend mode="normal" in2="BackgroundImageFix" result="effect1_dropShadow_12_2017"/>
<feBlend mode="normal" in="SourceGraphic" in2="effect1_dropShadow_12_2017" result="shape"/>
</filter>
</defs>
</svg>
