<svg width="78" height="78" viewBox="0 0 78 78" fill="none" xmlns="http://www.w3.org/2000/svg">
<g filter="url(#filter0_d_467_610)">
<rect x="13" y="10" width="50" height="50" rx="16.5" fill="#009743"/>
</g>
<path d="M39.1606 29.527C39.1606 27.221 41.0395 25.2991 43.3458 25.2991C45.6518 25.2991 47.5309 27.178 47.5309 29.527C47.5309 31.8758 45.6092 33.883 43.3458 33.883C41.0823 33.8828 39.1606 31.8757 39.1606 29.527Z" fill="white"/>
<path d="M51.3316 40.16C51.3316 42.5941 47.3173 43.7044 43.3458 43.7044C41.3385 43.7044 39.4169 43.4055 38.0076 42.8931C35.8297 42.0817 35.3599 40.9714 35.3599 40.16C35.3599 37.555 36.6411 35.1207 38.7762 33.5835C38.947 33.4554 39.1605 33.4982 39.2886 33.6263C40.4417 34.6086 41.851 35.1209 43.3028 35.1209C44.7549 35.1209 46.164 34.6085 47.3171 33.6689C47.4452 33.5408 47.6588 33.5408 47.8295 33.6689C50.0503 35.0784 51.3316 37.5551 51.3316 40.16Z" fill="white"/>
<path d="M29.5089 29.0568C26.4769 29.0568 24 31.4911 24 34.5231C24 37.5552 26.4769 40.032 29.5089 40.032C32.5409 40.032 35.0177 37.5551 35.0177 34.5231C35.0177 31.4911 32.5409 29.0568 29.5089 29.0568ZM29.5089 34.0961C30.4483 34.0961 31.2171 34.8646 31.2171 35.8043C31.2171 36.5729 30.662 37.2564 29.936 37.4271V37.6405C29.936 37.8967 29.7651 38.0676 29.5089 38.0676C29.2527 38.0676 29.0818 37.8967 29.0818 37.6405V37.4271C28.3558 37.2562 27.8006 36.5729 27.8006 35.8043C27.8006 35.5481 27.9715 35.3773 28.2277 35.3773C28.4839 35.3773 28.6548 35.5481 28.6548 35.8043C28.6548 36.2742 29.0391 36.6585 29.5089 36.6585C29.9788 36.6585 30.3631 36.2742 30.3631 35.8043C30.3631 35.3344 29.9788 34.9502 29.5089 34.9502C28.5695 34.9502 27.8007 34.1816 27.8007 33.2419C27.8007 32.4733 28.3558 31.7898 29.0818 31.6191V31.4057C29.0818 31.1923 29.2527 30.9787 29.5089 30.9787C29.7651 30.9787 29.936 31.1921 29.936 31.4057V31.6191C30.662 31.79 31.2172 32.4733 31.2172 33.2419C31.2172 33.4553 31.0038 33.669 30.7901 33.669C30.5339 33.669 30.363 33.4555 30.363 33.2419C30.363 32.772 29.9787 32.3877 29.5089 32.3877C29.039 32.3877 28.6547 32.772 28.6547 33.2419C28.6547 33.7118 29.0392 34.0961 29.5089 34.0961Z" fill="white"/>
<path d="M33.4801 45.2419C32.2416 47.3773 29.2949 47.5907 27.715 45.7543L27.1598 46.1386C27.0317 46.2239 26.8609 46.2239 26.69 46.1386C26.5619 46.0533 26.4766 45.8824 26.4766 45.7115L26.8183 41.8254C26.8183 41.6973 26.9036 41.5692 26.9892 41.5264C27.1173 41.4411 27.2454 41.4411 27.3735 41.4836L31.0462 42.6793C31.2171 42.7221 31.3024 42.8502 31.3452 43.021C31.388 43.1919 31.3024 43.3628 31.1743 43.4481L30.7473 43.7471C31.3024 44.3876 32.1566 44.7293 33.0532 44.6012C33.2241 44.6012 33.395 44.644 33.4803 44.8147C33.5654 44.9432 33.5654 45.1139 33.4801 45.242L33.4801 45.2419Z" fill="white"/>
<path d="M37.3667 24.2312L37.025 28.1174C36.9822 28.3736 36.726 28.5445 36.4698 28.5017L32.7545 27.3061C32.5836 27.2633 32.4983 27.1352 32.4556 26.9643C32.4128 26.7934 32.4983 26.6226 32.6264 26.5372L33.0535 26.2383C32.5409 25.5978 31.6867 25.2563 30.8329 25.3843C30.662 25.3843 30.5339 25.3416 30.4058 25.2135C30.3205 25.0854 30.3205 24.9145 30.4058 24.7436C31.6442 22.6511 34.5909 22.3948 36.1709 24.2312L36.726 23.8469C36.8541 23.7616 37.025 23.7616 37.1959 23.8469C37.2812 23.9323 37.3668 24.1031 37.3668 24.2312L37.3667 24.2312Z" fill="white"/>
<defs>
<filter id="filter0_d_467_610" x="0" y="0" width="78" height="78" filterUnits="userSpaceOnUse" color-interpolation-filters="sRGB">
<feFlood flood-opacity="0" result="BackgroundImageFix"/>
<feColorMatrix in="SourceAlpha" type="matrix" values="0 0 0 0 0 0 0 0 0 0 0 0 0 0 0 0 0 0 127 0" result="hardAlpha"/>
<feMorphology radius="3" operator="dilate" in="SourceAlpha" result="effect1_dropShadow_467_610"/>
<feOffset dx="1" dy="4"/>
<feGaussianBlur stdDeviation="5.5"/>
<feComposite in2="hardAlpha" operator="out"/>
<feColorMatrix type="matrix" values="0 0 0 0 0 0 0 0 0 0 0 0 0 0 0 0 0 0 0.05 0"/>
<feBlend mode="normal" in2="BackgroundImageFix" result="effect1_dropShadow_467_610"/>
<feBlend mode="normal" in="SourceGraphic" in2="effect1_dropShadow_467_610" result="shape"/>
</filter>
</defs>
</svg>
