<svg width="78" height="78" viewBox="0 0 78 78" fill="none" xmlns="http://www.w3.org/2000/svg">
<g filter="url(#filter0_d_467_609)">
<rect x="13" y="10" width="50" height="50" rx="16.5" fill="#009743"/>
</g>
<path d="M26 44.543V47.9998H41.329V44.543C41.329 42.4462 39.7141 40.8312 37.6172 40.8312H29.7406C27.7288 40.8312 26.0003 42.4745 26.0003 44.543H26Z" fill="white"/>
<path d="M33.6504 39.3008C36.0022 39.3008 37.9289 37.3741 37.9289 35.0222C37.9289 32.6704 36.0022 30.7437 33.6504 30.7437C31.2988 30.7437 29.3721 32.6704 29.3721 35.0222C29.4003 37.3741 31.2988 39.3008 33.6504 39.3008Z" fill="white"/>
<path d="M43.6809 39.9242C45.551 39.9242 47.0243 38.3941 47.0243 36.5807C47.0243 34.7673 45.4943 33.209 43.6809 33.209C41.8107 33.209 40.3374 34.7391 40.3374 36.5525C40.3374 38.3658 41.811 39.9242 43.6809 39.9242Z" fill="white"/>
<path d="M46.7694 41.1429H40.9893C41.9526 41.9646 42.5476 43.2112 42.5476 44.5714L42.6893 48H49.7163V44.0615C49.7163 42.4463 48.4129 41.1429 46.7694 41.1429L46.7694 41.1429Z" fill="white"/>
<path d="M47.4776 24.737C46.7692 22.0736 44.049 20.4584 41.3576 21.1668C38.694 21.8752 37.079 24.6236 37.7874 27.2868C38.1275 28.5619 38.9207 29.5818 39.9408 30.2337L38.6374 32.2454L43.9359 30.857C46.5995 30.1486 48.1861 27.4287 47.4778 24.737H47.4776ZM44.7857 25.5304L43.114 27.2587L41.8106 26.3804L40.3941 28.0521L39.6857 27.4288L41.6975 25.1338L43.0292 26.0121L44.0208 24.992L43.2273 24.5388L45.4373 23.7739L45.579 26.0123L44.7857 25.5304Z" fill="white"/>
<defs>
<filter id="filter0_d_467_609" x="0" y="0" width="78" height="78" filterUnits="userSpaceOnUse" color-interpolation-filters="sRGB">
<feFlood flood-opacity="0" result="BackgroundImageFix"/>
<feColorMatrix in="SourceAlpha" type="matrix" values="0 0 0 0 0 0 0 0 0 0 0 0 0 0 0 0 0 0 127 0" result="hardAlpha"/>
<feMorphology radius="3" operator="dilate" in="SourceAlpha" result="effect1_dropShadow_467_609"/>
<feOffset dx="1" dy="4"/>
<feGaussianBlur stdDeviation="5.5"/>
<feComposite in2="hardAlpha" operator="out"/>
<feColorMatrix type="matrix" values="0 0 0 0 0 0 0 0 0 0 0 0 0 0 0 0 0 0 0.05 0"/>
<feBlend mode="normal" in2="BackgroundImageFix" result="effect1_dropShadow_467_609"/>
<feBlend mode="normal" in="SourceGraphic" in2="effect1_dropShadow_467_609" result="shape"/>
</filter>
</defs>
</svg>
