<svg width="974" height="957" viewBox="0 0 974 957" fill="none" xmlns="http://www.w3.org/2000/svg">
<path d="M949.333 422.421C948.589 550.044 917.334 678.663 822.271 763.021C727.536 847.088 597.251 860.682 471.736 846.244C333.547 830.35 189.244 796.659 110.517 681.166C23.0125 552.805 -16.2841 376.423 58.7663 240.419C128.773 113.556 299.998 120.868 439.63 84.76C571.809 50.5781 712.41 -33.6653 826.481 41.8973C942.92 119.038 950.152 282.131 949.333 422.421Z" fill="#DBF6DD"/>
<path opacity="0.01" d="M595.926 280.901L605.378 307.01C614.829 333.12 633.733 385.338 588.619 443.157C543.505 500.977 434.375 564.397 439.052 617.86C443.729 671.323 562.215 714.829 552.666 769.537C543.118 824.244 405.535 890.154 336.744 923.108L267.952 956.063" stroke="white" stroke-width="2"/>
<path opacity="0.0621053" d="M617.478 292.184L624.516 318.778C631.553 345.372 645.629 398.561 596.365 451.749C547.102 504.937 434.501 558.125 434.501 611.313C434.501 664.501 547.102 717.689 533.027 770.878C518.952 824.066 378.2 877.254 307.824 903.848L237.448 930.442" stroke="white" stroke-width="2"/>
<path opacity="0.114211" d="M637.246 304.536L641.858 331.395C646.469 358.254 655.693 411.971 602.738 460.248C549.784 508.526 434.652 551.363 430.059 603.872C425.465 656.38 531.409 718.559 512.997 769.859C494.586 821.158 351.82 861.578 280.437 881.788L209.054 901.998" stroke="white" stroke-width="2"/>
<path opacity="0.166316" d="M655.184 317.802L657.377 344.707C659.571 371.612 663.959 425.421 607.789 468.552C551.619 511.683 434.892 544.137 425.822 595.573C416.752 647.009 515.341 717.428 492.814 766.492C470.287 815.555 326.645 843.263 254.824 857.117L183.003 870.97" stroke="white" stroke-width="2"/>
<path opacity="0.218421" d="M671.261 331.825L671.064 358.561C670.868 385.296 670.475 438.767 611.577 476.562C552.679 514.356 435.277 536.474 421.883 586.462C408.489 636.449 499.103 714.305 472.708 760.809C446.313 807.312 302.909 822.464 231.207 830.039L159.504 837.615" stroke="white" stroke-width="2"/>
<path opacity="0.270526" d="M685.459 346.452L682.919 372.808C680.378 399.164 675.298 451.877 614.169 484.19C553.04 516.503 435.863 528.416 418.327 576.595C400.791 624.775 482.896 709.22 452.905 752.867C422.914 796.513 280.827 799.359 209.784 800.782L138.74 802.206" stroke="white" stroke-width="2"/>
<path opacity="0.322632" d="M697.773 361.531L692.953 387.305C688.133 413.079 678.494 464.627 615.635 491.359C552.776 518.09 436.697 520.005 415.231 566.038C393.765 612.071 466.913 702.224 433.621 742.742C400.328 783.261 260.596 774.146 190.73 769.588L120.863 765.03" stroke="white" stroke-width="2"/>
<path opacity="0.374737" d="M708.208 376.913L701.191 401.91C694.175 426.907 680.142 476.902 616.053 497.997C551.965 519.092 437.822 511.288 412.665 554.86C387.509 598.433 451.339 693.382 415.059 730.532C378.779 767.682 242.389 747.034 174.194 736.71L105.999 726.386" stroke="white" stroke-width="2"/>
<path opacity="0.426842" d="M716.781 392.455L707.666 416.491C698.551 440.526 680.321 488.597 615.501 504.046C550.681 519.495 439.272 502.321 410.688 543.142C382.105 583.964 436.347 682.781 397.41 716.353C358.473 749.925 226.358 718.253 160.3 702.416L94.2418 686.58" stroke="white" stroke-width="2"/>
<path opacity="0.478947" d="M723.521 408.019L712.421 430.919C701.321 453.819 679.122 499.619 614.06 509.454C548.999 519.289 441.075 493.159 409.351 530.967C377.626 568.775 422.1 670.521 380.851 700.337C339.601 730.152 212.628 688.038 149.142 666.98L85.6556 645.923" stroke="white" stroke-width="2"/>
<path opacity="0.531053" d="M728.464 423.471L715.508 445.075C702.551 466.678 676.638 509.886 611.813 514.182C546.989 518.478 443.253 483.863 408.693 518.423C374.133 552.983 408.748 656.719 365.541 682.632C322.333 708.545 201.304 656.636 140.789 630.682L80.2745 604.727" stroke="white" stroke-width="2"/>
<path opacity="0.583158" d="M731.658 438.685L716.985 458.844C702.312 479.004 672.967 519.323 608.844 518.195C544.72 517.067 445.818 474.492 408.744 505.6C371.671 536.709 396.425 641.501 351.623 663.4C306.82 685.298 192.461 624.302 135.282 593.804L78.1027 563.306" stroke="white" stroke-width="2"/>
<path opacity="0.635263" d="M733.156 453.543L716.919 472.125C700.683 490.708 668.21 527.873 605.233 521.474C542.256 515.075 448.776 465.111 409.524 492.596C370.273 520.08 385.25 625.012 339.22 642.815C293.19 660.618 186.152 591.293 132.633 556.63L79.1138 521.968" stroke="white" stroke-width="2"/>
<path opacity="0.687368" d="M733.019 467.93L715.381 484.818C697.743 501.706 662.467 535.483 601.062 524.001C539.656 512.52 452.122 455.782 411.039 479.501C369.957 503.22 375.326 607.396 328.437 621.058C281.548 634.72 182.4 557.867 132.826 519.441L83.2523 481.014" stroke="white" stroke-width="2"/>
<path opacity="0.739474" d="M731.318 481.745L712.449 496.837C693.58 511.93 655.842 542.115 596.409 525.774C536.976 509.433 455.847 446.566 413.288 466.412C370.728 486.257 366.739 588.815 319.358 598.322C271.978 607.829 181.207 524.284 135.821 482.511L90.4359 440.739" stroke="white" stroke-width="2"/>
<path opacity="0.791579" d="M728.125 494.891L708.202 508.103C688.28 521.315 648.434 547.739 591.347 526.791C534.26 505.843 459.931 437.523 416.255 453.421C372.578 469.318 359.554 569.431 312.046 574.801C264.537 580.171 182.545 490.797 141.549 446.11L100.553 401.423" stroke="white" stroke-width="2"/>
<path opacity="0.843684" d="M723.518 507.279L702.725 518.543C681.931 529.808 640.344 552.336 585.949 527.062C531.554 501.788 464.35 428.712 419.916 440.618C375.483 452.523 353.821 549.412 306.542 550.695C259.262 551.978 186.365 457.656 149.917 410.495L113.469 363.333" stroke="white" stroke-width="2"/>
<path opacity="0.895789" d="M717.58 518.831L696.102 528.098C674.624 537.364 631.668 555.897 580.279 526.603C528.89 497.308 469.068 420.186 424.238 428.09C379.408 435.995 349.571 528.927 302.867 526.203C256.163 523.479 192.593 425.1 160.808 375.911L129.022 326.721" stroke="white" stroke-width="2"/>
<path opacity="0.947895" d="M710.396 529.475L688.422 536.711C666.448 543.947 622.5 558.42 574.4 525.431C526.299 492.443 474.047 411.994 429.176 415.919C384.305 419.845 346.816 508.146 301.023 501.525C255.229 494.903 201.131 393.36 174.082 342.589L147.033 291.817" stroke="white" stroke-width="2"/>
<path d="M702.054 539.148L679.772 544.339C657.491 549.53 612.928 559.912 568.365 523.575C523.802 487.238 479.239 404.182 434.676 404.182C390.113 404.182 345.55 487.238 300.987 476.856C256.424 466.474 211.861 362.654 189.579 310.744L167.298 258.834" stroke="white" stroke-width="2"/>
</svg>
