<svg width="749" height="907" viewBox="0 0 749 907" fill="none" xmlns="http://www.w3.org/2000/svg">
<path d="M913.632 405.074C912.919 527.42 882.956 650.721 791.824 731.592C701.005 812.183 576.107 825.214 455.782 811.373C323.307 796.137 184.97 763.838 109.499 653.121C25.6123 530.067 -12.0595 360.978 59.8878 230.598C127 108.98 291.145 115.989 425.004 81.3743C551.718 48.6057 686.505 -32.1544 795.86 40.2838C907.485 114.235 914.417 270.585 913.632 405.074Z" fill="#DBF6DD"/>
<path opacity="0.01" d="M329.177 230.899L319.725 257.008C310.273 283.117 291.37 335.336 336.484 393.155C381.597 450.974 490.728 514.394 486.051 567.857C481.373 621.32 362.888 664.827 372.436 719.534C381.985 774.242 519.568 840.151 588.359 873.106L657.151 906.06" stroke="white" stroke-width="2"/>
<path opacity="0.0621053" d="M307.625 242.182L300.587 268.776C293.549 295.37 279.474 348.558 328.737 401.747C378 454.935 490.602 508.123 490.602 561.311C490.602 614.499 378 667.687 392.076 720.875C406.151 774.063 546.903 827.252 617.279 853.846L687.655 880.44" stroke="white" stroke-width="2"/>
<path opacity="0.114211" d="M287.857 254.534L283.245 281.393C278.634 308.251 269.41 361.969 322.364 410.246C375.319 458.523 490.45 501.361 495.044 553.869C499.638 606.378 393.694 668.557 412.105 719.856C430.516 771.156 573.283 811.576 644.666 831.786L716.049 851.996" stroke="white" stroke-width="2"/>
<path opacity="0.166316" d="M269.919 267.8L267.725 294.705C265.531 321.609 261.144 375.418 317.314 418.55C373.484 461.681 490.211 494.134 499.281 545.57C508.35 597.007 409.762 667.426 432.289 716.489C454.816 765.553 598.458 793.26 670.279 807.114L742.1 820.968" stroke="white" stroke-width="2"/>
<path opacity="0.218421" d="M253.842 281.823L254.039 308.558C254.235 335.294 254.628 388.765 313.526 426.559C372.423 464.354 489.826 486.472 503.22 536.46C516.614 586.447 426 664.303 452.395 710.807C478.79 757.31 622.194 772.461 693.896 780.037L765.598 787.613" stroke="white" stroke-width="2"/>
<path opacity="0.270526" d="M239.644 296.45L242.184 322.806C244.725 349.162 249.805 401.875 310.934 434.188C372.063 466.501 489.24 478.414 506.776 526.593C524.312 574.772 442.206 659.218 472.197 702.864C502.188 746.51 644.276 749.357 715.319 750.78L786.363 752.203" stroke="white" stroke-width="2"/>
<path opacity="0.322632" d="M227.33 311.528L232.15 337.302C236.969 363.077 246.608 414.625 309.467 441.356C372.327 468.088 488.406 470.002 509.872 516.036C531.337 562.069 458.19 652.221 491.482 692.74C524.774 733.258 664.507 724.143 734.373 719.586L804.24 715.028" stroke="white" stroke-width="2"/>
<path opacity="0.374737" d="M216.895 326.91L223.911 351.908C230.928 376.905 244.961 426.899 309.049 447.995C373.138 469.09 487.281 461.286 512.437 504.858C537.594 548.431 473.764 643.379 510.044 680.53C546.324 717.68 682.714 697.032 750.908 686.708L819.103 676.384" stroke="white" stroke-width="2"/>
<path opacity="0.426842" d="M208.321 342.453L217.436 366.489C226.552 390.524 244.782 438.595 309.602 454.044C374.422 469.492 485.831 452.319 514.415 493.14C542.998 533.962 488.756 632.779 527.693 666.351C566.63 699.923 698.745 668.25 764.803 652.414L830.861 636.578" stroke="white" stroke-width="2"/>
<path opacity="0.478947" d="M201.582 358.017L212.682 380.917C223.781 403.817 245.981 449.617 311.043 459.452C376.104 469.287 484.027 443.157 515.752 480.965C547.477 518.773 503.003 620.519 544.252 650.334C585.502 680.15 712.474 638.035 775.961 616.978L839.447 595.92" stroke="white" stroke-width="2"/>
<path opacity="0.531053" d="M196.638 373.469L209.595 395.073C222.552 416.676 248.465 459.883 313.29 464.179C378.114 468.475 481.85 433.86 516.41 468.421C550.97 502.981 516.355 606.716 559.562 632.63C602.769 658.543 723.799 606.634 784.314 580.68L844.828 554.725" stroke="white" stroke-width="2"/>
<path opacity="0.583158" d="M193.445 388.682L208.118 408.842C222.79 429.002 252.136 469.321 316.259 468.193C380.383 467.065 479.285 424.489 516.358 455.598C553.432 486.707 528.678 591.499 573.48 613.397C618.283 635.295 732.641 574.299 789.821 543.801L847 513.303" stroke="white" stroke-width="2"/>
<path opacity="0.635263" d="M191.947 403.54L208.184 422.123C224.42 440.705 256.893 477.87 319.87 471.471C382.846 465.072 476.327 415.109 515.579 442.593C554.83 470.077 539.852 575.009 585.883 592.812C631.913 610.616 738.951 541.29 792.47 506.628L845.989 471.965" stroke="white" stroke-width="2"/>
<path opacity="0.687368" d="M192.083 417.928L209.721 434.816C227.359 451.704 262.635 485.48 324.041 473.999C385.446 462.518 472.981 405.779 514.064 429.498C555.146 453.217 549.776 557.394 596.666 571.056C643.555 584.718 742.702 507.865 792.276 469.438L841.85 431.012" stroke="white" stroke-width="2"/>
<path opacity="0.739474" d="M193.785 431.743L212.654 446.835C231.523 461.927 269.261 492.112 328.694 475.771C388.127 459.43 469.256 396.563 511.815 416.409C554.374 436.255 558.364 538.813 605.744 548.319C653.125 557.826 743.896 474.281 789.281 432.509L834.667 390.736" stroke="white" stroke-width="2"/>
<path opacity="0.791579" d="M196.978 444.888L216.901 458.1C236.823 471.312 276.668 497.737 333.755 476.789C390.842 455.841 465.171 387.521 508.848 403.418C552.525 419.315 565.549 519.429 613.057 524.799C660.565 530.169 742.557 440.795 783.554 396.108L824.55 351.421" stroke="white" stroke-width="2"/>
<path opacity="0.843684" d="M201.585 457.277L222.378 468.541C243.171 479.805 284.758 502.334 339.154 477.06C393.549 451.786 460.753 378.709 505.186 390.615C549.619 402.521 571.282 499.409 618.561 500.692C665.84 501.975 738.737 407.653 775.186 360.492L811.634 313.331" stroke="white" stroke-width="2"/>
<path opacity="0.895789" d="M207.523 468.829L229.001 478.095C250.479 487.362 293.434 505.895 344.823 476.6C396.212 447.306 456.035 370.183 500.865 378.088C545.694 385.993 575.532 478.924 622.236 476.201C668.939 473.477 732.51 375.098 764.295 325.908L796.08 276.719" stroke="white" stroke-width="2"/>
<path opacity="0.947895" d="M214.707 479.472L236.681 486.709C258.655 493.945 302.603 508.418 350.703 475.429C398.803 442.441 451.056 361.991 495.927 365.917C540.798 369.843 578.287 458.143 624.08 451.522C669.874 444.901 723.972 343.358 751.021 292.586L778.07 241.815" stroke="white" stroke-width="2"/>
<path d="M223.049 489.145L245.33 494.336C267.612 499.527 312.175 509.909 356.738 473.572C401.301 437.235 445.864 354.18 490.427 354.18C534.99 354.18 579.553 437.235 624.116 426.853C668.679 416.471 713.242 312.652 735.524 260.742L757.805 208.832" stroke="white" stroke-width="2"/>
<rect y="252" width="538" height="452"/>
</svg>
