<svg width="78" height="78" viewBox="0 0 78 78" fill="none" xmlns="http://www.w3.org/2000/svg">
<g filter="url(#filter0_d_467_611)">
<rect x="13" y="10" width="50" height="50" rx="16.5" fill="#009743"/>
</g>
<path d="M40.2927 33.6377C40.2927 34.9232 39.2505 35.9654 37.965 35.9654C36.6795 35.9654 35.6376 34.9232 35.6376 33.6377C35.6376 32.3522 36.6795 31.31 37.965 31.31C39.2505 31.31 40.2927 32.3522 40.2927 33.6377Z" fill="white"/>
<path d="M39.2281 37.0965C38.8268 36.9685 38.4032 36.8962 37.965 36.8962C37.5268 36.8962 37.1035 36.9685 36.7021 37.0965L37.965 40.6336L39.2281 37.0965Z" fill="white"/>
<path d="M33.9238 39.991C34.839 40.8155 36.0028 41.3677 37.291 41.5114L35.8497 37.4753C34.9223 38.0199 34.2153 38.9125 33.9238 39.991Z" fill="white"/>
<path d="M40.0815 37.4759L38.6403 41.512C39.9285 41.3682 41.0921 40.8161 42.0074 39.9916C41.7155 38.913 41.0085 38.0204 40.0815 37.4759Z" fill="white"/>
<path d="M36.1151 36.3177C35.265 35.7286 34.7064 34.7478 34.7064 33.638C34.7064 31.8412 36.1686 30.3794 37.965 30.3794C39.7614 30.3794 41.2236 31.8411 41.2236 33.638C41.2236 34.7478 40.665 35.7286 39.815 36.3177C41.1334 36.832 42.2053 37.8772 42.732 39.2155C43.5341 38.1885 44.017 36.9008 44.017 35.5C44.017 32.163 41.302 29.4483 37.9653 29.4483C34.6283 29.4483 31.9136 32.1633 31.9136 35.5C31.9136 36.9008 32.3962 38.1884 33.1983 39.2155C33.7247 37.8772 34.7972 36.832 36.1151 36.3177Z" fill="white"/>
<path d="M46.2046 26.993C45.7232 26.5662 45.4138 25.9509 45.4138 25.2586C45.4138 23.9751 46.458 22.9309 47.7415 22.9309C49.025 22.9309 50.0692 23.9751 50.0692 25.2586C50.0692 25.9509 49.7596 26.5662 49.2784 26.993C49.8068 27.2331 50.2742 27.5949 50.6429 28.0534C51.156 27.4154 51.4656 26.6054 51.4656 25.7243C51.4656 23.6708 49.7948 22 47.7413 22C45.6879 22 44.0171 23.6708 44.0171 25.7243C44.0171 26.6055 44.3262 27.4155 44.8401 28.0537C45.209 27.5946 45.6764 27.2334 46.2047 26.993H46.2046Z" fill="white"/>
<path d="M49.1374 25.2586C49.1374 26.03 48.5122 26.6552 47.7408 26.6552C46.9696 26.6552 46.3442 26.03 46.3442 25.2586C46.3442 24.4875 46.9697 23.8621 47.7408 23.8621C48.5122 23.8621 49.1374 24.4875 49.1374 25.2586Z" fill="white"/>
<path d="M45.5107 28.6986C46.133 29.167 46.9039 29.4481 47.7414 29.4481C48.5788 29.4481 49.3497 29.167 49.9722 28.6991C49.4486 28.0046 48.6246 27.5861 47.7414 27.5861C46.8584 27.5861 46.0344 28.0046 45.5107 28.6986V28.6986Z" fill="white"/>
<path d="M28.1894 47.1377C27.3062 47.1377 26.4824 47.5562 25.9585 48.2502C26.581 48.7188 27.3518 49 28.1894 49C29.0269 49 29.7978 48.7188 30.4203 48.251C29.8963 47.5562 29.0723 47.1378 28.1894 47.1378V47.1377Z" fill="white"/>
<path d="M28.1891 41.5519C26.1356 41.5519 24.4648 43.2227 24.4648 45.2761C24.4648 46.1574 24.774 46.9674 25.2878 47.6055C25.6565 47.1465 26.1239 46.7847 26.6523 46.5452C26.1711 46.1181 25.8615 45.5027 25.8615 44.8105C25.8615 43.527 26.9057 42.4828 28.1892 42.4828C29.4727 42.4828 30.5169 43.527 30.5169 44.8105C30.5169 45.5027 30.2072 46.1181 29.7261 46.5449C30.2544 46.785 30.7218 47.1468 31.0905 47.6053C31.6036 46.9671 31.9132 46.1571 31.9132 45.2759C31.9132 43.2224 30.2424 41.5519 28.1892 41.5519H28.1891Z" fill="white"/>
<path d="M29.5861 44.8106C29.5861 45.5818 28.9607 46.2072 28.1895 46.2072C27.4181 46.2072 26.793 45.5818 26.793 44.8106C26.793 44.0392 27.4181 43.4141 28.1895 43.4141C28.9607 43.4141 29.5861 44.0392 29.5861 44.8106Z" fill="white"/>
<path d="M25.9945 25.0975L32.3113 31.4144C32.4947 31.161 32.6935 30.9204 32.9083 30.6946L26.6528 24.4394C26.7405 24.2576 26.7931 24.0558 26.7931 23.8413C26.7931 23.0714 26.1665 22.4447 25.3966 22.4447C24.6267 22.4447 24 23.0714 24 23.8413C24 24.6112 24.6266 25.2378 25.3966 25.2378C25.6116 25.2378 25.8126 25.1847 25.9947 25.0977L25.9945 25.0975Z" fill="white"/>
<path d="M35.9163 26.9395L35.3572 29.0259C35.6956 28.8895 36.047 28.7802 36.4088 28.6979L36.8381 27.0961C37.4898 26.9784 37.987 26.41 37.987 25.7246C37.987 24.9547 37.3603 24.328 36.5904 24.328C35.8205 24.328 35.1938 24.9547 35.1938 25.7246C35.1938 26.2485 35.4875 26.7007 35.9163 26.9395L35.9163 26.9395Z" fill="white"/>
<path d="M32.2458 25.7084L33.445 30.1829C33.6984 29.9674 33.9682 29.7723 34.2509 29.5941L33.1536 25.4995C33.5395 25.2513 33.797 24.8197 33.797 24.3278C33.797 23.5579 33.1704 22.9312 32.4005 22.9312C31.6306 22.9312 31.0039 23.5579 31.0039 24.3278C31.0039 25.0451 31.549 25.6307 32.2459 25.7083L32.2458 25.7084Z" fill="white"/>
<path d="M28.6509 35.2828L31.0405 34.6426C31.0833 34.2944 31.1528 33.9545 31.245 33.624L28.4951 34.3605C28.2559 33.9317 27.8035 33.6381 27.2794 33.6381C26.5095 33.6381 25.8828 34.2647 25.8828 35.0346C25.8828 35.8045 26.5095 36.4312 27.2794 36.4312C27.9645 36.4312 28.5329 35.9345 28.6509 35.2828Z" fill="white"/>
<path d="M27.2642 30.6903C27.1863 29.9934 26.6007 29.4478 25.8834 29.4478C25.1135 29.4478 24.4868 30.0745 24.4868 30.8444C24.4868 31.6143 25.1135 32.2409 25.8834 32.2409C26.3754 32.2409 26.8069 31.9839 27.0556 31.598L31.5264 32.7958C31.6503 32.5012 31.7997 32.221 31.9606 31.9485L27.2642 30.6903Z" fill="white"/>
<path d="M50.5344 45.7411C50.3193 45.7411 50.1181 45.7937 49.9362 45.8812L43.6282 39.5737C43.4453 39.8273 43.247 40.0682 43.0322 40.2942L49.2771 46.5392C49.1901 46.7217 49.1375 46.9228 49.1375 47.1378C49.1375 47.9077 49.7642 48.5343 50.5341 48.5343C51.304 48.5343 51.9307 47.9077 51.9307 47.1378C51.9307 46.3679 51.304 45.7412 50.5341 45.7412L50.5344 45.7411Z" fill="white"/>
<path d="M40.014 44.0393L40.567 41.9766C40.2286 42.1125 39.8776 42.2218 39.5154 42.3044L39.0922 43.8836C38.4405 44.0013 37.9438 44.5697 37.9438 45.2551C37.9438 46.025 38.5705 46.6516 39.3404 46.6516C40.1103 46.6516 40.737 46.025 40.737 45.2551C40.7365 44.7302 40.4428 44.2778 40.014 44.0394L40.014 44.0393Z" fill="white"/>
<path d="M43.6845 45.2699L42.4899 40.8121C42.2365 41.0281 41.9667 41.2237 41.6841 41.4019L42.7767 45.4785C42.3908 45.7272 42.1333 46.1587 42.1333 46.6508C42.1333 47.4207 42.7599 48.0473 43.5298 48.0473C44.2997 48.0473 44.9264 47.4207 44.9264 46.6508C44.9264 45.9339 44.3813 45.3483 43.6844 45.2699L43.6845 45.2699Z" fill="white"/>
<path d="M47.2791 35.6961L44.8934 36.3353C44.8519 36.6835 44.7821 37.0229 44.6914 37.3534L47.4351 36.6184C47.674 37.0472 48.1259 37.3408 48.6506 37.3408C49.4205 37.3408 50.0471 36.7142 50.0471 35.9443C50.0471 35.1744 49.4205 34.5477 48.6506 34.5477C47.9652 34.5475 47.3968 35.0444 47.2791 35.6961H47.2791Z" fill="white"/>
<path d="M48.6666 40.288C48.7442 40.9849 49.3304 41.5305 50.0477 41.5305C50.8176 41.5305 51.4442 40.9038 51.4442 40.1339C51.4442 39.364 50.8176 38.7374 50.0477 38.7374C49.5557 38.7374 49.1241 38.9949 48.8755 39.3803L44.412 38.1842C44.2891 38.4789 44.1419 38.76 43.9814 39.0327L48.6666 40.288Z" fill="white"/>
<path d="M44.6892 33.6377H46.8102C47.5801 33.6377 48.2068 33.0111 48.2068 32.2411V30.3558C48.0534 30.3708 47.8984 30.3791 47.7411 30.3791C47.5838 30.3791 47.4287 30.3708 47.2756 30.3558V32.2411C47.2756 32.4977 47.067 32.7066 46.8102 32.7066H44.3633C44.494 33.0064 44.6007 33.318 44.6891 33.6377L44.6892 33.6377Z" fill="white"/>
<path d="M28.6552 40.6441V38.7587C28.6552 38.5021 28.8638 38.2933 29.1206 38.2933H31.5676C31.4368 37.9935 31.3297 37.6821 31.2412 37.3621H29.1207C28.3508 37.3621 27.7241 37.9888 27.7241 38.7587V40.6441C27.8772 40.6286 28.0323 40.6207 28.1896 40.6207C28.3471 40.6207 28.5022 40.6291 28.6552 40.6441L28.6552 40.6441Z" fill="white"/>
<defs>
<filter id="filter0_d_467_611" x="0" y="0" width="78" height="78" filterUnits="userSpaceOnUse" color-interpolation-filters="sRGB">
<feFlood flood-opacity="0" result="BackgroundImageFix"/>
<feColorMatrix in="SourceAlpha" type="matrix" values="0 0 0 0 0 0 0 0 0 0 0 0 0 0 0 0 0 0 127 0" result="hardAlpha"/>
<feMorphology radius="3" operator="dilate" in="SourceAlpha" result="effect1_dropShadow_467_611"/>
<feOffset dx="1" dy="4"/>
<feGaussianBlur stdDeviation="5.5"/>
<feComposite in2="hardAlpha" operator="out"/>
<feColorMatrix type="matrix" values="0 0 0 0 0 0 0 0 0 0 0 0 0 0 0 0 0 0 0.05 0"/>
<feBlend mode="normal" in2="BackgroundImageFix" result="effect1_dropShadow_467_611"/>
<feBlend mode="normal" in="SourceGraphic" in2="effect1_dropShadow_467_611" result="shape"/>
</filter>
</defs>
</svg>
