<svg width="78" height="78" viewBox="0 0 78 78" fill="none" xmlns="http://www.w3.org/2000/svg">
<g filter="url(#filter0_d_12_1922)">
<rect x="13" y="10" width="50" height="50" rx="16.5" fill="#009743"/>
</g>
<path d="M51.3903 37.0936C50.8361 37.0618 49.7279 37.7293 49.4069 37.8885C48.2987 38.4927 46.7819 39.4463 45.7902 40.1777C45.732 40.2413 45.6153 40.3048 45.5568 40.3366C45.1193 40.6545 44.6236 40.8772 44.0985 40.9726C41.1819 41.6403 36.9531 41.7354 36.9531 41.7354H36.7197C36.5448 41.7354 36.3698 41.6083 36.3407 41.4176C36.3116 41.1951 36.4574 41.0044 36.6615 40.9726L42.9614 40.3048C43.6615 40.2094 44.2154 39.5099 44.128 38.7152C44.0404 37.9203 43.3698 37.3481 42.6988 37.4118L37.0991 37.3482C36.7198 37.3482 36.1074 37.2528 35.7284 37.1257C32.1118 35.9811 30.0704 37.0621 28.9912 37.5707C28.7578 37.1257 28.2911 36.8394 27.7663 36.9029L25.3456 37.0937C24.5291 37.1572 23.9456 37.8886 24.004 38.715L24.3833 44.565C24.4415 45.4235 25.1416 46.0592 25.9292 45.9956L28.3498 45.8049C28.8456 45.7731 29.283 45.4235 29.4583 44.9467L40.1039 45.4553C41.2997 45.5824 42.4081 45.4235 43.4289 44.8513L43.7205 44.6924L51.7411 39.5738C52.1495 39.3195 52.4118 38.8742 52.4412 38.3974C52.47 37.7932 52.149 37.1573 51.3908 37.0937L51.3903 37.0936ZM26.8621 44.5968C26.3954 44.5968 26.0453 44.2153 26.0453 43.7383C26.0453 43.2615 26.4246 42.8799 26.8621 42.8799C27.3287 42.8799 27.6786 43.2613 27.6786 43.7383C27.6786 44.2154 27.2996 44.5968 26.8621 44.5968ZM45.3239 38.2782C46.1698 37.7696 47.8322 36.9111 48.7363 36.5297C49.2029 36.339 49.6404 36.339 50.0487 36.6569C49.728 36.784 49.4363 36.943 49.1446 37.1019C48.1821 37.6105 46.5197 38.6279 45.7032 39.2321C45.6159 39.2957 45.5283 39.3592 45.4407 39.4228V38.946C45.4115 38.7553 45.3824 38.5328 45.324 38.3421C45.2948 38.31 45.2948 38.2782 45.324 38.2782L45.3239 38.2782ZM44.1864 36.8158C44.7406 36.4979 45.9946 36.0527 46.5488 35.8302C46.9863 35.6395 47.4238 35.6394 47.8322 35.9255C47.1906 36.2434 45.9073 36.7204 45.3239 37.0701L44.9447 37.3244C44.9155 37.3562 44.8571 37.388 44.828 37.4198C44.6532 37.1655 44.4198 36.9747 44.1864 36.8158L44.1864 36.8158ZM39.5783 28.4536C39.3886 28.4536 39.2367 28.5283 39.1229 28.6404C39.0091 28.7525 38.971 28.8644 38.971 29.0138C38.971 29.1633 39.0088 29.2752 39.1229 29.3499C39.1988 29.4246 39.3886 29.4994 39.6164 29.6112V28.4535L39.5783 28.4536ZM40.679 31.0921C40.679 30.9354 40.6411 30.8179 40.5271 30.7002C40.4133 30.6219 40.2614 30.5044 39.9957 30.426V31.6801C40.2235 31.6408 40.3752 31.6017 40.4892 31.4843C40.6411 31.3666 40.679 31.2489 40.679 31.0921V31.0921ZM39.7303 34.4141C42.0456 34.4141 43.9052 32.4856 43.9052 30.1715C43.9052 27.8185 42.0075 25.9288 39.7303 25.9288C37.415 25.9288 35.5553 27.8574 35.5553 30.1715C35.5172 32.4856 37.415 34.4141 39.7303 34.4141ZM38.4777 29.94C38.2499 29.7471 38.1361 29.4385 38.1361 29.0529C38.1361 28.6671 38.288 28.3587 38.5537 28.0887C38.8194 27.8572 39.161 27.7029 39.6164 27.6645V27.3173H40.034V27.6645C40.5273 27.7031 40.9828 27.8574 41.4382 28.1658L41.0208 28.7829C40.7173 28.5514 40.4135 28.4357 40.0719 28.3971V29.67H40.11C40.6414 29.7857 40.9828 29.9401 41.2485 30.1713C41.4763 30.3642 41.628 30.6726 41.628 31.097C41.628 31.4828 41.4761 31.8298 41.2106 32.0612C40.9449 32.2927 40.5654 32.447 40.11 32.4856V32.9871H39.6924V32.4473C39.085 32.3701 38.5158 32.1386 38.0604 31.7145L38.5539 31.136C38.9334 31.4832 39.3129 31.6761 39.7305 31.7145V30.403C39.085 30.2872 38.7055 30.1329 38.4777 29.94L38.4777 29.94ZM39.7303 36.3425C43.1081 36.3425 45.803 33.5654 45.803 30.1712C45.803 26.7385 43.0703 24 39.7303 24C36.3524 24 33.6576 26.7771 33.6576 30.1712C33.6195 33.5654 36.3524 36.3425 39.7303 36.3425ZM39.7303 25.1185C42.4629 25.1185 44.6642 27.3557 44.6642 30.1328C44.6642 32.9099 42.4629 35.1471 39.7303 35.1471C36.9976 35.1471 34.796 32.9099 34.796 30.1328C34.7582 27.3557 36.9975 25.1185 39.7303 25.1185V25.1185Z" fill="white"/>
<defs>
<filter id="filter0_d_12_1922" x="0" y="0" width="78" height="78" filterUnits="userSpaceOnUse" color-interpolation-filters="sRGB">
<feFlood flood-opacity="0" result="BackgroundImageFix"/>
<feColorMatrix in="SourceAlpha" type="matrix" values="0 0 0 0 0 0 0 0 0 0 0 0 0 0 0 0 0 0 127 0" result="hardAlpha"/>
<feMorphology radius="3" operator="dilate" in="SourceAlpha" result="effect1_dropShadow_12_1922"/>
<feOffset dx="1" dy="4"/>
<feGaussianBlur stdDeviation="5.5"/>
<feComposite in2="hardAlpha" operator="out"/>
<feColorMatrix type="matrix" values="0 0 0 0 0 0 0 0 0 0 0 0 0 0 0 0 0 0 0.05 0"/>
<feBlend mode="normal" in2="BackgroundImageFix" result="effect1_dropShadow_12_1922"/>
<feBlend mode="normal" in="SourceGraphic" in2="effect1_dropShadow_12_1922" result="shape"/>
</filter>
</defs>
</svg>
