<svg width="78" height="78" viewBox="0 0 78 78" fill="none" xmlns="http://www.w3.org/2000/svg">
<g filter="url(#filter0_d_12_1944)">
<rect x="13" y="10" width="50" height="50" rx="16.5" fill="#009743"/>
</g>
<path d="M37.7439 21.3108C39.4306 21.3108 40.8029 22.6833 40.8029 24.3701C40.8029 26.0571 39.4304 27.4294 37.7439 27.4294C36.0568 27.4294 34.6846 26.0569 34.6846 24.3701C34.6843 22.6833 36.0568 21.3108 37.7439 21.3108Z" fill="white"/>
<path d="M44.4325 40.4466C44.4325 41.0038 43.9791 41.4572 43.4218 41.4572H41.9824V32.6789C41.9824 32.4129 41.7666 32.1972 41.5007 32.1972C41.2348 32.1972 41.019 32.4129 41.019 32.6789V42.1456L41.0187 48.724C41.0187 49.5247 40.3634 50.2273 39.6163 50.2273L39.5667 50.2265C38.8525 50.1981 38.2246 49.6013 38.2246 48.8302V41.8366C38.2246 41.5707 38.0088 41.3549 37.7429 41.3549C37.477 41.3549 37.2612 41.5707 37.2612 41.8366V48.8302C37.2612 49.6007 36.6344 50.2272 35.8641 50.2272C35.1141 50.2272 34.4671 49.6101 34.4671 48.8302L34.4668 42.0465V32.778C34.4668 32.512 34.2511 32.2963 33.9851 32.2963C33.7192 32.2963 33.5034 32.512 33.5034 32.778L33.5032 41.4569H32.064C31.5068 41.4569 31.0531 41.0035 31.0531 40.4463V33.6403C31.0531 31.1832 33.0519 29.1844 35.5089 29.1844H39.9769C42.4339 29.1844 44.4324 31.1832 44.4324 33.6403L44.4325 40.4466Z" fill="white"/>
<path d="M51.5184 19.9036L48.5317 19.899H48.5309C48.265 19.899 48.0495 20.1143 48.0492 20.3802C48.0487 20.6461 48.2641 20.8622 48.5304 20.8627L50.3565 20.8657L45.473 25.7492C45.2847 25.9375 45.2847 26.2422 45.473 26.4305C45.6612 26.6187 45.966 26.6187 46.1543 26.4305L51.0343 21.5501L51.0316 23.3715C51.0311 23.6374 51.2466 23.8534 51.5128 23.854H51.5136C51.7795 23.854 51.995 23.6387 51.9953 23.3728L51.9999 20.3861L51.9996 20.3858C51.9999 20.1201 51.7833 19.9036 51.5185 19.9036L51.5184 19.9036Z" fill="white"/>
<path d="M23.4904 23.3724C23.4909 23.6384 23.7064 23.8536 23.9721 23.8536H23.9726C24.2388 23.8531 24.4543 23.6373 24.4541 23.3711L24.4511 21.5498L29.3314 26.4301C29.5197 26.6184 29.8245 26.6184 30.0127 26.4301C30.201 26.2419 30.201 25.9371 30.0127 25.7488L25.1289 20.865L26.9551 20.8621C27.221 20.8615 27.4365 20.6458 27.4362 20.3796C27.4354 20.1139 27.2199 19.8987 26.9543 19.8987H26.9535L23.9667 19.9033C23.9613 19.9033 23.9567 19.9062 23.9514 19.9065C23.6725 19.9159 23.4856 20.142 23.4858 20.3855V20.3858L23.4904 23.3724Z" fill="white"/>
<path d="M29.3315 43.4769L24.4511 48.3572L24.4541 46.5362C24.4546 46.2702 24.2391 46.0542 23.9729 46.0537H23.9721C23.7062 46.0537 23.4907 46.2689 23.4904 46.5348L23.4858 49.5215C23.4856 49.7894 23.704 50.0038 23.9667 50.0038L26.9535 50.0084H26.9543C27.2202 50.0084 27.4357 49.7931 27.436 49.5272C27.4365 49.2613 27.221 49.0452 26.9548 49.0447L25.1286 49.0417L30.0125 44.1579C30.2007 43.9697 30.2007 43.6649 30.0125 43.4767C29.8245 43.2887 29.5197 43.2887 29.3314 43.4769L29.3315 43.4769Z" fill="white"/>
<path d="M51.995 46.5342C51.9945 46.2683 51.779 46.053 51.5133 46.053H51.5125C51.2466 46.0536 51.0311 46.2693 51.0314 46.5355L51.0341 48.3566L46.1543 43.4765C45.966 43.2883 45.6612 43.2883 45.473 43.4765C45.2847 43.6648 45.2847 43.9695 45.473 44.1578L50.3565 49.0416L48.5304 49.0446C48.2644 49.0451 48.0489 49.2609 48.0492 49.5271C48.0497 49.793 48.2652 50.0082 48.5309 50.0082H48.5317L51.5184 50.0037C51.5238 50.0037 51.5284 50.0007 51.5338 50.0004C51.79 49.9921 51.9996 49.7801 51.9993 49.5214V49.5212L51.995 46.5342Z" fill="white"/>
<defs>
<filter id="filter0_d_12_1944" x="0" y="0" width="78" height="78" filterUnits="userSpaceOnUse" color-interpolation-filters="sRGB">
<feFlood flood-opacity="0" result="BackgroundImageFix"/>
<feColorMatrix in="SourceAlpha" type="matrix" values="0 0 0 0 0 0 0 0 0 0 0 0 0 0 0 0 0 0 127 0" result="hardAlpha"/>
<feMorphology radius="3" operator="dilate" in="SourceAlpha" result="effect1_dropShadow_12_1944"/>
<feOffset dx="1" dy="4"/>
<feGaussianBlur stdDeviation="5.5"/>
<feComposite in2="hardAlpha" operator="out"/>
<feColorMatrix type="matrix" values="0 0 0 0 0 0 0 0 0 0 0 0 0 0 0 0 0 0 0.05 0"/>
<feBlend mode="normal" in2="BackgroundImageFix" result="effect1_dropShadow_12_1944"/>
<feBlend mode="normal" in="SourceGraphic" in2="effect1_dropShadow_12_1944" result="shape"/>
</filter>
</defs>
</svg>
