<svg width="78" height="78" viewBox="0 0 78 78" fill="none" xmlns="http://www.w3.org/2000/svg">
<g filter="url(#filter0_d_12_1929)">
<rect x="13" y="10" width="50" height="50" rx="16.5" fill="#009743"/>
</g>
<path d="M27.0095 29.1182L27.6074 28.0835L29.4475 29.1466L28.8496 30.1814L27.0095 29.1182Z" fill="white"/>
<path d="M25.7944 33.0542H27.9199V34.2491H25.7944V33.0542Z" fill="white"/>
<path d="M27.0101 38.1844L28.8517 37.1223L29.4488 38.1576L27.6072 39.2197L27.0101 38.1844Z" fill="white"/>
<path d="M47.2679 38.1553L47.866 37.1208L49.7051 38.1842L49.107 39.2187L47.2679 38.1553Z" fill="white"/>
<path d="M48.7938 34.2453L48.7965 33.0504L50.9227 33.0551L50.92 34.25L48.7938 34.2453Z" fill="white"/>
<path d="M47.2686 29.1441L49.1087 28.0847L49.7048 29.1205L47.8647 30.1799L47.2686 29.1441Z" fill="white"/>
<path d="M44.451 28.1164L46.2502 28.1591L47.8146 25.9754L50.4132 27.5795L49.3986 21.1112L43.1617 23.1029L45.776 24.7167L45.0432 25.7397L42.8319 25.6872L42.4029 26.789C41.222 26.1364 39.8538 25.7513 38.3803 25.7513C33.7634 25.7513 30.1728 29.5193 30.1728 33.5084C30.1728 36.0065 31.1634 37.338 32.2169 38.4018L31.0959 40.4942L28.0401 40.2141L25.8074 43.2015L27.7219 44.6323L29.1539 42.7158L32.4549 43.0187L33.9645 40.2002C34.3997 40.7769 34.6922 41.4312 34.6922 42.3074V45.0618C34.6922 46.1301 35.4609 46.9305 36.4872 46.9305H36.5846C36.7968 47.5527 37.3535 48 38.3801 48C39.4052 48 39.9619 47.5527 40.1743 46.9307H40.1909C41.219 46.9307 41.9876 46.1303 41.9876 45.0621V42.3077C41.9876 38.8581 46.5855 38.8444 46.5855 33.5084C46.5855 31.5899 45.7535 29.7239 44.3782 28.302L44.451 28.1164ZM35.5293 43.0023H41.1511V43.8158L35.5293 44.1187V43.0023ZM40.191 46.0943H40.1745C39.8167 46.0943 39.4983 46.322 39.3827 46.6609C39.3359 46.7984 39.2112 47.1636 38.38 47.1636C37.548 47.1636 37.4236 46.7984 37.3768 46.6611C37.2612 46.3223 36.943 46.0943 36.585 46.0943H36.4876C35.9233 46.0943 35.5293 45.6697 35.5293 45.0621V44.9563L41.1511 44.654V45.0623C41.1511 45.6698 40.7566 46.0943 40.191 46.0943H40.191ZM43.3422 38.3568C42.2926 39.339 41.2113 40.3563 41.1568 42.1661H35.5243C35.4706 40.361 34.4078 39.344 33.3764 38.3619C32.159 37.2027 31.0092 36.1079 31.0092 33.5084C31.0092 31.7896 31.782 30.0488 33.1295 28.7323C34.545 27.3493 36.41 26.5879 38.38 26.5879C40.3498 26.5879 42.214 27.3493 43.6293 28.7323C44.9765 30.0488 45.7491 31.7896 45.7491 33.5084C45.7493 36.1036 44.5798 37.198 43.3422 38.3568H43.3422Z" fill="white"/>
<path d="M38.3794 28.7316C35.6384 28.7316 33.4163 30.9539 33.4163 33.695C33.4163 36.4358 35.6381 38.6579 38.3794 38.6579C41.12 38.6579 43.3426 36.4355 43.3426 33.695C43.3423 30.9539 41.12 28.7316 38.3794 28.7316ZM39.8681 35.8869C39.6229 36.133 39.2762 36.2903 38.8361 36.3585L38.8376 37.2178L37.9413 37.2193L37.9403 36.3726C37.0835 36.2459 36.5095 35.6601 36.5064 34.8587L37.4026 34.855C37.4041 35.2545 37.7469 35.5024 38.2969 35.5024H38.3021C38.7447 35.5019 39.0749 35.414 39.2334 35.2548C39.2921 35.1959 39.3699 35.0901 39.3689 34.8533C39.3677 34.3957 39.0969 34.256 38.2268 34.044C37.5003 33.8666 36.5052 33.6236 36.5025 32.5073C36.5025 31.8419 36.9525 31.133 37.9279 30.9888L37.9269 30.1413L38.8231 30.1401L38.8244 31.0107C39.1701 31.0699 39.4685 31.1833 39.7041 31.3654C40.0609 31.6409 40.2581 32.0441 40.2586 32.5009L39.3623 32.5024C39.3621 32.3213 39.2948 32.1816 39.1561 32.0746C38.9705 31.9312 38.6592 31.8597 38.295 31.8568C37.4417 31.8585 37.3988 32.3982 37.3988 32.5064C37.3998 32.8652 37.6339 32.9765 38.4389 33.1732C39.1647 33.3504 40.2618 33.6182 40.2647 34.8507C40.2667 35.2661 40.1294 35.6247 39.8682 35.8869L39.8681 35.8869Z" fill="white"/>
<defs>
<filter id="filter0_d_12_1929" x="0" y="0" width="78" height="78" filterUnits="userSpaceOnUse" color-interpolation-filters="sRGB">
<feFlood flood-opacity="0" result="BackgroundImageFix"/>
<feColorMatrix in="SourceAlpha" type="matrix" values="0 0 0 0 0 0 0 0 0 0 0 0 0 0 0 0 0 0 127 0" result="hardAlpha"/>
<feMorphology radius="3" operator="dilate" in="SourceAlpha" result="effect1_dropShadow_12_1929"/>
<feOffset dx="1" dy="4"/>
<feGaussianBlur stdDeviation="5.5"/>
<feComposite in2="hardAlpha" operator="out"/>
<feColorMatrix type="matrix" values="0 0 0 0 0 0 0 0 0 0 0 0 0 0 0 0 0 0 0.05 0"/>
<feBlend mode="normal" in2="BackgroundImageFix" result="effect1_dropShadow_12_1929"/>
<feBlend mode="normal" in="SourceGraphic" in2="effect1_dropShadow_12_1929" result="shape"/>
</filter>
</defs>
</svg>
